<?xml version="1.0" encoding="UTF-8"?>
<svg id="Layer_1" data-name="Layer 1" xmlns="http://www.w3.org/2000/svg" version="1.1" xmlns:xlink="http://www.w3.org/1999/xlink" viewBox="0 0 243.78 243.78">
  <defs>
    <style>
      .cls-1 {
        fill: #fffcd5;
      }

      .cls-1, .cls-2, .cls-3, .cls-4, .cls-5, .cls-6, .cls-7, .cls-8, .cls-9, .cls-10, .cls-11, .cls-12 {
        stroke-width: 0px;
      }

      .cls-2 {
        fill: #231f20;
      }

      .cls-3 {
        fill: #0089cf;
      }

      .cls-4, .cls-13 {
        fill: none;
      }

      .cls-5 {
        fill: #6d6e70;
      }

      .cls-6 {
        fill: #ed1c24;
      }

      .cls-14 {
        clip-path: url(#clippath-1);
      }

      .cls-13 {
        stroke: #231f20;
        stroke-miterlimit: 22.93;
        stroke-width: .57px;
      }

      .cls-7 {
        fill: #8ed8f8;
      }

      .cls-8 {
        fill: #e1f4fd;
      }

      .cls-15 {
        clip-path: url(#clippath);
      }

      .cls-9 {
        fill: #485e88;
      }

      .cls-10 {
        fill: #f58220;
      }

      .cls-11 {
        fill: #fff;
      }

      .cls-12 {
        fill: #fed09e;
      }
    </style>
    <clipPath id="clippath">
      <rect class="cls-4" width="243.78" height="243.78"/>
    </clipPath>
    <clipPath id="clippath-1">
      <rect class="cls-4" width="243.78" height="243.78"/>
    </clipPath>
  </defs>
  <g class="cls-15">
    <rect class="cls-11" width="243.78" height="243.78"/>
    <rect class="cls-1" y="0" width="243.78" height="142.88"/>
    <g class="cls-14">
      <path class="cls-3" d="M135.02,78.87v-.42h.03c.11,0,.21,0,.29-.02.09-.02.16-.05.22-.09.06-.04.11-.11.15-.19.03-.08.05-.19.06-.33v-5.34l-2.27,6.39h-.53l-2.3-6.37v5.23c0,.16.02.28.05.38.03.09.08.16.14.21.07.06.14.09.23.1.09.02.19.03.3.03h.03v.42h-2.31v-.42h.13c.11,0,.22,0,.32-.02.09-.02.18-.05.26-.09.07-.05.13-.12.17-.21.05-.09.07-.2.07-.35v-4.95c0-.15-.02-.27-.07-.36-.04-.09-.1-.15-.17-.2-.08-.05-.17-.08-.26-.1-.1,0-.21-.02-.32-.02h-.13v-.42h2.28l2.05,5.72,2.03-5.72h2.26v.42h-.13c-.11,0-.22,0-.32.02-.1.02-.19.05-.26.1-.07.05-.13.13-.18.22-.04.1-.06.22-.06.38v4.86c0,.16.02.28.06.38.05.09.11.16.18.21.07.06.16.09.26.1.1.02.21.03.32.03h.13v.42h-2.71ZM140.69,73.91c-.19,0-.34.02-.46.08-.12.05-.21.13-.28.23-.07.09-.11.21-.14.34-.02.14-.03.28-.03.44-.28,0-.49-.05-.63-.14-.15-.1-.22-.26-.22-.49,0-.17.05-.32.14-.44.1-.12.23-.22.39-.3.16-.07.36-.13.57-.17.22-.03.45-.05.7-.05.31,0,.57.03.8.09.23.06.42.16.57.29.16.14.27.32.35.54.07.22.11.49.11.81v2.59c0,.14,0,.26.04.35.02.09.05.16.1.22.05.05.12.09.2.11.08.03.17.04.28.04h.03v.42h-1.35l-.16-.86h-.08c-.11.14-.21.27-.3.39-.1.11-.21.22-.33.3-.11.09-.25.15-.39.2-.15.05-.33.07-.54.07s-.42-.03-.61-.09c-.2-.07-.36-.17-.5-.3s-.24-.3-.32-.5c-.08-.2-.12-.44-.12-.71,0-.53.19-.92.57-1.18.37-.26.94-.4,1.71-.42l.83-.03v-.6c0-.18-.01-.35-.03-.5-.02-.15-.06-.28-.13-.39-.06-.11-.16-.19-.28-.25-.12-.06-.28-.09-.49-.09M139.48,77.42c0,.32.07.55.2.7.13.16.34.23.61.23.2,0,.39-.03.55-.09.16-.07.3-.16.42-.28.12-.12.2-.27.27-.44.06-.17.09-.36.09-.57v-.81l-.64.03c-.28,0-.52.05-.71.1-.19.06-.34.14-.46.24-.12.1-.2.23-.25.38-.05.15-.08.32-.08.51M145.63,78.97c-.25,0-.48-.02-.68-.07-.2-.04-.38-.11-.52-.2s-.25-.2-.33-.33c-.08-.13-.12-.29-.12-.46,0-.14.02-.25.07-.34.04-.09.09-.16.16-.21.06-.05.13-.09.2-.11.08-.02.14-.03.2-.03,0,.18.02.34.05.49.03.16.09.29.17.41.08.11.18.2.31.27.13.07.29.1.48.1.17,0,.32-.02.45-.07.13-.04.23-.1.32-.18.09-.08.15-.18.2-.29.05-.11.07-.23.07-.37,0-.12-.02-.23-.05-.32-.04-.09-.1-.17-.19-.25-.09-.08-.21-.16-.36-.24-.15-.08-.34-.17-.57-.28-.25-.11-.46-.22-.64-.33-.18-.1-.33-.22-.45-.34-.11-.13-.2-.27-.26-.42-.06-.16-.09-.35-.09-.57s.05-.43.13-.6c.09-.18.22-.33.39-.45.16-.12.36-.21.59-.27.23-.06.49-.09.77-.09.24,0,.45.02.63.07.18.05.34.12.46.2.12.08.22.18.28.29.06.12.09.23.09.36,0,.18-.06.33-.19.44-.12.1-.3.16-.53.16,0-.35-.07-.62-.19-.81-.13-.19-.33-.29-.61-.29-.15,0-.29.02-.4.06-.11.04-.2.1-.27.17-.07.08-.12.17-.16.27-.03.1-.05.22-.05.34,0,.13.02.24.07.33.04.09.11.18.2.26.1.07.22.15.37.22.15.08.33.16.54.25.25.11.47.22.65.33.18.1.32.22.44.35.12.13.2.27.26.43.05.16.08.34.08.55,0,.26-.05.49-.14.68-.09.2-.23.36-.4.5-.17.13-.38.23-.62.29-.25.07-.51.1-.81.1M151.33,75.65l1.33,1.98c.18.27.35.47.52.61.17.14.37.21.59.21h.03v.42h-.14c-.29,0-.53,0-.72-.03-.18-.02-.35-.06-.48-.12-.14-.07-.26-.17-.38-.3-.11-.13-.24-.3-.38-.52l-1-1.57-.74.55v.9c0,.15.03.26.07.35.04.09.1.16.18.21.07.04.16.07.26.09.1,0,.2.02.31.02h.03v.42h-2.69v-.42h.08c.11,0,.22,0,.32-.03.1,0,.19-.04.26-.1.07-.05.13-.12.17-.21.05-.1.07-.22.07-.38v-5.36c0-.15-.02-.27-.07-.36-.04-.09-.1-.15-.17-.2-.08-.05-.17-.08-.26-.1-.1-.01-.21-.02-.32-.02h-.08v-.42h1.84v4.21c-.01.14-.01.28-.02.42,0,.15,0,.32-.02.49l1.25-1.37c.11-.12.2-.22.27-.31.07-.1.13-.18.17-.24.04-.07.07-.13.09-.19,0-.05.02-.1.02-.15,0-.09-.04-.14-.12-.16-.08-.03-.2-.04-.37-.04v-.42h2.21v.42c-.23,0-.46.08-.68.24-.22.17-.47.4-.73.69l-.7.79Z"/>
      <path class="cls-10" d="M162.76,156.16v-.45h.03c.12,0,.22-.01.31-.02.1-.02.17-.05.23-.1.06-.04.12-.12.16-.2.03-.08.05-.2.06-.35v-5.68l-2.41,6.8h-.56l-2.45-6.78v5.56c0,.17.02.3.05.4.03.1.09.17.15.22.07.06.15.1.24.11.1.02.2.03.32.03h.03v.45h-2.46v-.45h.14c.12,0,.23-.01.34-.02.1-.02.19-.05.28-.1.07-.05.14-.13.18-.22.05-.1.07-.21.07-.37v-5.26c0-.16-.02-.29-.07-.38-.04-.1-.11-.16-.18-.21-.09-.05-.18-.08-.28-.11-.11-.01-.22-.02-.34-.02h-.14v-.45h2.43l2.18,6.08,2.16-6.08h2.4v.45h-.14c-.12,0-.23,0-.34.02-.11.02-.2.05-.28.11-.08.05-.14.14-.19.23-.04.11-.06.23-.06.4v5.17c0,.17.02.3.06.4.05.1.12.17.19.22.07.06.17.1.28.11.11.02.22.03.34.03h.14v.45h-2.88ZM168.99,156.27c-.38,0-.72-.06-1.03-.19-.31-.14-.56-.32-.78-.57-.21-.24-.37-.55-.49-.91-.12-.36-.17-.78-.17-1.23,0-1,.2-1.74.62-2.24.4-.5.99-.75,1.74-.75.34,0,.65.05.92.16.28.11.5.28.69.49.19.21.34.48.45.81.1.32.15.69.15,1.12v.49h-3.54c.01.38.05.7.12.98.07.28.18.5.31.68.14.17.3.3.49.38.19.08.42.13.67.13.18,0,.35-.02.51-.06.16-.04.3-.1.43-.16.13-.06.24-.15.34-.23.11-.08.18-.17.25-.27.05.02.1.06.14.13.04.06.06.14.06.23,0,.11-.03.22-.12.34-.07.13-.19.23-.34.34-.16.11-.35.19-.59.25-.23.07-.51.11-.83.11M168.88,150.96c-.39,0-.7.16-.93.47-.21.32-.34.78-.38,1.38h2.49c0-.28-.02-.53-.06-.75-.04-.22-.11-.43-.2-.58-.09-.16-.21-.29-.36-.38-.15-.08-.33-.13-.55-.13M174.34,155.74c.14,0,.25-.01.36-.02.11-.01.21-.03.32-.05v.45s-.1.04-.17.06c-.07.02-.15.03-.23.05-.08.01-.18.02-.28.03-.09.01-.18.01-.26.01-.28,0-.51-.03-.7-.08-.19-.06-.35-.15-.48-.28-.13-.13-.22-.3-.28-.51-.06-.21-.1-.47-.1-.78v-3.55h-.81v-.42c.13,0,.27-.02.43-.07.15-.05.29-.14.4-.27.13-.13.22-.29.3-.47.07-.18.14-.4.19-.68h.49v1.31h1.39v.61h-1.39v3.61c0,.37.07.64.22.81s.34.26.59.26M178.01,150.89c-.2,0-.36.02-.49.09-.13.05-.22.14-.3.24-.07.1-.12.22-.15.36-.02.15-.03.3-.03.47-.3,0-.52-.05-.67-.15-.16-.11-.23-.28-.23-.52,0-.18.05-.34.15-.47.11-.13.24-.23.41-.32.17-.07.38-.14.61-.18.23-.03.48-.05.74-.05.33,0,.61.03.85.1.24.06.45.17.61.31.17.15.29.34.37.57.07.23.12.52.12.86v2.75c0,.15.01.28.04.37.02.1.05.17.11.23.05.05.13.09.21.12.08.03.18.04.3.04h.03v.45h-1.44l-.17-.92h-.09c-.12.15-.22.29-.32.42-.11.12-.22.23-.35.32-.12.1-.27.16-.41.21-.16.05-.35.07-.58.07s-.45-.03-.65-.1c-.21-.07-.38-.18-.53-.32-.15-.14-.26-.32-.34-.53-.09-.21-.13-.47-.13-.76,0-.56.2-.98.61-1.25.39-.28,1-.43,1.82-.45l.88-.03v-.64c0-.19-.01-.37-.03-.53-.02-.16-.06-.3-.14-.42-.06-.12-.17-.2-.3-.27-.13-.06-.3-.1-.52-.1M176.72,154.62c0,.34.07.58.21.74.14.17.36.24.65.24.21,0,.41-.03.58-.1.17-.07.32-.17.45-.3.13-.13.21-.29.29-.47.06-.18.1-.38.1-.61v-.86l-.68.03c-.3.01-.55.05-.76.11-.2.06-.36.15-.49.25-.13.11-.21.25-.27.4-.05.16-.09.34-.09.54M181.31,155.71c.12,0,.23-.01.34-.03.11-.01.2-.04.28-.11.07-.05.14-.13.18-.22.05-.11.07-.23.07-.4v-5.7c0-.16-.02-.29-.07-.38-.04-.1-.11-.16-.18-.21-.09-.05-.18-.09-.28-.11-.11-.01-.22-.02-.34-.02h-.14v-.45h2.01v6.87c0,.17.02.3.07.4.04.1.11.17.18.22.09.06.17.1.28.11.11.02.22.03.34.03h.14v.45h-3.02v-.45h.14ZM186.29,155.71c0,.22-.03.45-.1.66-.06.21-.16.41-.3.59-.14.18-.32.34-.54.49-.22.14-.49.25-.81.35v-.45c.35-.11.61-.25.77-.4.17-.16.24-.34.24-.55,0-.06-.02-.13-.05-.17-.04-.05-.09-.1-.15-.13-.05-.04-.12-.08-.18-.11-.07-.03-.13-.07-.19-.13-.05-.04-.11-.11-.15-.18-.03-.06-.05-.16-.05-.27,0-.2.06-.36.2-.47.13-.11.3-.16.49-.16.12,0,.22.02.32.06.1.03.18.1.25.17.08.07.14.18.18.3.04.11.06.24.06.39M196.94,152.35c0,.58-.08,1.12-.21,1.61-.15.48-.36.89-.65,1.23-.29.34-.64.61-1.05.8-.41.18-.88.28-1.43.28s-1.05-.1-1.48-.28c-.41-.19-.77-.46-1.04-.8-.28-.34-.48-.76-.62-1.24-.14-.48-.21-1.01-.21-1.61s.07-1.12.21-1.6c.14-.49.34-.89.62-1.23.28-.34.63-.61,1.05-.79.43-.18.91-.28,1.48-.28s1.01.1,1.43.28c.41.18.76.45,1.04.79.29.34.5.75.65,1.23.14.48.21,1.01.21,1.61M191.43,152.35c0,.52.04,1,.12,1.42.07.42.2.75.37,1.04.18.29.4.51.68.66.27.15.61.22,1,.22s.73-.08,1.01-.22c.27-.15.49-.37.67-.66.17-.29.29-.63.36-1.04.08-.42.12-.89.12-1.42s-.03-1-.12-1.41c-.07-.42-.19-.77-.36-1.04-.18-.29-.39-.5-.67-.65-.27-.15-.61-.22-1-.22s-.73.08-1.01.22c-.28.15-.5.36-.67.65-.18.28-.31.63-.38,1.04-.07.42-.12.88-.12,1.41M201.52,151.22c0-.13-.05-.21-.16-.24-.12-.04-.24-.06-.41-.06h-.03v-.45h2.33v.45h-.1c-.1,0-.19.01-.28.02-.09.02-.17.05-.26.11-.07.04-.16.12-.24.2-.1.1-.19.21-.3.35l-1.1,1.45,1.56,2.12c.15.2.3.35.45.44.14.09.28.13.4.13h.14v.45h-2.74v-.45h.05c.43,0,.64-.12.64-.35,0-.04,0-.08-.02-.12,0-.04-.03-.08-.06-.14-.03-.05-.06-.13-.12-.2-.05-.08-.13-.17-.2-.28l-.7-.96-.76,1.04s-.06.08-.1.14c-.03.06-.06.12-.1.17-.02.06-.05.13-.06.18-.02.06-.03.12-.03.18,0,.12.05.2.16.26.1.05.27.07.5.07h.03v.45h-2.53v-.45h.1c.13,0,.25-.01.34-.03.1-.02.19-.05.28-.11.09-.05.17-.13.26-.21.1-.08.18-.2.29-.33l1.35-1.73-1.35-1.83c-.15-.18-.31-.32-.46-.42-.14-.11-.3-.15-.46-.15h-.14v-.45h2.7v.45h-.03c-.12,0-.22.01-.3.02-.09.02-.15.04-.19.06-.04.03-.07.06-.1.11-.01.04-.02.07-.02.12,0,.07.02.15.06.21.04.07.11.17.18.28l.7.95.55-.79c.09-.12.15-.23.19-.34.05-.11.07-.21.07-.31M209.49,150.46v.45h-.03c-.11,0-.19.01-.27.03-.07.02-.14.06-.2.13-.06.06-.12.15-.17.26-.05.11-.11.24-.17.41l-1.62,4.47c-.13.34-.24.64-.35.9-.11.26-.22.48-.35.67-.12.18-.26.33-.39.46-.15.12-.31.21-.49.29-.19.07-.39.13-.64.15-.23.03-.51.04-.83.04h-.1v-.53c.36,0,.67-.05.94-.16.26-.11.48-.24.67-.44.19-.18.34-.39.47-.65.13-.25.23-.52.32-.82l-1.97-4.65c-.04-.11-.1-.2-.14-.27-.04-.07-.1-.14-.15-.18-.06-.04-.13-.07-.2-.1-.07,0-.16-.02-.27-.02h-.03v-.45h2.55v.45h-.03c-.21,0-.37.04-.48.13-.11.07-.16.21-.16.38,0,.06.01.12.02.18.01.06.03.13.06.21l.78,1.89c.05.12.11.26.16.39.05.15.11.29.15.43.04.15.08.28.13.4.03.12.06.23.07.32h.03c.04-.16.1-.34.16-.56.06-.22.15-.47.23-.72l.71-2.07c.03-.08.05-.17.07-.24.01-.08.02-.15.02-.21,0-.18-.06-.32-.17-.39-.12-.09-.3-.13-.53-.13h-.03v-.45h2.21ZM214.76,154.99c0,.16.02.28.07.37.04.1.11.17.18.22.09.05.18.09.29.11.11,0,.21.02.33.02h.09v.45h-1.8l-.12-.96h-.04c-.09.17-.17.31-.28.45-.1.13-.21.23-.35.33-.13.08-.28.16-.45.21-.16.05-.35.07-.55.07-.35,0-.66-.05-.94-.17-.27-.12-.49-.3-.68-.54-.18-.23-.32-.54-.41-.92-.1-.37-.14-.81-.14-1.32s.04-.96.14-1.33c.1-.37.23-.68.41-.93.19-.24.41-.42.68-.54.28-.12.58-.17.94-.17.2,0,.38.02.55.06.16.04.32.12.45.19.14.09.25.18.35.3.11.12.2.24.28.38h.06c-.01-.17-.02-.34-.03-.49-.01-.13-.02-.27-.02-.39-.01-.13-.01-.22-.01-.29v-.87c0-.16-.02-.29-.07-.38-.04-.1-.11-.16-.19-.21-.07-.05-.17-.09-.28-.11-.11-.01-.21-.02-.33-.02h-.08v-.45h1.96v6.91ZM212.32,155.59c.28,0,.51-.04.69-.14s.33-.23.45-.42c.11-.19.19-.43.23-.71.05-.29.07-.62.07-1s-.02-.7-.07-.98c-.04-.29-.13-.53-.23-.72-.12-.19-.27-.33-.45-.44-.19-.1-.43-.15-.7-.15-.23,0-.43.05-.6.15-.17.11-.3.24-.4.45-.11.19-.18.43-.23.71-.04.29-.07.62-.07.99,0,.75.11,1.32.31,1.69.2.37.54.56,1.01.56M217.87,155.71c0,.22-.03.45-.1.66-.06.21-.16.41-.3.59-.14.18-.32.34-.54.49-.22.14-.49.25-.81.35v-.45c.35-.11.61-.25.76-.4.17-.16.24-.34.24-.55,0-.06-.02-.13-.05-.17-.04-.05-.09-.1-.15-.13-.05-.04-.12-.08-.18-.11-.07-.03-.13-.07-.19-.13-.05-.04-.11-.11-.15-.18-.03-.06-.05-.16-.05-.27,0-.2.06-.36.2-.47.13-.11.3-.16.49-.16.12,0,.22.02.32.06.1.03.18.1.26.17.07.07.14.18.18.3.04.11.06.24.06.39M224.28,156.27c-.38,0-.72-.06-1.03-.19-.31-.14-.56-.32-.78-.57-.21-.24-.37-.55-.49-.91-.12-.36-.17-.78-.17-1.23,0-1,.2-1.74.62-2.24.4-.5.99-.75,1.74-.75.34,0,.65.05.93.16.28.11.5.28.69.49.19.21.34.48.45.81.1.32.15.69.15,1.12v.49h-3.54c.01.38.05.7.12.98.07.28.18.5.31.68.14.17.3.3.49.38.19.08.41.13.67.13.18,0,.35-.02.51-.06.16-.04.3-.1.43-.16.13-.06.24-.15.34-.23.11-.08.18-.17.24-.27.05.02.1.06.14.13.04.06.06.14.06.23,0,.11-.03.22-.12.34-.07.13-.19.23-.34.34-.16.11-.35.19-.59.25-.23.07-.51.11-.83.11M224.18,150.96c-.39,0-.7.16-.92.47-.21.32-.34.78-.38,1.38h2.49c0-.28-.02-.53-.06-.75-.04-.22-.11-.43-.2-.58-.09-.16-.21-.29-.36-.38-.15-.08-.33-.13-.55-.13M229.63,155.74c.14,0,.26-.01.36-.02.11-.01.21-.03.32-.05v.45s-.1.04-.17.06c-.07.02-.15.03-.23.05-.09.01-.18.02-.28.03-.08.01-.18.01-.25.01-.28,0-.51-.03-.7-.08-.19-.06-.35-.15-.48-.28-.13-.13-.22-.3-.28-.51-.06-.21-.1-.47-.1-.78v-3.55h-.81v-.42c.13,0,.27-.02.43-.07.15-.05.29-.14.4-.27.13-.13.22-.29.3-.47.07-.18.14-.4.19-.68h.49v1.31h1.39v.61h-1.39v3.61c0,.37.07.64.22.81.15.17.34.26.58.26M233.46,156.27c-.35,0-.68-.05-.98-.16-.3-.12-.55-.29-.76-.52-.21-.23-.38-.54-.5-.9-.12-.37-.18-.82-.18-1.34,0-.57.06-1.04.18-1.42.12-.38.29-.69.5-.93.21-.23.46-.39.75-.49.29-.11.6-.15.94-.15.22,0,.44.02.66.06.22.04.42.11.6.2.18.08.32.2.43.34.12.14.17.3.17.48,0,.24-.07.41-.23.52-.16.1-.4.15-.71.15,0-.17-.02-.33-.04-.47-.03-.15-.07-.29-.15-.39-.06-.12-.16-.2-.27-.27-.12-.06-.26-.1-.45-.1-.2,0-.39.03-.55.12-.16.07-.31.2-.43.39-.12.18-.2.44-.27.75-.06.31-.1.71-.1,1.18,0,.76.13,1.33.38,1.7.24.36.66.55,1.22.55.33,0,.62-.07.86-.21.25-.14.44-.32.55-.54.05.04.1.1.13.17.03.06.05.15.05.24,0,.12-.03.25-.12.36-.07.13-.18.23-.34.33-.15.1-.33.18-.56.25-.22.05-.49.08-.79.08M236.23,155.51c0-.14.02-.25.05-.35.03-.08.08-.16.14-.21.06-.06.14-.1.21-.13.09-.02.17-.03.27-.03s.18.01.25.03c.09.03.16.06.21.13.06.05.12.13.15.21.03.1.05.21.05.35s-.02.25-.05.34c-.03.1-.08.17-.15.22-.05.05-.13.1-.21.13-.07.02-.16.03-.25.03s-.18-.01-.27-.03c-.07-.03-.15-.07-.21-.13-.05-.05-.11-.13-.14-.22-.03-.1-.05-.2-.05-.34"/>
      <path class="cls-6" d="M97.33,99.42l50.7,19.04-.4,1.06-50.7-19.04.4-1.06ZM151.56,120.39l-8.62.39.17-.16.16-.17.16-.17.15-.17.15-.17.14-.18.13-.18.13-.18.12-.18.12-.18.11-.19.1-.19.1-.19.09-.19.08-.2.08-.2.07-.2.07-.2.06-.21.05-.21.05-.21.04-.21.03-.21.03-.22.02-.22.02-.22v-.22s.01-.22.01-.22v-.23s-.01-.23-.01-.23v-.23s-.04-.24-.04-.24l6.23,5.97Z"/>
      <path class="cls-6" d="M94.64,179.79l52.41-.57v1.13s-52.4.57-52.4.57v-1.13ZM151.04,179.75l-7.9,3.49.1-.21.09-.21.09-.21.08-.21.07-.21.07-.21.06-.21.05-.21.05-.21.04-.21.03-.21.03-.21.02-.21v-.21s.02-.21.02-.21v-.21s0-.21,0-.21v-.21s-.03-.21-.03-.21l-.03-.21-.03-.21-.04-.21-.05-.21-.05-.21-.06-.21-.07-.21-.07-.21-.08-.21-.09-.21-.09-.21-.1-.21-.11-.21,7.97,3.31Z"/>
      <path class="cls-3" d="M159.37,69.73l-4.25-9.92.26.13.27.12.27.11.27.1.27.1.27.09.27.08.27.07.26.06.27.06.27.04.27.04.26.03.27.02h.27s.27.02.27.02h.27s.26-.02.26-.02l.27-.02.27-.03.27-.04.26-.04.27-.06.27-.06.27-.07.26-.08.27-.09.27-.1.27-.1.26-.11.27-.12.27-.13-4.25,9.92ZM158.66,49.8h1.42v14.94h-1.42v-14.94Z"/>
      <path class="cls-3" d="M159.37,97.68l-4.25-9.92.26.13.27.12.27.11.27.1.27.1.27.09.27.08.27.07.26.06.27.05.27.04.27.04.26.03.27.02h.27s.27.02.27.02h.27s.26-.02.26-.02l.27-.02.27-.03.27-.04.26-.04.27-.05.27-.06.27-.07.26-.08.27-.09.27-.1.27-.1.26-.11.27-.12.27-.13-4.25,9.92ZM158.66,82.76h1.42v9.93h-1.42v-9.93Z"/>
      <path class="cls-3" d="M173.26,69.73l-4.25-9.92.26.13.27.12.27.11.27.1.26.1.27.09.27.08.27.07.26.06.27.06.27.04.27.04.26.03.27.02h.27s.27.02.27.02h.27s.26-.02.26-.02l.27-.02.27-.03.27-.04.26-.04.27-.06.27-.06.27-.07.26-.08.27-.09.27-.1.26-.1.27-.11.27-.12.27-.13-4.25,9.92ZM172.56,49.8h1.42v14.94h-1.42v-14.94Z"/>
      <path class="cls-3" d="M187.16,69.73l-4.25-9.92.26.13.27.12.27.11.27.1.26.1.27.09.27.08.27.07.26.06.27.06.27.04.27.04.26.03.27.02h.27s.27.02.27.02h.27s.26-.02.26-.02l.27-.02.27-.03.27-.04.26-.04.27-.06.27-.06.26-.07.27-.08.27-.09.27-.1.26-.1.27-.11.27-.12.27-.13-4.25,9.92ZM186.45,49.8h1.42v14.94h-1.42v-14.94Z"/>
      <path class="cls-3" d="M187.16,97.68l-4.25-9.92.26.13.27.12.27.11.27.1.26.1.27.09.27.08.27.07.26.06.27.05.27.04.27.04.26.03.27.02h.27s.27.02.27.02h.27s.26-.02.26-.02l.27-.02.27-.03.27-.04.26-.04.27-.05.27-.06.26-.07.27-.08.27-.09.27-.1.26-.1.27-.11.27-.12.27-.13-4.25,9.92ZM186.45,82.76h1.42v9.93h-1.42v-9.93Z"/>
      <path class="cls-3" d="M201.06,69.73l-4.25-9.92.26.13.27.12.27.11.27.1.26.1.27.09.27.08.27.07.27.06.27.06.27.04.27.04.26.03.27.02h.27s.27.02.27.02h.27s.26-.02.26-.02l.27-.02.27-.03.26-.04.27-.04.27-.06.27-.06.26-.07.27-.08.27-.09.27-.1.26-.1.27-.11.27-.12.27-.13-4.25,9.92ZM200.35,49.8h1.42v14.94h-1.42v-14.94Z"/>
      <path class="cls-3" d="M201.06,97.68l-4.25-9.92.26.13.27.12.27.11.27.1.26.1.27.09.27.08.27.07.27.06.27.05.27.04.27.04.26.03.27.02h.27s.27.02.27.02h.27s.26-.02.26-.02l.27-.02.27-.03.26-.04.27-.04.27-.05.27-.06.26-.07.27-.08.27-.09.27-.1.26-.1.27-.11.27-.12.27-.13-4.25,9.92ZM200.35,82.76h1.42v9.93h-1.42v-9.93Z"/>
      <path class="cls-3" d="M214.95,69.73l-4.25-9.92.26.13.27.12.27.11.27.1.26.1.27.09.27.08.27.07.26.06.27.06.27.04.27.04.26.03.27.02h.27s.27.02.27.02h.27s.26-.02.26-.02l.27-.02.27-.03.27-.04.26-.04.27-.06.27-.06.27-.07.26-.08.27-.09.27-.1.27-.1.26-.11.27-.12.27-.13-4.25,9.92ZM214.24,49.8h1.42v14.94h-1.42v-14.94Z"/>
      <path class="cls-3" d="M228.85,69.73l-4.25-9.92.26.13.27.12.27.11.27.1.26.1.27.09.27.08.27.07.26.06.27.06.27.04.27.04.26.03.27.02h.27s.27.02.27.02h.27s.26-.02.26-.02l.27-.02.27-.03.27-.04.26-.04.27-.06.27-.06.27-.07.26-.08.27-.09.27-.1.27-.1.26-.11.27-.12.27-.13-4.25,9.92ZM228.14,49.8h1.42v14.94h-1.42v-14.94Z"/>
      <rect class="cls-13" x="156.48" y="72.01" width="77.98" height="6.61"/>
      <rect class="cls-8" x="156.48" y="99.95" width="77.98" height="6.61"/>
      <rect class="cls-13" x="156.48" y="99.95" width="77.98" height="6.61"/>
      <rect class="cls-5" x="205.53" y="72.01" width="28.93" height="6.61"/>
      <rect class="cls-13" x="205.53" y="72.01" width="28.93" height="6.61"/>
      <rect class="cls-9" x="205.53" y="99.95" width="28.93" height="6.61"/>
      <rect class="cls-13" x="205.53" y="99.95" width="28.93" height="6.61"/>
      <rect class="cls-9" x="72.48" y="160.13" width="28.93" height="6.61"/>
      <rect class="cls-13" x="72.48" y="160.13" width="28.93" height="6.61"/>
      <rect class="cls-5" x="167" y="72.01" width="10.32" height="6.61"/>
      <rect class="cls-13" x="167" y="72.01" width="10.32" height="6.61"/>
      <rect class="cls-9" x="167" y="99.95" width="10.32" height="6.61"/>
      <rect class="cls-13" x="167" y="99.95" width="10.32" height="6.61"/>
      <rect class="cls-9" x="33.96" y="160.13" width="10.32" height="6.61"/>
      <rect class="cls-13" x="33.96" y="160.13" width="10.32" height="6.61"/>
      <path class="cls-2" d="M11.57,63.34l-.41-1.04h-.06c-.35.43-.72.74-1.08.92-.38.17-.85.25-1.46.25-.73,0-1.32-.21-1.74-.63-.42-.42-.63-1.02-.63-1.79,0-.81.28-1.41.85-1.79.56-.39,1.43-.6,2.56-.64l1.33-.04v-.34c0-.77-.39-1.16-1.19-1.16-.62,0-1.33.18-2.16.56l-.69-1.42c.88-.46,1.85-.69,2.93-.69,1.02,0,1.81.22,2.35.67.55.45.83,1.12.83,2.03v5.1h-1.46ZM10.95,59.8l-.81.03c-.6.01-1.05.13-1.35.32-.31.21-.45.52-.45.92,0,.59.34.88,1.01.88.49,0,.87-.14,1.16-.42.29-.28.44-.64.44-1.11v-.63ZM18.26,59.5c0,1.19-.18,2.31-.53,3.35-.35,1.04-.85,1.93-1.53,2.7h-1.7c.62-.84,1.09-1.78,1.43-2.82.34-1.05.5-2.13.5-3.25s-.17-2.2-.49-3.25c-.34-1.05-.81-2.02-1.46-2.9h1.71c.67.8,1.18,1.72,1.53,2.77.35,1.07.53,2.19.53,3.39"/>
      <path class="cls-2" d="M9.84,169.47c-2.38,0-3.57-1.3-3.57-3.92,0-1.3.32-2.3.97-2.98.66-.69,1.58-1.02,2.79-1.02.88,0,1.68.17,2.38.52l-.62,1.61c-.32-.13-.63-.24-.91-.32-.29-.08-.57-.13-.85-.13-1.08,0-1.62.77-1.62,2.31s.55,2.24,1.62,2.24c.41,0,.77-.06,1.12-.15.34-.11.67-.28,1.02-.5v1.78c-.34.22-.69.36-1.02.45-.35.08-.78.13-1.3.13M17.02,165.49c0,1.19-.18,2.31-.53,3.35-.35,1.04-.85,1.93-1.53,2.7h-1.7c.62-.84,1.09-1.78,1.43-2.82.34-1.05.5-2.13.5-3.25s-.17-2.2-.49-3.25c-.34-1.05-.81-2.02-1.46-2.9h1.71c.67.8,1.18,1.72,1.53,2.77.35,1.07.53,2.19.53,3.39"/>
      <path class="cls-2" d="M132.29,169.47c-.9,0-1.6-.35-2.11-1.05-.52-.7-.77-1.67-.77-2.9s.27-2.23.79-2.93c.52-.7,1.25-1.05,2.16-1.05.97,0,1.7.38,2.2,1.12h.07c-.1-.57-.15-1.08-.15-1.53v-2.45h2.09v10.65h-1.6l-.41-.99h-.08c-.48.76-1.21,1.13-2.17,1.13M133.02,167.8c.53,0,.92-.15,1.18-.46.25-.31.39-.84.41-1.58v-.22c0-.81-.13-1.42-.38-1.77-.25-.35-.66-.53-1.23-.53-.46,0-.83.2-1.09.59-.25.39-.38.97-.38,1.72s.13,1.32.39,1.69c.25.38.63.56,1.11.56M141.82,165.49c0,1.19-.18,2.31-.53,3.35-.35,1.04-.85,1.93-1.53,2.7h-1.7c.62-.84,1.09-1.78,1.43-2.82.34-1.05.5-2.13.5-3.25s-.17-2.2-.49-3.25c-.34-1.05-.81-2.02-1.46-2.9h1.71c.67.8,1.18,1.72,1.53,2.77.35,1.07.53,2.19.53,3.39"/>
      <path class="cls-2" d="M134.13,55.55c.9,0,1.61.35,2.11,1.05.52.71.77,1.68.77,2.9s-.27,2.24-.78,2.94c-.53.69-1.25,1.04-2.16,1.04s-1.6-.32-2.12-.98h-.14l-.35.84h-1.6v-10.65h2.09v2.48c0,.31-.03.81-.08,1.51h.08c.49-.76,1.22-1.13,2.17-1.13M133.46,57.22c-.52,0-.88.15-1.12.48-.24.32-.36.84-.38,1.57v.22c0,.83.13,1.41.36,1.76.25.36.63.53,1.16.53.43,0,.77-.2,1.02-.59.25-.39.38-.97.38-1.72s-.13-1.32-.38-1.69c-.25-.38-.6-.56-1.05-.56M141.83,59.5c0,1.19-.18,2.31-.53,3.35-.35,1.04-.85,1.93-1.53,2.7h-1.7c.62-.84,1.09-1.78,1.43-2.82.34-1.05.5-2.13.5-3.25s-.17-2.2-.49-3.25c-.34-1.05-.81-2.02-1.46-2.9h1.71c.67.8,1.18,1.72,1.53,2.77.35,1.07.53,2.19.53,3.39"/>
      <path class="cls-6" d="M191.86,142.88h-1.13v-12.29h1.13v12.29ZM191.86,142.88v.57h-.57l.57-.57ZM191.29,143.45H61.65v-1.13h129.64l.57.57-.57.57ZM61.08,142.88v-.57h.57l-.57.57ZM62.22,142.88v12.15h-1.13v-12.15l.57-.57.57.57ZM61.65,159.02l-3.4-7.94.21.1.21.1.21.09.21.08.21.08.21.07.21.06.21.06.21.05.21.04.21.04.21.03.21.02.21.02h.21s.21.01.21.01h.21s.21-.01.21-.01l.21-.02.21-.02.21-.03.21-.04.21-.04.21-.05.21-.06.21-.06.21-.07.21-.08.21-.08.21-.09.21-.1.21-.1-3.4,7.94Z"/>
      <rect class="cls-12" x="156.48" y="106.8" width="77.98" height="27"/>
      <rect class="cls-13" x="156.48" y="106.8" width="77.98" height="27"/>
      <rect class="cls-12" x="23.43" y="166.98" width="77.98" height="27"/>
      <rect class="cls-13" x="23.43" y="166.98" width="77.98" height="27"/>
      <rect class="cls-12" x="23.19" y="88.04" width="78.22" height="27"/>
      <rect class="cls-13" x="23.19" y="88.04" width="78.22" height="27"/>
      <path class="cls-2" d="M31.26,107.95c-.45,0-.85-.04-1.2-.14-.35-.1-.65-.24-.87-.41-.24-.17-.42-.38-.53-.62-.13-.25-.18-.52-.18-.81s.08-.5.27-.69c.17-.17.42-.25.74-.25.01.29.06.57.14.84.07.27.18.51.32.7.15.21.34.36.56.49.24.13.5.18.83.18.62,0,1.09-.15,1.44-.45.35-.31.52-.74.52-1.32,0-.25-.04-.48-.11-.67s-.18-.38-.35-.55c-.17-.17-.39-.32-.66-.48-.27-.15-.6-.31-1.01-.48-.42-.18-.8-.38-1.12-.57-.31-.2-.58-.43-.78-.67-.21-.25-.38-.53-.48-.84-.1-.29-.15-.64-.15-1.02,0-.41.08-.76.22-1.08.15-.31.38-.57.64-.8.28-.21.6-.38.98-.49.36-.11.77-.17,1.22-.17.42,0,.78.04,1.12.13.32.08.59.21.81.35.22.14.39.31.52.5.11.18.17.38.17.59,0,.31-.1.53-.29.69-.2.14-.46.22-.81.22,0-.22-.01-.43-.07-.64s-.14-.41-.25-.57c-.13-.17-.28-.31-.48-.41-.18-.11-.43-.15-.71-.15s-.49.03-.7.11c-.2.07-.38.18-.52.32-.14.14-.24.31-.32.51-.07.2-.11.41-.11.66,0,.27.04.52.11.73.07.21.18.41.35.57.17.17.39.34.66.49.28.15.6.31,1.01.48.39.17.76.34,1.06.53.31.18.58.39.8.63.22.22.38.48.5.77.11.28.17.6.17.97,0,.45-.08.84-.24,1.19-.17.35-.39.65-.7.88-.29.24-.66.43-1.08.55-.43.14-.9.2-1.43.2M36.65,107.22c.16,0,.31-.01.45-.03.13-.03.25-.07.36-.13.1-.07.18-.17.24-.29.07-.13.1-.28.1-.49v-4.44c0-.2-.03-.36-.1-.49-.06-.13-.14-.22-.24-.29-.11-.07-.24-.11-.36-.14-.14-.01-.29-.03-.45-.03h-.04v-.59h2.51v5.91c0,.23.04.39.1.53.06.13.14.22.24.29.11.08.24.13.38.14.14.03.28.04.43.04h.2v.59h-3.99v-.59h.18ZM37.6,98.03c0-.17.03-.31.06-.42.04-.11.11-.2.18-.27.07-.07.15-.11.25-.14s.2-.04.31-.04.21.01.31.04.18.07.25.14c.07.07.13.15.17.27.06.11.07.25.07.42,0,.15-.01.29-.07.41-.04.11-.1.2-.17.27-.07.07-.15.13-.25.15s-.2.04-.31.04-.21-.01-.31-.04-.18-.08-.25-.15c-.07-.07-.14-.15-.18-.27-.03-.11-.06-.25-.06-.41"/>
      <path class="cls-2" d="M164.5,127.67c-.45,0-.85-.04-1.2-.14-.35-.1-.64-.24-.87-.41-.24-.17-.42-.38-.53-.62-.13-.25-.18-.52-.18-.81s.08-.5.27-.69c.17-.17.42-.25.74-.25.01.29.06.57.14.84.07.27.18.51.32.7.15.21.34.36.56.49.24.13.5.18.83.18.62,0,1.09-.15,1.44-.45.35-.31.52-.74.52-1.32,0-.25-.04-.48-.11-.67-.07-.2-.18-.38-.35-.55s-.39-.32-.66-.48-.6-.31-1.01-.48c-.42-.18-.8-.38-1.12-.57-.31-.2-.57-.43-.79-.67-.21-.25-.38-.53-.48-.84-.1-.29-.15-.64-.15-1.02,0-.41.08-.76.22-1.08.15-.31.38-.57.64-.8.28-.21.6-.38.98-.49.36-.11.77-.17,1.22-.17.42,0,.78.04,1.12.13.32.08.59.21.81.35.22.14.39.31.52.5.11.18.17.38.17.59,0,.31-.1.53-.29.69-.2.14-.46.22-.81.22,0-.22-.01-.43-.07-.64-.06-.21-.14-.41-.25-.57-.13-.17-.28-.31-.48-.41-.18-.11-.43-.15-.71-.15s-.49.03-.7.11c-.2.07-.38.18-.52.32-.14.14-.24.31-.32.5-.07.2-.11.41-.11.66,0,.27.04.52.11.73.07.21.18.41.35.57.17.17.39.34.66.49.28.15.6.31,1.01.48.39.17.76.34,1.06.53.31.18.58.39.8.63.22.22.38.48.5.77.11.28.17.6.17.97,0,.45-.08.84-.24,1.19-.17.35-.39.65-.7.88-.29.24-.66.43-1.08.55-.43.14-.9.2-1.43.2M169.89,126.95c.15,0,.31-.01.45-.03.13-.03.25-.07.36-.13.1-.07.18-.17.24-.29.07-.13.1-.28.1-.49v-4.44c0-.2-.03-.36-.1-.49-.06-.13-.14-.22-.24-.29-.11-.07-.24-.11-.36-.14-.14-.01-.29-.03-.45-.03h-.04v-.59h2.51v5.91c0,.23.04.39.1.53.06.13.14.22.24.29.11.08.24.13.38.14.14.03.28.04.43.04h.2v.59h-3.99v-.59h.18ZM170.84,117.76c0-.17.03-.31.06-.42.04-.11.11-.2.18-.27.07-.07.15-.11.25-.14.1-.03.2-.04.31-.04s.21.01.31.04c.1.03.18.07.25.14.07.07.13.15.17.27.06.11.07.25.07.42,0,.15-.01.29-.07.41-.04.11-.1.2-.17.27-.07.07-.15.13-.25.15-.1.03-.2.04-.31.04s-.21-.01-.31-.04c-.1-.03-.18-.08-.25-.15-.07-.07-.14-.15-.18-.27-.03-.11-.06-.25-.06-.41"/>
      <path class="cls-2" d="M31.46,187.85c-.45,0-.85-.04-1.2-.14-.35-.1-.65-.24-.87-.41-.24-.17-.42-.38-.53-.62-.13-.25-.18-.52-.18-.81s.08-.5.27-.69c.17-.17.42-.25.74-.25.01.29.06.57.14.84.07.27.18.51.32.7.16.21.34.36.56.49.24.13.5.18.83.18.62,0,1.09-.15,1.44-.45.35-.31.52-.74.52-1.32,0-.25-.04-.48-.11-.67s-.18-.38-.35-.55c-.17-.17-.39-.32-.66-.48-.27-.15-.6-.31-1.01-.48-.42-.18-.8-.38-1.12-.57-.31-.2-.58-.43-.78-.67-.21-.25-.38-.53-.48-.84-.1-.29-.15-.64-.15-1.02,0-.41.08-.76.22-1.08.15-.31.38-.57.64-.8.28-.21.6-.38.98-.49.36-.11.77-.17,1.22-.17.42,0,.78.04,1.12.13.32.08.59.21.81.35.23.14.39.31.52.5.11.18.17.38.17.59,0,.31-.1.53-.29.69-.2.14-.46.22-.81.22,0-.22-.01-.43-.07-.64-.06-.21-.14-.41-.25-.57-.13-.17-.28-.31-.48-.41-.18-.11-.43-.15-.72-.15-.27,0-.49.03-.7.11-.2.07-.38.18-.52.32-.14.14-.24.31-.32.5-.07.2-.11.41-.11.66,0,.27.04.52.11.73.07.21.18.41.35.57.17.17.39.34.66.49.28.15.6.31,1.01.48.39.17.76.34,1.06.53.31.18.58.39.8.63.22.22.38.48.5.77.11.28.17.6.17.97,0,.45-.08.84-.24,1.19-.17.35-.39.65-.7.88-.3.24-.66.43-1.08.55-.43.14-.9.2-1.43.2M36.84,187.13c.16,0,.31-.01.45-.03.13-.03.25-.07.36-.13.1-.07.18-.17.24-.29.07-.13.1-.28.1-.49v-4.44c0-.2-.03-.36-.1-.49-.06-.13-.14-.22-.24-.29-.11-.07-.24-.11-.36-.14-.14-.01-.29-.03-.45-.03h-.04v-.59h2.51v5.91c0,.23.04.39.1.53.06.13.14.22.24.29.11.08.24.13.38.14.14.03.28.04.43.04h.2v.59h-3.99v-.59h.18ZM37.8,177.94c0-.17.03-.31.06-.42.04-.11.11-.2.18-.27s.15-.11.25-.14.2-.04.31-.04.21.01.31.04.18.07.25.14.13.15.17.27c.06.11.07.25.07.42,0,.15-.01.29-.07.41-.04.11-.1.2-.17.27s-.15.13-.25.15-.2.04-.31.04-.21-.01-.31-.04-.18-.08-.25-.15-.14-.15-.18-.27c-.03-.11-.06-.25-.06-.41"/>
      <path class="cls-3" d="M24.03,78.82v-.42h.13c.11,0,.22,0,.32-.03.1,0,.19-.04.26-.1.08-.05.14-.12.18-.21.04-.1.06-.22.06-.38v-4.9c0-.15-.02-.27-.07-.36-.04-.09-.1-.15-.17-.2-.08-.05-.17-.08-.26-.1-.1-.01-.21-.02-.32-.02h-.13v-.42h2.81c.42,0,.78.05,1.09.14.31.1.57.24.77.42.2.18.35.4.45.66.1.26.15.55.15.88,0,.3-.05.59-.14.86-.09.28-.24.52-.45.73-.22.21-.49.38-.83.51-.35.12-.76.19-1.26.19h-.63v1.67c0,.14.02.26.07.35.04.09.1.15.18.2.07.04.16.07.26.09.1.01.2.02.31.02h.33v.42h-3.11ZM25.99,75.57h.53c.3,0,.55-.03.76-.1.21-.06.39-.16.52-.3.14-.14.24-.32.3-.55.06-.22.09-.49.09-.8,0-.28-.02-.52-.08-.73-.05-.2-.14-.37-.26-.51-.13-.14-.28-.24-.48-.3-.19-.07-.43-.1-.71-.1h-.67v3.39ZM32.46,78.4v.42h-2.69v-.42h.08c.11,0,.22,0,.32-.03.1,0,.19-.04.26-.1.07-.05.13-.12.17-.21.05-.1.07-.22.07-.38v-5.36c0-.15-.02-.27-.07-.36-.04-.09-.1-.15-.17-.2-.08-.05-.17-.08-.26-.1-.1,0-.21-.02-.32-.02h-.08v-.42h1.84v2.48c-.01.1-.01.19-.02.28,0,.1-.01.19-.02.29h.05c.3-.61.79-.91,1.47-.91.29,0,.54.04.76.11.22.08.4.2.55.36.15.15.27.36.34.6.08.25.12.55.12.89v2.36c0,.16.02.28.06.38.04.09.09.16.16.21.07.06.15.09.24.1.1.02.2.03.31.03h.03v.42h-1.74v-3.45c0-.22-.02-.42-.06-.58-.04-.17-.1-.32-.19-.43-.08-.12-.2-.21-.34-.27-.14-.06-.31-.09-.51-.09-.21,0-.39.04-.54.11-.15.08-.27.19-.37.33-.1.14-.17.31-.22.51-.05.2-.08.43-.08.67v2.11c0,.15.03.26.07.35.04.09.1.16.18.21.07.04.16.07.26.09.1.01.2.02.31.02h.03ZM41.05,76.13c0,.94-.2,1.64-.6,2.1-.4.46-.98.69-1.75.69-.36,0-.68-.06-.97-.17-.29-.12-.53-.29-.73-.52s-.35-.52-.46-.87c-.11-.35-.16-.76-.16-1.23,0-.94.2-1.63.59-2.09.4-.45.99-.68,1.76-.68.36,0,.69.06.97.17.29.11.53.28.73.51s.36.52.46.87c.11.34.16.75.16,1.22M37.35,76.12c0,.38.03.71.08,1,.04.28.12.52.23.72.11.19.25.33.43.43.17.1.38.15.63.15s.46-.05.64-.15c.17-.1.31-.24.42-.43.1-.2.18-.44.23-.72.05-.29.07-.62.07-1s-.03-.7-.07-.98c-.05-.29-.13-.52-.24-.71s-.25-.33-.42-.43c-.17-.09-.39-.14-.64-.14s-.46.05-.63.14c-.17.1-.31.24-.42.43s-.19.42-.23.71c-.05.28-.08.61-.08.98M44.15,78.42c.13,0,.24-.01.34-.02.1,0,.2-.03.3-.05v.42s-.09.04-.16.06c-.07.02-.14.03-.22.05-.08,0-.17.02-.26.03-.08,0-.17,0-.24,0-.26,0-.48-.03-.66-.08-.18-.06-.33-.14-.45-.26-.12-.12-.21-.28-.26-.48-.06-.2-.09-.44-.09-.73v-3.34h-.76v-.4c.12,0,.25-.02.4-.07.14-.05.27-.13.38-.25.12-.12.21-.27.28-.44.07-.17.13-.38.18-.64h.46v1.23h1.31v.57h-1.31v3.39c0,.35.07.6.21.76s.32.24.55.24M50.14,76.13c0,.94-.2,1.64-.6,2.1-.4.46-.98.69-1.75.69-.36,0-.68-.06-.97-.17-.29-.12-.53-.29-.73-.52s-.35-.52-.46-.87c-.11-.35-.16-.76-.16-1.23,0-.94.2-1.63.59-2.09.4-.45.99-.68,1.76-.68.36,0,.69.06.97.17.29.11.53.28.73.51s.36.52.46.87c.11.34.16.75.16,1.22M46.44,76.12c0,.38.03.71.08,1,.04.28.12.52.23.72.11.19.25.33.43.43.17.1.38.15.63.15s.46-.05.64-.15c.17-.1.31-.24.42-.43.1-.2.18-.44.23-.72.05-.29.07-.62.07-1s-.03-.7-.07-.98c-.05-.29-.13-.52-.24-.71s-.25-.33-.42-.43c-.17-.09-.39-.14-.64-.14s-.46.05-.63.14c-.17.1-.31.24-.42.43s-.19.42-.23.71c-.05.28-.08.61-.08.98"/>
      <path class="cls-3" d="M126.06,106.39v-.42h.13c.11,0,.22,0,.32-.03.1,0,.19-.04.26-.1.08-.05.14-.12.18-.21.04-.1.06-.22.06-.38v-4.9c0-.15-.02-.27-.07-.36-.04-.09-.1-.15-.17-.2-.08-.05-.17-.08-.26-.1-.1-.01-.21-.02-.32-.02h-.13v-.42h2.81c.42,0,.78.05,1.09.14.31.1.57.24.77.42.2.18.35.4.45.66.1.26.15.55.15.88,0,.3-.05.59-.14.86-.09.28-.24.52-.45.73-.22.21-.49.38-.83.51-.35.12-.76.19-1.26.19h-.63v1.67c0,.14.02.26.07.35.04.09.1.15.18.2.07.04.16.07.26.09.1.01.2.02.31.02h.33v.42h-3.11ZM128.02,103.14h.53c.3,0,.55-.03.76-.1.21-.06.39-.16.52-.3.14-.14.24-.32.3-.55.06-.22.09-.49.09-.8,0-.28-.02-.52-.08-.73-.05-.2-.14-.37-.26-.51-.13-.14-.28-.24-.48-.3-.19-.07-.43-.1-.71-.1h-.67v3.39ZM134.49,105.97v.42h-2.69v-.42h.08c.11,0,.22,0,.32-.03.1,0,.19-.04.26-.1.07-.05.13-.12.17-.21.05-.1.07-.22.07-.38v-5.36c0-.15-.02-.27-.07-.36-.04-.09-.1-.15-.17-.2-.08-.05-.17-.08-.26-.1-.1,0-.21-.02-.32-.02h-.08v-.42h1.84v2.48c-.01.1-.01.19-.02.28,0,.1,0,.19-.02.29h.05c.3-.61.79-.91,1.47-.91.29,0,.54.04.76.11.22.08.4.2.55.36.15.15.27.36.34.6.08.25.12.55.12.89v2.36c0,.16.02.28.06.38.04.09.09.16.16.21.07.06.15.09.24.1.1.02.2.03.31.03h.03v.42h-1.74v-3.45c0-.22-.02-.42-.06-.58-.04-.17-.1-.32-.19-.43-.08-.12-.2-.21-.34-.27-.14-.06-.31-.09-.51-.09-.21,0-.39.04-.54.11-.15.08-.27.19-.37.33-.1.14-.17.31-.22.51-.05.2-.08.43-.08.67v2.11c0,.15.03.26.07.35.04.09.1.16.18.21.07.04.16.07.26.09.1.01.2.02.31.02h.03ZM143.08,103.7c0,.94-.2,1.64-.6,2.1-.4.46-.98.69-1.75.69-.36,0-.68-.06-.97-.17-.29-.12-.53-.29-.73-.52-.2-.23-.35-.52-.46-.87-.11-.35-.16-.76-.16-1.23,0-.94.2-1.63.59-2.09.4-.45.99-.68,1.76-.68.36,0,.69.06.97.17.29.11.53.28.73.51s.36.52.46.87c.11.34.16.75.16,1.22M139.38,103.69c0,.38.03.71.08,1,.04.28.12.52.23.72.11.19.25.33.43.43.17.1.38.15.63.15s.46-.05.64-.15c.17-.1.31-.24.42-.43.1-.2.18-.44.23-.72.05-.29.07-.62.07-1s-.03-.7-.07-.98c-.05-.29-.13-.52-.24-.71s-.25-.33-.42-.43c-.17-.09-.39-.14-.64-.14s-.46.05-.63.14c-.17.1-.31.24-.42.43s-.19.42-.23.71c-.05.28-.08.61-.08.98M146.18,105.99c.13,0,.24-.01.34-.02.1,0,.2-.03.3-.05v.42s-.09.04-.16.06c-.07.02-.14.03-.22.05-.08,0-.17.02-.26.03-.08,0-.17,0-.24,0-.26,0-.48-.03-.66-.08-.18-.06-.33-.14-.45-.26-.12-.12-.21-.28-.26-.48-.06-.2-.09-.44-.09-.73v-3.34h-.76v-.4c.12,0,.25-.02.4-.07.14-.05.27-.13.38-.25.12-.12.21-.27.28-.44.07-.17.13-.38.18-.64h.46v1.23h1.31v.57h-1.31v3.39c0,.35.07.6.21.76s.32.24.55.24M152.16,103.7c0,.94-.2,1.64-.6,2.1-.4.46-.98.69-1.75.69-.36,0-.68-.06-.97-.17-.29-.12-.53-.29-.73-.52s-.35-.52-.46-.87c-.11-.35-.16-.76-.16-1.23,0-.94.2-1.63.59-2.09.4-.45.99-.68,1.76-.68.36,0,.69.06.97.17.29.11.53.28.73.51.2.23.36.52.46.87.11.34.16.75.16,1.22M148.46,103.69c0,.38.03.71.08,1,.04.28.12.52.23.72.11.19.25.33.43.43.17.1.38.15.63.15s.46-.05.64-.15c.17-.1.31-.24.42-.43.1-.2.18-.44.23-.72.05-.29.07-.62.07-1s-.03-.7-.07-.98c-.05-.29-.13-.52-.24-.71s-.25-.33-.42-.43c-.17-.09-.39-.14-.64-.14s-.46.05-.63.14c-.17.1-.31.24-.42.43s-.19.42-.23.71c-.05.28-.08.61-.08.98"/>
      <rect class="cls-7" x="23.19" y="81.43" width="78.22" height="6.61"/>
      <rect class="cls-13" x="23.19" y="81.43" width="78.22" height="6.61"/>
      <rect class="cls-10" x="156.48" y="160.13" width="10.53" height="15.92"/>
      <rect class="cls-10" x="177.36" y="160.13" width="28.18" height="15.92"/>
      <rect class="cls-12" x="156.48" y="166.98" width="77.98" height="27"/>
      <rect class="cls-13" x="156.48" y="166.98" width="77.98" height="27"/>
      <path class="cls-2" d="M164.5,187.85c-.45,0-.85-.04-1.2-.14-.35-.1-.64-.24-.87-.41-.24-.17-.42-.38-.53-.62-.13-.25-.18-.52-.18-.81s.08-.5.27-.69c.17-.17.42-.25.74-.25.01.29.06.57.14.84.07.27.18.51.32.7.15.21.34.36.56.49.24.13.5.18.83.18.62,0,1.09-.15,1.44-.45.35-.31.52-.74.52-1.32,0-.25-.04-.48-.11-.67-.07-.2-.18-.38-.35-.55s-.39-.32-.66-.48c-.27-.15-.6-.31-1.01-.48-.42-.18-.8-.38-1.12-.57-.31-.2-.57-.43-.79-.67-.21-.25-.38-.53-.48-.84-.1-.29-.15-.64-.15-1.02,0-.41.08-.76.22-1.08.15-.31.38-.57.64-.8.28-.21.6-.38.98-.49.36-.11.77-.17,1.22-.17.42,0,.78.04,1.12.13.32.08.59.21.81.35.22.14.39.31.52.5.11.18.17.38.17.59,0,.31-.1.53-.29.69-.2.14-.46.22-.81.22,0-.22-.01-.43-.07-.64-.06-.21-.14-.41-.25-.57-.13-.17-.28-.31-.48-.41-.18-.11-.43-.15-.71-.15s-.49.03-.7.11c-.2.07-.38.18-.52.32-.14.14-.24.31-.32.5-.07.2-.11.41-.11.66,0,.27.04.52.11.73.07.21.18.41.35.57.17.17.39.34.66.49.28.15.6.31,1.01.48.39.17.76.34,1.06.53.31.18.58.39.8.63.22.22.38.48.5.77.11.28.17.6.17.97,0,.45-.08.84-.24,1.19-.17.35-.39.65-.7.88-.29.24-.66.43-1.08.55-.43.14-.9.2-1.43.2M169.89,187.13c.15,0,.31-.01.45-.03.13-.03.25-.07.36-.13.1-.07.18-.17.24-.29.07-.13.1-.28.1-.49v-4.44c0-.2-.03-.36-.1-.49-.06-.13-.14-.22-.24-.29-.11-.07-.24-.11-.36-.14-.14-.01-.29-.03-.45-.03h-.04v-.59h2.51v5.91c0,.23.04.39.1.53.06.13.14.22.24.29.11.08.24.13.38.14.14.03.28.04.43.04h.2v.59h-3.99v-.59h.18ZM170.84,177.94c0-.17.03-.31.06-.42.04-.11.11-.2.18-.27.07-.07.15-.11.25-.14.1-.03.2-.04.31-.04s.21.01.31.04c.1.03.18.07.25.14.07.07.13.15.17.27.06.11.07.25.07.42,0,.15-.01.29-.07.41-.04.11-.1.2-.17.27-.07.07-.15.13-.25.15-.1.03-.2.04-.31.04s-.21-.01-.31-.04c-.1-.03-.18-.08-.25-.15-.07-.07-.14-.15-.18-.27-.03-.11-.06-.25-.06-.41"/>
    </g>
  </g>
</svg>