<?xml version="1.0" encoding="UTF-8"?>
<svg id="Layer_1" data-name="Layer 1" xmlns="http://www.w3.org/2000/svg" version="1.1" xmlns:xlink="http://www.w3.org/1999/xlink" viewBox="0 0 243.78 243.78">
  <defs>
    <style>
      .cls-1 {
        fill: #f58345;
      }

      .cls-1, .cls-2, .cls-3, .cls-4, .cls-5, .cls-6, .cls-7, .cls-8, .cls-9 {
        stroke-width: 0px;
      }

      .cls-1, .cls-5, .cls-6 {
        fill-rule: evenodd;
      }

      .cls-2 {
        fill: #231f20;
      }

      .cls-3 {
        fill: #4fa392;
      }

      .cls-4, .cls-10, .cls-11 {
        fill: none;
      }

      .cls-12 {
        clip-path: url(#clippath-1);
      }

      .cls-5 {
        fill: #8ed8f8;
      }

      .cls-10, .cls-11 {
        stroke: #231f20;
        stroke-miterlimit: 22.93;
        stroke-width: .57px;
      }

      .cls-6 {
        fill: #fff9ae;
      }

      .cls-13 {
        clip-path: url(#clippath);
      }

      .cls-7 {
        fill: #0095da;
      }

      .cls-8 {
        fill: #fff;
      }

      .cls-9 {
        fill: #fed09e;
      }

      .cls-11 {
        stroke-dasharray: 0 0 1.13 1.7;
      }
    </style>
    <clipPath id="clippath">
      <rect class="cls-4" width="243.78" height="243.78"/>
    </clipPath>
    <clipPath id="clippath-1">
      <rect class="cls-4" width="243.78" height="243.78"/>
    </clipPath>
  </defs>
  <g class="cls-13">
    <rect class="cls-8" x="1.9" width="241.88" height="243.78"/>
    <g class="cls-12">
      <path class="cls-2" d="M13.77,97.16l-.52-1.33h-.07c-.45.56-.92.95-1.39,1.19-.49.22-1.1.33-1.87.33-.94,0-1.69-.27-2.23-.81-.54-.54-.81-1.31-.81-2.3,0-1.04.36-1.82,1.1-2.31.72-.5,1.84-.77,3.3-.83l1.71-.05v-.43c0-.99-.5-1.49-1.53-1.49-.79,0-1.71.23-2.77.72l-.88-1.82c1.13-.59,2.38-.88,3.76-.88,1.31,0,2.32.29,3.02.87.7.58,1.06,1.44,1.06,2.61v6.55h-1.87ZM12.98,92.61l-1.04.04c-.77.02-1.35.16-1.73.41-.4.27-.58.67-.58,1.19,0,.76.43,1.13,1.3,1.13.63,0,1.12-.18,1.49-.54.38-.36.56-.83.56-1.42v-.81ZM22.37,92.23c0,1.53-.23,2.97-.68,4.3-.45,1.33-1.1,2.49-1.96,3.47h-2.18c.79-1.08,1.4-2.29,1.84-3.62.43-1.35.65-2.74.65-4.18s-.22-2.83-.63-4.18c-.43-1.35-1.04-2.59-1.87-3.73h2.2c.86,1.03,1.51,2.21,1.96,3.57.45,1.37.68,2.81.68,4.36"/>
      <path class="cls-2" d="M13,153.2c1.15,0,2.07.45,2.72,1.35.67.92.99,2.16.99,3.73s-.34,2.88-1.01,3.78c-.68.88-1.6,1.33-2.77,1.33s-2.05-.42-2.72-1.26h-.18l-.45,1.08h-2.05v-13.68h2.68v3.19c0,.4-.04,1.04-.11,1.94h.11c.63-.97,1.57-1.46,2.79-1.46M12.13,155.34c-.67,0-1.13.2-1.44.61-.31.41-.47,1.08-.49,2.02v.29c0,1.06.16,1.82.47,2.27.32.47.81.68,1.49.68.56,0,.99-.25,1.31-.76.32-.5.49-1.24.49-2.21s-.16-1.69-.49-2.18-.77-.72-1.35-.72M22.9,158.28c0,1.53-.23,2.97-.68,4.3-.45,1.33-1.1,2.49-1.96,3.47h-2.18c.79-1.08,1.4-2.29,1.84-3.62.43-1.35.65-2.74.65-4.18s-.22-2.83-.63-4.18c-.43-1.35-1.04-2.59-1.87-3.73h2.2c.86,1.03,1.51,2.21,1.96,3.57.45,1.37.68,2.81.68,4.36"/>
      <rect class="cls-9" x="31.16" y="92.04" width="205.74" height="24.53"/>
      <rect class="cls-9" x="31.16" y="156.63" width="205.74" height="24.53"/>
      <path class="cls-2" d="M41.55,107.96c0,.82-.29,1.46-.88,1.93-.59.47-1.42.71-2.47.71-1.1,0-1.97-.14-2.58-.45v-1.13c.39.17.83.32,1.3.41.47.1.92.14,1.33.14.71,0,1.24-.13,1.59-.39.36-.28.53-.64.53-1.12,0-.32-.07-.57-.18-.78-.13-.2-.34-.38-.65-.57-.3-.17-.76-.37-1.38-.59-.87-.32-1.49-.68-1.85-1.12-.38-.43-.57-.99-.57-1.67,0-.74.28-1.31.83-1.75.55-.43,1.28-.65,2.17-.65.95,0,1.8.17,2.59.53l-.37,1.01c-.8-.33-1.55-.5-2.25-.5-.55,0-.99.12-1.3.35-.32.25-.47.58-.47,1.01,0,.3.07.57.18.76.12.21.32.4.59.57.28.16.7.35,1.28.57.7.26,1.22.51,1.57.75.34.24.59.53.76.83.16.32.24.7.24,1.13M43.88,101.52c0-.26.07-.45.2-.57.13-.12.29-.17.49-.17.18,0,.34.05.47.17.13.12.2.3.2.57s-.07.43-.2.55c-.13.12-.29.18-.47.18-.2,0-.35-.07-.49-.18-.13-.12-.2-.3-.2-.55M45.13,110.48h-1.16v-7.05h1.16v7.05Z"/>
      <path class="cls-2" d="M41.55,172.55c0,.82-.29,1.46-.88,1.93-.59.47-1.42.71-2.47.71-1.1,0-1.97-.15-2.58-.45v-1.13c.39.17.83.32,1.3.41.47.11.92.15,1.33.15.71,0,1.24-.13,1.59-.4.36-.28.53-.64.53-1.12,0-.32-.07-.57-.18-.78-.13-.2-.34-.38-.65-.57-.3-.17-.76-.37-1.38-.59-.87-.32-1.49-.68-1.85-1.12-.38-.43-.57-.99-.57-1.67,0-.74.28-1.32.83-1.75.55-.43,1.28-.64,2.17-.64.95,0,1.8.17,2.59.53l-.37,1.01c-.8-.33-1.55-.5-2.25-.5-.55,0-.99.12-1.3.36-.32.25-.47.58-.47,1.01,0,.3.07.57.18.76.12.21.32.39.59.57.28.16.7.36,1.28.57.7.26,1.22.51,1.57.75.34.24.59.53.76.83.16.32.24.7.24,1.13M43.88,166.1c0-.26.07-.45.2-.57.13-.12.29-.17.49-.17.18,0,.34.05.47.17.13.12.2.3.2.57s-.07.43-.2.55c-.13.12-.29.18-.47.18-.2,0-.35-.06-.49-.18-.13-.12-.2-.3-.2-.55M45.13,175.06h-1.16v-7.05h1.16v7.05Z"/>
      <path class="cls-2" d="M60.97,108.24c0,.45-.04.85-.12,1.17-.08.33-.21.6-.38.82-.16.22-.36.38-.6.48-.24.1-.51.15-.82.15-.18,0-.35-.02-.49-.06-.15-.05-.28-.1-.4-.18-.12-.07-.22-.16-.32-.25-.08-.1-.17-.22-.24-.34h-.04c0,.16.02.31.02.45,0,.06,0,.12,0,.19,0,.06,0,.12,0,.17v1.16c0,.13.03.24.07.33.04.08.09.15.17.2.07.04.15.07.24.08.09,0,.19.02.29.02h.03v.39h-2.53v-.39h.08c.1,0,.21-.01.3-.02.09-.02.18-.05.24-.09.06-.05.12-.12.16-.21.05-.09.07-.22.07-.36v-5.19c0-.13-.02-.24-.07-.33-.04-.08-.09-.15-.16-.2-.08-.05-.16-.07-.24-.09-.09,0-.2-.02-.3-.02h-.12v-.4h1.64l.09.85h.04c.08-.14.15-.27.24-.39.08-.12.19-.22.3-.3.12-.08.25-.14.4-.19.15-.05.32-.07.5-.07.31,0,.58.05.82.15.24.1.44.26.6.48.17.21.29.48.38.81s.12.71.12,1.17M58.9,106.24c-.24,0-.45.04-.61.12-.17.07-.29.21-.4.37-.09.17-.17.38-.21.63-.04.24-.07.54-.07.88s.03.62.07.86c.04.25.11.46.21.64.1.17.23.3.4.38.17.09.38.13.62.13.21,0,.39-.05.53-.13.15-.08.26-.22.36-.38.09-.18.17-.39.21-.64.05-.25.07-.54.07-.87s-.02-.63-.07-.87c-.04-.25-.11-.46-.21-.62-.09-.17-.21-.29-.36-.38-.15-.08-.33-.12-.54-.12"/>
      <path class="cls-2" d="M60.97,172.83c0,.45-.04.85-.12,1.17-.08.33-.21.6-.38.82-.16.22-.36.38-.6.48-.24.1-.51.15-.82.15-.18,0-.35-.02-.49-.06-.15-.05-.28-.1-.4-.18-.12-.07-.22-.16-.32-.25-.08-.1-.17-.22-.24-.34h-.04c0,.16.02.31.02.45,0,.06,0,.12,0,.19,0,.06,0,.12,0,.17v1.16c0,.13.03.24.07.33.04.08.09.15.17.2.07.04.15.07.24.08.09,0,.19.02.29.02h.03v.39h-2.53v-.39h.08c.1,0,.21-.01.3-.02.09-.02.18-.05.24-.09.06-.05.12-.12.16-.21.05-.09.07-.22.07-.36v-5.19c0-.13-.02-.24-.07-.33-.04-.08-.09-.15-.16-.2-.08-.05-.16-.07-.24-.09-.09,0-.2-.02-.3-.02h-.12v-.39h1.64l.09.85h.04c.08-.14.15-.27.24-.39.08-.12.19-.22.3-.3.12-.08.25-.14.4-.19.15-.05.32-.07.5-.07.31,0,.58.05.82.15.24.1.44.26.6.48.17.21.29.48.38.81.08.33.12.71.12,1.17M58.9,170.83c-.24,0-.45.04-.61.12-.17.08-.29.21-.4.37-.09.17-.17.38-.21.63-.04.24-.07.54-.07.88s.03.62.07.86c.04.25.11.46.21.64.1.17.23.3.4.39.17.08.38.13.62.13.21,0,.39-.05.53-.13.15-.08.26-.22.36-.39.09-.18.17-.39.21-.64.05-.25.07-.54.07-.87s-.02-.63-.07-.87c-.04-.25-.11-.46-.21-.62-.09-.17-.21-.29-.36-.38-.15-.08-.33-.12-.54-.12"/>
      <rect class="cls-2" x="61.83" y="110.34" width="2.44" height=".71"/>
      <rect class="cls-2" x="61.83" y="174.92" width="2.44" height=".71"/>
      <path class="cls-3" d="M176.3,80.1c-.81,0-1.53-.13-2.13-.36-.6-.25-1.11-.6-1.5-1.05-.41-.45-.7-1-.9-1.62-.2-.64-.29-1.35-.29-2.12s.1-1.44.31-2.07.52-1.18.94-1.62c.41-.45.93-.8,1.53-1.05.62-.25,1.33-.38,2.13-.38.52,0,.98.04,1.36.11.39.08.71.2.97.34.27.14.45.31.57.51.14.18.2.39.2.62,0,.15-.03.29-.1.41-.07.13-.17.22-.28.31-.11.08-.25.15-.41.2-.17.04-.34.07-.52.07,0-.23-.03-.43-.1-.65-.06-.21-.17-.41-.31-.57s-.34-.31-.57-.42c-.24-.11-.53-.15-.87-.15-.59,0-1.09.1-1.51.28-.42.2-.76.49-1.02.85-.27.38-.46.84-.57,1.39-.13.55-.18,1.18-.18,1.88s.06,1.32.18,1.86c.13.55.32,1.01.6,1.37.28.38.64.66,1.08.85.45.18.98.28,1.62.28.27,0,.53-.01.79-.04s.48-.07.67-.13v-2.27c0-.21-.03-.36-.1-.49-.06-.13-.14-.22-.24-.29-.11-.07-.24-.11-.38-.14-.13-.01-.28-.03-.43-.03h-.06v-.59h3.64v.59h-.06c-.14,0-.25.01-.38.03-.11.03-.22.07-.31.14-.08.07-.15.18-.21.31-.04.14-.07.31-.07.53v2.49c-.46.23-.95.38-1.44.49-.5.1-1.05.15-1.65.15M184.28,73.01c-.27,0-.48.03-.65.11-.17.07-.29.18-.39.32-.1.13-.15.29-.2.48-.03.2-.04.39-.04.62-.39,0-.69-.07-.88-.2-.21-.14-.31-.36-.31-.69,0-.24.07-.45.2-.62.14-.17.32-.31.55-.42.22-.1.5-.18.8-.24.31-.04.63-.07.98-.07.43,0,.8.04,1.12.13.32.08.59.22.8.41.22.2.38.45.49.76.1.31.15.69.15,1.13v3.63c0,.2.01.36.06.49.03.13.07.22.14.31.07.07.17.13.28.15.11.04.24.06.39.06h.04v.59h-1.89l-.22-1.21h-.11c-.15.2-.29.38-.42.55-.14.15-.29.31-.46.42-.15.13-.35.21-.55.28-.21.07-.46.1-.76.1s-.59-.04-.85-.13c-.28-.1-.5-.24-.7-.42-.2-.18-.34-.42-.45-.7s-.17-.62-.17-.99c0-.74.27-1.29.8-1.65.52-.37,1.32-.56,2.4-.59l1.16-.04v-.84c0-.25-.01-.49-.04-.7-.03-.21-.08-.39-.18-.55-.08-.15-.22-.27-.39-.35-.17-.08-.39-.13-.69-.13M182.59,77.93c0,.45.1.77.28.98.18.22.48.32.85.32.28,0,.55-.04.77-.13.22-.1.42-.22.59-.39.17-.17.28-.38.38-.62.08-.24.13-.51.13-.8v-1.13l-.9.04c-.39.01-.73.07-.99.14-.27.08-.48.2-.64.34s-.28.32-.35.53c-.07.21-.11.45-.11.71M191.98,79.4c.18,0,.34-.01.48-.03.14-.01.28-.04.42-.07v.59c-.06.03-.13.06-.22.08-.1.03-.2.04-.31.07-.11.01-.24.03-.36.04-.11.01-.24.01-.34.01-.36,0-.67-.04-.92-.11-.25-.08-.46-.2-.63-.36-.17-.17-.29-.39-.36-.67-.08-.28-.13-.62-.13-1.02v-4.68h-1.07v-.56c.17,0,.35-.03.56-.1.2-.07.38-.18.53-.35.17-.17.29-.38.39-.62.1-.24.18-.53.25-.9h.64v1.72h1.84v.8h-1.84v4.75c0,.49.1.84.29,1.06s.45.34.77.34M197.07,80.1c-.5,0-.95-.08-1.36-.25-.41-.18-.74-.42-1.02-.76-.28-.32-.49-.73-.64-1.2-.15-.48-.22-1.02-.22-1.62,0-1.32.27-2.3.81-2.96.53-.66,1.3-.99,2.3-.99.45,0,.85.07,1.22.21.36.14.66.36.91.64.25.28.45.63.59,1.06.13.42.2.91.2,1.47v.65h-4.66c.01.5.07.92.15,1.29.1.37.24.66.41.9.18.22.39.39.65.5s.55.17.88.17c.24,0,.46-.03.67-.08.21-.06.39-.13.56-.21.17-.08.32-.2.45-.31.14-.11.24-.22.32-.35.07.03.13.08.18.17s.08.18.08.31c0,.14-.04.29-.15.45-.1.17-.25.31-.45.45-.21.14-.46.25-.77.34-.31.1-.67.14-1.09.14M196.93,73.11c-.52,0-.92.21-1.22.62-.28.42-.45,1.02-.5,1.82h3.28c0-.36-.03-.7-.08-.99s-.14-.56-.27-.77c-.11-.21-.28-.38-.48-.5-.2-.11-.43-.17-.73-.17"/>
      <path class="cls-3" d="M175.59,143.98c-.81,0-1.53-.13-2.13-.36-.6-.25-1.11-.6-1.5-1.05-.41-.45-.7-1-.9-1.62-.2-.64-.29-1.35-.29-2.11s.1-1.44.31-2.07c.21-.63.52-1.18.94-1.62.41-.45.92-.8,1.53-1.05.62-.25,1.33-.38,2.13-.38.52,0,.98.04,1.36.11.39.08.71.2.97.34.27.14.45.31.57.5.14.18.2.39.2.62,0,.15-.03.29-.1.41-.07.13-.17.22-.28.31-.11.08-.25.15-.41.2-.17.04-.34.07-.52.07,0-.22-.03-.43-.1-.64-.06-.21-.17-.41-.31-.57-.14-.17-.34-.31-.57-.42-.24-.11-.53-.15-.87-.15-.59,0-1.09.1-1.51.28-.42.2-.76.49-1.02.85-.27.38-.46.84-.57,1.39-.13.55-.18,1.18-.18,1.88s.06,1.32.18,1.86c.13.55.32,1.01.6,1.37.28.38.64.66,1.08.85.45.18.98.28,1.62.28.27,0,.53-.01.78-.04s.48-.07.67-.13v-2.27c0-.21-.03-.36-.1-.49-.06-.13-.14-.22-.24-.29-.11-.07-.24-.11-.38-.14-.13-.01-.28-.03-.43-.03h-.06v-.59h3.64v.59h-.06c-.14,0-.25.01-.38.03-.11.03-.22.07-.31.14s-.15.18-.21.31c-.04.14-.07.31-.07.53v2.49c-.46.23-.95.38-1.44.49-.51.1-1.05.15-1.65.15M183.58,136.89c-.27,0-.48.03-.64.11-.17.07-.29.18-.39.32-.1.13-.15.29-.2.48-.03.2-.04.39-.04.62-.39,0-.69-.07-.88-.2-.21-.14-.31-.36-.31-.69,0-.24.07-.45.2-.62.14-.17.32-.31.55-.42.22-.1.51-.18.8-.24.31-.04.63-.07.98-.07.43,0,.8.04,1.12.13.32.08.59.22.8.41.22.2.38.45.49.76.1.31.15.69.15,1.13v3.63c0,.2.01.36.06.49.03.13.07.22.14.31.07.07.17.13.28.15.11.04.24.06.39.06h.04v.59h-1.89l-.22-1.21h-.11c-.15.2-.29.38-.42.55-.14.15-.29.31-.46.42-.15.13-.35.21-.55.28-.21.07-.46.1-.76.1s-.59-.04-.85-.13c-.28-.1-.5-.24-.7-.42-.2-.18-.34-.42-.45-.7s-.17-.62-.17-.99c0-.74.27-1.29.8-1.65.52-.36,1.32-.56,2.4-.59l1.16-.04v-.84c0-.25-.01-.49-.04-.7-.03-.21-.08-.39-.18-.55-.08-.15-.22-.27-.39-.35-.17-.08-.39-.13-.69-.13M181.88,141.81c0,.45.1.77.28.98.18.22.48.32.86.32.28,0,.55-.04.77-.13.22-.1.42-.22.59-.39s.28-.38.38-.62c.08-.24.13-.51.13-.8v-1.13l-.9.04c-.39.01-.73.07-.99.14-.27.08-.48.2-.64.34-.17.14-.28.32-.35.53-.07.21-.11.45-.11.71M191.27,143.28c.18,0,.34-.01.48-.03s.28-.04.42-.07v.59c-.06.03-.13.06-.22.08-.1.03-.2.04-.31.07-.11.01-.24.03-.36.04-.11.01-.24.01-.34.01-.36,0-.67-.04-.92-.11-.25-.08-.46-.2-.63-.36-.17-.17-.29-.39-.37-.67-.08-.28-.13-.62-.13-1.02v-4.68h-1.06v-.56c.17,0,.35-.03.56-.1.2-.07.38-.18.53-.35.17-.17.29-.38.39-.62.1-.24.18-.53.25-.9h.64v1.72h1.84v.8h-1.84v4.75c0,.49.1.84.29,1.06s.45.34.77.34M196.36,143.98c-.5,0-.95-.08-1.36-.25-.41-.18-.74-.42-1.02-.76-.28-.32-.49-.73-.64-1.2-.15-.48-.22-1.02-.22-1.62,0-1.32.27-2.3.81-2.96.53-.66,1.3-.99,2.3-.99.45,0,.85.07,1.22.21.36.14.66.36.91.64.25.28.45.63.59,1.06.13.42.2.91.2,1.47v.64h-4.66c.01.5.07.92.15,1.29.1.36.24.66.41.9.18.22.39.39.65.5s.55.17.88.17c.24,0,.46-.03.67-.08.21-.06.39-.13.56-.21.17-.08.32-.2.45-.31.14-.11.24-.22.32-.35.07.03.13.08.18.17s.08.18.08.31c0,.14-.04.29-.15.45-.1.17-.25.31-.45.45-.21.14-.46.25-.77.34-.31.1-.67.14-1.09.14M196.22,136.99c-.52,0-.92.21-1.22.62-.28.42-.45,1.02-.5,1.82h3.28c0-.36-.03-.7-.08-.99-.06-.29-.14-.56-.27-.77-.11-.21-.28-.38-.48-.5-.2-.11-.43-.17-.73-.17"/>
      <path class="cls-7" d="M34.63,86.05c-.58,0-1.09-.09-1.52-.26-.43-.18-.79-.43-1.07-.75-.29-.32-.5-.71-.64-1.16-.14-.46-.21-.96-.21-1.51s.07-1.03.22-1.48c.15-.45.37-.84.67-1.16.29-.32.66-.57,1.09-.75.44-.18.95-.27,1.52-.27.37,0,.7.03.97.08.28.06.51.14.69.24.19.1.32.22.41.36.1.13.14.28.14.44,0,.11-.02.21-.07.29-.05.09-.12.16-.2.22-.08.06-.18.11-.29.14-.12.03-.24.05-.37.05,0-.16-.02-.31-.07-.46-.04-.15-.12-.29-.22-.41-.1-.12-.24-.22-.41-.3-.17-.08-.38-.11-.62-.11-.42,0-.78.07-1.08.2-.3.14-.54.35-.73.61-.19.27-.33.6-.41.99-.09.39-.13.84-.13,1.34s.04.94.13,1.33.23.72.43.98c.2.27.46.47.77.61.32.13.7.2,1.16.2.19,0,.38,0,.56-.03s.34-.05.48-.09v-1.62c0-.15-.02-.26-.07-.35-.04-.09-.1-.16-.17-.21-.08-.05-.17-.08-.27-.1-.09,0-.2-.02-.31-.02h-.04v-.42h2.6v.42h-.04c-.1,0-.18,0-.27.02-.08.02-.16.05-.22.1s-.11.13-.15.22c-.03.1-.05.22-.05.38v1.78c-.33.16-.68.27-1.03.35-.36.07-.75.11-1.18.11M40.88,85.95h-2.89v-.42h.03c.11,0,.22-.01.32-.03.1-.01.19-.04.26-.1.07-.05.13-.12.17-.21.05-.1.07-.22.07-.38v-3.12c0-.14-.02-.26-.07-.35-.04-.09-.1-.16-.17-.21-.08-.05-.17-.08-.26-.1-.1,0-.21-.02-.32-.02h-.03v-.42h1.54l.19.99h.05c.07-.15.13-.29.2-.42.07-.14.16-.25.25-.35.1-.1.23-.18.37-.24.15-.05.33-.08.55-.08.37,0,.64.06.82.19.17.13.26.31.26.54,0,.1-.02.2-.05.28-.03.09-.09.17-.16.23-.08.06-.17.11-.29.15-.12.03-.26.05-.43.05,0-.28-.04-.49-.12-.61-.08-.13-.21-.19-.41-.19-.12,0-.23.03-.33.1-.1.07-.18.17-.25.28-.08.12-.14.25-.19.4-.05.15-.09.31-.12.47-.03.16-.05.31-.07.47,0,.16-.02.3-.02.43v1.58c0,.14.03.26.07.35.04.09.1.16.18.21.07.04.16.07.26.09.1,0,.2.02.31.02h.28v.42ZM47.48,83.26c0,.94-.2,1.64-.6,2.1-.4.46-.98.69-1.75.69-.36,0-.68-.06-.97-.17-.29-.12-.53-.29-.73-.52-.2-.23-.35-.52-.46-.87-.11-.35-.16-.76-.16-1.23,0-.94.2-1.63.59-2.09.4-.45.99-.68,1.76-.68.36,0,.69.06.97.17.29.11.53.28.73.51.2.23.36.52.46.87.11.34.16.75.16,1.22M43.79,83.25c0,.38.03.71.08,1,.04.28.12.52.23.72.11.19.25.33.43.43.17.1.38.15.63.15s.46-.05.64-.15c.17-.1.31-.24.42-.43.1-.2.18-.44.23-.72.05-.29.07-.62.07-1s-.03-.7-.07-.98c-.05-.29-.13-.52-.24-.71-.11-.19-.25-.33-.42-.43-.17-.09-.39-.14-.64-.14s-.46.05-.63.14c-.17.1-.31.24-.42.43s-.19.42-.23.71c-.05.28-.08.61-.08.98M53.2,84.86c0,.15.02.26.07.35.04.09.1.16.17.21.08.04.17.07.27.09.1,0,.2.02.31.02h.03v.42h-1.59l-.13-.81h-.05c-.1.19-.21.34-.33.46-.12.12-.25.21-.39.28-.14.06-.28.11-.43.13-.15.03-.31.04-.47.04-.26,0-.5-.04-.7-.11-.21-.08-.38-.2-.52-.35-.14-.16-.25-.37-.32-.62-.07-.24-.11-.54-.11-.88v-2.4c0-.14-.02-.26-.07-.35-.04-.09-.1-.16-.17-.21-.08-.05-.17-.08-.26-.1-.1,0-.21-.02-.32-.02h-.03v-.42h1.79v3.45c0,.22.02.41.05.58.04.17.1.32.17.43.08.12.19.21.33.27.13.06.3.09.5.09.22,0,.41-.04.57-.12s.29-.19.39-.33c.1-.14.18-.31.23-.51.04-.2.07-.42.07-.66v-2.06c0-.15-.02-.28-.07-.38-.04-.09-.1-.17-.17-.22-.08-.05-.16-.08-.26-.1-.1,0-.21-.02-.32-.02h-.03v-.42h1.79v4.27ZM57.15,85.53v.42h-2.69v-.42h.08c.11,0,.22-.01.32-.03.1-.01.19-.04.26-.1.07-.05.13-.12.17-.21.05-.1.07-.22.07-.38v-3.12c0-.14-.02-.26-.07-.35-.04-.09-.1-.16-.17-.21-.08-.05-.17-.08-.26-.1-.1,0-.21-.02-.32-.02h-.03v-.42h1.62l.13.81h.05c.11-.19.22-.34.33-.46.12-.12.24-.21.37-.28.13-.06.26-.11.41-.13.14-.03.29-.04.45-.04.27,0,.5.04.71.11.2.08.38.2.52.36.15.15.26.36.34.6.07.25.11.55.11.89v2.36c0,.16.02.28.06.38.03.09.09.16.16.21.06.06.15.09.24.1.09.02.2.03.31.03h.03v.42h-1.74v-3.45c0-.22-.02-.42-.06-.58-.04-.17-.1-.32-.19-.43-.08-.12-.2-.21-.34-.27s-.31-.09-.51-.09c-.23,0-.42.04-.57.13-.16.09-.28.21-.37.36-.1.15-.17.32-.21.51-.04.2-.06.41-.06.62v2.11c0,.15.03.26.07.35.04.09.1.16.18.21.07.04.16.07.26.09.1,0,.2.02.31.02h.03ZM65.58,84.85c0,.15.02.26.07.35.04.09.1.16.17.21.08.05.17.08.27.1.1,0,.2.02.31.02h.08v.42h-1.69l-.11-.9h-.04c-.08.16-.16.29-.26.42-.09.12-.2.22-.33.31-.12.08-.26.15-.42.2-.15.05-.33.07-.52.07-.33,0-.62-.05-.88-.16-.25-.11-.46-.28-.64-.51-.17-.22-.3-.51-.39-.86-.09-.35-.13-.76-.13-1.24s.04-.9.13-1.25c.09-.35.22-.64.39-.87.18-.23.39-.4.64-.51.26-.11.55-.16.88-.16.19,0,.36.02.52.06.15.04.3.11.42.18.13.08.24.17.33.28.1.11.19.23.26.36h.06c-.01-.16-.02-.32-.03-.46-.01-.12-.02-.25-.02-.37-.01-.12-.01-.21-.01-.27v-.82c0-.15-.02-.27-.07-.36-.04-.09-.1-.15-.18-.2-.07-.05-.16-.08-.26-.1-.1,0-.2-.02-.31-.02h-.08v-.42h1.84v6.5ZM63.28,85.41c.26,0,.48-.04.65-.13s.31-.22.42-.39c.1-.18.18-.4.22-.67.05-.27.07-.58.07-.94s-.02-.66-.07-.92c-.04-.27-.12-.5-.22-.68-.11-.18-.25-.31-.42-.41-.18-.09-.4-.14-.66-.14-.22,0-.4.05-.56.14-.16.1-.28.23-.38.42-.1.18-.17.4-.22.67-.04.27-.07.58-.07.93,0,.71.1,1.24.29,1.59.19.35.51.53.95.53"/>
      <path class="cls-7" d="M34.63,150.63c-.58,0-1.09-.09-1.52-.26-.43-.18-.79-.43-1.07-.75-.29-.32-.5-.71-.64-1.16-.14-.46-.21-.96-.21-1.51s.07-1.03.22-1.48c.15-.45.37-.84.67-1.16.29-.32.66-.57,1.09-.75.44-.18.95-.27,1.52-.27.37,0,.7.03.97.08.28.06.51.14.69.24.19.1.32.22.41.36.1.13.14.28.14.44,0,.11-.02.21-.07.29-.05.09-.12.16-.2.22-.08.06-.18.11-.29.14-.12.03-.24.05-.37.05,0-.16-.02-.31-.07-.46-.04-.15-.12-.29-.22-.41-.1-.12-.24-.22-.41-.3-.17-.08-.38-.11-.62-.11-.42,0-.78.07-1.08.2-.3.14-.54.35-.73.61-.19.27-.33.6-.41.99-.09.39-.13.84-.13,1.34s.04.94.13,1.33.23.72.43.98c.2.27.46.47.77.61.32.13.7.2,1.16.2.19,0,.38-.01.56-.03.18-.02.34-.05.48-.09v-1.62c0-.15-.02-.26-.07-.35-.04-.09-.1-.16-.17-.21-.08-.05-.17-.08-.27-.1-.09-.01-.2-.02-.31-.02h-.04v-.42h2.6v.42h-.04c-.1,0-.18,0-.27.02-.08.02-.16.05-.22.1-.06.05-.11.13-.15.22-.03.1-.05.22-.05.38v1.78c-.33.16-.68.27-1.03.35-.36.07-.75.11-1.18.11M40.88,150.53h-2.89v-.42h.03c.11,0,.22-.01.32-.03.1-.01.19-.04.26-.1.07-.05.13-.12.17-.21.05-.1.07-.22.07-.38v-3.12c0-.14-.02-.26-.07-.35-.04-.09-.1-.16-.17-.21-.08-.05-.17-.08-.26-.1-.1,0-.21-.02-.32-.02h-.03v-.42h1.54l.19.99h.05c.07-.15.13-.29.2-.42.07-.14.16-.25.25-.35.1-.1.23-.18.37-.24.15-.05.33-.08.55-.08.37,0,.64.06.82.19.17.13.26.31.26.54,0,.1-.02.2-.05.28-.03.09-.09.17-.16.23-.08.06-.17.11-.29.15-.12.03-.26.05-.43.05,0-.28-.04-.49-.12-.61-.08-.13-.21-.19-.41-.19-.12,0-.23.03-.33.1-.1.07-.18.17-.25.28-.08.12-.14.25-.19.4-.05.15-.09.31-.12.47-.03.16-.05.31-.07.47,0,.16-.02.3-.02.43v1.58c0,.14.03.26.07.35.04.09.1.16.18.21.07.04.16.07.26.09.1,0,.2.02.31.02h.28v.42ZM47.48,147.84c0,.94-.2,1.64-.6,2.1-.4.46-.98.69-1.75.69-.36,0-.68-.06-.97-.17-.29-.12-.53-.29-.73-.52-.2-.23-.35-.52-.46-.87-.11-.35-.16-.76-.16-1.23,0-.94.2-1.63.59-2.09.4-.45.99-.68,1.76-.68.36,0,.69.06.97.17.29.11.53.28.73.51.2.23.36.52.46.87.11.34.16.75.16,1.22M43.79,147.83c0,.38.03.71.08,1,.04.28.12.52.23.72.11.19.25.33.43.43.17.1.38.15.63.15s.46-.05.64-.15c.17-.1.31-.24.42-.43.1-.2.18-.44.23-.72.05-.29.07-.62.07-1s-.03-.7-.07-.98c-.05-.29-.13-.52-.24-.71-.11-.19-.25-.33-.42-.43-.17-.09-.39-.14-.64-.14s-.46.05-.63.14c-.17.1-.31.24-.42.43-.11.19-.19.42-.23.71-.05.28-.08.61-.08.98M53.2,149.44c0,.15.02.26.07.35.04.09.1.16.17.21.08.04.17.07.27.09.1,0,.2.02.31.02h.03v.42h-1.59l-.13-.81h-.05c-.1.19-.21.34-.33.46-.12.12-.25.21-.39.28-.14.06-.28.11-.43.13-.15.03-.31.04-.47.04-.26,0-.5-.04-.7-.11-.21-.08-.38-.2-.52-.35-.14-.16-.25-.37-.32-.62-.07-.24-.11-.54-.11-.88v-2.4c0-.14-.02-.26-.07-.35-.04-.09-.1-.16-.17-.21-.08-.05-.17-.08-.26-.1-.1,0-.21-.02-.32-.02h-.03v-.42h1.79v3.45c0,.22.02.41.05.58.04.17.1.32.17.43.08.12.19.21.33.27.13.06.3.09.5.09.22,0,.41-.04.57-.12s.29-.19.39-.33c.1-.14.18-.31.23-.51.04-.2.07-.42.07-.66v-2.06c0-.15-.02-.28-.07-.38-.04-.09-.1-.17-.17-.22-.08-.05-.16-.08-.26-.1-.1,0-.21-.02-.32-.02h-.03v-.42h1.79v4.27ZM57.15,150.11v.42h-2.69v-.42h.08c.11,0,.22-.01.32-.03.1-.01.19-.04.26-.1.07-.05.13-.12.17-.21.05-.1.07-.22.07-.38v-3.12c0-.14-.02-.26-.07-.35-.04-.09-.1-.16-.17-.21-.08-.05-.17-.08-.26-.1-.1,0-.21-.02-.32-.02h-.03v-.42h1.62l.13.81h.05c.11-.19.22-.34.33-.46.12-.12.24-.21.37-.28.13-.06.26-.11.41-.13.14-.03.29-.04.45-.04.27,0,.5.04.71.11.2.08.38.2.52.36.15.15.26.36.34.6.07.25.11.55.11.89v2.36c0,.16.02.28.06.38.03.09.09.16.16.21.06.06.15.09.24.1.09.02.2.03.31.03h.03v.42h-1.74v-3.45c0-.22-.02-.42-.06-.58-.04-.17-.1-.32-.19-.43-.08-.12-.2-.21-.34-.27s-.31-.09-.51-.09c-.23,0-.42.04-.57.13-.16.09-.28.21-.37.36-.1.15-.17.32-.21.51-.04.2-.06.41-.06.62v2.11c0,.15.03.26.07.35.04.09.1.16.18.21.07.04.16.07.26.09.1,0,.2.02.31.02h.03ZM65.58,149.43c0,.15.02.26.07.35.04.09.1.16.17.21.08.05.17.08.27.1.1,0,.2.02.31.02h.08v.42h-1.69l-.11-.9h-.04c-.08.16-.16.29-.26.42-.09.12-.2.22-.33.31-.12.08-.26.15-.42.2-.15.05-.33.07-.52.07-.33,0-.62-.05-.88-.16-.25-.11-.46-.28-.64-.51-.17-.22-.3-.51-.39-.86-.09-.35-.13-.76-.13-1.24s.04-.9.13-1.25.22-.64.39-.87c.18-.23.39-.4.64-.51.26-.11.55-.16.88-.16.19,0,.36.02.52.06.15.04.3.11.42.18.13.08.24.17.33.28.1.11.19.23.26.36h.06c-.01-.16-.02-.32-.03-.46-.01-.12-.02-.25-.02-.37-.01-.12-.01-.21-.01-.27v-.82c0-.15-.02-.27-.07-.36-.04-.09-.1-.15-.18-.2-.07-.05-.16-.08-.26-.1-.1-.01-.2-.02-.31-.02h-.08v-.42h1.84v6.5ZM63.28,149.99c.26,0,.48-.04.65-.13.17-.09.31-.22.42-.39.1-.18.18-.4.22-.67.05-.27.07-.58.07-.94s-.02-.66-.07-.92c-.04-.27-.12-.5-.22-.68-.11-.18-.25-.31-.42-.41-.18-.09-.4-.14-.66-.14-.22,0-.4.05-.56.14-.16.1-.28.23-.38.42-.1.18-.17.4-.22.67-.04.27-.07.58-.07.93,0,.71.1,1.24.29,1.59.19.35.51.53.95.53"/>
      <line class="cls-10" x1="30.94" y1="91.9" x2="236.7" y2="91.9"/>
      <line class="cls-10" x1="30.94" y1="156.49" x2="236.7" y2="156.49"/>
      <path class="cls-6" d="M126.17,92.04c.01.17.02.34.02.52v9.42c0,4.6-3.81,8.37-8.46,8.37h-26.79c-4.65,0-8.46-3.76-8.46-8.37v-9.42c0-.17,0-.35.02-.52h43.67Z"/>
      <path class="cls-10" d="M126.17,92.04c.01.17.02.34.02.52v9.42c0,4.6-3.81,8.37-8.46,8.37h-26.79c-4.65,0-8.46-3.76-8.46-8.37v-9.42c0-.17,0-.35.02-.52h43.67Z"/>
      <path class="cls-6" d="M126.17,156.63c.01.17.02.34.02.52v9.42c0,4.6-3.81,8.37-8.46,8.37h-26.79c-4.65,0-8.46-3.76-8.46-8.37v-9.42c0-.17,0-.35.02-.52h43.67Z"/>
      <path class="cls-10" d="M126.17,156.63c.01.17.02.34.02.52v9.42c0,4.6-3.81,8.37-8.46,8.37h-26.79c-4.65,0-8.46-3.76-8.46-8.37v-9.42c0-.17,0-.35.02-.52h43.67Z"/>
      <path class="cls-6" d="M223.71,92.04c.01.17.02.34.02.52v9.42c0,4.6-3.7,8.37-8.23,8.37h-26.09c-4.53,0-8.23-3.76-8.23-8.37v-9.42c0-.17,0-.35.02-.52h42.53Z"/>
      <path class="cls-10" d="M223.71,92.04c.01.17.02.34.02.52v9.42c0,4.6-3.7,8.37-8.23,8.37h-26.09c-4.53,0-8.23-3.76-8.23-8.37v-9.42c0-.17,0-.35.02-.52h42.53Z"/>
      <path class="cls-6" d="M223.71,156.63c.01.17.02.34.02.52v9.42c0,4.6-3.7,8.37-8.23,8.37h-26.09c-4.53,0-8.23-3.76-8.23-8.37v-9.42c0-.17,0-.35.02-.52h42.53Z"/>
      <path class="cls-10" d="M223.71,156.63c.01.17.02.34.02.52v9.42c0,4.6-3.7,8.37-8.23,8.37h-26.09c-4.53,0-8.23-3.76-8.23-8.37v-9.42c0-.17,0-.35.02-.52h42.53Z"/>
      <rect class="cls-3" x="126.7" y="83.49" width="52.52" height="4.71"/>
      <rect class="cls-10" x="126.7" y="83.49" width="52.52" height="4.71"/>
      <rect class="cls-3" x="126" y="148.07" width="54.99" height="4.71"/>
      <rect class="cls-10" x="126" y="148.07" width="54.99" height="4.71"/>
      <path class="cls-5" d="M72.14,92.04c-.3,5.02-2.86,8.94-5.97,8.94s-5.67-3.92-5.97-8.94h11.94Z"/>
      <path class="cls-10" d="M72.14,92.04c-.3,5.02-2.86,8.94-5.97,8.94s-5.67-3.92-5.97-8.94h11.94Z"/>
      <path class="cls-5" d="M72.14,156.63c-.3,5.02-2.86,8.94-5.97,8.94s-5.67-3.92-5.97-8.94h11.94Z"/>
      <path class="cls-10" d="M72.14,156.63c-.3,5.02-2.86,8.94-5.97,8.94s-5.67-3.92-5.97-8.94h11.94Z"/>
      <path class="cls-10" d="M66.55,94.22c5.81-8.13,8.76-24.18,3.45-28.99-5.31-4.81-22.68-3.34-22.68,7.51"/>
      <path class="cls-10" d="M66.55,158.75c5.81-8.13,8.76-24.18,3.45-28.99-5.31-4.81-22.68-3.34-22.68,7.51"/>
      <path class="cls-10" d="M100.81,92.04c-.47-7.58,12.22-13.35,13.16-21.79"/>
      <path class="cls-10" d="M100.81,156.63c-.47-7.58,12.22-13.35,13.16-21.79"/>
      <path class="cls-10" d="M202.32,92.04c-.47-8.02,12.22-14.13,13.16-23.06"/>
      <path class="cls-10" d="M202.32,156.63c-.47-8.02,12.22-14.13,13.16-23.06"/>
      <path class="cls-10" d="M162.09,83.11c-.25-6.19,6.41-10.9,6.91-17.8"/>
      <path class="cls-10" d="M162.09,147.7c-.25-6.19,6.41-10.9,6.91-17.8"/>
      <line class="cls-10" x1="39.88" y1="73.15" x2="54.92" y2="73.15"/>
      <line class="cls-10" x1="42.41" y1="75.48" x2="52.39" y2="75.48"/>
      <line class="cls-10" x1="45.33" y1="77.8" x2="49.48" y2="77.8"/>
      <line class="cls-10" x1="39.88" y1="137.74" x2="54.92" y2="137.74"/>
      <line class="cls-10" x1="42.41" y1="140.06" x2="52.39" y2="140.06"/>
      <line class="cls-10" x1="45.33" y1="142.38" x2="49.48" y2="142.38"/>
      <path class="cls-11" d="M80.84,92.04c.09,2.49-1.13,6.17-.47,10.31.66,4.14,1.13,8.66,4.9,9.79,3.77,1.13,15.25,1.51,20.06,1.51s14.31.94,18.83-1.88c4.52-2.82,4.9-7.23,7.07-8.36,2.16-1.13,19.14-5.62,26.37-5.62s20.29-6.82,19.08,2.6c-1.21,9.41,6.07,13.57,13.29,13.57s30.31,2.2,33.84-.71c3.53-2.91,5.99-11.28,5.99-14.63s-1.23-6.58-1.23-6.58"/>
      <path class="cls-11" d="M80.84,156.63c.09,2.49-1.13,6.17-.47,10.31.66,4.14,1.13,8.66,4.9,9.79,3.77,1.13,15.25,1.51,20.06,1.51s14.31.94,18.83-1.88c4.52-2.83,6.35-4.47,8.52-5.6,2.17-1.13,15.87-2.94,23.1-3.85,7.22-.91,14.49.26,17.45,4.23,2.96,3.97,9.52,7.4,16.74,7.4s30.31,2.2,33.84-.71c3.53-2.91,5.99-11.28,5.99-14.63s-1.23-6.58-1.23-6.58"/>
      <polygon class="cls-2" points="106.91 103.03 106.91 104.77 106.36 104.77 106.36 103.03 104.63 103.03 104.63 102.48 106.36 102.48 106.36 100.74 106.91 100.74 106.91 102.48 108.65 102.48 108.65 103.03 106.91 103.03"/>
      <polygon class="cls-2" points="106.91 167.62 106.91 169.36 106.36 169.36 106.36 167.62 104.63 167.62 104.63 167.06 106.36 167.06 106.36 165.32 106.91 165.32 106.91 167.06 108.65 167.06 108.65 167.62 106.91 167.62"/>
      <polygon class="cls-2" points="208.6 103.03 208.6 104.77 208.05 104.77 208.05 103.03 206.32 103.03 206.32 102.48 208.05 102.48 208.05 100.74 208.6 100.74 208.6 102.48 210.34 102.48 210.34 103.03 208.6 103.03"/>
      <polygon class="cls-2" points="208.6 167.62 208.6 169.36 208.05 169.36 208.05 167.62 206.32 167.62 206.32 167.06 208.05 167.06 208.05 165.32 208.6 165.32 208.6 167.06 210.34 167.06 210.34 167.62 208.6 167.62"/>
      <path class="cls-2" d="M101.02,103.46v.4h-2.53v-.4h.08c.1,0,.21,0,.3-.03.09,0,.18-.04.24-.09.07-.05.12-.11.16-.2.05-.09.07-.21.07-.36v-2.93c0-.13-.02-.24-.07-.33-.04-.09-.09-.15-.16-.2-.07-.05-.16-.08-.24-.09-.09,0-.2-.02-.3-.02h-.03v-.39h1.52l.12.76h.05c.1-.18.21-.32.31-.43.11-.11.22-.2.35-.26.12-.06.25-.1.39-.12.13-.03.27-.04.42-.04.25,0,.47.04.67.1.19.07.36.19.49.34.14.14.24.34.32.56.07.24.1.52.1.84v2.22c0,.15.02.26.06.36.03.09.08.15.15.2.06.06.14.08.22.09.08.02.19.03.29.03h.03v.4h-1.64v-3.24c0-.21-.02-.4-.06-.54-.04-.16-.09-.3-.18-.4-.07-.11-.19-.2-.32-.25-.13-.06-.29-.08-.48-.08-.22,0-.39.04-.54.12-.15.09-.26.2-.35.34-.09.14-.16.3-.2.48-.04.19-.06.39-.06.58v1.98c0,.14.03.24.07.33.04.09.09.15.17.2.07.04.15.07.24.08.09.01.19.02.29.02h.03Z"/>
      <path class="cls-2" d="M101.02,168.04v.4h-2.53v-.4h.08c.1,0,.21,0,.3-.03.09,0,.18-.04.24-.09.07-.05.12-.11.16-.2.05-.09.07-.21.07-.36v-2.93c0-.13-.02-.25-.07-.33-.04-.08-.09-.15-.16-.2-.07-.05-.16-.08-.24-.09-.09,0-.2-.02-.3-.02h-.03v-.39h1.52l.12.76h.05c.1-.18.21-.32.31-.43.11-.11.22-.2.35-.26.12-.06.25-.1.39-.12.13-.03.27-.04.42-.04.25,0,.47.04.67.1.19.07.36.19.49.34.14.14.24.34.32.56.07.24.1.52.1.84v2.22c0,.15.02.26.06.36.03.09.08.15.15.2.06.06.14.08.22.09.08.02.19.03.29.03h.03v.4h-1.64v-3.24c0-.21-.02-.39-.06-.54-.04-.16-.09-.3-.18-.4-.07-.11-.19-.2-.32-.25-.13-.06-.29-.08-.48-.08-.22,0-.39.04-.54.12-.15.09-.26.2-.35.34-.09.14-.16.3-.2.48-.04.19-.06.39-.06.58v1.98c0,.14.03.25.07.33.04.08.09.15.17.2.07.04.15.07.24.08.09.01.19.02.29.02h.03Z"/>
      <path class="cls-2" d="M202.71,103.46v.4h-2.53v-.4h.08c.1,0,.21,0,.3-.03.09,0,.18-.04.24-.09.07-.05.12-.11.16-.2.05-.09.07-.21.07-.36v-2.93c0-.13-.02-.24-.07-.33-.04-.09-.09-.15-.16-.2-.07-.05-.16-.08-.24-.09-.09,0-.2-.02-.3-.02h-.03v-.39h1.52l.12.76h.05c.1-.18.21-.32.31-.43.11-.11.22-.2.35-.26.12-.06.24-.1.39-.12.13-.03.27-.04.42-.04.25,0,.47.04.67.1.19.07.36.19.49.34.14.14.24.34.32.56.07.24.1.52.1.84v2.22c0,.15.02.26.06.36.03.09.08.15.15.2.06.06.14.08.22.09.09.02.19.03.29.03h.03v.4h-1.64v-3.24c0-.21-.02-.4-.06-.54-.04-.16-.09-.3-.18-.4-.07-.11-.19-.2-.32-.25-.13-.06-.29-.08-.48-.08-.22,0-.39.04-.54.12-.15.09-.26.2-.35.34-.09.14-.16.3-.2.48-.04.19-.06.39-.06.58v1.98c0,.14.03.24.07.33.04.09.09.15.17.2.07.04.15.07.24.08.09.01.19.02.29.02h.03Z"/>
      <path class="cls-2" d="M202.71,168.04v.4h-2.53v-.4h.08c.1,0,.21,0,.3-.03.09,0,.18-.04.24-.09.07-.05.12-.11.16-.2.05-.09.07-.21.07-.36v-2.93c0-.13-.02-.25-.07-.33-.04-.08-.09-.15-.16-.2-.07-.05-.16-.08-.24-.09-.09,0-.2-.02-.3-.02h-.03v-.39h1.52l.12.76h.05c.1-.18.21-.32.31-.43.11-.11.22-.2.35-.26.12-.06.24-.1.39-.12.13-.03.27-.04.42-.04.25,0,.47.04.67.1.19.07.36.19.49.34.14.14.24.34.32.56.07.24.1.52.1.84v2.22c0,.15.02.26.06.36.03.09.08.15.15.2.06.06.14.08.22.09.09.02.19.03.29.03h.03v.4h-1.64v-3.24c0-.21-.02-.39-.06-.54-.04-.16-.09-.3-.18-.4-.07-.11-.19-.2-.32-.25-.13-.06-.29-.08-.48-.08-.22,0-.39.04-.54.12-.15.09-.26.2-.35.34-.09.14-.16.3-.2.48-.04.19-.06.39-.06.58v1.98c0,.14.03.25.07.33.04.08.09.15.17.2.07.04.15.07.24.08.09.01.19.02.29.02h.03Z"/>
      <polygon class="cls-1" points="126.16 156.36 181.14 156.36 181.14 161.58 126.16 165.84 126.16 156.36"/>
      <polygon class="cls-10" points="126.16 156.36 181.14 156.36 181.14 161.58 126.16 165.84 126.16 156.36"/>
      <polygon class="cls-1" points="171.5 92 126.16 98.59 126.16 92 171.5 92"/>
      <polygon class="cls-10" points="171.5 92 126.16 98.59 126.16 92 171.5 92"/>
    </g>
  </g>
</svg>