<?xml version="1.0" encoding="UTF-8"?>
<svg id="Layer_1" data-name="Layer 1" xmlns="http://www.w3.org/2000/svg" version="1.1" xmlns:xlink="http://www.w3.org/1999/xlink" viewBox="0 0 413 239">
  <defs>
    <style>
      .cls-1 {
        stroke-width: 0px;
      }

      .cls-1, .cls-2, .cls-3, .cls-4 {
        fill: none;
      }

      .cls-2 {
        stroke: #95cc71;
      }

      .cls-2, .cls-3, .cls-4 {
        stroke-linecap: round;
        stroke-linejoin: round;
        stroke-width: 1.27px;
      }

      .cls-3 {
        stroke: #000;
      }

      .cls-5 {
        clip-path: url(#clippath);
      }

      .cls-4 {
        stroke: #c23131;
      }
    </style>
    <clipPath id="clippath">
      <rect class="cls-1" x="-72" y="-392" width="514" height="685"/>
    </clipPath>
  </defs>
  <g class="cls-5">
    <line class="cls-3" x1="113.85" y1="79.72" x2="149.69" y2="79.72"/>
    <line class="cls-3" x1="150.32" y1="80.99" x2="177.6" y2="38.49"/>
    <line class="cls-3" x1="178.55" y1="37.86" x2="210.59" y2="37.86"/>
    <line class="cls-3" x1="238.5" y1="80.99" x2="275.61" y2="80.99"/>
    <line class="cls-3" x1="276.56" y1="81.31" x2="353.32" y2="44.83"/>
    <line class="cls-3" x1="353.95" y1="44.2" x2="389.79" y2="44.2"/>
    <polyline class="cls-3" points="17.3 147.18 18.57 147.7 19.08 147.63 22.73 147.79 35.91 147.87 36.09 147.98 36.42 147.97 36.7 148.17 37.71 148.23 37.9 148.39 42.9 148.45 42.47 148.67 41.96 149.19 41.9 149.15"/>
    <polyline class="cls-3" points="46.82 133.62 47.49 135.96 47.45 139.65 47.23 140.88 47.24 141.31 46.22 145.99 46.26 147.6 45.94 149.38 45.98 152.42 45.8 152.83 45.84 153.25 45.68 153.75 45.7 153.99 45.47 154.46 45.47 154.92 45.08 156.19 45.06 157.34 44.86 158.36 44.88 159.08 44.77 159.3 44.69 160.3 45.37 158.98"/>
    <polyline class="cls-3" points="48.11 133.88 47.98 133.56 48 132.94 47.99 133.08 48.48 132.99 48.63 133.16 49.13 133.39 49.61 133.9 49.89 134 50.71 134.63 51.09 135.28 52.25 136.41 52.93 136.86 53.13 137.42 53.43 137.95 53.72 138.18 54.44 139.7 54.63 139.79 55.05 140.35 56.18 140.83 56.81 141.59 57.16 141.68 57.76 142.41 58.36 142.62 58.76 142.95 59.87 143.49 59.89 143.61 60.29 143.91 60.65 144.02 61.41 144.58 62.39 145.06 63.3 145.86 63.57 146.43 63.76 146.57 65.47 147.35 65.88 147.74 66.4 148.03 66.55 148.26 66.91 148.38 67.33 148.78 68.49 149.39 68.56 149.6 67.96 150.55"/>
    <polyline class="cls-3" points="70.99 149.74 70.22 150.48 69.79 150.74 68.97 151.58 65.44 153.19 59.03 156.36 57.14 157.02 56.11 157.65 55.72 158.06 53.14 158.99 49.01 161.09 48.88 161.05 48 161.5 47.36 161.65 46.9 161.9 46.59 161.9 45.64 162.42 45.34 162.43 44.64 162.77 44.29 162.83 45.1 162.71"/>
    <polyline class="cls-3" points="75.24 149.48 75.05 149.4 76.64 149.44 76.87 149.55 77.92 149.52 78.5 149.42 79.1 149.16 80.56 149.17 81.3 149.06 81.67 148.9 82.46 148.9 82.65 148.79 83.98 148.62 84.13 148.52 93.2 148.59 96.82 148.76 97.28 148.86 97.98 149.2 98.57 149.16 99.28 149.32 101.78 149.43 101.9 149.54 102.6 149.62 105.04 149.61 105.64 149.76 107.81 149.83 108.18 150.05 109.78 150.01 110.29 150.21 110.91 150.28 115.26 150.28 115.8 150.14 121.12 150.06 121.21 150.16 121.81 150.24 122.31 150.43 122.63 150.41 122.82 150.52"/>
    <polyline class="cls-3" points="122.12 149.83 122.21 149.84 122.12 149.83 122.14 150.89 121.97 151.15 121.2 151.21 120.95 150.84 120.63 150.59 120.48 150.24 120.43 149.62 121.04 148.46 122.24 147.96 122.41 147.98 123.52 148.5 123.75 149.14 124.12 149.79 124.09 149.92 123.6 150.2 123.28 150.51 122.79 150.71 122.18 150.67 121.42 150.31 121.09 149.66 121.36 149.04 122.5 148.45 123.1 148.5 123.68 148.81 123.69 149.13 124.03 149.71 124 149.88 122.96 150.95 122.51 151.12 121.75 151.09 121.2 150.86 121.26 150.82 121.16 150.47 121.47 149.91 122 149.73 122.26 150.57 122.23 150.49 122.05 150.55 121.51 150.92 121.34 150.89 120.91 150.51 120.95 150.33 121.23 150.22"/>
    <line class="cls-3" x1="123.89" y1="148.11" x2="123.85" y2="148.1"/>
    <polyline class="cls-3" points="122.89 149.25 124.27 149.26 125.4 149.05 126.4 149.02 129.53 148.31 130.22 148.38 130.61 148.2 131.34 148.16 135.97 148.18 136.65 148.41 137.21 148.37 137.62 148.46 148.41 148.45 148.97 148.5 149.34 148.66 152.42 148.67 152.88 148.73 153.24 148.88 153.8 148.85 154.35 149 154.9 148.98 155.27 149.15 157.26 149.21 157.77 149.26 157.99 149.41 159.78 149.52 160.18 149.73 160.63 149.7 160.85 149.81 164.37 149.75 164.74 149.58 165.01 149.6 165.39 149.45 165.92 149.49 166.26 149.37 168.04 149.43"/>
    <polyline class="cls-3" points="173.9 135.9 173.89 137.85 173.77 138.11 173.79 138.8 173.68 139.07 173.7 139.74 173.59 140.01 173.62 141.08 173.12 143.31 173.16 144.39 172.98 145.21 172.96 146.52 172.75 147.24 172.79 147.92 172.74 148.65 172.57 149.21 172.61 149.78 172.55 150.55 172.44 150.72 172.41 151.8 172.19 152.24 172.09 153.52 171.09 155.45 171.14 155.74 171.08 156.39 170.97 156.54 170.99 156.96 171.3 156.94"/>
    <polyline class="cls-3" points="174.36 135.35 175.94 136.48 176.63 137.19 176.84 137.55 177.24 137.91 178.42 139.43 180.23 142.46 180.74 142.85 181.08 143.32 181.57 143.54 182.02 143.98 182.1 144.22 182.91 145.32 184.07 146.48 184.23 146.5 184.68 146.84 185.24 147.62 185.67 147.9 186.03 148.35 186.28 148.39 187.16 149.21 187.34 149.25 188.15 150.16 188.68 150.96 189.57 151.79 189.76 152.22 189.98 152.39 190.28 152.88 190.73 153.17 190.78 153.3 192.32 154.05 192.51 154.6"/>
    <polyline class="cls-3" points="191.54 154.34 191.47 154.27 191.13 154.58 190.06 155.09 189.45 155.77 187.73 156.36 186.48 157.01 183.79 157.83 182.94 157.82 180.03 158.95 176.1 160.23 173.52 161.31 173.02 161.26 172.65 161.53 171.6 161.87 170.69 162.29 171.25 162.12"/>
    <polyline class="cls-3" points="170.96 157.06 170.48 158.08 170.04 159.55 170 162.04"/>
    <polyline class="cls-3" points="120 150.15 120.21 151.16 120.16 155.24 119.98 155.64 120.02 156.31 119.91 156.58 119.92 157.34 119.7 157.87 119.7 162.62 119.34 165.05 119.33 172.3 119.56 172.97 119.51 173.64 119.69 174.04 119.75 178.72 119.87 179.06 119.9 179.87 120.22 182.08 120.25 195.06 120.08 195.53 120.05 196.2 119.85 196.82 119.75 198.28 119.63 198.46 119.66 199.01 119.49 199.36 119.52 199.81 119.35 200.07 119.27 200.93 119.35 201.85 119.8 202.22 120.6 202.59 122.06 202.63 122.66 202.87 122.97 202.84 123.62 203.01 128.29 202.98 128.59 202.87 129.13 202.89 129.61 202.67 132.05 202.67 132.35 202.56 132.8 202.56 134.15 202.13 134.54 202.17 135.37 201.98 138.79 202 139.87 201.9 140.15 201.79 142.06 201.72 144.19 201.73 144.42 201.84 145.18 201.81 145.45 201.94 147.74 201.91 147.92 202.02 148.69 201.99 148.85 202.11 149.25 202.09 149.41 202.2 150.41 202.22 150.81 202.37 151.54 202.36 151.71 202.47 152.47 202.45 153.21 202.26 153.99 201.86"/>
    <polyline class="cls-3" points="163.89 187.71 162.99 189.9 162.95 191.12 162.66 191.77 162.31 193.43 162.08 194.71 162.13 196.08 161.75 197.67 161.7 198.68 161.33 200.02 161.38 200.5 161.29 201.13 160.7 203.51 160.74 204.08 160.53 204.66 160.56 205.21 160.28 208.05 160.17 208.65 159.64 209.83 159.64 210.51 160.13 210.57 160.52 210.16 160.9 209.41"/>
    <polyline class="cls-3" points="165.08 187.93 165.82 188.95 166.51 189.7 166.65 190.05 167.09 190.43 167.72 191.68 168.04 191.94 168.19 192.3 168.7 192.76 169.35 193.59 169.95 193.89 170.59 194.77 172.02 196.28 173.73 197.69 173.99 197.77 174.48 198.3 174.89 198.52 175.1 198.81 175.5 199.02 175.6 199.19 176.77 199.71 177.16 200.25 177.48 200.31 177.6 200.47 178.05 200.64 178.37 201.01 178.81 201.21 178.86 201.35 179.02 201.38 179.08 201.87 178.53 202.5 177.34 203.03 176.88 203.47 175.78 204.07 175.14 204.65 173.75 205.53 172.81 205.91 171.13 206.8 169.42 207.94 168.76 208.58 168.24 208.88 167.73 209.36 165.38 210.89 164.48 211.19 162.82 212 161.91 212.63 161.24 213.26 160.65 213.61 160 213.84 159.87 214.03 159.37 214.28 159.21 214.67 158.91 214.88 158.98 214.91 159.02 214.73 159.47 214.32"/>
    <line class="cls-3" x1="180.09" y1="201.64" x2="180.04" y2="201.65"/>
    <polyline class="cls-3" points="179.8 200.98 180.91 200.69 182.05 200.17 184.82 200.17 185.28 199.99 186.27 199.84 188.8 199.9 189.45 200.13 190.91 200.12 191.71 200.33 192.18 200.3 192.45 200.47 193.79 200.86 194.61 201.31 195.2 201.38 195.67 201.65 196.04 201.66 197.78 202.48 198.47 202.44 199.31 202.6 200.95 202.67 201.13 202.78 202.41 202.76 204.32 202.91 205.91 202.89 205.98 202.65"/>
    <polyline class="cls-3" points="193.62 153.54 195.04 153.22 197.88 153.18 199.9 153.75 201.04 153.72 201.31 153.89 202.06 154.06 202.52 154.03 203.76 154.63 204.12 154.66 204.86 155.08 205.29 155.17 206.26 155.15 206.46 155.26 207.35 155.29 210.56 155.28 211.02 155.18 212.81 155.2 213.03 155.09 212.83 155.37"/>
    <polyline class="cls-3" points="152.1 202.83 152.1 202.07 152.57 201.37 154.14 200.71 155.36 200.71 155.64 200.92 155.79 200.9 156.47 201.26 157.71 201.37 158.31 201.62 159 201.6 159.2 201.76 160.11 201.73 160.61 201.46"/>
    <polyline class="cls-2" points="51.91 115.65 52.55 116.64 53.2 118.2 54.21 120.04 54.8 121.4 55.31 122.94 56.55 124.61 57.3 126.11 57.36 126.15 57.33 125.73"/>
    <polyline class="cls-2" points="57.44 115.57 55.82 116.63 53.93 119.46 53.49 120.37 52.76 123.1 52.44 123.58 51.95 125.13 51.73 125.47 51.79 125.7 52.04 125.69"/>
    <polyline class="cls-2" points="59.58 124.83 59.67 124.82 59.63 124.72 59.92 123.78 60.48 123.01 61.47 122.13 63 120.42 63.33 120.26 63.47 121.1 63.44 121.8 63.16 122.68 63.22 123.35 63.12 123.58 63.13 124.72 63.01 125.03 63.04 128.38"/>
    <polyline class="cls-2" points="239.82 47.45 239.89 47.55 239.83 47.49 239.66 48.07 239.7 49.32 239.88 49.61 239.84 50.06 239.95 50.24 239.99 50.89 240.26 51.42 240.24 51.57 241.03 53.64 242.09 55.72 242.59 56.27 242.77 56.71 243.54 57.33 243.57 57.62 243.85 58.07 244.28 57.49"/>
    <polyline class="cls-2" points="244.96 48.62 243.7 49.9 243.08 50.97 242.23 52 241.18 53.76 240.67 54.99 240.03 56.14 239.55 57.45 239.56 58.33 239.8 58.45"/>
    <polyline class="cls-2" points="244.92 58.32 245.33 57.55 246.13 56.55 246.91 55.89 249.02 54.58 249.1 54.34 249.38 54.21 249.46 54.89 249.21 55.44 248.71 57.51 248.66 60.32"/>
    <polyline class="cls-2" points="254.55 53.16 254.04 54.3 254.08 54.23 253.97 54.14 253.82 54.68"/>
    <line class="cls-2" x1="254.01" y1="61.63" x2="254.04" y2="61.63"/>
    <polyline class="cls-4" points="46.13 170.6 46.74 171.87 48.83 174.98 48.93 175.38 49.97 176.58 51.12 178.82 51.53 178.97 52.07 179.98 52.61 180.25 52.94 181 52.91 180.9 53.16 180.4"/>
    <polyline class="cls-4" points="52.16 170.06 51.21 171.63 50.86 172.55 50.18 173.58 49.29 175.63 48.98 176.05 48.07 177.9 47.88 178.59 46.56 181.06 46.42 181.27 45.98 181.47"/>
    <polyline class="cls-4" points="55.59 178.29 55.5 178.28 55.77 177.96 56.61 177.21 57.61 176.77 58.34 176.92 58.45 177.61 58.01 178.69 57.37 179.58 56.88 180.49 56.05 181.67 55.56 182.15 54.89 183.54 54.9 184.01 55.07 184.29 56.05 184.85 57.94 184.81 58.41 184.63 59.3 184.59 59.5 184.47 60.15 184.49"/>
    <polyline class="cls-4" points="127.7 36.02 127.62 35.98 128.52 39.43 128.73 39.79 128.9 40.67 129.76 43.49 130.28 44.62 130.53 45.8 131.23 47.16 131.25 47.4 131.58 48.09 131.68 48.21 131.8 47.61"/>
    <polyline class="cls-4" points="132.04 38.98 130.7 40.05 130.1 40.89 129.71 41.63 129.34 42.03 127.88 44.84 127.33 46.12 126.82 46.78 125.96 48.26 125.65 48.53 125.17 49.58"/>
    <polyline class="cls-4" points="133.84 46.04 134.72 45.51 135.51 45.38 135.87 45.21 136.27 45.25 136.42 45.35 136.71 46.02 136.27 47.41 135.14 49.56 134.5 50.45 134.14 50.76 134 51.13 133.95 51.8 134.13 51.81 134.66 52.35 135.28 52.51 137.18 52.43"/>
    <line class="cls-4" x1="141.59" y1="42.12" x2="141.58" y2="42.11"/>
    <line class="cls-4" x1="142.16" y1="50.23" x2="142.17" y2="50.24"/>
    <polyline class="cls-4" points="236.76 90.9 236.93 91.69 237.44 92.57 237.46 93.5 237.22 93.79 237.26 94.2 237.1 94.46 237.12 94.77 236.34 96.32 234.56 98.25 234.45 98.52 233.98 99.06 233.36 99.46 233.1 99.93 232.16 100.79 228.88 102.26 228.2 102.28 227.79 102.5 227.26 102.63 226.34 102.58 226.15 102.7 224.68 102.81 224.5 102.92 223.2 102.94 222.51 103.1 221.46 103.07 220.29 103.34 217 103.24 216.64 103.03 216.26 103.07 215.81 102.8 214.93 102.59 214.63 102.62 214.06 102.41 213.42 102.4 212.12 101.96 211.62 101.95 210.61 101.52 210.33 101.55 209.78 101.24 209.5 101.28 207.67 100.63 207.29 100.66 206.08 100.17 205.72 99.84 202.36 98.26 201.85 97.82 200.35 97.07 199.32 96.31 197.92 94.81 197.21 93.68 196.67 93.43 195.74 91.7 195.7 91.32 195.82 91.6"/>
    <polyline class="cls-4" points="192.01 96.64 192.14 95.49 192.25 94.96 192.4 94.72 192.38 94.4 192.67 93.08 192.69 92.54 192.99 91.32 193.05 90.22 193.65 87.97 193.6 87.69 193.8 87.26 194.62 86.86 196.29 87.02 197.7 87.53 198.66 88.12 201.05 88.91 203.16 89.87"/>
  </g>
</svg>