<?xml version="1.0" encoding="UTF-8"?>
<svg id="Layer_1" data-name="Layer 1" xmlns="http://www.w3.org/2000/svg" version="1.1" xmlns:xlink="http://www.w3.org/1999/xlink" viewBox="0 0 369 224">
  <defs>
    <style>
      .cls-1 {
        stroke-width: 1.9px;
      }

      .cls-1, .cls-2, .cls-3, .cls-4 {
        fill: none;
      }

      .cls-1, .cls-3, .cls-4 {
        stroke: #000;
        stroke-linecap: round;
        stroke-linejoin: round;
      }

      .cls-5 {
        fill: #c23131;
      }

      .cls-5, .cls-6, .cls-2, .cls-7 {
        stroke-width: 0px;
      }

      .cls-5, .cls-6, .cls-7 {
        fill-rule: evenodd;
      }

      .cls-6 {
        fill: #95cc71;
      }

      .cls-3 {
        stroke-width: 1.27px;
      }

      .cls-4 {
        stroke-width: .95px;
      }

      .cls-8 {
        clip-path: url(#clippath);
      }

      .cls-7 {
        fill: #77cfe6;
      }
    </style>
    <clipPath id="clippath">
      <rect class="cls-2" x="-83" y="-247" width="514" height="685"/>
    </clipPath>
  </defs>
  <g class="cls-8">
    <polyline class="cls-4" points="74.24 61.45 74.78 61.4 75.16 61.27 76.01 61.24 76.15 61.15 76.65 61.17 77.12 61.01 82.65 60.96 82.79 61.05 83.14 61.04 83.59 61.16 84.33 61.13 85 61.29 86.48 61.31 86.84 61.44 89.8 61.41 92.13 61.59 92.26 61.67 93.16 61.65 93.49 61.79 94.45 61.79 94.59 61.88 95.95 61.87 96.38 62.04 96.6 62.28 97.7 62.21 98.35 62.37 98.79 62.35 99.2 62.48 99.84 62.49 100.45 62.68 100.75 62.67 101.35 62.82 105.28 64.58 105.42 64.73 106.53 65.34 106.96 65.8 107.32 65.97 107.96 66.43 109.06 67.42 109.62 67.74 110.53 68.68 110.76 68.75 111.34 69.32 111.71 69.51 112.22 70.04 112.36 70.08 113.07 70.79 113.29 70.91 113.7 71.37 114.27 71.69 114.65 72.09 115.77 72.92 116.09 73.31 116.13 73.47 116.46 73.81 116.64 73.89 116.78 74.12 117.46 74.73 117.52 74.89 118.03 75.36 118.2 75.66 118.68 76.14 118.92 76.28 119.01 76.48 119.44 76.91 119.5 77.15 119.72 77.29 120.18 77.8 120.91 79.3 121.16 79.61 122.72 84.17 122.98 84.69 122.99 85.03 123.37 86.18 123.34 86.49 123.46 86.91 123.45 87.17 123.62 87.61 123.6 87.92 123.9 89.02 123.91 89.76 124.15 90.54 124.12 90.92 124.25 91.37 124.27 91.84 124.35 92.3 124.56 92.77 124.52 93.09 124.75 94.13 124.81 94.89 125.23 95.81 125.27 96.3 125.44 96.63 125.42 96.84 125.5 96.98 125.48 97.26 125.69 97.85 125.73 98.89 125.87 99.13 126 99.74 126.17 101.07 126.3 101.4 126.28 101.62 126.47 102.44 126.63 104.39 126.76 104.62 126.81 105.32 126.98 105.75 126.95 106.19 127.07 106.97 127.05 107.95 127.15 108.08 127.18 108.38 127.15 109.03 127.19 109.88 127.28 110.23 127.3 111.4 127.39 111.6 127.41 112.47 127.55 112.75 127.55 113.54 127.65 113.73 127.62 114.77 127.72 115.08 127.69 116.19 127.78 116.6 127.77 119.66 127.63 120.01 127.34 121.48 127.34 122.01 127.05 122.86 127.04 123.28 126.09 126.41 126.03 126.82 124.59 131.17 124.34 131.78 123.86 132.41 123.79 132.73 123.05 133.87 121.8 136.56 121.25 137.31 120.98 137.55 119.38 140.71 119.19 141.03 118.94 141.24 118.86 141.51 118.64 141.71 118.46 142.05 118.2 142.26 117.99 142.64 117.71 142.79 116.34 144.38 115.83 144.85 115.62 144.93 114.96 145.59 114.78 145.68 114.66 145.91 114.39 146.06 114.22 146.33 113.72 146.67 112.79 147.59 112.1 147.97 111.66 148.46 111.33 148.55 110.93 148.82 109.47 150.27 109.11 150.4 108.13 151.18 107.36 151.59 106.91 151.98 105.31 152.66 104.68 153.01 104.32 153.4 103.26 153.88 102.6 154.08 100.45 155.13 99.82 155.32 99.06 155.71 98.28 155.88 97.03 156.45 96.61 156.55 95.92 156.87 95.56 156.92 95.27 157.08 94.85 157.11 94.59 157.24 94.05 157.3 93.55 157.45 93.25 157.42 92.32 157.53 92.09 157.66 91.95 157.64 91.6 157.85 91.39 157.81 91.06 158.01 90.77 158.03 90.38 158.26 90.09 158.27 89.73 158.47 89.45 158.48 89.02 158.71 88.59 158.84 88.03 158.88 87.86 158.99 87.3 159.02 87 159.16 86.45 159.21 85.59 159.5 84.95 159.51 84.76 159.6 84.31 159.57 83.24 159.83 82.27 159.93 82.18 160.01 82.02 159.99 81.58 160.16 81.38 160.14 81.09 160.26 79.3 160.31 78.65 160.39 78.51 160.47 78.02 160.45 75.93 160.66 70.72 160.66 65.3 160.55 63.79 160.18 63.17 160.14 62.85 159.96 62.61 160 62.09 159.89 61.9 159.76 61.64 159.79 61.25 159.65 60.56 159.65 59.86 159.41 59.24 159.4 59.15 159.32 58.57 159.26 58.36 159.13 56.67 159.09 55.92 158.99 55.7 158.86 55.13 158.88 54.8 158.72 54.15 158.67 53.81 158.46 53.45 158.51 52.64 158.22 52.44 158.25 52.06 158.05 51.2 157.98 50.76 157.81 50.03 157.74 49.41 157.52 49.07 157.49 48.92 157.38 48.65 157.39 47.47 156.86 47.08 156.8 45.3 155.89 45.14 155.89 42.63 154.69 42.41 154.62 42 154.65 41.85 154.52 41.5 154.46 41.3 154.33 41.15 154.38 40.93 154.29 40.6 154.29 40.34 154.12 40.12 154.15 39.81 154 39.64 154.02 38.8 153.64 38.66 153.68 38.33 153.55 37.2 153.37 36.53 152.9 36.05 152.67 35.25 151.9 33.97 151.24 33.44 150.72 33.21 150.64 33.01 150.42 32.04 149.82 31.33 149.09 31.04 148.95 30.75 148.55 30.24 148.07 30.17 147.87 29.51 147.11 29.19 146.49 28.18 145.48 27.95 144.92 27.45 144.45 27.1 143.94 26.9 143.76 26 142.42 25.29 141.03 24.94 140.57 24.25 139.26 23.6 137.43 23.65 137.07 23.56 136.87 23.57 136.68 23.43 136.46 23.46 136.26 23.28 135.95 23.21 135.03 23.08 134.68 23.07 133.84 22.91 133.22 22.93 132.59 22.83 132.36 22.78 131.19 22.65 130.68 22.68 129.6 22.58 129.29 22.6 128.81 22.52 128.7 22.53 128.23 22.4 127.97 22.43 127.45 22.29 127.07 22.25 126.03 22.08 125.36 21.96 123.26 21.76 122.51 21.68 120.05 21.58 119.65 21.61 119.2 21.57 118.69 21.43 118.48 21.42 106.93 21.6 106.46 21.61 106.12 21.85 105.64 21.85 105.23 21.98 104.95 21.97 104.81 22.21 104.31 22.25 103.71 22.49 103.06 22.57 102.37 22.77 101.83 22.86 101.18 23.17 100.49 23.15 100.28 23.85 98.9 23.81 98.79 23.97 98.24 24.13 97.93 24.12 97.78 24.93 96.22 25.36 95.25 25.44 94.83 28.1 89.57 28.58 89.13 28.71 88.79 28.86 88.65 29.45 87.64 30.19 86.9 30.6 86.38 31.18 85.25 31.45 84.89 32.18 83.4 32.43 83.2 32.89 82.46 33.88 80.45 34.06 80.24 34.32 79.69 34.96 78.92 35.18 78.44 35.86 77.78 35.98 77.48 36.33 77.14 36.51 76.77 36.81 76.51 37.07 75.94 37.56 75.73 37.88 75.19 38.19 74.93 39.15 73.19 39.55 72.84 39.85 72.17 40.35 71.72 40.5 71.69 40.56 71.57 40.85 71.42 41.37 70.89 41.42 70.75 42.16 70.28 42.34 70.05 42.58 69.95 43.08 69.43 45.58 68.19 45.72 68.21 46.09 67.98 46.88 67.77 49.1 66.69 49.84 66.03 50.27 65.85 50.72 65.46 51.53 65.01 51.81 64.71 52.05 64.64 52.46 64.18 52.56 64.17 52.88 63.85 53.19 63.73 53.52 63.39 54.16 63.12 55.07 62.56 56.03 62.11 56.92 61.83 57.85 61.38 58.06 61.41 58.72 61.13 58.92 61.16 59.3 61 59.72 61.04 60.18 60.9 60.4 60.92 60.66 60.75 61.1 60.8 61.25 60.71 62.17 60.68 62.48 60.55 63.79 60.58 63.98 60.48 64.93 60.48 65.14 60.38 66.8 60.4 67.25 60.24 68.18 60.27 68.4 60.13 72.31 60.13 72.76 60.16 72.91 60.25 73.32 60.23 73.51 60.35 73.69 60.34 74.11 60.5 74.6 60.47 74.97 60.65 75.34 60.66 75.98 60.92 76.25 60.89 76.47 61.02 76.69 60.99 77.27 61.27 83.76 61.24 84.32 61.41 84.44 61.54"/>
    <polyline class="cls-4" points="73.01 114.01 73.07 114 73.26 113.15 73.43 112.91 73.4 112.58 73.73 111.95 73.76 111.68 73.94 111.3 73.97 109.9 74.21 108.82 74.21 108.03 74.31 107.9 74.3 107.62 74.46 107.19 74.47 105.89 74.63 104.9 74.68 102.94 74.93 100.08 75.02 99.94 75.01 99.54 75.14 99.14 75.12 98.72 75.25 98.41 75.23 98.03 75.31 97.82 75.33 97.29 75.5 96.84 75.49 96.57 75.65 96 75.61 95.53 75.84 94.96 75.83 94.09 75.92 93.91 75.9 93.24 75.99 92.99 75.97 92.07 76.17 90.76 76.16 90.39 76.28 90.12 76.26 89.61 76.43 88.93 76.59 86.85 76.65 73.24 76.74 73.05 76.73 72.52 76.95 70.97 76.93 70.59 77.02 70.46 77.01 69.96 77.19 69.5 77.18 69.19 77.4 68.24 77.37 67.85 77.58 67.1 77.53 66.55 77.63 66.44 77.7 65.41 78.16 63.73 78.11 63.38 78.48 62.13 78.45 61.78 78.76 60.52 78.78 60.17 79.01 59.55 79.08 58.67 79.3 58.11 79.32 57.79 79.47 57.34 79.43 56.83 79.57 56.44 79.58 55.58 79.76 55.02 79.77 54.22 79.94 53.71 79.95 53.15 80.25 51.85 80.22 51.03 80.26 50.4 80.35 50.2 80.33 49.35 80.61 47.76 80.65 46.1 80.74 45.73 80.73 45.38 80.86 44.99 80.83 44.29 81.09 42.03 81.08 39.55 81.2 39.21 81.23 37.27"/>
    <polyline class="cls-1" points="39.11 75.18 38.97 75.17 39.05 75.18 39.32 76.14 40.04 77.46 40.5 78.05 40.91 78.89 41.04 78.95 41.51 79.77 41.97 80.28 42.29 80.41 42.59 80.72 43.76 82.63 44.09 82.84 44.65 83.57 45.29 83.78 45.96 84.75 46.26 85 46.56 85.6 46.95 86.01 47.81 87.46 48.11 87.63 48.59 88.22 48.92 88.32 49.93 89.48 50.26 89.74 50.47 90.24 52.89 92.05 54.1 93.45 55.39 94.2 55.8 94.81 57.93 97.18 58.66 97.81 59.92 99.16 60.31 99.39 60.46 99.68 61.31 100.54 61.82 100.92 62.06 101.29 63.42 102.54 63.77 102.69 63.84 102.92 64.15 103.23 64.32 103.25 64.84 103.62 65.6 104.55 65.99 104.85 66.15 105.12 67.43 106.25 67.69 106.89 68.11 107.16 68.64 107.86 69.01 108.02 69.95 109.55 70.28 109.77 70.31 109.91 70.64 110.22 70.78 110.24 70.81 110.39 71.56 111.25 72.25 112.54 72.44 112.65 73 113.69 73.18 113.78"/>
    <polyline class="cls-1" points="111.35 68.88 111.1 69.46 110.76 69.84 110.46 70.46 110.25 70.65 109.66 71.81 109.32 72.12 109.15 72.5 108.27 73.3 108.04 73.96 106.53 75.36 105.97 75.74 103.8 77.87 103.31 78.39 103.28 78.55 102.13 79.53 101.83 79.96 101.38 80.36 100.34 80.89 100.07 81.27 99.01 82.11 98.75 82.49 98.18 82.97 98.14 83.21 96.96 84.3 96.82 84.34 96.38 84.94 94.6 86.64 93.96 87 93.64 87.41 93.36 87.52 92.5 88.43 91.75 88.99 91.5 89.25 91.48 89.41 90.81 90 90.38 90.75 90.02 91.04 89.89 91.34 89.46 91.78 89.12 92.41 88.52 92.82 87.52 93.83 87.29 94.28 86.78 94.73 86.64 95.09 85.91 95.8 85.75 96.29 85.44 96.58 85.31 96.92 84.07 98.12 83.69 98.66 82.87 100.23 82.64 100.42 82.48 100.77 81.85 101.34 81.75 101.74 81.1 102.45 80.95 102.76 80.62 103.04 79.97 103.97 79.77 104.08 79.66 104.38 79.37 104.62 79.19 105.01 78.88 105.32 78.61 105.83 78.35 106.04 78.25 106.31 77.94 106.47 77.65 107.1 77.23 107.44 76.98 107.97 76.67 108.35 75.85 109.1 75.64 109.69 73.99 112.79"/>
    <polyline class="cls-3" points="77.54 25.78 76.59 25.54 75.68 25.6 74.28 26.22 73.13 28.31 73.18 29.39 73.55 30.19 74.42 30.63 77.35 30.59 78.28 30.1"/>
    <polyline class="cls-3" points="81.56 20.36 81.03 21.46 80.44 23.37 79.98 25.37 79.82 26.34 79.84 28.12 80.08 28.5 80.1 28.76 80.28 28.97 80.8 29.21 81.64 29.16 81.74 29.05"/>
    <polyline class="cls-3" points="85.46 21.48 83.84 27.46 83.47 28.53 83.52 30.13 83.94 29.85 85.4 28.41 85.59 28.12 86.61 27.19 87.23 26.43 89.12 25.41 89.72 25.23"/>
    <polyline class="cls-3" points="86.52 29.12 87.06 30.77 87.61 31.8 88.66 32.78 88.89 33.22 89.47 33.42 90.16 33.41"/>
    <polyline class="cls-4" points="254.77 71.43 255.32 71.39 255.69 71.26 256.54 71.23 256.69 71.14 257.18 71.16 257.66 71 263.19 70.95 263.33 71.04 263.67 71.02 264.12 71.14 264.87 71.12 265.54 71.28 267.01 71.29 267.37 71.42 270.33 71.4 272.67 71.58 272.79 71.66 273.7 71.64 274.02 71.78 274.98 71.78 275.12 71.87 276.49 71.85 276.91 72.03 277.13 72.27 278.23 72.19 278.89 72.36 279.33 72.33 279.73 72.46 280.38 72.48 280.98 72.67 281.28 72.65 281.89 72.8 285.82 74.56 285.96 74.72 287.07 75.32 287.5 75.78 287.86 75.95 288.5 76.42 289.59 77.4 290.15 77.72 291.07 78.66 291.29 78.74 291.88 79.31 292.24 79.49 292.75 80.02 292.9 80.07 293.61 80.78 293.83 80.9 294.23 81.36 294.8 81.67 295.19 82.07 296.31 82.9 296.38 83"/>
    <polyline class="cls-4" points="216.41 87.73 216.51 87.47 216.86 87.13 217.04 86.75 217.35 86.5 217.6 85.93 218.09 85.72 218.41 85.18 218.72 84.91 219.69 83.18 220.09 82.83 220.38 82.16 220.88 81.71 221.03 81.68 221.09 81.56 221.39 81.4 221.91 80.87 221.95 80.74 222.7 80.27 222.87 80.04 223.11 79.94 223.62 79.42 226.12 78.18 226.26 78.19 226.63 77.97 227.42 77.75 229.63 76.68 230.38 76.02 230.8 75.84 231.26 75.45 232.06 75 232.35 74.7 232.58 74.63 233 74.16 233.09 74.15 233.41 73.83 233.73 73.72 234.06 73.38 234.7 73.11 235.61 72.55 236.56 72.09 237.46 71.82 238.38 71.37 238.59 71.4 239.25 71.11 239.45 71.15 239.83 70.99 240.25 71.02 240.71 70.89 240.94 70.9 241.2 70.74 241.63 70.78 241.78 70.69 242.7 70.67 243.01 70.54 244.32 70.57 244.52 70.47 245.47 70.46 245.67 70.37 247.33 70.39 247.78 70.22 248.71 70.25 248.93 70.12 252.85 70.11 253.3 70.15 253.44 70.23 253.86 70.22 254.05 70.34 254.22 70.33 254.65 70.49 255.14 70.46 255.51 70.64 255.87 70.64 256.51 70.91 256.78 70.87 257 71 257.23 70.98 257.8 71.26 264.3 71.23 264.85 71.4 264.97 71.53"/>
    <polyline class="cls-4" points="253.54 124 253.6 123.99 253.8 123.13 253.97 122.9 253.93 122.56 254.26 121.94 254.29 121.66 254.47 121.29 254.5 119.88 254.74 118.81 254.75 118.02 254.84 117.89 254.83 117.6 254.99 117.17 255 115.88 255.16 114.89 255.22 112.93 255.47 110.06 255.56 109.93 255.54 109.52 255.67 109.12 255.65 108.71 255.78 108.4 255.76 108.02 255.84 107.81 255.87 107.27 256.03 106.82 256.03 106.56 256.18 105.99 256.14 105.52 256.37 104.95 256.36 104.08 256.45 103.89 256.43 103.23 256.52 102.98 256.5 102.05 256.71 100.75 256.69 100.38 256.82 100.1 256.8 99.6 256.96 98.92 257.13 96.83 257.19 83.22 257.27 83.04 257.26 82.51 257.48 80.95 257.47 80.57 257.56 80.45 257.54 79.95 257.72 79.48 257.71 79.18 257.94 78.23 257.91 77.84 258.12 77.09 258.07 76.53 258.16 76.43 258.23 75.4 258.69 73.72 258.65 73.37 259.01 72.11 258.98 71.77 259.29 70.51 259.31 70.15 259.55 69.53 259.62 68.66 259.84 68.1 259.85 67.78 260 67.33 259.97 66.82 260.1 66.43 260.11 65.56 260.29 65.01 260.3 64.2 260.47 63.7 260.49 63.14 260.79 61.83 260.75 61.02 260.8 60.39 260.89 60.18 260.86 59.34 261.14 57.75 261.19 56.09 261.28 55.72 261.26 55.36 261.39 54.98 261.36 54.28 261.63 52.02 261.62 49.53 261.73 49.2 261.76 47.26"/>
    <polyline class="cls-1" points="219.65 85.17 219.5 85.16 219.58 85.17 219.85 86.13 220.57 87.45 221.03 88.04 221.45 88.88 221.57 88.94 222.04 89.76 222.5 90.26 222.83 90.39 223.13 90.7 224.29 92.62 224.62 92.83 225.19 93.56 225.82 93.76 226.49 94.74 226.79 94.99 227.1 95.59 227.48 96 228.34 97.45 228.64 97.61 229.12 98.2 229.45 98.31 230.46 99.47 230.8 99.73 231.01 100.23 233.42 102.04 234.63 103.43 235.92 104.19 236.33 104.79 238.46 107.16 239.2 107.79 240.45 109.14 240.84 109.38 240.99 109.67 241.84 110.53 242.36 110.91 242.6 111.28 243.95 112.53 244.3 112.68 244.37 112.9 244.68 113.22 244.85 113.24 245.37 113.61 246.13 114.54 246.53 114.84 246.68 115.11 247.97 116.24 248.23 116.87 248.64 117.15 249.17 117.84 249.54 118.01 250.48 119.54 250.81 119.76 250.84 119.9 251.17 120.21 251.32 120.23 251.34 120.38 252.09 121.24 252.78 122.53 252.97 122.64 253.53 123.67 253.71 123.77"/>
    <polyline class="cls-1" points="291.88 78.87 291.63 79.45 291.29 79.82 291 80.45 290.79 80.63 290.2 81.8 289.85 82.11 289.68 82.48 288.81 83.29 288.57 83.94 287.07 85.34 286.5 85.73 284.34 87.86 283.85 88.38 283.82 88.54 282.66 89.51 282.37 89.95 281.91 90.34 280.88 90.88 280.6 91.26 279.54 92.09 279.29 92.48 278.71 92.96 278.67 93.19 277.49 94.29 277.35 94.32 276.91 94.93 275.13 96.63 274.49 96.99 274.17 97.4 273.89 97.5 273.03 98.42 272.29 98.97 272.04 99.23 272.01 99.4 271.35 99.99 270.91 100.74 270.56 101.03 270.42 101.32 270 101.77 269.65 102.39 269.06 102.8 268.05 103.82 267.82 104.27 267.31 104.71 267.18 105.07 266.44 105.79 266.28 106.28 265.97 106.57 265.84 106.91 264.6 108.11 264.22 108.64 263.41 110.22 263.17 110.41 263.01 110.76 262.38 111.33 262.28 111.73 261.63 112.43 261.48 112.74 261.15 113.02 260.5 113.96 260.3 114.07 260.19 114.36 259.91 114.6 259.72 114.99 259.41 115.3 259.15 115.82 258.89 116.03 258.78 116.3 258.47 116.46 258.18 117.09 257.76 117.42 257.52 117.95 257.21 118.34 256.38 119.09 256.17 119.68 254.52 122.78"/>
    <polyline class="cls-3" points="258.08 35.76 257.12 35.52 256.22 35.58 254.82 36.2 253.67 38.3 253.71 39.37 254.09 40.18 254.96 40.62 257.89 40.58 258.81 40.08"/>
    <polyline class="cls-3" points="262.09 30.35 261.56 31.45 260.97 33.36 260.51 35.35 260.36 36.33 260.37 38.11 260.61 38.48 260.63 38.75 260.81 38.95 261.34 39.19 262.17 39.15 262.28 39.04"/>
    <polyline class="cls-3" points="266 31.47 264.37 37.45 264.01 38.51 264.05 40.11 264.47 39.84 265.93 38.39 266.12 38.1 267.14 37.18 267.76 36.42 269.65 35.4 270.25 35.22"/>
    <polyline class="cls-3" points="267.06 39.11 267.6 40.76 268.14 41.79 269.2 42.77 269.42 43.21 270 43.41 270.69 43.39"/>
    <line class="cls-3" x1="216.33" y1="86.04" x2="216.27" y2="86.04"/>
    <polyline class="cls-3" points="218.05 86.62 216.97 87.5 216.16 88.31 216.19 88.43 215.75 89.27 215.4 89.74 214.65 90.33 211.74 93.36 211.67 93.54 211.3 93.9 211.24 94.13 210.53 94.71 210.29 95.22 209.5 96.18 209.24 96.81 208.7 97.35 208.35 98.14 207.64 98.77 207.07 99.59 204.57 104.31 203.61 106.01 203.09 106.72 202.77 107.52 202.36 108.15 199.55 113.71 197.94 116.44 197.85 116.88 197.67 117.13 197.41 117.86 197.05 118.42 196.48 120.16 195.43 121.63 194.51 124.45 194.28 125.46 193.59 127.4 193.13 129.82 193.08 130.92 192.86 131.47 192.66 133.6 192.03 136.32 191.97 137.71 191.65 138.62 191.69 139 191.54 139.4 191.51 140.31 191.36 141.09 191.24 143.33 191.24 153.56 191.75 154.6 191.7 154.95 191.81 155.13 191.94 156.26 192.05 156.43 192.06 157.31 192.24 157.86 192.35 159.32 192.58 159.87 192.58 160.34 192.9 161.1 192.99 162.12 193.23 162.45 193.37 162.89 193.32 163.31 193.68 164.42 193.68 164.77 193.96 165.4 193.94 165.68 195.8 169.74 196.31 170.13 196.51 170.72 196.91 171.25 198.14 173.67 198.95 174.56 200.53 176.87 201.67 178.04 202.33 179.02 202.83 179.47 203.2 180.06 203.65 180.5 204.29 181.71 204.5 181.87 205.12 182.95 205.73 183.49 205.92 183.86 206.41 184.36 206.69 185.04 207.18 185.71 207.46 186.34 208.14 186.89 209.21 188 209.49 188.45 210.21 188.93 211.19 189.84 211.56 189.97 212.38 190.57 214.77 191.71 219.18 193.46 222.73 194.62 225.04 195.78 227.09 196.4 230.61 197.69 231.48 197.64 232 197.88 232.7 197.95 233.94 198.31 234.72 198.27 235.21 198.44 236.69 198.5 237.15 198.67 238.02 198.67 239.14 198.93 239.96 198.89 240.31 199.07 242.18 199.04 243.49 198.88 247.85 198.77 248.42 198.6 249.93 198.59 250.35 198.48 253.16 198.5 253.68 198.67 256.23 198.68 256.7 198.85 257.38 198.81 259.86 199.6 263.26 200.08 265.46 200.68 268.18 200.83 268.86 201.04 269.58 201.11 269.91 201.31 271.44 201.76 272.63 201.9 273.19 202.11 273.61 202.09 274.43 202.33 275.07 202.29 275.67 202.57 276.73 202.81 283.07 202.88 283.76 202.71 284.9 202.74 285.32 202.57 286.35 202.4 288.22 201.67 288.48 201.71 289.36 201.4 290.85 201.36 291.85 201.06 292.82 201.04 293.25 200.86 294.63 200.59 295.11 200.32 295.67 200.22 296.69 199.72 298.32 199.17 298.8 198.86 305.27 196.76 305.54 196.56 306.37 196.32 307.2 195.75 307.75 195.59 308.86 194.96 309.5 194.71 310.38 194.11 313.63 190.96 314.55 189.66 315.15 189.07 315.55 188.36 316.58 187.39 317.62 185.91 318.78 184.61 321.72 180.29 321.9 179.61 323.39 177.32 324.57 174.97 325.31 173.8 325.44 173.28 325.64 173.01 325.9 172.2 326.22 171.62 326.34 171.07 326.73 170.37 326.87 169.65 327.18 169.23 327.97 166.84 329.03 164.71 329.34 163.45 329.97 162.41 330.18 161.52 330.48 160.99 330.88 159.77 331.47 158.7 331.73 157.46 332.52 155.77 333.17 153.52 333.58 152.82 333.76 151.92 334.55 149.47 334.67 148.69 334.64 148.16 334.81 147.64 334.83 146.56 334.99 145.85 334.97 145.31 335.18 144.42 335.2 143.52 335.46 142.46 335.46 141.14 335.58 140.45 335.56 136.6 335.3 134.92 335.32 134.37 335.05 133.25 335.1 131.96 334.76 130.61 334.76 130.09 334.25 127.68 333.9 126.73 333.08 123.52 332.72 122.64 332.35 120.96 331.42 118.47 329.76 115.22 329.26 113.71 328.47 112.67 328.13 111.82 327.6 111.09 327.5 110.69 327.21 110.18 325.49 107.43 324.61 105.57 323.75 104.36 321.27 101.81 320.99 101.37 317.54 98.1 316.74 97.53 315.75 96.54 315.39 96.02 313.09 93.69 312.69 93.03 311.02 91.36 310.78 90.91 309.45 89.7 309.22 89.59 307.35 87.71 307.12 87.2 306.54 86.71 306.34 86.35 306.09 86.23 305.08 85.23 303.83 84.55 302.4 83.39 300.63 82.42 299.89 81.71 297.1 80.43 295.71 79.12 295.07 78.84"/>
    <polyline class="cls-5" points="257.65 75.89 257.33 75.89 257.33 75.57 257.65 75.57 257.65 75.89"/>
    <polyline class="cls-5" points="256.86 75.57 256.38 75.57 256.54 75.26 257.02 75.26 256.86 75.57"/>
    <polyline class="cls-5" points="255.43 75.26 255.27 75.57 255.11 75.26 255.43 75.26"/>
    <path class="cls-5" d="M250.83,75.89l.16-.32h-.48l-.16.32h.48M253.21,75.57v-.32h-.32v.32h.32M255.11,75.26h-.16l-.32.32-.32-.32-.32.32-.79.2-.56.04-.08-.4v-.16l-.32.16-.08.4-3.57.71-.63.63-3.01.79-3.33.48-.63.63-.32-.32-.16.16v.32l-.16.16-.32-.32-.63.63-.48.16-2.22.99-1.11.75-1.43,1.11-2.54,1.59-4.76,2.14-3.17.99-1.43.2-.79-.79-.16-.48-.79-1.9v-.79l.63-.63.32-.95,2.54-2.38h.16l.16-.16v-.16h.16l.16-.16v-.16l.63-.16.63-.28,2.85-.99.79-.16.63-.63h.32l.32-.32.32.32.95-.95.4-.08.16-.48.56-.24,2.06-1.43.79-.44,1.27-.4,1.27-.52,1.59-.4,2.06-.16.32-.32.32.32.32-.32,1.27-.32.32.32.32-.32,2.06-.48,1.43-.16.32-.32.32.32.32-.32,7.45-.44,1.59.36.63.24,1.51.87.4.56-.48.63-.48-.16-.63-.04-.79.2-.48.48-.16.48v.63l.32.63.16.63-.16.32-.48-.12-.95-.36h-.95l-.63.16-.16-.32-.16.16v.16M253.85,75.26v-.32h-.32v.32h.32"/>
    <polyline class="cls-7" points="117.14 71.13 116.82 71.13 116.82 70.82 117.14 70.82 117.14 71.13"/>
    <polyline class="cls-7" points="244.01 68.91 243.7 68.91 243.7 68.59 244.01 68.59 244.01 68.91"/>
    <polyline class="cls-7" points="246.55 68.59 246.23 68.59 246.23 68.28 246.55 68.28 246.55 68.59"/>
    <polyline class="cls-7" points="248.77 68.28 248.45 68.28 248.45 67.96 248.77 67.96 248.77 68.28"/>
    <polyline class="cls-7" points="242.11 61.62 242.11 61.46 242.27 61.3 242.43 61.62 242.11 61.62"/>
    <polyline class="cls-7" points="115.87 65.11 115.56 65.11 115.56 64.79 115.87 64.79 115.87 65.11"/>
    <path class="cls-6" d="M103.82,64.15v-.32h-.32v.32h.32M102.55,62.57l.48.63,1.35.71.08.71,2.22,2.22.32,1.27.63.63-.32.32.16.16h.63l.63.63,1.03.08.16.48.48.16.08.4.32.32-.32.32v.95l-.79.79-2.38-.2-6.19-.75-.32-.32-.32.32-.16-.16-.08-.4-1.67-.4-.32.32-.63-.63-.32.32-.32-.32h-.63l-.32-.32-.32.32-.32-.32-2.54-.32-.32-.32-.32.32-.32-.32-.48-.12-.95-.36-5.71-1.59-1.11-.16-.32-.32-.32.32-.32-.32-1.11-.16-.95-.32-1.19-.24-.16-1.11-.4-.08-.79-.63v-.16l-.63-.63.2-1.11.2-.56.56-.16,1.74-.24.48-.63.08-.24,2.3-.4.32-.32.32.32.32-.32,1.9-.32.32-.32.32.32.32-.32.32.32.79-.12,1.59.04.48.08.32-.32.16.16v.32l.16.16.32-.32h.32l.32.32.32-.32,1.27.32.32.32.32-.32h.32l.32.32.32-.32.16.16v.32l.16.16.48-.32v.16l.16.16h.48l1.59.16,3.81.79v.16l.16.16h.79M100.96,62.57v-.32h-.32v.32h.32M99.06,66.37v-.32h-.32v.32h.32M98.43,66.37v-.32h-.32v.32h.32M97.79,66.06v-.32h-.32v.32h.32"/>
    <polyline class="cls-7" points="63.85 51.78 63.85 51.63 64.01 51.47 64.17 51.78 63.85 51.78"/>
    <path class="cls-5" d="M72.1,65.74v-.32h-.32v.32h.32M71.15,65.74v-.32h-.32v.32h.32M78.13,65.11l-.16.32h-.63l-.32.32-.32-.32-.71-.08-.16-.48-1.19-.08.16.32h.79l-.16.32h-1.9l-.32.32-.32-.32-.32.32-3.49.63-.32-.32-.32.32-.4.08-.16.48-1.19.48-1.43.24-.32.32-.32-.32-.32.32-.79.12-3.33.83-.63.63-.79.2-1.59.63-.48.12-.63.63h-.63l-1.59,1.59h-.32l-.63.63h-.63l-.95.95-.48.12-1.59.67-1.27.59-.79.2-.63.63-2.7.71-1.43.24-.32.32-.32-.32-.4-.08-.83-1.51-.63-1.59v-1.27l.28-.63.16-.48,1.74-1.74.48-.16,5.07-2.22,1.11-.16.63-.63,1.67-.4.08-.4.48-.48.63-.32.95-.63.71-.4.16-.48.56-.24.63-.32.48-.16.32-.32.32.32.32-.32.48-.12,1.59-.63.79-.2.32-.32.32.32.32-.32h.63l.32.32.32-.32,3.33-.52,6.66-1.19,3.96-.2.32-.32.32.32.79.16,2.38.79,1.11.95-.48.63-1.74.24-.56.16-.2.56-.2,1.11.63.63v.16"/>
    <path class="cls-7" d="M114.29,64.15v-.32h-.32v.32h.32M101.6,62.25l-3.81-.79-1.59-.16v-.16l-.16-.16h-.48v-.16l-.48-.48h-.63l-.63-.63-.79-.16-2.54-.91-5.71-1.39-.63-.2-1.11-.2-.32-.32-.32.32h-.63l-.32-.32-.32.32-1.27-.32-.32.32-.32-.32h-3.17l-.32.32-.32-.32-6.19.79-7.77.48-.32-.32-.32.32h-.95l-.32.32-.32-.32-.48.08-2.85.67-2.06.2-.32.32-.32-.32h-1.27l-.63-.63-.4-.08-.24-.56v-1.27l-.08-.56.4-.08.16-.16-.32-.32,1.43-1.43,1.03-.08.08-.4.16-.16.32.32.16-.16.08-.44,1.98-.36.32-.32.32.32,1.74-.48,1.43-.16.32.32.32-.32.48-.08,2.85.08.16.32.16-.32.48-.32h.95l.32-.32.32.32,8.56-.63.32-.32.32.32,8.72.28,1.27.24,3.17,1.23.63.32.48.16.32-.32.32.32,1.74.24.63.24,1.9.91,1.11.2.63.63h.95l.63.63,2.22.32.32.32.32-.32,5.23,1.15.63.24,1.11.2.63.63.32-.32.32.32h.32l.79.79v.32l.16.16.32-.32.16.16v.32l1.11,1.11h.63l.48.48v.32l.79.79.4.08.08.71.63.63-.32.32.95.95v.32l.48.48.48.16.63.32.48.16.48.48.32,2.22-.63.63v.32l-.16.16-.32-.32-.63.63-1.11.16h-1.27l-.79-.16-.79-.79v-1.27l-2.06-2.06-.32.32-.16-.16-.08-.71-.71-.08-.63-.63-.48-.16-2.54-1.86-1.9-.67-1.27-.16v-.16l-.16-.16h-.79M83.84,56.54v-.32h-.32v.32h.32M64.81,52.1v-.32h-.32v.32h.32M63.38,52.1l.16-.32h-.79l-.16.32h.79M61.32,52.1v-.32h-.32v.32h.32M68.61,51.78v-.32h-.32v.32h.32M67.98,51.78v-.32h-.32v.32h.32M72.74,51.47v-.32h-.32v.32h.32M54.66,53.37v-.32h-.32v.32h.32M55.93,53.05v-.32h-.32v.32h.32M58.15,52.74v-.32h-.32v.32h.32M59.41,52.42v-.32h-.32v.32h.32M58.78,52.42v-.32h-.32v.32h.32"/>
    <polyline class="cls-7" points="296.98 80.96 296.67 80.96 296.67 80.65 296.98 80.65 296.98 80.96"/>
    <polyline class="cls-7" points="290.64 76.52 290.32 76.52 290.32 76.21 290.64 76.21 290.64 76.52"/>
    <polyline class="cls-7" points="294.76 73.99 294.76 73.35 294.92 73.35 295.4 73.83 295.4 73.99 294.76 73.99"/>
    <polyline class="cls-7" points="292.86 70.82 293.18 70.97 292.86 71.13 292.86 70.82"/>
    <path class="cls-6" d="M279.54,76.52v-.32h-.32v.32h.32M282.07,72.4h.32l.16.32,1.27.32.48.48v.63l.16.16.32-.32.48.48-.32.32.16.16h.32l1.43,1.43v.32l.63.63v.63l.63.63.08.4,1.51.87.48.16.79.79.32,1.27-1.11,1.11-.48.16-.63.08-1.59-.4-1.9-.32-1.27.04-.48.12-.32-.32-.32.32-.63-.63-.32.32-.32-.32-.79-.12-2.54-.63-1.43-.2-.63-.63-.32.32h-.32l-.32-.32-.32.32-.32-.32-1.11-.16-13.88-3.73-.08-.71-.48-.48-.79-.32-.16-.63-.32-.63v-.63l.16-.48.48-.48.79-.2.63.04.48.16.48-.63.32-.16-.32-.32.16-.16,4.92-.71,7.85.12.08.44.16.16.32-.32.32.32h.95l.16-.32.48.32,2.7.48,1.27.32,1.27.16v.16l.16.16h.16"/>
    <path class="cls-7" d="M295.4,73.99l.32.16.32,1.27.79.79.95.32.79.79.32.95.32.32-.32.32-.4,1.03-.56-.08-.48-.16-1.59-1.59-1.03.08-.08.71.48.48h.32l1.11,1.11-.48.48-2.22-.32-.79-.79v-1.27l-.79-.79h-.32l-.48-.48v-.32l-1.43-1.43-.32.32-.32-.32-.48-.16-.63-.32-.48-.16-.79-.79-.08-.4-.4-.08-.63-.63-1.43-.2-.95-.28-1.27-.16h-.32v-.16l-.16-.16h-.16l-1.27-.16-1.27-.32-2.7-.48-.48-.32-.79-.63-.48-.12-3.81-1.55-6.98-1.55-4.6-.28-.32-.32-.16.16v.63l-1.11,1.11-.95.32-.32.32-.32-.32-1.9-.32-.63-.63h-5.47l-.16.56-.87-.08-.79-.16-.32.32-.32-.32-.16.16v.32l-.16.16-.32-.32h-.32l-.32.32-.32-.32h-.32l-.63.63-.32-.32-.4.08-.16.48-5.63,1.86-.48.12-.32.32-.32-.32-.32.32-1.11.16-1.9.67-.48.12-.63.63-.71.08-.08.4-2.7,2.7h-.32l-2.7,2.7v.16h-.16l-.16.16v.16h-.16l-.16.16v.16l-2.54,2.38-.32.95-.63.63v.79h-.48l-.95.95-.32-.32-.32.32-2.3-.36-.16-.52-.71-.08-.16-.16.32-.32-.16-.16h-.32l-.48-.48.16-.48-.04-1.27.4-1.27.28-.63.95-1.59,4.68-5.95.4-.08.48-.48.08-.4,1.98-1.35.63-.63.79-.2,1.27-.59,1.43-.79.48-.48.4-1.03.48-.16.16-.48.48-.16.08-.4.48-.48.48-.16,1.59-.91,2.54-.67,1.11-.16.32-.32.16.16v.48l.32-.16.08-.4,1.19-.24,1.43-.16.32.32.32-.32.48-.12,1.27-.2.16.32.16-.32h.79l.32.32.32-.32h.32l.32.32.32-.32.48-.16h.63l.63.12,18.71-.36.95.28.63.24.79.2.32.32.32-.32.48.48.08.4,1.43-.16.16.48.4.08.32-.32.32.32,1.27.32.32.32.32-.32.63.63h.32l.32.32.32-.32h.32l.63.63.79.2.63.24.79.2.63.63,7.61.95.63.63h.95l.32.32.32-.32.16.16.08.4,1.35.4.48.48v.32l.48.48.32-.32.16.16.32.95.16.16.32-.32.48.32-.32.16.16.16h.16l.16.32h.32l1.43,1.43v.48l-.24.56.24.08.48.32.16-.32M290.32,69.23v-.32h-.32v.32h.32M215.15,83.5v-.32h-.32v.32h.32M264.63,66.69v-.32h-.32v.32h.32M262.73,66.37v-.32h-.32v.32h.32M248.14,61.93v-.32h-.32v.32h.32M247.34,61.93l.16-.32h-.79l-.16.32h.79M245.6,61.93v-.32h-.32v.32h.32M255.43,61.3v-.32h-.32v.32h.32M239.26,62.57v-.32h-.32v.32h.32"/>
  </g>
</svg>