<?xml version="1.0" encoding="UTF-8"?>
<svg id="Layer_1" data-name="Layer 1" xmlns="http://www.w3.org/2000/svg" version="1.1" xmlns:xlink="http://www.w3.org/1999/xlink" viewBox="0 0 173 182">
  <defs>
    <style>
      .cls-1 {
        fill: #c23131;
      }

      .cls-1, .cls-2, .cls-3, .cls-4 {
        stroke-width: 0px;
      }

      .cls-1, .cls-2, .cls-4 {
        fill-rule: evenodd;
      }

      .cls-2 {
        fill: #95cc71;
      }

      .cls-3, .cls-5, .cls-6 {
        fill: none;
      }

      .cls-5 {
        stroke-width: 1.27px;
      }

      .cls-5, .cls-6 {
        stroke: #000;
        stroke-linecap: round;
        stroke-linejoin: round;
      }

      .cls-4 {
        fill: #000;
      }

      .cls-6 {
        stroke-width: .95px;
      }

      .cls-7 {
        clip-path: url(#clippath);
      }
    </style>
    <clipPath id="clippath">
      <rect class="cls-3" x="-36" y="-28" width="514" height="685"/>
    </clipPath>
  </defs>
  <g class="cls-7">
    <polyline class="cls-6" points="84.05 55.26 84.6 55.21 84.98 55.08 85.83 55.05 85.97 54.97 86.46 54.99 86.94 54.83 92.47 54.77 92.61 54.86 92.96 54.85 93.4 54.97 94.15 54.94 94.82 55.1 96.3 55.12 96.65 55.25 99.61 55.22 101.95 55.4 102.08 55.49 102.98 55.46 103.31 55.6 104.27 55.61 104.41 55.69 105.77 55.68 106.19 55.85 106.42 56.09 107.51 56.02 108.17 56.19 108.61 56.16 109.02 56.29 109.66 56.31 110.26 56.5 110.56 56.48 111.17 56.63 115.1 58.39 115.24 58.54 116.35 59.15 116.78 59.61 117.14 59.78 117.78 60.24 118.88 61.23 119.43 61.55 120.35 62.49 120.58 62.57 121.16 63.13 121.52 63.32 122.04 63.85 122.18 63.89 122.89 64.6 123.11 64.72 123.51 65.18 124.09 65.5 124.47 65.9 125.59 66.73 125.91 67.12 125.95 67.28 126.28 67.62 126.46 67.7 126.59 67.93 127.27 68.54 127.34 68.7 127.85 69.18 128.02 69.47 128.5 69.95 128.74 70.09 128.83 70.29 129.26 70.72 129.32 70.96 129.53 71.1 129.99 71.61 130.72 73.12 130.97 73.42 132.54 77.98 132.8 78.5 132.8 78.85 133.18 80 133.16 80.3 133.28 80.72 133.27 80.98 133.44 81.42 133.41 81.73 133.72 82.83 133.73 83.57 133.97 84.35 133.94 84.74 134.07 85.18 134.09 85.66 134.17 86.11 134.37 86.58 134.34 86.9 134.57 87.94 134.63 88.7 135.05 89.62 135.09 90.11 135.25 90.44 135.23 90.65 135.31 90.79 135.3 91.07 135.5 91.67 135.55 92.7 135.68 92.94 135.82 93.55 135.98 94.89 136.11 95.21 136.1 95.43 136.28 96.25 136.45 98.2 136.57 98.43 136.62 99.13 136.79 99.56 136.76 100 136.88 100.78 136.87 101.76 136.96 101.9 137 102.2 136.97 102.84 137.01 103.7 137.1 104.04 137.12 105.21 137.21 105.42 137.22 106.28 137.36 106.57 137.37 107.36 137.46 107.54 137.44 108.58 137.53 108.89 137.51 110 137.6 110.41 137.58 113.47 137.45 113.82 137.16 115.29 137.16 115.83 136.86 116.67 136.86 117.09 135.9 120.23 135.85 120.63 134.4 124.98 134.15 125.6 133.68 126.22 133.61 126.54 132.87 127.68 131.61 130.38 131.07 131.13 130.8 131.36 129.2 134.52 129 134.84 128.76 135.05 128.68 135.33 128.46 135.52 128.28 135.86 128.02 136.07 127.8 136.45 127.52 136.6 126.15 138.19 125.64 138.66 125.44 138.75 124.78 139.4 124.6 139.49 124.48 139.72 124.21 139.87 124.04 140.14 123.54 140.49 122.61 141.4 121.92 141.79 121.48 142.27 121.15 142.36 120.75 142.64 119.29 144.08 118.93 144.21 117.95 144.99 117.18 145.4 116.72 145.79 115.12 146.48 114.5 146.82 114.13 147.22 113.07 147.69 112.42 147.89 110.27 148.95 109.64 149.14 108.88 149.52 108.1 149.69 106.84 150.27 106.43 150.36 105.74 150.68 105.38 150.73 105.09 150.89 104.67 150.92 104.4 151.05 103.87 151.11 103.37 151.27 103.06 151.23 102.14 151.34 101.9 151.48 101.77 151.45 101.42 151.66 101.21 151.62 100.88 151.82 100.59 151.84 100.2 152.07 99.91 152.08 99.55 152.28 99.27 152.29 98.84 152.53 98.41 152.65 97.85 152.69 97.67 152.8 97.11 152.83 96.82 152.97 96.27 153.03 95.4 153.31 94.76 153.33 94.58 153.41 94.13 153.38 93.06 153.64 92.09 153.74 92 153.83 91.84 153.8 91.39 153.97 91.2 153.95 90.91 154.07 89.11 154.12 88.47 154.2 88.33 154.28 87.83 154.26 85.75 154.47 80.54 154.47 75.12 154.36 73.6 154 72.98 153.95 72.67 153.77 72.43 153.81 71.91 153.7 71.72 153.57 71.45 153.61 71.06 153.47 70.37 153.46 69.67 153.23 69.06 153.22 68.97 153.13 68.39 153.07 68.17 152.94 66.49 152.91 65.74 152.8 65.51 152.68 64.95 152.7 64.62 152.54 63.97 152.49 63.63 152.27 63.27 152.32 62.45 152.03 62.26 152.06 61.88 151.86 61.02 151.8 60.58 151.62 59.85 151.55 59.23 151.33 58.89 151.3 58.73 151.2 58.47 151.2 57.29 150.67 56.9 150.61 55.12 149.7 54.96 149.7 52.45 148.5 52.22 148.43 51.81 148.46 51.67 148.33 51.31 148.28 51.11 148.14 50.96 148.19 50.75 148.1 50.42 148.11 50.16 147.94 49.93 147.96 49.62 147.81 49.46 147.83 48.62 147.46 48.48 147.49 48.15 147.36 47.01 147.18 46.34 146.71 45.87 146.48 45.07 145.71 43.79 145.05 43.25 144.53 43.03 144.45 42.82 144.23 41.86 143.63 41.15 142.91 40.86 142.76 40.57 142.36 40.06 141.88 39.99 141.68 39.33 140.92 39 140.3 38 139.29 37.77 138.74 37.26 138.27 36.92 137.75 36.71 137.58 35.82 136.24 35.11 134.84 34.76 134.39 34.06 133.07 33.42 131.24 33.46 130.88 33.37 130.68 33.39 130.49 33.25 130.28 33.27 130.07 33.1 129.76 33.03 128.84 32.89 128.49 32.88 127.65 32.72 127.03 32.75 126.4 32.65 126.17 32.6 125 32.47 124.49 32.49 123.41 32.4 123.1 32.42 122.62 32.33 122.51 32.35 122.04 32.22 121.78 32.24 121.26 32.11 120.88 32.07 119.84 31.9 119.17 31.77 117.07 31.57 116.32 31.49 113.86 31.39 113.46 31.42 113.01 31.38 112.51 31.24 112.29 31.24 100.74 31.42 100.27 31.43 99.93 31.67 99.45 31.66 99.04 31.8 98.76 31.79 98.62 32.03 98.12 32.06 97.52 32.31 96.87 32.39 96.18 32.58 95.64 32.68 94.99 32.99 94.31 32.96 94.09 33.67 92.71 33.63 92.6 33.78 92.05 33.95 91.75 33.94 91.59 34.75 90.03 35.17 89.06 35.26 88.64 37.91 83.38 38.4 82.94 38.52 82.6 38.68 82.46 39.26 81.45 40.01 80.71 40.42 80.19 40.99 79.06 41.27 78.7 42 77.21 42.24 77.01 42.71 76.27 43.69 74.26 43.87 74.06 44.14 73.5 44.78 72.74 44.99 72.25 45.68 71.59 45.8 71.3 46.15 70.95 46.32 70.58 46.63 70.33 46.89 69.75 47.37 69.54 47.7 69 48.01 68.74 48.97 67 49.37 66.66 49.67 65.99 50.16 65.54 50.32 65.5 50.37 65.39 50.67 65.23 51.19 64.7 51.24 64.57 51.98 64.09 52.15 63.86 52.4 63.76 52.9 63.24 55.4 62 55.54 62.02 55.91 61.8 56.7 61.58 58.92 60.5 59.66 59.84 60.08 59.66 60.54 59.28 61.34 58.82 61.63 58.52 61.86 58.45 62.28 57.99 62.38 57.98 62.7 57.66 63.01 57.55 63.34 57.2 63.98 56.94 64.89 56.38 65.84 55.92 66.74 55.64 67.66 55.19 67.87 55.22 68.53 54.94 68.74 54.97 69.11 54.81 69.53 54.85 69.99 54.72 70.22 54.73 70.48 54.57 70.92 54.61 71.06 54.52 71.99 54.49 72.3 54.36 73.6 54.39 73.8 54.3 74.75 54.29 74.96 54.2 76.61 54.22 77.06 54.05 77.99 54.08 78.21 53.94 82.13 53.94 82.58 53.97 82.72 54.06 83.14 54.04 83.33 54.17 83.5 54.15 83.93 54.31 84.42 54.29 84.79 54.46 85.15 54.47 85.79 54.74 86.07 54.7 86.28 54.83 86.51 54.8 87.09 55.09 93.58 55.05 94.13 55.23 94.25 55.35"/>
    <polyline class="cls-6" points="82.82 107.82 82.88 107.81 83.08 106.96 83.25 106.72 83.21 106.39 83.54 105.76 83.57 105.49 83.76 105.12 83.78 103.71 84.02 102.64 84.03 101.84 84.12 101.72 84.12 101.43 84.28 101 84.29 99.7 84.44 98.72 84.5 96.76 84.75 93.89 84.84 93.75 84.82 93.35 84.96 92.95 84.93 92.53 85.06 92.22 85.04 91.85 85.12 91.63 85.15 91.1 85.32 90.65 85.31 90.39 85.47 89.81 85.42 89.35 85.65 88.77 85.65 87.91 85.73 87.72 85.72 87.05 85.81 86.8 85.78 85.88 85.99 84.58 85.97 84.21 86.1 83.93 86.08 83.42 86.24 82.74 86.41 80.66 86.47 67.05 86.56 66.87 86.55 66.33 86.77 64.78 86.75 64.4 86.84 64.27 86.83 63.77 87 63.31 86.99 63 87.22 62.06 87.19 61.66 87.4 60.91 87.35 60.36 87.44 60.25 87.51 59.22 87.97 57.55 87.93 57.19 88.3 55.94 88.26 55.6 88.58 54.34 88.6 53.98 88.83 53.36 88.9 52.49 89.12 51.92 89.14 51.6 89.29 51.15 89.25 50.64 89.39 50.25 89.4 49.39 89.58 48.83 89.58 48.03 89.76 47.53 89.77 46.96 90.07 45.66 90.04 44.84 90.08 44.21 90.17 44.01 90.15 43.16 90.42 41.57 90.47 39.91 90.56 39.55 90.55 39.19 90.67 38.8 90.64 38.1 90.91 35.84 90.9 33.36 91.02 33.03 91.05 31.09"/>
    <polyline class="cls-5" points="95.89 55.16 95.39 56.17 94.59 58.37 94.62 58.74 94.14 60.43 94.17 61.05 94.05 61.23 93.98 62.31 93.7 62.84 93.65 64.23 93.42 64.52 93.45 64.81 93.2 65.25 93.21 65.43 92.92 65.96 92.94 66.15 92.64 66.68 92.66 66.86 92.09 68.21 91.86 69.62 91.69 69.89 91.73 70.35 91.44 70.79 91.46 70.97 90.89 72.36 90.92 72.55 90.07 75.07 90.11 75.38 89.96 75.69 89.97 76.12 89.75 76.59 89.76 76.86 89.63 77.22 89.66 77.8 89.55 77.97 89.57 78.52 89.39 78.78 89.43 79.23 89.26 79.49 89.29 79.95 88.89 81.3 88.78 84.31 88.67 84.6 88.69 85.21 88.58 85.44 88.55 86.39 87.77 88.19 87.82 88.52 87.62 89.41 87.64 89.95 87.52 90.13 87.49 91.29 87.38 91.47 87.4 91.83 87.24 92.34 87.26 93.52 87.11 94.15 87.13 94.95 87.01 95.13 86.83 96.2 86.31 97.5 86.3 98.09 86.13 98.34 86.02 100.13 85.85 100.51 85.9 101.25 85.65 101.83 85.55 102.67 85.21 103.52 85.19 104.31 84.98 105.01 84.91 107.06 84.81 107.25 84.83 107.6 84.56 108.13 84.46 109.16 84.35 109.33 84.37 111.16"/>
    <polyline class="cls-5" points="78.74 54.32 78.95 55.32 79.68 56.9 80.47 59 80.57 59.94 80.6 62.33 81.02 63.1 81.16 63.71 81.65 64.79 81.67 65.26 81.82 65.61 81.89 67.26 82.16 67.93 82.11 68.32 82.39 69.05 82.58 70.48 82.69 70.65 82.76 73.95 82.81 74.59 82.92 74.83 82.9 84.82 83.05 86.15 83.08 87.63 83.25 88.43 83.22 93.43 83.47 94.74 83.5 98.21 83.59 99.37 83.81 99.91 83.86 107.67 84.07 108.45 84.09 109.46 84.26 109.69 84.23 109.91 84.4 110.24 84.42 111.75 84.48 109.97"/>
    <polyline class="cls-5" points="83.78 110.18 84.74 109.34 84.86 109.32 84.91 109.15 85.25 109 85.36 108.74 85.6 108.65 85.7 108.42 85.83 108.41 85.99 108.15 87.23 106.97 87.43 106.57 88.33 106.11 88.33 105.93 88.52 105.83 88.65 105.6 89.91 104.54 90.41 103.79 90.89 103.53 91.11 103.23 91.5 103.06 91.9 102.51 92.7 101.78 93.3 101.5 93.84 100.97 94.21 100.84 94.92 100.29 95.14 100.23 95.24 100.02 95.78 99.7 96.13 99.23 96.5 99.06 96.83 98.54 97.33 98.19 97.88 97.53 98.06 97.47 98.71 96.88 99.41 96.04 100.36 95.53 101.56 94.32 101.92 94.14 102.19 93.79 102.39 93.77 102.57 93.52 103.16 93.24 103.65 92.62 104.32 92.18 105.29 91.19 105.68 91.04 106.47 90.36 106.88 90.15 107.76 89.32 108.36 89.04 109.24 88.15 109.37 88.14 109.9 87.6 110.01 87.6 110.74 86.73 111.32 86.29 111.67 85.89 112.16 85.75 113.6 84.32 115.15 83.38 115.29 83.19 115.6 83.03 116.03 82.48 117.55 81.5 118.84 80.27 119.2 80.13 120.95 78.76 121.38 78.59 121.68 78.36 121.71 78.21 122.38 77.91 122.45 77.71 122.81 77.54 123.05 77.23 123.26 77.19 123.66 76.68 124.52 76.18 124.96 75.53 125.17 75.47 125.32 75.08 125.56 74.82 126.07 74.36 126.55 74.07 126.69 73.87 127.13 73.64 127.46 73.24 129.04 72.47 129.4 72.11 130.39 71.83"/>
    <polyline class="cls-5" points="82.47 108.76 81.93 107.62 81.77 107.47 80.6 106.66 79.13 105.9 79.08 105.75 77.57 104.82 77.18 104.45 76.93 103.92 76.22 103.63 75.95 103.48 75.91 103.34 75.25 103.03 74.98 102.65 74.69 102.49 74.44 102.08 74.18 101.96 73.88 101.65 73.3 100.41 72.58 99.97 72.43 99.72 71.58 99.18 71.09 98.71 68.05 97.28 67.06 96.56 64.94 95.5 64.38 95.12 63.65 94.82 62.72 94.23 59.23 92.54 58.87 92.26 55.13 90.6 54.22 89.94 53.75 89.75 53.08 89.21 49.38 87.41 48.41 87.13 47.72 86.79 46.82 86.56 46.21 86.26 45.42 86.08 44.99 85.84 44.61 85.89 43.97 85.63 42.52 85.53 39.92 84.22 39.43 83.88 38.95 83.37 38.52 83.16 38.52 82.96 38.02 82.71 37.93 82.5 38.04 82.48"/>
    <polyline class="cls-5" points="87.14 14.11 86.51 13.76 85.35 13.67 84.49 14.16 83.48 15.07 82.39 16.98 82.22 17.87 82.26 19.07 82.43 19.33 82.42 19.51 82.67 19.97 82.88 20.14 83.47 20.27 84.28 20.22 86.34 19.7 87.49 19.3 88.79 18.36"/>
    <polyline class="cls-5" points="90.78 9.2 90.53 9.87 90.08 11.85 89.94 12.59 89.99 13.67 89.87 14.02 89.89 17.9 89.99 18.31 90.36 18.56 90.8 18.42 91.77 17.46 92.5 16.39 93.92 13.74 95.68 11.35 96.18 10.92 97.39 10.33 97.59 10.37"/>
    <polyline class="cls-5" points="87.7 9.07 88.02 10.56 87.97 11.04 88.06 11.38 88.1 16.83 88.3 17.5 88.85 17.95 89.29 18.12 89.47 18.1"/>
    <polyline class="cls-5" points="92.52 14.63 93.09 15.44 93.77 16.05 94.25 17.11 94.85 17.59 95.05 17.68 95.14 17.61"/>
    <polyline class="cls-1" points="40.44 84.28 40.12 84.28 40.12 83.96 40.44 83.96 40.44 84.28"/>
    <polyline class="cls-1" points="38.85 82.38 38.54 82.38 38.54 82.06 38.85 82.06 38.85 82.38"/>
    <polyline class="cls-4" points="94.36 60.18 94.68 60.33 94.36 60.49 94.36 60.18"/>
    <polyline class="cls-2" points="97.22 59.86 96.9 59.86 96.9 59.54 97.22 59.54 97.22 59.86"/>
    <polyline class="cls-4" points="95 59.86 94.68 59.86 94.68 59.54 95 59.54 95 59.86"/>
    <path class="cls-2" d="M105.46,63.67v-.32h-.32v.32h.32M94.36,55.1h1.11l.32-.32.32.32h1.59l.63.63.79.2,2.54,1.19.79.2.32.32.32-.32.95.95,1.11.2.56.2.08.4.16.16.32-.32.16.16v.32l.16.16.32-.32.16.16.08.4.56.24,3.81,1.9.63.24,1.59.48.63.24,3.96,2.06,2.54,1.59.63.32.95.95.32-.32.32.32,1.43.75.95.36.79.16.63.63.32-.32.16.16v.32l.16.16.32-.32.48.48v.32l.48.48.44.08.04,1.98-.48.48-.48.08-1.59.04-.95-.32-3.17-1.55-1.59-.91-3.81-1.59-.79-.2-.32-.32-.32.32-.63-.63h-.95l-.63-.63h-.63l-.63-.63-.48-.16-1.27-.63-.56-.24-.08-.4-.16-.16-.32.32-.16-.16v-.32l-.16-.16-.32.32-.16-.16v-.32l-.48-.48-1.27-.32-.32-.32-.32.32-.16-.16v-.32l-.16-.16-.32.32-.48-.16-.63-.28-.79-.2-.63-.63-.48-.12-1.59-.67-1.59-.95-.48-.16-.16-.16.32-.32-.16-.16-.48-.16-1.59-.91-.79-.2-.95-.95h-.48v-2.38l-.32-.32v-.16"/>
    <polyline class="cls-1" points="73.74 59.22 73.59 59.54 73.11 59.22 73.74 59.22"/>
    <polyline class="cls-4" points="90.24 55.1 89.92 55.1 89.92 54.78 90.24 54.78 90.24 55.1"/>
    <polyline class="cls-4" points="91.82 53.83 91.51 53.83 91.51 53.52 91.82 53.52 91.82 53.83"/>
    <polyline class="cls-4" points="94.36 60.49 94.04 60.97 93.89 61.76 92.58 66.52 92.34 67.15 92.06 68.11 91.82 70.8 91.19 71.44 91.11 72.47 90.59 72.63 90.4 74.13 90 75.72 89.92 76.19 90.24 76.51 89.92 76.83 89.13 81.43 89.09 83.65 88.97 84.12 89.29 84.44 88.97 84.76 88.97 85.71 89.29 86.03 88.97 86.34 88.77 87.45 88.81 88.09 88.97 88.56 88.65 88.88 88.97 89.2 88.65 89.52 88.49 90.31 88.14 91.26 88.02 91.74 87.7 92.05 88.02 92.37 87.7 92.69 87.54 93.8 87.15 95.38 87.07 95.86 87.38 96.18 87.07 96.49 87.07 97.44 87.38 97.76 87.07 98.08 87.22 98.56 87.22 99.19 87.15 99.82 87.07 106.33 86.43 106.96 86.35 107.36 85.8 107.56 84.85 107.56 84.29 107.36 83.74 105.85 83.58 105.06 83.89 104.74 83.58 104.42 83.89 104.11 83.89 102.52 83.58 102.2 83.89 101.89 83.58 101.57 83.89 101.25 83.58 99.98 83.89 99.67 83.58 99.35 83.89 98.08 83.58 97.76 83.89 97.44 83.58 97.13 83.89 96.81 83.58 96.49 83.58 96.18 83.89 95.86 83.58 95.54 83.89 95.22 83.58 94.91 83.89 94.59 83.89 92.37 83.58 92.05 83.89 91.74 83.89 78.73 82.94 77.78 82.63 74.93 82.94 74.61 82.63 74.29 82.94 73.97 82.63 73.66 82.94 73.34 82.94 72.7 83.26 72.39 82.94 72.07 83.38 70.33 83.34 67.47 83.06 66.52 82.82 65.89 82.11 63.35 81.24 61.44 81.04 60.65 80.41 60.02 80.09 58.75 79.61 58.27 79.3 58.27 78.19 57.32 78.5 54.63 78.98 54.15 79.45 53.99 80.09 53.71 81.04 53.52 82.47 53.83 82.78 54.15 83.1 53.83 83.42 54.15 84.53 54.35 86.43 55.26 87.07 55.34 88.49 55.1 89.29 55.89 89.29 56.21 89.44 56.37 89.92 55.89 90.63 54.55 91.67 54.15 91.98 53.83 92.3 54.15 92.62 53.83 92.93 54.15 93.57 54.47 94.36 55.1 94.36 55.26 94.68 55.58 94.68 57.96 94.68 59.38 94.36 59.7 94.36 60.18 94.04 60.33 94.2 60.49 94.36 60.49"/>
    <polyline class="cls-1" points="53.76 64.3 53.76 64.14 53.92 63.98 54.08 64.3 53.76 64.3"/>
    <polyline class="cls-1" points="66.13 62.71 65.81 62.71 65.81 62.4 66.13 62.4 66.13 62.71"/>
    <path class="cls-1" d="M72.48,59.54v-.32h-.32v.32h.32M73.11,59.22h-.16l-.95.95-.32-.32-.63.63-2.38.24-.95.28-.63.28-4.36,3.73-.08.4-.48.48-.95.63-6.5,5.23-1.59.95-2.54,1.9-.79.48-1.43,1.43-1.03,1.67-.48.16.24,2.62-.63.63v.32l-1.11,1.11-1.35.4-.08.4-.16.16-.32-.32-.32.32-2.85-.32-.79-.79-.16-.48-.28-.63-.04-.95.63-1.59,1.9-3.17,1.74-2.38.32-.63,2.38-2.38.4-.08.08-.71.16-.16.32.32.32-.32h.32l.48-.48-.32-.32.16-.16h.63l.48-.48v-.32l.16-.16.32.32.16-.16v-.32l-.32-.32.16-.16h1.59l1.43-1.43-.32-.32.16-.16h.63l.48-.48.32-.48.16.32.16-.32.32-.16v-.32l.79-.79.48-.16.63-.32.56-.24.08-.4.79-.79.4-.08.08-.4,1.11-1.11h.32l.48-.48.08-.4.4-.08.48-.48v-.32l.79-.79,1.74-1.07,4.12-1.67h.63l1.11.2.32-.32.32.32.32-.32,3.65-.56,1.11-.4.63-.63.32.32.32-.32h.32l.63-.63h.95l.32-.32.32.32h.63l1.43,1.59-.95.2-.63.28-.48.16-.48.48-.32,2.7-.16.32-.79.2-1.9.63-1.59.75-.56-.24-.08.24M76.6,57.96v-.32h-.32v.32h.32M77.23,57.64v-.32h-.32v.32h.32M55.35,63.67v-.32h-.32v.32h.32M70.57,60.18v-.32h-.32v.32h.32"/>
    <polyline class="cls-1" points="51.22 66.84 50.91 66.84 50.91 66.52 51.22 66.52 51.22 66.84"/>
  </g>
</svg>