<?xml version="1.0" encoding="UTF-8"?>
<svg id="Layer_1" data-name="Layer 1" xmlns="http://www.w3.org/2000/svg" version="1.1" xmlns:xlink="http://www.w3.org/1999/xlink" viewBox="0 0 157 169">
  <defs>
    <style>
      .cls-1 {
        stroke-width: 1.9px;
      }

      .cls-1, .cls-2, .cls-3, .cls-4 {
        fill: none;
      }

      .cls-1, .cls-3, .cls-4 {
        stroke: #000;
        stroke-linecap: round;
        stroke-linejoin: round;
      }

      .cls-5 {
        fill: #c23131;
        fill-rule: evenodd;
      }

      .cls-5, .cls-2 {
        stroke-width: 0px;
      }

      .cls-3 {
        stroke-width: 1.27px;
      }

      .cls-4 {
        stroke-width: .95px;
      }

      .cls-6 {
        clip-path: url(#clippath);
      }
    </style>
    <clipPath id="clippath">
      <rect class="cls-2" x="-209" y="-28" width="514" height="685"/>
    </clipPath>
  </defs>
  <g class="cls-6">
    <polyline class="cls-4" points="77.61 53.75 78.15 53.71 78.53 53.58 79.38 53.55 79.52 53.46 80.02 53.48 80.5 53.32 86.03 53.27 86.17 53.36 86.51 53.35 86.96 53.46 87.71 53.44 88.37 53.6 89.85 53.62 90.21 53.75 93.17 53.72 95.51 53.9 95.63 53.98 96.54 53.96 96.86 54.1 97.82 54.1 97.96 54.19 99.32 54.17 99.75 54.35 99.97 54.59 101.07 54.52 101.73 54.68 102.17 54.66 102.57 54.79 103.22 54.8 103.82 54.99 104.12 54.97 104.73 55.13 108.65 56.88 108.79 57.04 109.9 57.65 110.33 58.11 110.69 58.27 111.34 58.74 112.43 59.72 112.99 60.05 113.91 60.99 114.13 61.06 114.72 61.63 115.08 61.81 115.59 62.34 115.74 62.39 116.45 63.1 116.67 63.22 117.07 63.68 117.64 63.99 118.03 64.4 119.14 65.23 119.47 65.62 119.5 65.78 119.83 66.12 120.01 66.2 120.15 66.43 120.83 67.04 120.89 67.2 121.41 67.67 121.58 67.97 122.05 68.45 122.29 68.59 122.38 68.78 122.81 69.22 122.87 69.46 123.09 69.6 123.55 70.1 124.28 71.61 124.53 71.91 126.09 76.47 126.35 77 126.36 77.34 126.74 78.49 126.71 78.8 126.84 79.21 126.82 79.48 126.99 79.91 126.97 80.22 127.27 81.33 127.28 82.07 127.52 82.84 127.49 83.23 127.62 83.68 127.64 84.15 127.72 84.61 127.93 85.08 127.9 85.39 128.12 86.44 128.18 87.2 128.6 88.12 128.65 88.61 128.81 88.94 128.79 89.15 128.87 89.29 128.85 89.56 129.06 90.16 129.1 91.19 129.24 91.44 129.37 92.04 129.54 93.38 129.67 93.71 129.65 93.93 129.84 94.75 130 96.7 130.13 96.93 130.18 97.63 130.35 98.06 130.32 98.49 130.44 99.28 130.42 100.26 130.52 100.39 130.55 100.69 130.53 101.33 130.57 102.19 130.66 102.54 130.67 103.7 130.77 103.91 130.78 104.78 130.92 105.06 130.92 105.85 131.02 106.04 130.99 107.07 131.09 107.39 131.07 108.5 131.16 108.91 131.14 111.97 131 112.32 130.71 113.78 130.71 114.32 130.42 115.17 130.42 115.59 129.46 118.72 129.41 119.13 127.96 123.48 127.71 124.09 127.24 124.72 127.16 125.03 126.42 126.18 125.17 128.87 124.63 129.62 124.35 129.85 122.75 133.02 122.56 133.34 122.31 133.55 122.23 133.82 122.01 134.02 121.84 134.36 121.58 134.57 121.36 134.95 121.08 135.1 119.71 136.68 119.2 137.15 118.99 137.24 118.34 137.9 118.15 137.98 118.03 138.22 117.76 138.37 117.59 138.64 117.09 138.98 116.16 139.9 115.47 140.28 115.03 140.77 114.7 140.86 114.3 141.13 112.84 142.58 112.48 142.7 111.5 143.49 110.73 143.9 110.28 144.29 108.68 144.97 108.05 145.32 107.69 145.71 106.63 146.19 105.97 146.39 103.82 147.44 103.19 147.63 102.43 148.01 101.65 148.19 100.4 148.76 99.98 148.85 99.29 149.18 98.93 149.23 98.65 149.39 98.22 149.42 97.96 149.54 97.43 149.61 96.93 149.76 96.62 149.73 95.7 149.84 95.46 149.97 95.32 149.95 94.97 150.16 94.76 150.12 94.43 150.31 94.15 150.33 93.76 150.57 93.46 150.58 93.1 150.78 92.83 150.79 92.39 151.02 91.97 151.14 91.4 151.19 91.23 151.3 90.67 151.33 90.38 151.47 89.82 151.52 88.96 151.81 88.32 151.82 88.13 151.91 87.68 151.88 86.61 152.14 85.65 152.24 85.56 152.32 85.39 152.3 84.95 152.47 84.75 152.44 84.46 152.57 82.67 152.62 82.02 152.69 81.88 152.78 81.39 152.75 79.3 152.97 74.1 152.96 68.68 152.86 67.16 152.49 66.54 152.44 66.23 152.27 65.98 152.31 65.46 152.2 65.27 152.06 65.01 152.1 64.62 151.96 63.93 151.96 63.23 151.72 62.61 151.71 62.53 151.63 61.95 151.57 61.73 151.44 60.04 151.4 59.29 151.3 59.07 151.17 58.5 151.19 58.17 151.03 57.53 150.98 57.19 150.77 56.82 150.82 56.01 150.53 55.82 150.56 55.43 150.36 54.57 150.29 54.14 150.12 53.4 150.05 52.78 149.83 52.44 149.8 52.29 149.69 52.03 149.7 50.84 149.17 50.46 149.1 48.67 148.2 48.52 148.2 46 147 45.78 146.93 45.37 146.96 45.22 146.83 44.87 146.77 44.67 146.64 44.52 146.69 44.3 146.6 43.97 146.6 43.71 146.43 43.49 146.46 43.18 146.3 43.01 146.33 42.18 145.95 42.03 145.99 41.71 145.86 40.57 145.68 39.9 145.21 39.42 144.98 38.63 144.21 37.34 143.55 36.81 143.03 36.58 142.94 36.38 142.73 35.41 142.13 34.7 141.4 34.41 141.26 34.13 140.86 33.61 140.38 33.55 140.18 32.88 139.42 32.56 138.79 31.56 137.79 31.32 137.23 30.82 136.76 30.48 136.25 30.27 136.07 29.37 134.73 28.66 133.34 28.31 132.88 27.62 131.57 26.98 129.74 27.02 129.38 26.93 129.18 26.94 128.99 26.8 128.77 26.83 128.57 26.65 128.26 26.58 127.34 26.45 126.98 26.44 126.15 26.28 125.52 26.3 124.9 26.2 124.67 26.15 123.5 26.02 122.99 26.05 121.91 25.95 121.59 25.98 121.12 25.89 121.01 25.9 120.54 25.77 120.28 25.8 119.75 25.66 119.38 25.62 118.33 25.46 117.67 25.33 115.56 25.13 114.82 25.05 112.36 24.95 111.96 24.98 111.51 24.94 111 24.8 110.79 24.8 99.24 24.97 98.77 24.98 98.43 25.23 97.95 25.22 97.54 25.35 97.26 25.34 97.12 25.58 96.62 25.62 96.02 25.86 95.37 25.94 94.68 26.14 94.14 26.24 93.49 26.54 92.8 26.52 92.59 27.22 91.2 27.18 91.1 27.34 90.55 27.51 90.24 27.5 90.09 28.3 88.53 28.73 87.56 28.81 87.14 31.47 81.88 31.96 81.44 32.08 81.1 32.24 80.96 32.82 79.94 33.56 79.21 33.98 78.69 34.55 77.56 34.82 77.2 35.56 75.71 35.8 75.5 36.27 74.77 37.25 72.76 37.43 72.55 37.7 71.99 38.33 71.23 38.55 70.74 39.24 70.09 39.35 69.79 39.7 69.45 39.88 69.07 40.19 68.82 40.44 68.25 40.93 68.04 41.25 67.5 41.56 67.23 42.52 65.5 42.93 65.15 43.22 64.48 43.72 64.03 43.87 64 43.93 63.88 44.23 63.72 44.74 63.2 44.79 63.06 45.54 62.59 45.71 62.36 45.95 62.26 46.46 61.74 48.96 60.5 49.1 60.52 49.47 60.29 50.26 60.07 52.47 59 53.22 58.34 53.64 58.16 54.1 57.77 54.9 57.32 55.18 57.02 55.42 56.95 55.83 56.49 55.93 56.48 56.25 56.16 56.57 56.04 56.9 55.7 57.54 55.43 58.45 54.87 59.4 54.42 60.3 54.14 61.22 53.69 61.43 53.72 62.09 53.44 62.29 53.47 62.67 53.31 63.09 53.34 63.55 53.21 63.78 53.22 64.03 53.06 64.47 53.1 64.62 53.02 65.54 52.99 65.85 52.86 67.16 52.89 67.36 52.79 68.31 52.78 68.51 52.69 70.17 52.71 70.62 52.54 71.55 52.57 71.77 52.44 75.68 52.44 76.13 52.47 76.28 52.56 76.7 52.54 76.89 52.66 77.06 52.65 77.49 52.81 77.98 52.78 78.35 52.96 78.71 52.97 79.35 53.23 79.62 53.2 79.84 53.32 80.06 53.3 80.64 53.58 87.13 53.55 87.69 53.72 87.81 53.85"/>
    <polyline class="cls-4" points="76.38 106.32 76.44 106.31 76.64 105.45 76.8 105.22 76.77 104.88 77.1 104.26 77.13 103.98 77.31 103.61 77.34 102.21 77.58 101.13 77.59 100.34 77.68 100.21 77.67 99.92 77.83 99.49 77.84 98.2 78 97.21 78.05 95.25 78.31 92.39 78.39 92.25 78.38 91.85 78.51 91.45 78.49 91.03 78.62 90.72 78.6 90.34 78.68 90.13 78.71 89.59 78.87 89.15 78.87 88.88 79.02 88.31 78.98 87.84 79.21 87.27 79.2 86.4 79.29 86.22 79.27 85.55 79.36 85.3 79.34 84.38 79.55 83.07 79.53 82.7 79.65 82.42 79.63 81.92 79.8 81.24 79.96 79.15 80.02 65.55 80.11 65.36 80.1 64.83 80.32 63.28 80.31 62.9 80.4 62.77 80.38 62.27 80.56 61.81 80.55 61.5 80.77 60.55 80.74 60.16 80.95 59.41 80.91 58.85 81 58.75 81.07 57.72 81.53 56.04 81.49 55.69 81.85 54.44 81.82 54.09 82.13 52.83 82.15 52.47 82.39 51.86 82.46 50.98 82.67 50.42 82.69 50.1 82.84 49.65 82.8 49.14 82.94 48.75 82.95 47.89 83.13 47.33 83.14 46.53 83.31 46.02 83.33 45.46 83.63 44.16 83.59 43.34 83.64 42.71 83.72 42.51 83.7 41.66 83.98 40.07 84.03 38.41 84.11 38.04 84.1 37.68 84.23 37.3 84.2 36.6 84.46 34.34 84.46 31.86 84.57 31.52 84.6 29.58"/>
    <polyline class="cls-1" points="42.49 67.49 42.34 67.48 42.42 67.49 42.69 68.45 43.41 69.77 43.87 70.36 44.29 71.2 44.41 71.26 44.88 72.08 45.34 72.59 45.66 72.72 45.97 73.02 47.13 74.94 47.46 75.15 48.02 75.88 48.66 76.09 49.33 77.06 49.63 77.31 49.94 77.91 50.32 78.32 51.18 79.77 51.48 79.94 51.96 80.53 52.29 80.63 53.3 81.79 53.63 82.05 53.84 82.55 56.26 84.36 57.47 85.76 58.76 86.51 59.17 87.11 61.3 89.48 62.03 90.12 63.29 91.47 63.68 91.7 63.83 91.99 64.68 92.85 65.19 93.23 65.44 93.6 66.79 94.85 67.14 95 67.21 95.22 67.52 95.54 67.69 95.56 68.21 95.93 68.97 96.86 69.37 97.16 69.52 97.43 70.8 98.56 71.07 99.2 71.48 99.47 72.01 100.16 72.38 100.33 73.32 101.86 73.65 102.08 73.68 102.22 74.01 102.53 74.15 102.55 74.18 102.7 74.93 103.56 75.62 104.85 75.81 104.96 76.37 105.99 76.55 106.09"/>
    <polyline class="cls-3" points="30.65 31.87 30.1 31.75 29.51 31.79 27.97 32.7 27.63 33.54 27.65 35.1 28.2 36.14 28.71 36.43 29.71 37.47 31.19 40.24 31.31 40.53 31.28 40.93 30.48 41.47 29.67 41.34 28.94 40.95 28.19 40.02 27.77 39.07"/>
    <polyline class="cls-3" points="32.88 38.9 34.02 38.02 34.96 36.27 35.41 34.97 35.41 33.86 34.94 32.96 34.35 32.84 33.94 32.6 33.67 32.65 33.21 32.94 32.57 33.6 31.52 35.73 31.46 36.08 31.53 36.98 31.7 37.52 31.89 38 32.48 38.53 32.98 38.8 33.79 38.94 34.44 38.9 36.74 38.41 37.2 38.27 38.06 37.78 38.87 37.16 39.15 36.72"/>
    <polyline class="cls-3" points="35.85 24.42 36.43 28.17 36.88 29.8 37.26 31.88 37.67 32.89 37.77 33.53 38.35 35.4 38.91 36.53 38.88 36.67 38.05 36.71 37.54 36.39 36.95 35.74 36.76 35.17 36.8 34.28 37 33.95 37.73 33.64 40.65 32.7 41.32 32.38"/>
    <polyline class="cls-3" points="42.19 28.9 42.05 29.47 42.08 31.84 42.91 33.63 43.51 33.94 44.07 33.68 44.36 33.38 45.02 31.41 45.01 30.78 45.02 31.89 45.39 32.27 45.53 32.59 45.85 32.83 46.35 32.96 46.67 32.9"/>
    <polyline class="cls-3" points="47.43 28.13 47.7 29.96 47.86 30.35 47.88 31.04 48.1 31.58 48.23 32.31 48.34 33.7 48.78 34.99 48.74 35.36 48.86 35.6 48.84 32.74 49.12 31.53 49.26 30.08 49.48 29.36 49.44 28.63 49.76 27.91 49.78 27.63 50.26 26.71 50.96 26.36 51.5 26.41 52.52 26.92 53.19 27.66 53.53 28.22 53.69 28.6 53.65 29.13 53.28 30.12 52.99 30.54 51.83 31.11 51.06 31.08 50.73 30.71 50.57 30.8"/>
    <polyline class="cls-3" points="82.76 16.73 81.62 17.14 80 18.85 79.54 20.18 79.59 20.68 79.48 20.9 79.55 21.89 80.29 22.68 80.97 22.95 82.06 22.91 84.3 21.85"/>
    <polyline class="cls-3" points="87.83 11.79 87.54 12.11 87 13.19 86.58 13.79 86.06 15.82 86 16.53 86.02 19.69 86.26 20.29 86.27 20.57 86.52 21.06 86.57 21.43 86.92 21.6 87.5 21.56"/>
    <polyline class="cls-3" points="90.81 12.64 90.69 12.95 90.7 13.81 90.54 14.25 90.56 14.74 90.35 15.63 90.38 16.35 90.22 16.75 90.25 17.69 90.03 18.69 90.06 19.25 89.95 19.51 90.03 20.89 90.48 20.89 91.12 20.54 93.14 19.17 93.54 18.72 93.84 18.66 94.41 18.18 95.55 17.64"/>
    <polyline class="cls-3" points="94.25 18.3 93.61 20.03 93.71 21.67 94.75 22.59 96.64 23.27 96.95 23.51 97.44 23.67"/>
    <polyline class="cls-5" points="79.95 57.96 79.63 57.96 79.63 57.64 79.95 57.64 79.95 57.96"/>
    <path class="cls-5" d="M83.12,57v-.32h-.32v.32h.32M70.44,59.22v-.32h-.32v.32h.32M74.72,57.96l.16-.32h-.79l-.16.32h.79M78.37,57.32v-.32h-.32v.32h.32M47.28,69.45l-2.46.2-.83-1.55-.59-1.51-.4-.08-.16-.16.32-.32.2-.79.28-.63.16-.48,1.74-1.74h.63l.63-.63.48-.16,3.49-1.55,1.27-.36.95-.36.79-.44,3.81-2.54.95-.95.32.32.63-.63h.95l.63-.63,5.39-.95.32.32.32-.32,1.43-.2,1.74-.44.32-.32.32.32.32-.32,3.17-.32.32-.32.32.32.32-.32h2.22l.32-.32.32.32.32-.32.32.32,2.38.24.63.24.63.32.48.16.79.79.08.48v2.22l-.16.56-1.82.56-1.11.16-.32.32-.16-.16-.08-.4-.87-.28-.56-.04-.16.48-.4.08-.32-.32-.16.16-.08.4-.4.08-.16-.16.32-.32-.16-.16h-.32l-.63.63-2.85.32-.32-.32-.63.63-1.03.08-.16.48-6.26,1.55-3.17,1.23-.63.32-.48.16-.63.63-.79.2-.95.59-3.33,2.38-.79.48-.63.28-1.11.2-.63.63-.48.12-.95.4-.48.12-.63.63-1.43.24-.63.16"/>
  </g>
</svg>