<?xml version="1.0" encoding="UTF-8"?>
<svg id="Layer_1" data-name="Layer 1" xmlns="http://www.w3.org/2000/svg" version="1.1" xmlns:xlink="http://www.w3.org/1999/xlink" viewBox="0 0 403 181">
  <defs>
    <style>
      .cls-1 {
        stroke-width: 1.9px;
      }

      .cls-1, .cls-2, .cls-3, .cls-4 {
        fill: none;
      }

      .cls-1, .cls-3, .cls-4 {
        stroke: #000;
        stroke-linecap: round;
        stroke-linejoin: round;
      }

      .cls-5 {
        fill: #c23131;
      }

      .cls-5, .cls-6, .cls-2, .cls-7 {
        stroke-width: 0px;
      }

      .cls-5, .cls-6, .cls-7 {
        fill-rule: evenodd;
      }

      .cls-6 {
        fill: #95cc71;
      }

      .cls-3 {
        stroke-width: 1.27px;
      }

      .cls-4 {
        stroke-width: .95px;
      }

      .cls-8 {
        clip-path: url(#clippath);
      }

      .cls-7 {
        fill: #77cfe6;
      }
    </style>
    <clipPath id="clippath">
      <rect class="cls-2" x="-51" y="-475" width="514" height="685"/>
    </clipPath>
  </defs>
  <g class="cls-8">
    <polyline class="cls-4" points="90.03 50.27 90.58 50.22 90.95 50.1 91.8 50.06 91.95 49.98 92.44 50 92.92 49.84 98.45 49.78 98.59 49.87 98.93 49.86 99.38 49.98 100.13 49.95 100.8 50.12 102.27 50.13 102.63 50.26 105.59 50.24 107.93 50.41 108.06 50.5 108.96 50.47 109.28 50.61 110.24 50.62 110.39 50.7 111.75 50.69 112.17 50.86 112.39 51.1 113.49 51.03 114.15 51.2 114.59 51.17 115 51.3 115.64 51.32 116.24 51.51 116.54 51.49 117.15 51.64 121.08 53.4 121.22 53.55 122.33 54.16 122.76 54.62 123.12 54.79 123.76 55.25 124.85 56.24 125.41 56.56 126.33 57.5 126.55 57.58 127.14 58.15 127.5 58.33 128.01 58.86 128.16 58.91 128.87 59.62 129.09 59.73 129.49 60.19 130.06 60.51 130.45 60.91 131.57 61.74 131.89 62.13 131.93 62.29 132.26 62.63 132.44 62.71 132.57 62.94 133.25 63.55 133.32 63.71 133.83 64.19 134 64.49 134.47 64.96 134.72 65.1 134.8 65.3 135.24 65.73 135.29 65.97 135.51 66.11 135.97 66.62 136.7 68.13 136.95 68.43 138.51 72.99 138.78 73.51 138.78 73.86 139.16 75.01 139.14 75.31 139.26 75.73 139.25 75.99 139.42 76.43 139.39 76.74 139.69 77.84 139.71 78.58 139.95 79.36 139.91 79.75 140.04 80.19 140.06 80.67 140.15 81.12 140.35 81.59 140.32 81.91 140.55 82.95 140.6 83.71 141.03 84.63 141.07 85.12 141.23 85.45 141.21 85.66 141.29 85.8 141.28 86.08 141.48 86.68 141.53 87.71 141.66 87.95 141.8 88.56 141.96 89.9 142.09 90.22 142.07 90.45 142.26 91.26 142.42 93.21 142.55 93.44 142.6 94.14 142.77 94.57 142.74 95.01 142.86 95.79 142.85 96.77 142.94 96.91 142.97 97.21 142.95 97.85 142.99 98.71 143.08 99.05 143.1 100.22 143.19 100.43 143.2 101.29 143.34 101.58 143.35 102.37 143.44 102.55 143.42 103.59 143.51 103.9 143.49 105.01 143.58 105.43 143.56 108.48 143.43 108.83 143.13 110.3 143.14 110.84 142.84 111.68 142.84 112.1 141.88 115.24 141.83 115.64 140.38 119.99 140.13 120.61 139.66 121.24 139.59 121.55 138.85 122.69 137.59 125.39 137.05 126.14 136.78 126.37 135.17 129.53 134.98 129.85 134.74 130.06 134.66 130.34 134.44 130.53 134.26 130.87 134 131.09 133.78 131.46 133.5 131.61 132.13 133.2 131.62 133.67 131.42 133.76 130.76 134.41 130.58 134.5 130.45 134.73 130.18 134.88 130.02 135.15 129.52 135.5 128.59 136.41 127.9 136.8 127.46 137.28 127.13 137.37 126.72 137.65 125.26 139.09 124.91 139.22 123.93 140 123.15 140.41 122.7 140.8 121.1 141.49 120.48 141.83 120.11 142.23 119.05 142.7 118.4 142.9 116.25 143.96 115.61 144.15 114.86 144.53 114.07 144.7 112.82 145.28 112.41 145.37 111.72 145.69 111.35 145.74 111.07 145.9 110.64 145.93 110.38 146.06 109.85 146.12 109.35 146.28 109.04 146.24 108.12 146.35 107.88 146.49 107.75 146.46 107.39 146.67 107.19 146.63 106.86 146.83 106.57 146.85 106.18 147.09 105.88 147.09 105.53 147.29 105.25 147.3 104.81 147.54 104.39 147.66 103.83 147.7 103.65 147.82 103.09 147.84 102.8 147.98 102.24 148.04 101.38 148.32 100.74 148.34 100.55 148.42 100.11 148.4 99.04 148.66 98.07 148.75 97.98 148.84 97.82 148.81 97.37 148.98 97.17 148.96 96.89 149.08 95.09 149.13 94.45 149.21 94.31 149.29 93.81 149.27 91.72 149.48 86.52 149.48 81.1 149.37 79.58 149.01 78.96 148.96 78.65 148.78 78.41 148.82 77.89 148.71 77.7 148.58 77.43 148.62 77.04 148.48 76.35 148.47 75.65 148.24 75.04 148.23 74.95 148.14 74.37 148.08 74.15 147.96 72.47 147.92 71.71 147.81 71.49 147.69 70.93 147.71 70.6 147.55 69.95 147.5 69.61 147.28 69.25 147.33 68.43 147.04 68.24 147.07 67.85 146.87 66.99 146.81 66.56 146.64 65.83 146.56 65.2 146.34 64.87 146.31 64.71 146.21 64.45 146.21 63.27 145.69 62.88 145.62 61.1 144.71 60.94 144.71 58.43 143.51 58.2 143.45 57.79 143.48 57.64 143.34 57.29 143.29 57.09 143.16 56.94 143.2 56.73 143.11 56.39 143.12 56.13 142.95 55.91 142.97 55.6 142.82 55.44 142.84 54.6 142.47 54.46 142.5 54.13 142.37 52.99 142.19 52.32 141.72 51.85 141.49 51.05 140.72 49.77 140.06 49.23 139.54 49 139.46 48.8 139.24 47.84 138.64 47.13 137.92 46.84 137.77 46.55 137.37 46.04 136.9 45.97 136.69 45.31 135.93 44.98 135.31 43.98 134.3 43.74 133.75 43.24 133.28 42.9 132.76 42.69 132.59 41.79 131.25 41.08 129.85 40.74 129.4 40.04 128.08 39.4 126.25 39.44 125.89 39.35 125.69 39.36 125.5 39.22 125.29 39.25 125.08 39.08 124.77 39.01 123.85 38.87 123.5 38.86 122.67 38.7 122.04 38.72 121.41 38.63 121.18 38.57 120.01 38.45 119.5 38.47 118.42 38.38 118.11 38.4 117.63 38.31 117.52 38.33 117.05 38.19 116.79 38.22 116.27 38.09 115.9 38.04 114.85 37.88 114.19 37.75 112.08 37.55 111.33 37.47 108.87 37.37 108.47 37.4 108.02 37.36 107.52 37.22 107.3 37.22 95.75 37.39 95.28 37.4 94.94 37.65 94.46 37.64 94.06 37.78 93.77 37.76 93.63 38.01 93.14 38.04 92.53 38.29 91.88 38.36 91.19 38.56 90.65 38.66 90 38.96 89.32 38.94 89.11 39.65 87.72 39.61 87.62 39.76 87.06 39.93 86.76 39.92 86.6 40.72 85.05 41.15 84.07 41.23 83.65 43.89 78.39 44.38 77.95 44.5 77.61 44.66 77.47 45.24 76.46 45.99 75.73 46.4 75.2 46.97 74.08 47.25 73.72 47.98 72.22 48.22 72.02 48.69 71.28 49.67 69.27 49.85 69.07 50.12 68.51 50.76 67.75 50.97 67.26 51.66 66.6 51.77 66.31 52.13 65.97 52.3 65.59 52.61 65.34 52.86 64.76 53.35 64.55 53.68 64.01 53.98 63.75 54.95 62.01 55.35 61.67 55.65 61 56.14 60.55 56.3 60.52 56.35 60.4 56.65 60.24 57.17 59.71 57.21 59.58 57.96 59.11 58.13 58.87 58.38 58.77 58.88 58.26 61.38 57.01 61.52 57.03 61.89 56.81 62.68 56.59 64.89 55.51 65.64 54.86 66.06 54.67 66.52 54.29 67.32 53.84 67.61 53.53 67.84 53.46 68.26 53 68.35 52.99 68.67 52.67 68.99 52.56 69.32 52.21 69.96 51.95 70.87 51.39 71.82 50.93 72.72 50.66 73.64 50.2 73.85 50.23 74.51 49.95 74.72 49.98 75.09 49.83 75.51 49.86 75.97 49.73 76.2 49.74 76.46 49.58 76.89 49.62 77.04 49.53 77.96 49.51 78.27 49.37 79.58 49.4 79.78 49.31 80.73 49.3 80.94 49.21 82.59 49.23 83.04 49.06 83.97 49.09 84.19 48.95 88.11 48.95 88.56 48.98 88.7 49.07 89.12 49.05 89.31 49.18 89.48 49.16 89.91 49.32 90.4 49.3 90.77 49.47 91.13 49.48 91.77 49.75 92.05 49.71 92.26 49.84 92.49 49.82 93.06 50.1 99.56 50.06 100.11 50.24 100.23 50.36"/>
    <polyline class="cls-4" points="88.8 102.83 88.86 102.82 89.06 101.97 89.23 101.73 89.19 101.4 89.52 100.78 89.55 100.5 89.74 100.13 89.76 98.72 90 97.65 90.01 96.85 90.1 96.73 90.09 96.44 90.26 96.01 90.26 94.71 90.42 93.73 90.48 91.77 90.73 88.9 90.82 88.76 90.8 88.36 90.93 87.96 90.91 87.54 91.04 87.23 91.02 86.86 91.1 86.65 91.13 86.11 91.3 85.66 91.29 85.4 91.44 84.83 91.4 84.36 91.63 83.78 91.62 82.92 91.71 82.73 91.7 82.06 91.78 81.81 91.76 80.89 91.97 79.59 91.95 79.22 92.08 78.94 92.06 78.43 92.22 77.75 92.39 75.67 92.45 62.06 92.53 61.88 92.52 61.34 92.74 59.79 92.73 59.41 92.82 59.28 92.81 58.79 92.98 58.32 92.97 58.02 93.2 57.07 93.17 56.67 93.38 55.93 93.33 55.37 93.42 55.26 93.49 54.23 93.95 52.56 93.91 52.2 94.27 50.95 94.24 50.61 94.55 49.35 94.57 48.99 94.81 48.37 94.88 47.5 95.1 46.94 95.11 46.62 95.27 46.16 95.23 45.65 95.36 45.26 95.37 44.4 95.55 43.84 95.56 43.04 95.74 42.54 95.75 41.97 96.05 40.67 96.01 39.86 96.06 39.23 96.15 39.02 96.12 38.18 96.4 36.59 96.45 34.93 96.54 34.56 96.52 34.2 96.65 33.81 96.62 33.11 96.89 30.85 96.88 28.37 97 28.04 97.02 26.1"/>
    <polyline class="cls-1" points="54.91 64.01 54.76 64 54.84 64 55.11 64.96 55.83 66.28 56.3 66.87 56.71 67.71 56.83 67.77 57.3 68.6 57.77 69.1 58.09 69.23 58.39 69.54 59.55 71.46 59.88 71.67 60.45 72.39 61.08 72.6 61.75 73.58 62.05 73.83 62.36 74.42 62.75 74.83 63.6 76.28 63.9 76.45 64.38 77.04 64.71 77.14 65.72 78.31 66.06 78.57 66.27 79.06 68.68 80.87 69.89 82.27 71.18 83.02 71.59 83.63 73.72 86 74.46 86.63 75.71 87.98 76.1 88.22 76.25 88.5 77.1 89.37 77.62 89.75 77.86 90.12 79.21 91.37 79.56 91.51 79.63 91.74 79.94 92.05 80.11 92.07 80.63 92.45 81.39 93.38 81.79 93.68 81.94 93.95 83.23 95.07 83.49 95.71 83.9 95.98 84.44 96.68 84.8 96.84 85.74 98.37 86.07 98.59 86.1 98.74 86.43 99.05 86.58 99.07 86.6 99.21 87.35 100.08 88.04 101.36 88.23 101.47 88.79 102.51 88.97 102.61"/>
    <polyline class="cls-1" points="127.14 57.71 126.89 58.29 126.55 58.66 126.26 59.28 126.05 59.47 125.46 60.64 125.11 60.94 124.95 61.32 124.07 62.13 123.84 62.78 122.33 64.18 121.76 64.57 119.6 66.69 119.11 67.22 119.08 67.38 117.92 68.35 117.63 68.79 117.18 69.18 116.14 69.71 115.86 70.1 114.8 70.93 114.55 71.32 113.97 71.79 113.93 72.03 112.75 73.12 112.61 73.16 112.17 73.76 110.39 75.47 109.75 75.83 109.43 76.23 109.15 76.34 108.29 77.26 107.55 77.81 107.3 78.07 107.27 78.23 106.61 78.82 106.17 79.57 105.82 79.87 105.68 80.16 105.26 80.6 104.92 81.23 104.32 81.64 103.32 82.66 103.08 83.1 102.57 83.55 102.44 83.91 101.7 84.62 101.54 85.11 101.24 85.4 101.11 85.75 99.87 86.94 99.48 87.48 98.67 89.06 98.43 89.24 98.27 89.59 97.64 90.17 97.54 90.56 96.89 91.27 96.74 91.58 96.41 91.86 95.76 92.8 95.56 92.91 95.45 93.2 95.17 93.44 94.98 93.83 94.67 94.14 94.41 94.65 94.15 94.86 94.05 95.13 93.73 95.3 93.45 95.93 93.03 96.26 92.78 96.79 92.47 97.17 91.64 97.92 91.43 98.51 89.79 101.62"/>
    <polyline class="cls-3" points="121.71 19.39 121.23 21.28 121.03 21.6 120.74 22.6 120.14 23.77 119.59 25.76 119.23 26.29 118.99 27.19 118.67 27.85 119.42 27.49 119.75 27.19 120.06 27.08 122.21 25.73 123.36 25.19 123.52 25.29 124.08 26.61 124.04 29.48 123.75 29.96 123.66 30.25 123.69 30.55 123.4 31.34 123.45 31.78 123.87 31.96"/>
    <polyline class="cls-3" points="128.88 28.52 128.02 28.34 127.43 28.5 127.21 28.63 126.1 30.14 126.04 30.41 126.12 31.43 126.53 32.14 126.93 32.31 127.49 32.27 128.77 31.7 128.95 31.5 130.01 29.25 129.96 28.62 129.53 27.76 128.49 27.37 128.36 27.47 128.13 28.04 128.31 28.36"/>
    <polyline class="cls-3" points="133.98 26.02 132.88 26.75 132.61 27.04 131.25 29.02 130.8 29.85 130.58 30.77 130.63 31.71 130.5 31.96 130.52 33.21 130.62 33.88 131.14 33.88"/>
    <polyline class="cls-3" points="135.64 32.14 134.26 31.77 133.97 31.82 133.1 32.38 132.18 33.31 131.96 33.97 132 34.55 132.18 34.82 132.7 35.09 133.83 35.04 134.93 34.64 136.42 33.77 137.97 32.68 139.43 31.2 139.94 30.32 140.63 29.54 140.99 28.99 141.45 27.64 141.73 27.18 141.31 27.36 140.03 28.53 139.17 29.79 138.81 30.36 137.65 33.48 137.36 34.7 137.33 35.91 138.01 37.88"/>
    <polyline class="cls-3" points="93.34 14.6 92.39 14.36 91.48 14.42 90.08 15.04 88.93 17.14 88.97 18.21 89.35 19.02 90.22 19.46 93.15 19.42 94.07 18.92"/>
    <polyline class="cls-3" points="97.35 9.19 96.82 10.29 96.23 12.2 95.77 14.19 95.62 15.16 95.63 16.94 95.88 17.32 95.89 17.58 96.07 17.79 96.6 18.03 97.44 17.99 97.54 17.88"/>
    <polyline class="cls-3" points="101.26 10.31 99.64 16.29 99.27 17.35 99.31 18.95 99.73 18.68 101.2 17.23 101.38 16.94 102.4 16.02 103.02 15.25 104.91 14.24 105.51 14.05"/>
    <polyline class="cls-3" points="102.32 17.95 102.86 19.59 103.4 20.62 104.46 21.6 104.68 22.04 105.26 22.24 105.95 22.23"/>
    <polyline class="cls-4" points="313.87 61.32 314.42 61.28 314.79 61.15 315.64 61.12 315.79 61.03 316.28 61.05 316.76 60.89 322.29 60.84 322.43 60.92 322.77 60.91 323.22 61.03 323.97 61.01 324.64 61.17 326.11 61.18 326.47 61.31 329.43 61.29 331.77 61.47 331.9 61.55 332.8 61.53 333.12 61.66 334.08 61.67 334.23 61.76 335.59 61.74 336.01 61.92 336.23 62.16 337.33 62.08 337.99 62.25 338.43 62.22 338.84 62.35 339.48 62.37 340.08 62.56 340.38 62.54 340.99 62.69 344.92 64.45 345.06 64.61 346.17 65.21 346.6 65.67 346.96 65.84 347.6 66.31 348.69 67.29 349.25 67.61 350.17 68.55 350.39 68.63 350.98 69.2 351.34 69.38 351.85 69.91 352 69.96 352.71 70.67 352.93 70.78 353.33 71.24 353.9 71.56 354.29 71.96 355.41 72.79 355.73 73.19 355.77 73.35 356.1 73.69 356.28 73.76 356.41 74 357.09 74.61 357.16 74.77 357.67 75.24 357.84 75.54 358.31 76.01 358.56 76.15 358.64 76.35 359.08 76.79 359.13 77.02 359.35 77.16 359.81 77.67 360.54 79.18 360.79 79.48 362.35 84.04 362.61 84.57 362.62 84.91 363 86.06 362.97 86.37 363.1 86.78 363.09 87.04 363.26 87.48 363.23 87.79 363.53 88.9 363.55 89.64 363.79 90.41 363.75 90.8 363.88 91.24 363.9 91.72 363.99 92.18 364.19 92.64 364.16 92.96 364.38 94.01 364.44 94.77 364.87 95.68 364.91 96.17 365.07 96.5 365.05 96.71 365.13 96.86 365.12 97.13 365.32 97.73 365.36 98.76 365.5 99.01 365.64 99.61 365.8 100.95 365.93 101.28 365.91 101.5 366.1 102.32 366.26 104.26 366.39 104.49 366.44 105.2 366.61 105.63 366.58 106.06 366.7 106.85 366.69 107.83 366.78 107.96 366.81 108.26 366.79 108.9 366.83 109.76 366.92 110.11 366.94 111.27 367.03 111.48 367.04 112.35 367.18 112.63 367.19 113.42 367.28 113.6 367.26 114.64 367.35 114.96 367.33 116.06 367.42 116.48 367.4 119.53 367.27 119.88 366.97 121.35 366.98 121.89 366.68 122.73 366.68 123.15 365.72 126.29 365.67 126.69 364.22 131.05 363.97 131.66 363.5 132.29 363.43 132.6 362.69 133.75 361.43 136.44 360.89 137.19 360.61 137.42 359.01 140.58 358.82 140.9 358.58 141.12 358.5 141.39 358.28 141.58 358.1 141.93 357.84 142.14 357.62 142.52 357.34 142.66 355.97 144.25 355.46 144.72 355.26 144.81 354.6 145.46 354.42 145.55 354.29 145.79 354.02 145.93 353.86 146.2 353.35 146.55 352.43 147.47 351.73 147.85 351.29 148.34 350.96 148.42 350.56 148.7 349.1 150.14 348.75 150.27 347.76 151.05 346.99 151.47 346.54 151.85 344.94 152.54 344.32 152.89 343.95 153.28 342.89 153.76 342.24 153.96 340.09 155.01 339.45 155.2 338.7 155.58 337.91 155.75 336.66 156.33 336.25 156.42 335.56 156.74 335.19 156.79 334.91 156.95 334.48 156.99 334.22 157.11 333.69 157.17 333.19 157.33 332.88 157.29 331.96 157.4 331.72 157.54 331.59 157.51 331.23 157.72 331.03 157.68 330.69 157.88 330.41 157.9 330.02 158.14 329.72 158.15 329.37 158.34 329.09 158.35 328.65 158.59 328.23 158.71 327.67 158.76 327.49 158.87 326.93 158.9 326.64 159.04 326.08 159.09 325.22 159.37 324.58 159.39 324.39 159.48 323.95 159.45 322.88 159.71 321.91 159.81 321.82 159.89 321.66 159.87 321.21 160.04 321.01 160.01 320.73 160.14 318.93 160.18 318.29 160.26 318.15 160.34 317.65 160.32 315.56 160.54 310.36 160.53 304.94 160.43 303.42 160.06 302.8 160.01 302.49 159.84 302.24 159.88 301.73 159.76 301.54 159.63 301.27 159.67 300.88 159.53 300.19 159.52 299.49 159.29 298.88 159.28 298.79 159.2 298.21 159.13 297.99 159.01 296.31 158.97 295.55 158.86 295.33 158.74 294.77 158.76 294.43 158.6 293.79 158.55 293.45 158.34 293.08 158.38 292.27 158.1 292.08 158.13 291.69 157.93 290.83 157.86 290.4 157.69 289.67 157.62 289.04 157.39 288.71 157.37 288.55 157.26 288.29 157.26 287.1 156.74 286.72 156.67 284.94 155.77 284.78 155.77 282.27 154.56 282.04 154.5 281.63 154.53 281.48 154.4 281.13 154.34 280.93 154.21 280.78 154.25 280.56 154.17 280.23 154.17 279.97 154 279.75 154.03 279.44 153.87 279.27 153.89 278.44 153.52 278.3 153.56 277.97 153.42 276.83 153.24 276.16 152.77 275.69 152.55 274.89 151.77 273.61 151.11 273.07 150.6 272.84 150.51 272.64 150.3 271.68 149.69 270.97 148.97 270.67 148.82 270.39 148.43 269.87 147.95 269.81 147.75 269.14 146.98 268.82 146.36 267.82 145.36 267.58 144.8 267.08 144.33 266.74 143.82 266.53 143.64 265.63 142.3 264.92 140.9 264.57 140.45 263.88 139.14 263.24 137.3 263.28 136.95 263.19 136.74 263.2 136.56 263.06 136.34 263.09 136.13 262.92 135.83 262.85 134.9 262.71 134.55 262.7 133.72 262.54 133.09 262.56 132.46 262.47 132.24 262.41 131.07 262.29 130.56 262.31 129.47 262.22 129.16 262.24 128.68 262.15 128.57 262.17 128.11 262.03 127.84 262.06 127.32 261.93 126.95 261.88 125.9 261.72 125.24 261.59 123.13 261.39 122.39 261.31 119.92 261.21 119.52 261.24 119.07 261.2 118.57 261.06 118.36 261.06 106.81 261.23 106.33 261.24 106 261.49 105.51 261.48 105.11 261.62 104.83 261.6 104.69 261.85 104.19 261.88 103.58 262.13 102.94 262.2 102.25 262.4 101.7 262.5 101.06 262.8 100.37 262.78 100.16 263.49 98.77 263.45 98.67 263.6 98.11 263.77 97.81 263.76 97.65 264.56 96.1 264.99 95.13 265.07 94.7 267.73 89.44 268.22 89.01 268.34 88.66 268.5 88.53 269.08 87.51 269.82 86.78 270.24 86.26 270.81 85.13 271.08 84.77 271.82 83.27 272.06 83.07 272.53 82.33 273.51 80.33 273.69 80.12 273.96 79.56 274.59 78.8 274.81 78.31 275.5 77.66 275.61 77.36 275.97 77.02 276.14 76.64 276.45 76.39 276.7 75.82 277.19 75.61 277.51 75.07 277.82 74.8 278.79 73.06 279.19 72.72 279.48 72.05 279.98 71.6 280.13 71.57 280.19 71.45 280.49 71.29 281.01 70.76 281.05 70.63 281.8 70.16 281.97 69.93 282.22 69.82 282.72 69.31 285.22 68.06 285.36 68.08 285.73 67.86 286.52 67.64 288.73 66.57 289.48 65.91 289.9 65.73 290.36 65.34 291.16 64.89 291.45 64.59 291.68 64.51 292.1 64.05 292.19 64.04 292.51 63.72 292.83 63.61 293.16 63.27 293.8 63 294.71 62.44 295.66 61.98 296.56 61.71 297.48 61.25 297.69 61.29 298.35 61 298.55 61.03 298.93 60.88 299.35 60.91 299.81 60.78 300.04 60.79 300.3 60.63 300.73 60.67 300.88 60.58 301.8 60.56 302.11 60.43 303.42 60.46 303.62 60.36 304.57 60.35 304.77 60.26 306.43 60.28 306.88 60.11 307.81 60.14 308.03 60.01 311.95 60 312.4 60.04 312.54 60.12 312.96 60.11 313.15 60.23 313.32 60.22 313.75 60.37 314.24 60.35 314.61 60.53 314.97 60.53 315.61 60.8 315.88 60.76 316.1 60.89 316.33 60.87 316.9 61.15 323.4 61.12 323.95 61.29 324.07 61.42"/>
    <polyline class="cls-4" points="312.64 113.89 312.7 113.88 312.9 113.02 313.07 112.79 313.03 112.45 313.36 111.83 313.39 111.55 313.57 111.18 313.6 109.77 313.84 108.7 313.85 107.9 313.94 107.78 313.93 107.49 314.09 107.06 314.1 105.77 314.26 104.78 314.32 102.82 314.57 99.95 314.66 99.82 314.64 99.41 314.77 99.01 314.75 98.59 314.88 98.29 314.86 97.91 314.94 97.7 314.97 97.16 315.13 96.71 315.13 96.45 315.28 95.88 315.24 95.41 315.47 94.84 315.46 93.97 315.55 93.78 315.53 93.12 315.62 92.87 315.6 91.94 315.81 90.64 315.79 90.27 315.92 89.99 315.9 89.48 316.06 88.81 316.23 86.72 316.29 73.11 316.37 72.93 316.36 72.39 316.58 70.84 316.57 70.46 316.66 70.34 316.64 69.84 316.82 69.37 316.81 69.07 317.04 68.12 317.01 67.73 317.22 66.98 317.17 66.42 317.26 66.31 317.33 65.29 317.79 63.61 317.75 63.26 318.11 62 318.08 61.66 318.39 60.4 318.41 60.04 318.65 59.42 318.72 58.55 318.94 57.99 318.95 57.67 319.1 57.21 319.07 56.71 319.2 56.32 319.21 55.45 319.39 54.9 319.4 54.09 319.57 53.59 319.59 53.03 319.89 51.72 319.85 50.91 319.9 50.28 319.99 50.07 319.96 49.23 320.24 47.64 320.29 45.98 320.38 45.61 320.36 45.25 320.49 44.87 320.46 44.17 320.73 41.91 320.72 39.42 320.83 39.09 320.86 37.15"/>
    <polyline class="cls-1" points="278.75 75.06 278.6 75.05 278.68 75.06 278.95 76.02 279.67 77.33 280.13 77.92 280.55 78.77 280.67 78.83 281.14 79.65 281.6 80.15 281.93 80.28 282.23 80.59 283.39 82.51 283.72 82.72 284.29 83.44 284.92 83.65 285.59 84.63 285.89 84.88 286.2 85.48 286.58 85.89 287.44 87.34 287.74 87.5 288.22 88.09 288.55 88.2 289.56 89.36 289.9 89.62 290.11 90.12 292.52 91.93 293.73 93.32 295.02 94.08 295.43 94.68 297.56 97.05 298.3 97.68 299.55 99.03 299.94 99.27 300.09 99.56 300.94 100.42 301.46 100.8 301.7 101.17 303.05 102.42 303.4 102.56 303.47 102.79 303.78 103.11 303.95 103.13 304.47 103.5 305.23 104.43 305.63 104.73 305.78 105 307.07 106.13 307.33 106.76 307.74 107.04 308.27 107.73 308.64 107.89 309.58 109.42 309.91 109.65 309.94 109.79 310.27 110.1 310.42 110.12 310.44 110.27 311.19 111.13 311.88 112.42 312.07 112.53 312.63 113.56 312.81 113.66"/>
    <polyline class="cls-1" points="350.98 68.76 350.73 69.34 350.39 69.71 350.1 70.34 349.89 70.52 349.3 71.69 348.95 72 348.78 72.37 347.91 73.18 347.68 73.83 346.17 75.23 345.6 75.62 343.44 77.75 342.95 78.27 342.92 78.43 341.76 79.4 341.47 79.84 341.02 80.23 339.98 80.77 339.7 81.15 338.64 81.98 338.39 82.37 337.81 82.85 337.77 83.08 336.59 84.18 336.45 84.21 336.01 84.81 334.23 86.52 333.59 86.88 333.27 87.29 332.99 87.39 332.13 88.31 331.39 88.86 331.14 89.12 331.11 89.29 330.45 89.87 330.01 90.63 329.66 90.92 329.52 91.21 329.1 91.65 328.75 92.28 328.16 92.69 327.15 93.71 326.92 94.16 326.41 94.6 326.28 94.96 325.54 95.68 325.38 96.17 325.08 96.46 324.94 96.8 323.7 98 323.32 98.53 322.51 100.11 322.27 100.3 322.11 100.65 321.48 101.22 321.38 101.62 320.73 102.32 320.58 102.63 320.25 102.91 319.6 103.85 319.4 103.96 319.29 104.25 319.01 104.49 318.82 104.88 318.51 105.19 318.25 105.71 317.99 105.91 317.88 106.19 317.57 106.35 317.28 106.98 316.87 107.31 316.62 107.84 316.31 108.23 315.48 108.97 315.27 109.57 313.62 112.67"/>
    <polyline class="cls-3" points="345.55 30.45 345.07 32.33 344.87 32.65 344.58 33.65 343.98 34.83 343.43 36.81 343.07 37.34 342.83 38.25 342.51 38.9 343.26 38.54 343.59 38.24 343.9 38.14 346.05 36.78 347.2 36.25 347.35 36.34 347.92 37.66 347.88 40.53 347.59 41.01 347.5 41.31 347.53 41.6 347.24 42.39 347.29 42.83 347.71 43.01"/>
    <polyline class="cls-3" points="352.72 39.57 351.86 39.39 351.27 39.55 351.05 39.68 349.94 41.2 349.88 41.46 349.96 42.48 350.37 43.2 350.77 43.36 351.33 43.32 352.61 42.75 352.79 42.55 353.85 40.3 353.8 39.67 353.37 38.81 352.33 38.43 352.2 38.52 351.97 39.09 352.15 39.41"/>
    <polyline class="cls-3" points="357.82 37.07 356.72 37.8 356.44 38.1 355.09 40.07 354.64 40.9 354.42 41.82 354.47 42.76 354.34 43.01 354.36 44.27 354.46 44.94 354.98 44.93"/>
    <polyline class="cls-3" points="359.48 43.19 358.1 42.82 357.81 42.88 356.94 43.43 356.02 44.36 355.8 45.02 355.84 45.6 356.01 45.88 356.54 46.15 357.67 46.09 358.77 45.69 360.25 44.82 361.81 43.73 363.27 42.25 363.78 41.38 364.47 40.59 364.83 40.04 365.29 38.69 365.57 38.23 365.15 38.41 363.87 39.58 363.01 40.84 362.65 41.42 361.49 44.53 361.2 45.75 361.17 46.96 361.85 48.94"/>
    <polyline class="cls-3" points="317.18 25.65 316.22 25.41 315.32 25.47 313.92 26.09 312.77 28.19 312.81 29.26 313.19 30.07 314.06 30.51 316.99 30.47 317.91 29.97"/>
    <polyline class="cls-3" points="321.19 20.24 320.66 21.34 320.07 23.25 319.61 25.24 319.46 26.22 319.47 28 319.71 28.37 319.73 28.63 319.91 28.84 320.44 29.08 321.27 29.04 321.38 28.93"/>
    <polyline class="cls-3" points="325.1 21.36 323.47 27.34 323.11 28.4 323.15 30 323.57 29.73 325.04 28.28 325.22 27.99 326.24 27.07 326.86 26.31 328.75 25.29 329.35 25.11"/>
    <polyline class="cls-3" points="326.16 29 326.7 30.64 327.24 31.68 328.3 32.66 328.52 33.1 329.1 33.29 329.79 33.28"/>
    <polyline class="cls-3" points="207.74 94.83 208.67 94.84 208.35 95.36"/>
    <polyline class="cls-3" points="221.14 94.24 221.71 94.65 222.91 95.21 224.71 95.48 228.05 95.38 228.64 95.53 228.65 95.93"/>
    <polyline class="cls-3" points="220 99.44 223.93 98.55 226.94 98.55 227.07 98.66 227.64 98.76 229.11 98.81 229.24 98.92 229.49 99.48 229.64 99.51"/>
    <polyline class="cls-3" points="227.54 88.71 228.81 88.94 230.85 89.71 232.15 90.28 234.35 91.66 235.22 92.38 236.91 94.1 237.04 94.47 237.95 95.63 238.5 97.59 237.95 99.61 237.3 100.86 236.56 101.76 235.23 103.01 232.81 104.68 229.27 106.36 228.58 106.53 228.29 106.48 228.04 106.6 228.18 106.63"/>
    <polyline class="cls-3" points="152.85 89.32 153.66 92.41 153.6 93.85 153.38 94.56 153.4 94.92 153.16 96.1 153.21 97.59 153.14 98.8 152.71 100.45 152.72 100.67 151.82 103.32 151.88 103.84 151.7 104.2 151.75 104.38 151.73 104.03 152.32 102.65"/>
    <polyline class="cls-3" points="147.93 95.9 148.74 96.31 149.53 96.43 154.28 96.12 155.35 96.14 156.59 95.86 158.39 95.87"/>
    <polyline class="cls-3" points="168.01 95.02 167.97 95.1 169.46 95.06 169.68 95.22 172.04 95.2"/>
    <polyline class="cls-3" points="174.09 88.71 174.06 92.07 173.78 93.19 173.81 93.63 173.62 94.74 173.65 100.14 173.65 98.9 174.3 96.81 174.35 95.6 174.67 94.72 174.76 90.29 174.86 89.35 174.85 87.06 174.68 86.79 175 87.55 175.83 88.16 179.76 91.96 185.29 94.64 185.49 94.92 185.66 94.94 185.84 95.25 185.72 95.6 185.39 95.84 183.94 96.49 183.31 96.94 182.48 97.19 181.97 97.62 180.89 98.11 178.84 99.46 177.31 100.1 176.78 100.44 174.61 101.47 174.35 101.49 174.75 101.43"/>
    <polyline class="cls-3" points="188.46 95.24 189.24 95.36 193.77 95.33 194.46 95.61 195.3 95.79 196.65 95.82 196.82 95.93 197.97 95.91"/>
    <polyline class="cls-3" points="170.31 95.02 170.3 95.09 169.33 94.83 168.81 94.53 168.6 94.58 168.12 94.47 166.74 94.56 166.47 94.68 166 94.66 165.53 94.88 164.73 94.89 165.8 95.42 165.98 95.39 166.24 95.53 167.53 95.51 168.92 95.01 172.36 95.02"/>
    <polyline class="cls-3" points="196.74 95.82 197.74 95.67 199.9 95.69 200.02 95.79 200.45 95.82 199.37 95.41 199.07 95.45 198.65 95.3 197.97 95.34 197.7 95.22 195.92 95.19 195.36 94.97 191.85 95.02 191.57 95.14 185.81 95.15"/>
    <polyline class="cls-7" points="265.86 77.85 265.63 77.77 265.86 77.21 265.86 77.85"/>
    <polyline class="cls-7" points="34 79.11 33.69 79.11 33.69 78.8 34 78.8 34 79.11"/>
    <polyline class="cls-6" points="120.91 53.42 120.59 53.42 120.59 53.11 120.91 53.11 120.91 53.42"/>
    <polyline class="cls-6" points="119.64 52.79 119.64 52.47 119.8 52.47 119.96 52.63 119.96 52.79 119.64 52.79"/>
    <polyline class="cls-5" points="94.27 54.06 93.79 54.06 93.63 53.9 93.63 53.74 94.11 53.74 94.27 53.9 94.27 54.06"/>
    <polyline class="cls-5" points="91.1 53.74 90.94 54.06 90.78 53.74 91.1 53.74"/>
    <path class="cls-6" d="M119.96,52.79l.32.16v.63l.48.48h.32l1.11,1.11.16.48.87,2.14.79.16.08.4.16.16.32-.32.32.32.4.08-.08.56-.79,1.43-.48.48-.4.08-.16.52-5.47-.59-.32.32-.32-.32-1.43-.24-1.27-.52-.79-.2-.32-.32-.32.32-.32-.32h-.63l-.32-.32-.32.32-.32-.32-.32.32-.32-.32-4.12-.95-.32-.32-.32.32-.32-.32h-.95l-.63-.63-.32.32-.32-.32-8.01-1.98-.08-.71-.48-.48-.48-.32v-.16l-.16-.16h-.48l-.12-.63v-1.27l.2-.56,2.46-.71.32-.16.08-.4,2.93-.71.32.32.32-.32,3.96-.32h.63l2.7.63.32.32.32-.32.16.16v.32l.16.16.32-.32.63.63h.95l.79-.63h.16l.16-.16v-.16l.48.32,2.38.2,1.59.36,1.59.59.48.12.63.63h.63l.48.63-.32.16.16.16h.16l.16.32.16-.32M118.06,51.84v-.32h-.32v.32h.32M114.89,55.33v-.32h-.32v.32h.32M114.57,55.01v-.32h-.32v.32h.32M113.93,55.01v-.32h-.32v.32h.32"/>
    <path class="cls-5" d="M85.7,54.69v-.32h-.32v.32h.32M89.51,54.06v-.32h-.32v.32h.32M91.73,53.74v-.32h-.32v.32h.32M90.78,53.74h-.48l-.16.16.32.32-.16.16h-.32l-.32-.32-.32.32-.48-.16-.56-.08-.16.48h-.79l-.08-.4v-.16l-.32.16-.08.4-1.19.24-1.43.16-.63.63-6.82,1.78-1.27.56-1.11.2-.63.63-.79.2-.63.28-.95.63-2.38,1.74-3.01,1.74-2.22.95-2.22.95-1.11.16-.63.63h-1.27l-.32.32-.32-.32h-.63l-.48-.48-.16-.48-.95-2.22v-.95l.16-.79.95-.95v-.32l.79-.79h.32l.63-.63.79-.2,4.12-1.82,2.7-.83.63-.63.95-.63,3.33-2.34,1.11-.2.63-.63.32.32.63-.63,3.49-.63.32.32.32-.32,1.11-.2.48-.12.32.32.32-.32.32.32.32-.32,2.7-.79,2.06-.16.32-.32.32.32.48-.12,1.11-.2.32-.32.32.32,4.76-.32.63.63h.95l1.43,1.59-2.46.71-.2.56v1.27l.12.63-.95.44-.79.2-.79-.63-.16-.32-.16.16v.16"/>
    <polyline class="cls-7" points="54.3 60.4 53.99 60.4 53.99 60.08 54.3 60.08 54.3 60.4"/>
    <polyline class="cls-7" points="54.94 59.45 54.78 59.77 54.62 59.45 54.94 59.45"/>
    <polyline class="cls-7" points="104.42 43.27 104.42 43.11 104.58 42.96 104.74 43.27 104.42 43.27"/>
    <polyline class="cls-7" points="101.56 42.32 101.25 42.32 101.25 42 101.56 42 101.56 42.32"/>
    <polyline class="cls-7" points="97.44 42 97.52 41.77 98.71 42 97.44 42"/>
    <polyline class="cls-7" points="96.01 42 95.54 42 95.7 41.69 96.17 41.69 96.01 42"/>
    <polyline class="cls-7" points="96.81 41.69 96.49 41.69 96.49 41.37 96.81 41.37 96.81 41.69"/>
    <path class="cls-7" d="M35.27,78.16v-.32h-.32v.32h.32M111.08,49.93l-.79.63h-.95l-.63-.63-.32.32-.16-.16v-.32l-.16-.16-.32.32-.32-.32-2.7-.63-.16-.32-.16.16v.16h-.32l-.08-.24-2.46-.83-3.17-.59-4.28-.24-.32.32-.32-.32-.48.08h-2.78l-.08.4-.16.16-.63-.63-.32.32-.32-.32-.16.16v.32l-.16.16-.32-.32h-1.59l-.32.32-.32-.32-.48.16-.63.08-1.43-.24-.32-.32-.32.32-3.81.32-.32.32-.32-.32-.32.32-3.33.48-1.59.4-5.71,2.14-.79.16-.63.63-.48.16-1.74,1.11-4.28,3.33-.56.24-.08.4-.79.79-.32-.32-.4.08-.16.79-.71.08-.95.95h-.48l-.16-.32-.16.16v.16h-.16l-.95.95h-.32l-.48.48v.32l-.48.48-.4.08-.16.48-.48.16-.08.4-.48.48h-.32l-1.11,1.11.32.32-.16.16h-.32l-.48.48-1.7,2.38-.4.95-.12.48-.63.63-.2.79-.95,2.54-1.55,2.54-.79,1.11-.32.63-.63.63-.08.71-.48.16-.16,1.11-.48.16-.24.56-.87,1.51-.4.08-.48.48v.32l-.48.48-.4.08-.16.48-1.19.52h-.95l-1.19-.52-.16-.48-.48-.16-.08-.4-.63-.63.32-.32.32-1.27.32-.32-.32-.32.16-.16h.32l.79-.79v-.32l-.32-.32.16-.16.4-.08.91-2.46.59-1.27,2.54-3.81,1.27-3.17,1.23-2.54.2-.79.63-.63.16-.48,2.78-3.41,1.19-.87,3.96-3.33,2.22-2.22h.63l.63-.63.48-.16.63-.28.79-.2.95-.95.63-.32.95-.63,1.27-.95.95-.63.95-.95.79-.2.63-.28.48-.16.63-.63.79-.2,2.22-.91,1.11-.16.63-.63,1.11-.2,3.17-1.27.48-.12.32-.32.32.32.48-.16.63-.28,3.49-.91,2.54-.44,4.28.2.32.32.32-.32.32.32.32-.32.32.32,1.43-.24.63.08.48.16.32-.32.32.32.32-.32,1.43.24.63-.08.48-.16.32.32.32-.32h.95l.32.32.32-.32.16.16.08.75h1.43l.08-.44.16-.16.48.32,1.11.32.16-.32h1.43l.63.63.32-.32.32.32,1.27-.32.16.16-.32.32.16.16h.95l.32-.32.16.16.32.48.16.32.16-.32.32.16.08.4,1.35.4.63.63.48.16.63.28.95.32,1.51.24.08.44.63.63.2.79v.63l-.2,1.27h-.16l-.16.16v.16M111.4,48.03v-.32h-.32v.32h.32M55.89,58.82v-.32h-.32v.32h.32M111.08,47.08v-.32h-.32v.32h.32M80.95,47.08v-.32h-.32v.32h.32M96.01,46.76l.16-.32h-.48l-.16.32h.48M92.37,42.32v-.32h-.32v.32h.32M94.11,42.32l.48-.48-.16-.16-.4.24.08.4"/>
    <polyline class="cls-7" points="350.55 68.65 350.23 68.65 350.23 68.33 350.55 68.33 350.55 68.65"/>
    <polyline class="cls-7" points="347.7 64.84 347.38 64.84 347.38 64.52 347.7 64.52 347.7 64.84"/>
    <polyline class="cls-7" points="342.94 62.62 342.62 62.62 342.62 62.3 342.94 62.3 342.94 62.62"/>
    <polyline class="cls-7" points="341.04 61.99 341.04 61.67 341.67 61.67 341.67 61.83 341.51 61.99 341.35 61.99 341.04 61.99"/>
    <polyline class="cls-5" points="315.98 65.48 315.66 65.48 315.66 65.16 315.98 65.16 315.98 65.48"/>
    <path class="cls-6" d="M342.94,63.57v-.32h-.32v.32h.32M342.62,63.26v-.32h-.32v.32h.32M341.99,62.94v-.32h-.32v.32h.32M341.35,61.99l.16.32.48.16.63.32.56.24.16.48.48.16.08.71.48.48h.32l1.11,1.11,1.07,2.06.2.79.48.48.32-.32.32.32.95.32.16.16-.32.32-.16.48-1.74,2.38-.16.16-.32-.32-2.54-.32-.32-.32-.32.32-.32-.32-.32.32-.32-.32-.32.32-.32-.32-2.54-.63-.32.32-.16-.16-.08-.4-.71-.08-.32.32-.16-.16-.08-.4-.71-.08-.32.32-.16-.16v-.32l-.16-.16-.32.32-1.43-.2-15.07-3.93-.48-.48.32-.32-.08-.4-.71-.08-.79-.63-.32-2.06.48-.48,2.3-.36.08-.59.48-.32,1.9-.32.32-.32.32.32.32-.32h.32l.32.32.32-.32,1.59-.32.32-.32.32.32h.32l.32-.32.32.32.32-.32.71.08.08.4.16.16.32-.32h.95l.32-.32.32.32,2.22.32.32.32.32-.32.32.32h.32l.32.32.32-.32,3.96.56,1.59.4h.32v.16l.16.16h.48M338.34,66.11l.16-.32h-.48l-.16.32h.48M337.23,65.79v-.32h-.32v.32h.32"/>
    <path class="cls-5" d="M306.78,66.74v-.32h-.32v.32h.32M311.85,65.48v-.32h-.32v.32h.32M313.12,65.16v-.32h-.32v.32h.32M317.56,64.84l-.16.32-.48.16-.56.08-.16-.48h-2.38l-.16.48h-1.11l-.08-.4v-.16l-.32.16v.32l-.48.48-1.03-.08-.08-.4v-.16l-.32.16v.32l-.16.16-.32-.32-.32.32-1.59.32-.95.95h-.32l-.32.32-.32-.32-.32.32-1.11.16-4.12,1.03-.63.24-1.27.59-.79.2-.63.63-1.03.08-.16.48-.71.08-1.27,1.27-.63.32-1.9,1.27-.79.44-1.59.63-.79.2-.63.63-.48.12-4.28,1.47-.32.32-.32-.32h-.95l-.79-.79-.16-.48-.28-.63-.28-1.19-.4-.08-.16-.16.32-.32v-.32l.32-.32-.32-.32.63-.63.16-.48.48-.95h.16l.16-.16v-.16h.16l.16-.16v-.16h.79l.16-.16v-.16h.79l.63-.63.48-.16,1.27-.59,2.85-1.03,1.27-.56.79-.2,1.27-1.27.48-.16,2.22-1.59,5.07-1.94,1.27.12,1.43-.24.32-.32.32.32.32-.32,2.06-.24,1.9-.52,3.65-.52.32-.32.32.32.32-.32h.32l.32.32.32-.32,4.28.28.63.16,1.11.2.63.63h.32l.48.63-.08.59-2.3.36-.48.48.32,2.06"/>
    <polyline class="cls-7" points="284.89 60.08 284.58 59.77 284.58 59.45 284.89 59.61 284.89 60.08"/>
    <polyline class="cls-7" points="285.85 59.13 285.53 59.13 285.53 58.82 285.85 58.82 285.85 59.13"/>
    <polyline class="cls-7" points="287.11 58.5 286.8 58.5 286.8 58.18 287.11 58.18 287.11 58.5"/>
    <path class="cls-7" d="M348.96,66.11v-.32h-.32v.32h.32M345.48,57.55v-.32h-.32v.32h.32M340.72,61.67h-.32v-.48l-.48-.48-.48-.16-1.27.04-.79-.2-.63-.63-1.11-.2-1.59-.56-1.9-.36-1.43-.16-.63-.63-1.74-.2-.95-.24h-2.22l-.79-.2-.32.32-.32-.32-1.11.4-1.43.24-.32-.32-.32.32-6.66.32-.32.32-.32-.32-.32.32-9.67,1.43-3.81.95-1.43.16-.63.63-.32-.32-.63.63-.48.16-1.27.59-1.27.36-2.85,1.27-1.74,1.11-.63.32-.95.95h-.63l-.63.63-.71.08-.16.48-.87.28-1.43.75-.48.48v.16h-.48l-.16.16v.16h-.48l-.16.16v.16h-.16l-.16.16v.16h-.48l-.63.63-.32-.32-.16.16-.08.4-2.14,1.51-.56.24-1.51,2.14-.32.63-.16.48-.16.16-.32-.32-.16.16-.4,1.03-.4.08-.48.48v.32l-.32.32.32.32-.16.16-.71.08-.08.4-1.74,1.74-.48.16-.63.28-.95.04-1.51-.56-.08-1.03-.32-.32.32-.32-.32-.32.32-.32-.32-.32v-.79l.32-.48-.32-.16v-.48l1.59-1.59.16-.48,1.74-2.38.32-.63,2.38-2.38.32.32.16-.16.08-.4.48-.16.08-.4,2.38-2.38.63-.32,7.93-5.07.63-.32,1.27-1.27.79-.2,4.12-1.86,5.07-1.59,4.76-.95,1.43-.16.32-.32.32.32.32-.32h.32l.32-.32.32.32.32-.32.32.32.32-.32,3.17-.63.32.32.32-.32,3.17-.32.32-.32.32.32h.32l.63-.63h2.22l.32-.32.32.32.32-.32h.32l.32-.32.32.32h.32l.32-.32.32.32.71-.08.16-.48h.56l1.51.2.16-.52,1.51.04.48-.12.32.32.32-.32,6.03.32.32.32.32-.32.32.32,1.11.2,4.12,1.23,2.85.99,1.9.87.79.2.95.95.48.12.95.4.48.12.63.63.71.08.16.79.4.08.32.32.16-.16v-.48l.32.16.08.71.4.08.32-.32.32.32h.32l.32-.32.95.95,1.27.63,1.74,1.74.08.4.4.08.79.79.4,1.11-.08,3.65-.63.63-.08.4-1.19.52h-.95l-2.46-1.78-.08-.4-1.59-1.59.16-.16h.32l.16-.16-.63-.63-.08-.4-.4-.08-.32-.32-.32.32-.16-.16-.08-.4-1.35-.4-.63-.63-.48-.12-2.54-.83-.48-.63h-.32l-.16.16.32.32v.16h-.32M338.5,60.4v-.32h-.32v.32h.32M338.18,60.08v-.32h-.32v.32h.32M337.55,60.08v-.32h-.32v.32h.32M336.59,59.45v-.32h-.32v.32h.32M294.09,62.62v-.32h-.32v.32h.32"/>
  </g>
</svg>