<?xml version="1.0" encoding="UTF-8"?>
<svg id="Layer_1" data-name="Layer 1" xmlns="http://www.w3.org/2000/svg" version="1.1" xmlns:xlink="http://www.w3.org/1999/xlink" viewBox="0 0 132 172">
  <defs>
    <style>
      .cls-1 {
        fill: #c23131;
      }

      .cls-1, .cls-2, .cls-3, .cls-4, .cls-5 {
        stroke-width: 0px;
      }

      .cls-1, .cls-2, .cls-4, .cls-5 {
        fill-rule: evenodd;
      }

      .cls-2 {
        fill: #95cc71;
      }

      .cls-3, .cls-6, .cls-7 {
        fill: none;
      }

      .cls-6 {
        stroke-width: 1.27px;
      }

      .cls-6, .cls-7 {
        stroke: #000;
        stroke-linecap: round;
        stroke-linejoin: round;
      }

      .cls-4 {
        fill: #000;
      }

      .cls-7 {
        stroke-width: .95px;
      }

      .cls-8 {
        clip-path: url(#clippath);
      }

      .cls-5 {
        fill: #909090;
      }
    </style>
    <clipPath id="clippath">
      <rect class="cls-3" x="-36" y="-271" width="514" height="685"/>
    </clipPath>
  </defs>
  <g class="cls-8">
    <polyline class="cls-7" points="68.72 56.93 69.27 56.89 69.64 56.76 70.49 56.73 70.64 56.64 71.13 56.66 71.61 56.5 77.14 56.45 77.28 56.53 77.62 56.52 78.07 56.64 78.82 56.62 79.49 56.78 80.96 56.79 81.32 56.92 84.28 56.9 86.62 57.08 86.74 57.16 87.65 57.14 87.97 57.27 88.93 57.28 89.08 57.37 90.44 57.35 90.86 57.53 91.08 57.77 92.18 57.69 92.84 57.86 93.28 57.83 93.68 57.96 94.33 57.98 94.93 58.17 95.23 58.15 95.84 58.3 99.77 60.06 99.91 60.22 101.02 60.82 101.45 61.28 101.81 61.45 102.45 61.92 103.54 62.9 104.1 63.22 105.02 64.16 105.24 64.24 105.83 64.81 106.19 64.99 106.7 65.52 106.85 65.57 107.56 66.28 107.78 66.39 108.18 66.85 108.75 67.17 109.14 67.57 110.26 68.4 110.58 68.8 110.62 68.96 110.94 69.3 111.13 69.37 111.26 69.61 111.94 70.22 112.01 70.38 112.52 70.85 112.69 71.15 113.16 71.62 113.41 71.76 113.49 71.96 113.93 72.4 113.98 72.63 114.2 72.77 114.66 73.28 115.39 74.79 115.64 75.09 117.2 79.65 117.46 80.18 117.47 80.52 117.85 81.67 117.82 81.98 117.95 82.39 117.94 82.65 118.11 83.09 118.08 83.4 118.38 84.51 118.4 85.25 118.64 86.02 118.6 86.41 118.73 86.85 118.75 87.33 118.84 87.79 119.04 88.25 119.01 88.57 119.23 89.62 119.29 90.38 119.72 91.29 119.76 91.78 119.92 92.11 119.9 92.32 119.98 92.46 119.97 92.74 120.17 93.34 120.21 94.37 120.35 94.62 120.49 95.22 120.65 96.56 120.78 96.89 120.76 97.11 120.95 97.93 121.11 99.87 121.24 100.1 121.29 100.81 121.46 101.24 121.43 101.67 121.55 102.46 121.54 103.44 121.63 103.57 121.66 103.87 121.64 104.51 121.68 105.37 121.77 105.72 121.78 106.88 121.88 107.09 121.89 107.96 122.03 108.24 122.04 109.03 122.13 109.21 122.11 110.25 122.2 110.57 122.18 111.67 122.27 112.09 122.25 115.14 122.11 115.49 121.82 116.96 121.83 117.5 121.53 118.34 121.53 118.76 120.57 121.9 120.52 122.3 119.07 126.66 118.82 127.27 118.35 127.9 118.28 128.21 117.54 129.36 116.28 132.05 115.74 132.8 115.46 133.03 113.86 136.19 113.67 136.51 113.43 136.73 113.35 137 113.13 137.19 112.95 137.54 112.69 137.75 112.47 138.13 112.19 138.27 110.82 139.86 110.31 140.33 110.1 140.42 109.45 141.07 109.27 141.16 109.14 141.4 108.87 141.54 108.71 141.81 108.2 142.16 107.28 143.08 106.58 143.46 106.14 143.95 105.81 144.03 105.41 144.31 103.95 145.75 103.6 145.88 102.61 146.66 101.84 147.08 101.39 147.46 99.79 148.15 99.17 148.5 98.8 148.89 97.74 149.37 97.08 149.57 94.94 150.62 94.3 150.81 93.55 151.19 92.76 151.36 91.51 151.94 91.09 152.03 90.41 152.35 90.04 152.4 89.76 152.56 89.33 152.6 89.07 152.72 88.54 152.78 88.04 152.94 87.73 152.9 86.81 153.01 86.57 153.15 86.44 153.12 86.08 153.33 85.88 153.29 85.54 153.49 85.26 153.51 84.87 153.75 84.57 153.75 84.22 153.95 83.94 153.96 83.5 154.2 83.08 154.32 82.51 154.37 82.34 154.48 81.78 154.51 81.49 154.65 80.93 154.7 80.07 154.98 79.43 155 79.24 155.09 78.8 155.06 77.72 155.32 76.76 155.41 76.67 155.5 76.51 155.48 76.06 155.65 75.86 155.62 75.58 155.75 73.78 155.79 73.14 155.87 73 155.95 72.5 155.93 70.41 156.15 65.21 156.14 59.79 156.04 58.27 155.67 57.65 155.62 57.34 155.45 57.09 155.49 56.58 155.37 56.39 155.24 56.12 155.28 55.73 155.14 55.04 155.13 54.34 154.9 53.73 154.89 53.64 154.8 53.06 154.74 52.84 154.62 51.16 154.58 50.4 154.47 50.18 154.35 49.62 154.37 49.28 154.21 48.64 154.16 48.3 153.95 47.93 153.99 47.12 153.71 46.93 153.74 46.54 153.53 45.68 153.47 45.25 153.3 44.52 153.23 43.89 153 43.55 152.98 43.4 152.87 43.14 152.87 41.95 152.35 41.57 152.28 39.78 151.38 39.63 151.37 37.12 150.17 36.89 150.11 36.48 150.14 36.33 150.01 35.98 149.95 35.78 149.82 35.63 149.86 35.41 149.78 35.08 149.78 34.82 149.61 34.6 149.63 34.29 149.48 34.12 149.5 33.29 149.13 33.15 149.17 32.82 149.03 31.68 148.85 31.01 148.38 30.54 148.16 29.74 147.38 28.46 146.72 27.92 146.21 27.69 146.12 27.49 145.91 26.52 145.3 25.82 144.58 25.52 144.43 25.24 144.04 24.72 143.56 24.66 143.36 23.99 142.59 23.67 141.97 22.67 140.97 22.43 140.41 21.93 139.94 21.59 139.43 21.38 139.25 20.48 137.91 19.77 136.51 19.42 136.06 18.73 134.75 18.09 132.91 18.13 132.56 18.04 132.35 18.05 132.17 17.91 131.95 17.94 131.74 17.77 131.44 17.7 130.51 17.56 130.16 17.55 129.33 17.39 128.7 17.41 128.07 17.32 127.85 17.26 126.68 17.14 126.17 17.16 125.08 17.07 124.77 17.09 124.29 17 124.18 17.02 123.72 16.88 123.45 16.91 122.93 16.78 122.56 16.73 121.51 16.57 120.85 16.44 118.74 16.24 118 16.16 115.53 16.06 115.13 16.09 114.68 16.05 114.18 15.91 113.97 15.91 102.42 16.08 101.94 16.09 101.61 16.34 101.12 16.33 100.72 16.47 100.44 16.45 100.3 16.69 99.8 16.73 99.19 16.98 98.55 17.05 97.86 17.25 97.31 17.35 96.67 17.65 95.98 17.63 95.77 18.34 94.38 18.3 94.28 18.45 93.72 18.62 93.42 18.61 93.26 19.41 91.71 19.84 90.74 19.92 90.31 22.58 85.05 23.07 84.62 23.19 84.27 23.35 84.14 23.93 83.12 24.67 82.39 25.09 81.87 25.66 80.74 25.93 80.38 26.67 78.88 26.91 78.68 27.38 77.94 28.36 75.94 28.54 75.73 28.81 75.17 29.44 74.41 29.66 73.92 30.35 73.27 30.46 72.97 30.82 72.63 30.99 72.25 31.3 72 31.55 71.43 32.04 71.22 32.36 70.68 32.67 70.41 33.64 68.67 34.04 68.33 34.33 67.66 34.83 67.21 34.98 67.18 35.04 67.06 35.34 66.9 35.86 66.37 35.9 66.24 36.65 65.77 36.82 65.54 37.06 65.43 37.57 64.92 40.07 63.67 40.21 63.69 40.58 63.47 41.37 63.25 43.58 62.17 44.33 61.52 44.75 61.34 45.21 60.95 46.01 60.5 46.3 60.2 46.53 60.12 46.95 59.66 47.04 59.65 47.36 59.33 47.68 59.22 48.01 58.88 48.65 58.61 49.56 58.05 50.51 57.59 51.41 57.32 52.33 56.86 52.54 56.89 53.2 56.61 53.4 56.64 53.78 56.49 54.2 56.52 54.66 56.39 54.89 56.4 55.15 56.24 55.58 56.28 55.73 56.19 56.65 56.17 56.96 56.04 58.27 56.07 58.47 55.97 59.42 55.96 59.62 55.87 61.28 55.89 61.73 55.72 62.66 55.75 62.88 55.62 66.8 55.61 67.25 55.65 67.39 55.73 67.81 55.72 68 55.84 68.17 55.83 68.6 55.98 69.09 55.96 69.46 56.14 69.82 56.14 70.46 56.41 70.73 56.37 70.95 56.5 71.18 56.48 71.75 56.76 78.25 56.73 78.8 56.9 78.92 57.03"/>
    <polyline class="cls-7" points="67.49 109.5 67.55 109.49 67.75 108.63 67.92 108.4 67.88 108.06 68.21 107.44 68.24 107.16 68.42 106.79 68.45 105.38 68.69 104.31 68.7 103.51 68.79 103.39 68.78 103.1 68.94 102.67 68.95 101.38 69.11 100.39 69.17 98.43 69.42 95.56 69.51 95.43 69.49 95.02 69.62 94.62 69.6 94.2 69.73 93.9 69.71 93.52 69.79 93.31 69.82 92.77 69.98 92.32 69.98 92.06 70.13 91.49 70.09 91.02 70.32 90.45 70.31 89.58 70.4 89.39 70.38 88.73 70.47 88.48 70.45 87.55 70.66 86.25 70.64 85.88 70.77 85.6 70.75 85.09 70.91 84.42 71.08 82.33 71.14 68.72 71.22 68.54 71.21 68 71.43 66.45 71.42 66.07 71.51 65.95 71.49 65.45 71.67 64.98 71.66 64.68 71.89 63.73 71.86 63.34 72.07 62.59 72.02 62.03 72.11 61.92 72.18 60.9 72.64 59.22 72.6 58.87 72.96 57.61 72.93 57.27 73.24 56.01 73.26 55.65 73.5 55.03 73.57 54.16 73.79 53.6 73.8 53.28 73.95 52.82 73.92 52.32 74.05 51.93 74.06 51.06 74.24 50.51 74.25 49.7 74.42 49.2 74.44 48.63 74.74 47.33 74.7 46.52 74.75 45.89 74.84 45.68 74.81 44.84 75.09 43.25 75.14 41.59 75.23 41.22 75.21 40.86 75.34 40.48 75.31 39.78 75.58 37.52 75.57 35.03 75.68 34.7 75.71 32.76"/>
    <line class="cls-6" x1="65.65" y1="109.29" x2="65.73" y2="109.29"/>
    <polyline class="cls-6" points="66.55 109.7 66.98 108.59 67.65 107.29 67.87 106.88 68.28 106.55 68.62 105.7 68.97 105.16 69.36 104.93 69.66 104.4 69.97 104.11 70.14 103.71 70.4 103.61 70.54 103.22 70.73 103.1 70.95 102.64 71.41 102.1 71.52 101.77 72.36 100.82 72.54 100.27 73.07 99.51 73.21 98.97 73.4 98.76 73.75 98.01 74.76 95.45 75.08 95.05 75.52 93.88 75.71 93.63 76.1 92.48 76.51 91.92 76.88 90.85 78.11 89.11 78.54 88.04 81.47 83.52 82.58 81.39 83.59 79.96 84.24 78.83 85.65 76.99 86.94 75.09 87.04 74.68 87.48 74.02 87.87 72.94 88.28 72.41 89.1 70.89 90.39 69.12 90.65 68.48 91.12 67.97 91.37 67.54 92.13 66.73 92.34 66.37 93.02 65.75 93.08 65.57 93.56 65.13 93.7 64.77 94.61 63.79 95.24 62.65 95.51 62.39 95.79 61.86 95.94 61.8 96.09 61.42 96.64 60.94 96.94 60.25 97.13 60.11"/>
    <polyline class="cls-6" points="64.4 111.39 64.42 109.34 64.54 109.16 64.52 107.82 64.63 107.54 64.66 106.62 64.65 101.56 64.33 100.67 64.37 100.34 64.1 99.87 62.72 95.76 62.35 95.19 61.44 92.46 60.94 91.66 59.87 89.42 59.37 88.53 58.86 87.86 58.73 87.38 58.42 86.96 58.26 86.43 57.51 84.96 57.3 84.29 56.88 83.86 56.71 83.41 56.45 83.05 56.16 82.09 54.4 78.61 54.23 78 53.16 76.02 52.84 75.13 52.87 74.96 52.56 74.42 52.59 74.23 52.29 73.7 52.31 73.53 51.18 71.37 51.06 70.85 51.1 70.47 50.67 69.59 50.56 69.24 50.6 68.93 50.35 68.52 50.39 68.24 49.86 67.04 49.02 65.48 48.78 65.17 48.08 64.63 46.42 61.42 46.45 60.44 46.28 60.28 46.31 60.15 46.05 59.61 46.11 60.23"/>
    <polyline class="cls-6" points="67.55 108.54 67.56 108.61 68.14 108.46 69.7 107.91 70.95 107.11 72.11 106.57 73 105.95 75.08 105.23 75.92 104.52 77.09 103.86 77.55 103.76 78.31 103.36 79.11 103.18 79.54 102.88 81.29 102.32 82.29 101.79 82.78 101.69 83.54 101.31 84.28 101.13 85.24 100.62 89.49 98.98 90.33 98.53 90.87 98.44 92.18 97.76 93.79 97.24 94.42 96.88 95.32 96.52 95.85 96.43 96.59 96.04 97.21 95.89 100.32 94.52 102.59 93.89 103.38 93.57 103.9 93.16 105.23 92.55 106.59 92.05 106.75 92.08 107.36 91.78 107.62 91.82 108.26 91.56 108.73 91.56 109 91.4 109.27 91.41 109.93 91.15 110.97 91.07 111.44 90.8 111.7 90.83 111.99 90.69 112.33 90.7 112.86 90.39 113.13 90.44 113.87 90.13 114.3 90.17 114.6 90.02 115.1 89.99 115.39 89.83 115.62 89.86 116.04 89.64 116.36 89.69 116.57 89.58 116.92 89.6 117.24 89.43 117.58 89.47 117.73 89.35 118.3 89.33 118.56 89.15 118.73 89.2 118.96 89.1 118.68 89 118.04 89.02 117.55 89.2"/>
    <polyline class="cls-6" points="62.85 107.87 61.74 107.48 59.51 106.34 57.31 105.36 55.74 105.13 53.9 104.2 53.35 103.98 53.18 104.02 52.81 103.81 52.51 103.83 51.97 103.53 51.55 103.58 51.1 103.42 50.42 103.45 49.14 103.19 48.8 103.22 48.38 103 47.1 102.71 46.54 102.41 45.6 102.22 45.31 102.07 44.66 102.01 44.3 101.86 43.6 101.89 43.04 101.83 42.59 101.62 42.32 101.65 41.7 101.33 40.89 101.15 40.34 100.85 40.1 100.9 39.71 100.74 39.32 100.76 38.95 100.49 38.26 100.4 38.03 100.24 37.79 100.27 37.21 99.95 36.93 99.99 36.67 99.84 36.29 99.87 36.03 99.71 35.5 99.68 34.83 99.42 34.22 99.48 34 99.36 33.63 99.37 33.27 99.16 32.98 99.19 32.35 98.84 31.39 98.62 29.45 98.58 29.18 98.46 27.63 98.49 27.32 98.37 26.78 98.39 26.02 98.26 25.65 98.04 25.17 98.03 24.01 97.5 23.83 97.55 22.77 97.15 22.57 97.16 22.15 96.92 21.68 96.98 21.37 96.81 21.07 96.84 20.8 96.65 20.12 96.46 18.64 96.28 16.99 95.56 16.32 95.4 16.88 95.23"/>
    <polyline class="cls-6" points="62.32 107.85 63.33 107.87 63.51 107.99 64.44 107.96"/>
    <polyline class="cls-6" points="69.54 21.35 69.71 20.64 69.65 20.2 68.69 19.7 67.34 20.27 66.54 20.82 65.94 21.35 64.56 23.4 64.39 24.19 64.44 25.12 64.8 25.86 65.58 26.58 66.03 26.85 66.99 27.1 67.68 27.06 69.34 26.49 70.03 26.05 70.41 25.68"/>
    <polyline class="cls-6" points="74.93 13.69 74.27 15.78 73.57 19.83 73.61 22.51 74.16 23.99 74.85 25.33 75.05 25.42 75.29 25.3"/>
    <polyline class="cls-6" points="78.32 12.86 77.71 15.67 77.67 18.32 77.43 19.65 77.49 21.1 77.37 21.52 77.38 23.59 77.6 24.25 78.18 24.31 79.46 23.48 81.61 21.5 81.97 20.91 82.53 20.31 82.72 19.84"/>
    <polyline class="cls-6" points="79.65 20.87 79.44 21.73 79.51 22.57 79.96 23.66 80.47 24.07 80.95 24.66 82.48 25.59 83.22 25.72 84.26 25.68"/>
    <polyline class="cls-4" points="71.84 89.32 72.16 89.48 71.84 89.63 71.84 89.32"/>
    <polyline class="cls-5" points="71.84 89.63 71.68 89.63 71.52 89.48 71.84 89.32 71.84 89.63"/>
    <polyline class="cls-2" points="114.34 86.15 114.03 86.15 114.03 85.83 114.34 85.83 114.34 86.15"/>
    <polyline class="cls-2" points="114.03 85.51 113.71 85.51 113.71 85.19 114.03 85.19 114.03 85.51"/>
    <polyline class="cls-2" points="113.39 71.87 113.71 72.03 113.39 72.19 113.39 71.87"/>
    <polyline class="cls-2" points="104.83 70.6 104.67 70.6 104.51 70.44 104.51 70.29 104.83 70.29 104.83 70.6"/>
    <polyline class="cls-4" points="72.48 89 72.16 89 72.16 88.68 72.48 88.68 72.48 89"/>
    <polyline class="cls-4" points="72.79 88.05 72.48 88.05 72.48 87.73 72.79 87.73 72.79 88.05"/>
    <polyline class="cls-4" points="73.43 83.61 73.43 83.29 73.59 83.29 73.74 83.45 73.74 83.61 73.43 83.61"/>
    <polyline class="cls-5" points="73.11 83.61 73.11 83.45 73.27 83.29 73.43 83.29 73.43 83.61 73.11 83.61"/>
    <polyline class="cls-5" points="73.74 81.7 73.43 81.7 73.43 81.39 73.74 81.39 73.74 81.7"/>
    <polyline class="cls-5" points="88.33 71.24 88.65 71.4 88.33 71.56 88.33 71.24"/>
    <polyline class="cls-5" points="53.76 74.41 53.44 74.41 53.44 74.09 53.76 74.09 53.76 74.41"/>
    <polyline class="cls-1" points="31.56 80.75 31.88 80.91 31.56 81.07 31.56 80.75"/>
    <polyline class="cls-1" points="32.51 80.12 32.35 80.44 32.19 80.12 32.51 80.12"/>
    <polyline class="cls-1" points="32.51 79.8 32.83 79.96 32.51 80.12 32.51 79.8"/>
    <polyline class="cls-1" points="41.71 70.6 41.39 70.6 41.39 70.29 41.71 70.29 41.71 70.6"/>
    <polyline class="cls-2" points="104.83 64.89 104.51 64.89 104.51 64.58 104.83 64.58 104.83 64.89"/>
    <polyline class="cls-2" points="103.56 63.31 103.24 62.99 103.24 62.67 103.56 62.83 103.56 63.31"/>
    <polyline class="cls-2" points="103.24 62.36 102.93 62.36 102.93 62.04 103.24 62.04 103.24 62.36"/>
    <polyline class="cls-2" points="101.66 60.77 101.97 60.93 101.66 61.09 101.66 60.77"/>
    <polyline class="cls-2" points="101.02 60.14 100.7 60.14 100.7 59.82 101.02 59.82 101.02 60.14"/>
    <polyline class="cls-2" points="100.39 59.19 100.07 59.19 100.07 58.87 100.39 58.87 100.39 59.19"/>
    <path class="cls-2" d="M113.39,72.19l.16.32.4.08,1.35,3.89.63.63.16.48.99,2.22-.04.63-.16.48.48.48.4.08.16.79.4.08,1.11,1.11v.63l.63.63-.16.16h-.32l-.16.16.32.32-.16.79-.79,2.06-.48.48-2.22.32-.63-.63-.4-.08-.4-1.03-.32-.32.32-.32-.2-.79-.56-1.27-.32-1.27-.2-2.38-.63-.63v-.63l-.63-.63-.32-.95-1.11-1.11-.4-.08-.08-.71-.16-.16-.32.32-.48-.48-.32-.95-.95-.95.32-.32-.16-.16-.4-.08-.08-.4-.48-.48h-.32l-.79-.79-.08-.4-.56-.24-.63-.48.32-.16-.32-.16-.16-.32-.16.16v.16h-.48l-.95-.95-.63-.32-1.74-1.11-.56-.24-.16-.48-.4-.08-.79-.79v-.32l-1.43-1.43-1.03-.4-.71-1.35-.63-.63v-.63l.63-.63.32-2.38h1.11l.63-.63,1.27.32.32-.32.16.16.16.48.79,1.43.48.48.79.32-.32.16.16.16h.16l.63.79.32.63.95,1.27.63.95.48.48.95.32.48.48.08.4,1.03.4.63.63.32-.32.32.32.4.08.08.4.48.48,1.67.4.4.71,1.35,1.98.56.4-.32.16.16.16h.16M103.88,69.65v-.32h-.32v.32h.32M102.93,69.02v-.32h-.32v.32h.32"/>
    <polyline class="cls-2" points="98.01 57.6 97.53 57.6 97.69 57.28 98.17 57.28 98.01 57.6"/>
    <polyline class="cls-5" points="90.87 67.75 90.56 67.75 90.56 67.43 90.87 67.43 90.87 67.75"/>
    <polyline class="cls-5" points="91.19 67.43 90.87 67.43 90.87 67.11 91.19 67.11 91.19 67.43"/>
    <polyline class="cls-4" points="81.99 57.6 81.67 57.6 81.67 57.28 81.99 57.28 81.99 57.6"/>
    <path class="cls-5" d="M74.7,93.44v-.32h-.32v.32h.32M75.33,91.85v-.32h-.32v.32h.32M71.84,89.32l.16-.63.36-.95.12-.48.63-.63v-.48l.44-.63.2-.79-.32-.16v-.32h.16l.16-.16v-.63l-.16-.16h-.16l.48-1.27.16-.63h.16l.16-.16v-.48l.63-.48.16-.79.59-1.59.2-.79.32-.32-.32-.32.16-.16h.32l.16-.16-.32-.32v-.79l.44-.63.2-.95.52-.95.52-1.19.4-.08.16-.16-.32-.32.16-.16h.32l.16-.16-.32-.32.08-.4.4-.08.16-.16-.32-.32.16-.16h.32l.16-.16-.32-.32.32-.32-.32-.32.32-.32.32-1.43h.16l.16-.16v-.16h.16l.16-.16v-.16h.16l.16-.16v-.79h.16l.16-.16v-.48h.16l.16-.16v-.16l.2-1.27.75-1.43-.79-.79-.44-.08-.04-1.35-.32-.32.32-.32.32-.95.95-1.11.63-.08,7.45.4.32-.32.32.32.32-.32,2.85.32,1.43,1.43.32.79-.32,2.38-.63.63v.16l-.24.08-.4.71-2.06,2.7-.79,1.43-.16.16-.32-.32-.48.48-.16.48-.95,1.9-.16.48-.95.95v.48l-.32.16.16.16h.16l-.16.32h-.32l-.16.16.32.32-.63.63-.08.71-.4.08-.48.48-1.03,1.67-.48.16-.16.48-.48.16-.08.71-.63.63-.08.4-.48.16-.4,1.35-.95.95v.63l-1.27,1.27.32.32-.48.48-.4.08-.24.56-.91,1.9-.2.79-.95.95-.2.79-1.23,2.22-.16.48-.63.63-.08.71-.4.08-.16.16.32.32-.16.79-.67,1.9-.28.63-.16.48-.63.63-.2.79-.24.63-.71,2.54-.28.63-.87,1.51-.4.08-.79.63-1.27-.2-.56-.2-.2-.56-.2-1.11.32-.32-.32-.32,1.11-3.65.16-1.11.95-.95-.32-.32.95-.95.2-.79,1.07-3.33.32-.32-.32-.32.32-.48.32-.16-.32-.16M72.48,89v-.32h-.32v.32h.32M72.79,88.05v-.32h-.32v.32h.32M94.04,56.96v-.32h-.32v.32h.32M91.51,66.16v-.32h-.32v.32h.32M91.82,65.53v-.32h-.32v.32h.32M92.14,64.89v-.32h-.32v.32h.32M86.43,63.94v-.32h-.32v.32h.32M81.99,57.6v-.32h-.32v.32h.32"/>
    <path class="cls-4" d="M65.81,94.07v-1.74l-.16-.16h-.16v-3.65l-.16-.16h-.16l-.16-1.9-.48-2.85v-.48l-.16-.16h-.16l.32-.48-.32-.32-.16-1.43-.4-1.59-.08-.48-.63-.63-.63-8.25-.32-.32.32-.32-.16-1.11-.36-1.27-.56-1.27-.32-.95-.32-1.59-.2-3.33-.32-.16.71-3.41.79-.16.16-.79.56-.2.95-.04,1.74.48.48-.48v-.32l.16-.16.32.32.32-.32h.32l.63-.63.32.32.63-.63.32.32.32-.32.32.32.32-.32.32.32,2.06.24,2.22.91.48.12.32.32.32-.32.32.32.32-.32.4.08.16.48.71.08.32-.32.32.32.32-.32,3.33.24.95.4-.95,1.11-.32.95-.32.32.32.32.04,1.35.44.08.79.79-.75,1.43-.2,1.27h-.16l-.16.16v.48h-.16l-.16.16v.48h-.16l-.16.16v.48h-.16l-.16.16v.32l-.16.16h-.16l-.48.63-.59,1.27-.2.79-.63.63-.2,1.11-.56,1.27-.2.79-.32.32.32.32v.16l-.44.63-.2.95-.44.63-.99,2.54-.24,1.19-.4.08-.16.16.32.32v1.11h-.16l-.16.16v.16l-.16.63-.48,1.27h-.16l-.16.16v.32l.32.32v.48h-.16l-.16.16v1.9l-.63.63-.12.48-.36.95-.16.63-.32.16.16.16h.16l-.32.48.32.32-.32.32-1.07,3.33-.2.79-.95.95.32.32-.95.95-.16,1.11-1.11,3.65.32.32-.32.32.2,1.11.2.56.56.2,1.27.2-.16.32-.4.08-.4,1.67-.32.32.32.32-.32.32-.08.71-.4.08-.63.63-1.9.32-.32-.32-.32.32-.48-.48-.32-1.27-.32-.32.32-.32-.32-.95.95-.95-.32-.32.32-.32v-.32l.32-.32-.32-.32.08-.4.4-.08.16-.16-.63-.63.08-.48.87-3.49.48-.32.44-.08.04-1.67-.63-.63v-1.11l.32-.16-.32-.16M73.74,81.7v-.32h-.32v.32h.32M74.06,81.07v-.48l-.32-.16v.32l.32.32M69.94,79.17v-1.11l-.32-.16v1.11l.32.16M75.96,55.7v-.32h-.32v.32h.32"/>
    <polyline class="cls-5" points="50.91 68.38 50.59 68.38 50.59 68.07 50.91 68.07 50.91 68.38"/>
    <polyline class="cls-1" points="48.69 63.31 48.37 63.31 48.37 62.99 48.69 62.99 48.69 63.31"/>
    <polyline class="cls-1" points="48.37 62.67 48.05 62.67 48.05 62.36 48.37 62.36 48.37 62.67"/>
    <polyline class="cls-1" points="47.26 61.41 46.78 61.41 46.94 61.09 47.42 61.09 47.26 61.41"/>
    <polyline class="cls-1" points="46.15 59.5 45.83 59.5 45.83 59.19 46.15 59.19 46.15 59.5"/>
    <path class="cls-1" d="M31.56,81.07l-.32.48-.08.4-.4.08-.16.16.32.32-.32.32-.16.48-.95,1.59-.95,2.22-.95,1.9-.16.48-1.9,1.9-.2.79-.28.63-1.19,1.82-.48.16-.08.4-1.11,1.11-.48.08h-1.59l-1.11-.4-.79-.79-.08-.48-.04-1.9.12-.79.63-.63,2.06-2.7.24-.56.48-.16.4-1.03.63-.63.32-1.27.32-.32-.32-.32v-.63l.16-.16.32.32.16-.16.16-.48,1.43-2.7.95-.95.08-.71.4-.08,1.11-1.11.2-.79.28-.63.48-.79,1.59-2.22.32-.63,1.11-1.11.4-.08.08-.4,1.11-1.11.79-.48,1.11-.79.71-.4.08-.4.79-.79h.32l.79-.79.95-1.59.48-.48.4-.08,3.25-3.89.16-.16.32.32.16-.16v-.32l.48-.48.32.32.48-.48v-.32l.16-.16.48.32-.32.48.32.95,1.11,1.11h.63l.48.48.16.79.48,1.27-.16.32-1.03.4-.16.48-.4.08-2.22,2.22h-.63l-.16.16.32.32-.16.16-.4.08-.08.4-.16.16-.32-.32-.16.16-.08.4-.4.08-1.11,1.11v.63l-.16.16-.32-.32-.48.48-.08,1.03-2.7,2.06-2.62,3.25-.79.79-.4.08-.08.4-.48.48-.32-.32-.16.16v.48h-.16l-.16.16v.16h-.16l-.48.48v.16l-.32.16.16.16h.16M43.3,68.38v-.32h-.32v.32h.32M44.88,66.8v-.32h-.32v.32h.32"/>
    <path class="cls-5" d="M65.81,94.39v1.11l.63.63-.04,1.67-.44.08-.48.32h-1.43l-.79-.79v-.32l-.63-.63v-2.54l-.32-.32.32-.32-.32-.32.32-.32-.48-.48h-.63l-.48-.48-.16-.48-1.31-3.49-.44-.79-2.02-2.7-.36-.95-.48-1.74-.63-.63-.63-4.44-.16-.16-.32.32-.16-.16-.2-1.43-.32-.95-.28-.63-.91-1.59-1.31-3.17-.32-.63-.16-.48-.48-.48-.4-.08-.24-.56-.95-1.59-.48-.63-.48-1.27-.16-.79-.48-.48h-.63l-1.11-1.11-.32-.95.32-.48v-.79l.79-.79.32.32.71-.08.16-.48.56-.2,1.11-.2.32-.32.32.32.79-.16,4.44-1.23,2.38-.2.63.63.32-.32.32.32h.32l1.11,1.11-.12.79.12,1.59.28,5.07.16.63.36.95.32,1.27.04,2.22.12.48-.32.32.63.63v.32l-.32.32.32.32.44,2.06.2,2.38.32.32-.32.32.16.79.67,1.9.83,3.09.24.08v.48l.16.16h.16l.48,2.85.16,1.9v1.43l.16.16h.16v2.7l.16.16h.16v.95l-.32.16.16.16h.16v.32M60.42,82.34v-.32h-.32v.32h.32M50.27,66.48v-.32h-.32v.32h.32M48.69,63.31v-.32h-.32v.32h.32M48.37,62.67v-.32h-.32v.32h.32M47.26,61.41l.16-.32h-.48l-.16.32h.48M46.15,59.5v-.32h-.32v.32h.32M46.15,58.87v-.48l-.32-.16v.32l.32.32"/>
  </g>
</svg>