<?xml version="1.0" encoding="UTF-8"?>
<svg id="Layer_1" data-name="Layer 1" xmlns="http://www.w3.org/2000/svg" version="1.1" xmlns:xlink="http://www.w3.org/1999/xlink" viewBox="0 0 148 179">
  <defs>
    <style>
      .cls-1 {
        stroke-width: 1.9px;
      }

      .cls-1, .cls-2, .cls-3, .cls-4 {
        fill: none;
      }

      .cls-1, .cls-3, .cls-4 {
        stroke: #000;
        stroke-linecap: round;
        stroke-linejoin: round;
      }

      .cls-5 {
        fill: #c23131;
      }

      .cls-5, .cls-6 {
        fill-rule: evenodd;
      }

      .cls-5, .cls-6, .cls-2 {
        stroke-width: 0px;
      }

      .cls-6 {
        fill: #95cc71;
      }

      .cls-3 {
        stroke-width: 1.27px;
      }

      .cls-4 {
        stroke-width: .95px;
      }

      .cls-7 {
        clip-path: url(#clippath);
      }
    </style>
    <clipPath id="clippath">
      <rect class="cls-2" x="-366" y="-18" width="514" height="685"/>
    </clipPath>
  </defs>
  <g class="cls-7">
    <polyline class="cls-4" points="65.75 66.76 66.3 66.71 66.67 66.58 67.52 66.55 67.67 66.47 68.16 66.49 68.64 66.33 74.17 66.27 74.31 66.36 74.65 66.35 75.1 66.47 75.85 66.44 76.52 66.61 77.99 66.62 78.35 66.75 81.31 66.73 83.65 66.9 83.77 66.99 84.68 66.96 85 67.1 85.96 67.11 86.11 67.19 87.47 67.18 87.89 67.35 88.11 67.59 89.21 67.52 89.87 67.69 90.31 67.66 90.71 67.79 91.36 67.81 91.96 68 92.26 67.98 92.87 68.13 96.8 69.89 96.94 70.04 98.05 70.65 98.48 71.11 98.84 71.28 99.48 71.74 100.57 72.73 101.13 73.05 102.05 73.99 102.27 74.07 102.86 74.64 103.22 74.82 103.73 75.35 103.88 75.39 104.59 76.1 104.81 76.22 105.21 76.68 105.78 77 106.17 77.4 107.29 78.23 107.61 78.62 107.65 78.78 107.97 79.12 108.16 79.2 108.29 79.43 108.97 80.04 109.04 80.2 109.55 80.68 109.72 80.97 110.19 81.45 110.44 81.59 110.52 81.79 110.96 82.22 111.01 82.46 111.23 82.6 111.69 83.11 112.42 84.62 112.67 84.92 114.23 89.48 114.49 90 114.5 90.35 114.88 91.5 114.85 91.8 114.98 92.22 114.97 92.48 115.14 92.92 115.11 93.23 115.41 94.33 115.43 95.07 115.67 95.85 115.63 96.24 115.76 96.68 115.78 97.16 115.87 97.61 116.07 98.08 116.04 98.4 116.26 99.44 116.32 100.2 116.75 101.12 116.79 101.61 116.95 101.94 116.93 102.15 117.01 102.29 117 102.57 117.2 103.17 117.24 104.2 117.38 104.44 117.52 105.05 117.68 106.39 117.81 106.71 117.79 106.93 117.98 107.75 118.14 109.7 118.27 109.93 118.32 110.63 118.49 111.06 118.46 111.5 118.58 112.28 118.57 113.26 118.66 113.4 118.69 113.7 118.67 114.34 118.71 115.2 118.8 115.54 118.81 116.71 118.91 116.92 118.92 117.78 119.06 118.07 119.07 118.86 119.16 119.04 119.14 120.08 119.23 120.39 119.21 121.5 119.3 121.92 119.28 124.97 119.14 125.32 118.85 126.79 118.86 127.33 118.56 128.17 118.56 128.59 117.6 131.73 117.55 132.13 116.1 136.48 115.85 137.1 115.38 137.72 115.31 138.04 114.57 139.18 113.31 141.88 112.77 142.63 112.49 142.86 110.89 146.02 110.7 146.34 110.46 146.55 110.38 146.83 110.16 147.02 109.98 147.36 109.72 147.58 109.5 147.95 109.22 148.1 107.85 149.69 107.34 150.16 107.13 150.25 106.48 150.9 106.3 150.99 106.17 151.22 105.9 151.37 105.74 151.64 105.23 151.99 104.31 152.9 103.61 153.29 103.17 153.77 102.84 153.86 102.44 154.14 100.98 155.58 100.63 155.71 99.64 156.49 98.87 156.9 98.42 157.29 96.82 157.98 96.2 158.32 95.83 158.72 94.77 159.19 94.11 159.39 91.97 160.45 91.33 160.64 90.58 161.02 89.79 161.19 88.54 161.77 88.12 161.86 87.44 162.18 87.07 162.23 86.79 162.39 86.36 162.42 86.1 162.55 85.57 162.61 85.07 162.77 84.76 162.73 83.84 162.84 83.6 162.98 83.47 162.95 83.11 163.16 82.91 163.12 82.57 163.32 82.29 163.34 81.9 163.58 81.6 163.58 81.25 163.78 80.97 163.79 80.53 164.03 80.11 164.15 79.54 164.19 79.37 164.3 78.81 164.33 78.52 164.47 77.96 164.53 77.1 164.81 76.46 164.83 76.27 164.91 75.83 164.89 74.75 165.15 73.79 165.24 73.7 165.33 73.54 165.3 73.09 165.47 72.89 165.45 72.61 165.57 70.81 165.62 70.17 165.7 70.03 165.78 69.53 165.76 67.44 165.97 62.24 165.97 56.82 165.86 55.3 165.5 54.68 165.45 54.37 165.27 54.12 165.31 53.61 165.2 53.42 165.07 53.15 165.11 52.76 164.97 52.07 164.96 51.37 164.73 50.76 164.72 50.67 164.63 50.09 164.57 49.87 164.45 48.19 164.41 47.43 164.3 47.21 164.18 46.65 164.2 46.31 164.04 45.67 163.99 45.33 163.77 44.96 163.82 44.15 163.53 43.96 163.56 43.57 163.36 42.71 163.3 42.28 163.12 41.54 163.05 40.92 162.83 40.58 162.8 40.43 162.7 40.17 162.7 38.98 162.18 38.6 162.11 36.81 161.2 36.66 161.2 34.15 160 33.92 159.94 33.51 159.96 33.36 159.83 33.01 159.78 32.81 159.65 32.66 159.69 32.44 159.6 32.11 159.61 31.85 159.44 31.63 159.46 31.32 159.31 31.15 159.33 30.32 158.96 30.18 158.99 29.85 158.86 28.71 158.68 28.04 158.21 27.57 157.98 26.77 157.21 25.49 156.55 24.95 156.03 24.72 155.95 24.52 155.73 23.55 155.13 22.85 154.41 22.55 154.26 22.27 153.86 21.75 153.39 21.69 153.18 21.02 152.42 20.7 151.8 19.7 150.79 19.46 150.24 18.96 149.77 18.62 149.25 18.41 149.08 17.51 147.74 16.8 146.34 16.45 145.89 15.76 144.57 15.12 142.74 15.16 142.38 15.07 142.18 15.08 141.99 14.94 141.78 14.97 141.57 14.8 141.26 14.73 140.34 14.59 139.99 14.58 139.16 14.42 138.53 14.44 137.9 14.35 137.67 14.29 136.5 14.17 135.99 14.19 134.91 14.1 134.6 14.12 134.12 14.03 134.01 14.05 133.54 13.91 133.28 13.94 132.76 13.81 132.39 13.76 131.34 13.6 130.68 13.47 128.57 13.27 127.82 13.19 125.36 13.09 124.96 13.12 124.51 13.08 124.01 12.94 123.79 12.94 112.24 13.11 111.77 13.12 111.43 13.37 110.95 13.36 110.54 13.5 110.26 13.48 110.12 13.72 109.62 13.76 109.02 14.01 108.37 14.08 107.68 14.28 107.14 14.38 106.49 14.68 105.81 14.66 105.6 15.37 104.21 15.33 104.1 15.48 103.55 15.65 103.25 15.64 103.09 16.44 101.53 16.87 100.56 16.95 100.14 19.61 94.88 20.1 94.44 20.22 94.1 20.38 93.96 20.96 92.95 21.7 92.22 22.12 91.69 22.69 90.57 22.96 90.2 23.7 88.71 23.94 88.51 24.41 87.77 25.39 85.76 25.57 85.56 25.84 85 26.47 84.24 26.69 83.75 27.38 83.09 27.49 82.8 27.85 82.46 28.02 82.08 28.33 81.83 28.58 81.25 29.07 81.04 29.39 80.5 29.7 80.24 30.67 78.5 31.07 78.16 31.36 77.49 31.86 77.04 32.01 77 32.07 76.89 32.37 76.73 32.89 76.2 32.93 76.07 33.68 75.59 33.85 75.36 34.09 75.26 34.6 74.74 37.1 73.5 37.24 73.52 37.61 73.3 38.4 73.08 40.61 72 41.36 71.34 41.78 71.16 42.24 70.78 43.04 70.33 43.33 70.02 43.56 69.95 43.98 69.49 44.07 69.48 44.39 69.16 44.71 69.05 45.04 68.7 45.68 68.44 46.59 67.88 47.54 67.42 48.44 67.14 49.36 66.69 49.57 66.72 50.23 66.44 50.43 66.47 50.81 66.31 51.23 66.35 51.69 66.22 51.92 66.23 52.18 66.07 52.61 66.11 52.76 66.02 53.68 65.99 53.99 65.86 55.3 65.89 55.5 65.8 56.45 65.79 56.65 65.7 58.31 65.72 58.76 65.55 59.69 65.58 59.91 65.44 63.83 65.44 64.28 65.47 64.42 65.56 64.84 65.54 65.03 65.67 65.2 65.65 65.63 65.81 66.12 65.79 66.49 65.96 66.85 65.97 67.49 66.24 67.76 66.2 67.98 66.33 68.21 66.3 68.78 66.59 75.28 66.55 75.83 66.73 75.95 66.85"/>
    <polyline class="cls-4" points="64.52 119.32 64.58 119.31 64.78 118.46 64.95 118.22 64.91 117.89 65.24 117.27 65.27 116.99 65.45 116.62 65.48 115.21 65.72 114.14 65.73 113.34 65.82 113.22 65.81 112.93 65.97 112.5 65.98 111.2 66.14 110.22 66.2 108.26 66.45 105.39 66.54 105.25 66.52 104.85 66.65 104.45 66.63 104.03 66.76 103.72 66.74 103.35 66.82 103.13 66.85 102.6 67.01 102.15 67.01 101.89 67.16 101.32 67.12 100.85 67.35 100.27 67.34 99.41 67.43 99.22 67.41 98.55 67.5 98.3 67.48 97.38 67.69 96.08 67.67 95.71 67.8 95.43 67.78 94.92 67.94 94.24 68.11 92.16 68.17 78.55 68.25 78.37 68.24 77.83 68.46 76.28 68.45 75.9 68.54 75.77 68.52 75.28 68.7 74.81 68.69 74.51 68.92 73.56 68.89 73.16 69.1 72.41 69.05 71.86 69.14 71.75 69.21 70.72 69.67 69.05 69.63 68.69 69.99 67.44 69.96 67.1 70.27 65.84 70.29 65.48 70.53 64.86 70.6 63.99 70.82 63.43 70.83 63.1 70.98 62.65 70.95 62.14 71.08 61.75 71.09 60.89 71.27 60.33 71.28 59.53 71.45 59.03 71.47 58.46 71.77 57.16 71.73 56.34 71.78 55.72 71.87 55.51 71.84 54.66 72.12 53.07 72.17 51.42 72.26 51.05 72.24 50.69 72.37 50.3 72.34 49.6 72.61 47.34 72.6 44.86 72.71 44.53 72.74 42.59"/>
    <polyline class="cls-1" points="30.63 80.5 30.48 80.49 30.56 80.49 30.83 81.45 31.55 82.77 32.01 83.36 32.43 84.2 32.55 84.26 33.02 85.08 33.48 85.59 33.81 85.72 34.11 86.03 35.27 87.95 35.6 88.16 36.17 88.88 36.8 89.09 37.47 90.07 37.77 90.32 38.08 90.91 38.46 91.32 39.32 92.77 39.62 92.94 40.1 93.53 40.43 93.63 41.44 94.8 41.78 95.06 41.99 95.55 44.4 97.36 45.61 98.76 46.9 99.51 47.31 100.12 49.44 102.49 50.18 103.12 51.43 104.47 51.82 104.71 51.97 104.99 52.82 105.86 53.34 106.24 53.58 106.6 54.93 107.86 55.28 108 55.35 108.23 55.66 108.54 55.83 108.56 56.35 108.94 57.11 109.87 57.51 110.17 57.66 110.44 58.95 111.56 59.21 112.2 59.62 112.47 60.15 113.17 60.52 113.33 61.46 114.86 61.79 115.08 61.82 115.23 62.15 115.54 62.3 115.56 62.32 115.7 63.07 116.57 63.76 117.85 63.95 117.96 64.51 119 64.69 119.1"/>
    <polyline class="cls-1" points="102.86 74.2 102.61 74.78 102.27 75.15 101.98 75.77 101.77 75.96 101.18 77.12 100.83 77.43 100.66 77.81 99.79 78.62 99.55 79.27 98.05 80.67 97.48 81.06 95.32 83.18 94.83 83.7 94.8 83.87 93.64 84.84 93.35 85.28 92.9 85.67 91.86 86.2 91.58 86.59 90.52 87.42 90.27 87.81 89.69 88.28 89.65 88.52 88.47 89.61 88.33 89.65 87.89 90.25 86.11 91.96 85.47 92.32 85.15 92.72 84.87 92.83 84.01 93.75 83.27 94.3 83.02 94.56 82.99 94.72 82.33 95.31 81.89 96.06 81.54 96.36 81.4 96.65 80.98 97.09 80.63 97.72 80.04 98.13 79.03 99.15 78.8 99.59 78.29 100.04 78.16 100.4 77.42 101.11 77.26 101.6 76.96 101.89 76.82 102.24 75.58 103.43 75.2 103.97 74.39 105.55 74.15 105.73 73.99 106.08 73.36 106.66 73.26 107.05 72.61 107.76 72.46 108.07 72.13 108.35 71.48 109.29 71.28 109.4 71.17 109.69 70.89 109.93 70.7 110.32 70.39 110.63 70.13 111.14 69.87 111.35 69.76 111.62 69.45 111.79 69.16 112.42 68.74 112.75 68.5 113.28 68.19 113.66 67.36 114.41 67.15 115 65.5 118.11"/>
    <polyline class="cls-3" points="97.43 35.88 96.95 37.77 96.75 38.09 96.46 39.09 95.86 40.26 95.31 42.25 94.95 42.78 94.71 43.68 94.39 44.34 95.14 43.98 95.47 43.68 95.78 43.57 97.93 42.22 99.08 41.68 99.23 41.78 99.8 43.1 99.76 45.97 99.47 46.45 99.38 46.74 99.41 47.04 99.11 47.83 99.17 48.27 99.59 48.45"/>
    <polyline class="cls-3" points="104.6 45.01 103.74 44.83 103.14 44.99 102.93 45.12 101.82 46.63 101.76 46.9 101.84 47.92 102.25 48.63 102.65 48.8 103.21 48.75 104.49 48.19 104.67 47.99 105.73 45.74 105.68 45.11 105.25 44.25 104.21 43.86 104.08 43.96 103.85 44.53 104.03 44.85"/>
    <polyline class="cls-3" points="109.7 42.51 108.6 43.24 108.32 43.53 106.97 45.51 106.52 46.34 106.3 47.26 106.34 48.2 106.22 48.45 106.24 49.7 106.34 50.37 106.86 50.36"/>
    <polyline class="cls-3" points="111.36 48.63 109.98 48.26 109.69 48.31 108.82 48.87 107.9 49.8 107.67 50.46 107.72 51.04 107.89 51.31 108.41 51.58 109.55 51.53 110.65 51.13 112.13 50.26 113.69 49.17 115.15 47.69 115.66 46.81 116.35 46.03 116.71 45.48 117.17 44.13 117.44 43.67 117.03 43.85 115.75 45.02 114.89 46.28 114.53 46.85 113.36 49.97 113.08 51.19 113.05 52.4 113.73 54.37"/>
    <polyline class="cls-3" points="69.06 31.09 68.1 30.85 67.2 30.91 65.8 31.53 64.65 33.63 64.69 34.7 65.07 35.5 65.94 35.95 68.87 35.91 69.79 35.41"/>
    <polyline class="cls-3" points="73.07 25.68 72.54 26.78 71.95 28.69 71.49 30.68 71.34 31.65 71.35 33.43 71.59 33.81 71.61 34.07 71.79 34.28 72.32 34.52 73.15 34.47 73.26 34.37"/>
    <polyline class="cls-3" points="76.98 26.8 75.35 32.77 74.99 33.84 75.03 35.44 75.45 35.17 76.91 33.72 77.1 33.43 78.12 32.51 78.74 31.74 80.63 30.73 81.23 30.54"/>
    <polyline class="cls-3" points="78.04 34.44 78.58 36.08 79.12 37.11 80.18 38.09 80.4 38.53 80.98 38.73 81.67 38.72"/>
    <polyline class="cls-6" points="95.5 69.22 95.97 69.22 96.13 69.38 95.97 69.54 95.5 69.54 95.5 69.22"/>
    <path class="cls-6" d="M89.79,71.44v-.32h-.32v.32h.32M95.5,69.54l.16.32h.32l2.38,2.38.32,1.59.48.48h.32l.63.63.71.08-.12.87-1.78,2.46-1.67-.24-.32-.32-.32.32-.32-.32h-1.27l-.32.32-.32-.32h-.32l-.32-.32-.32.32-.32-.32h-.32l-.32-.32-.32.32-.32-.32h-.32l-.32-.32-.32.32-.32-.32h-.32l-.32-.32-.32.32h-.32l-.63-.63-.32.32-1.11-.16-6.5-1.74-.32-.32-.32.32-.63-.63-.32.32-.63-.63-.32.32-.32-.32-6.19-1.47-.56-.2-.08-.71-.48-.48h-.48v-.16l-.95-.95v-1.27l1.11-1.11.32.32.32-.32.48.16.56.08.08-.56.32-.16.08-.4,4.36-.75,7.45.04.32.32.32-.32.32.32h.32l.32.32.32-.32h.32l.32.32.32-.32,4.28.83.95.32,1.27.59,1.43.79.48.63-.32.16.16.16h.16"/>
    <path class="cls-5" d="M67.9,70.49v-.32h-.32v.32h.32M70.12,70.81l-.87-.08-.08-.4-.16-.16-.32.32-.4.08-.08.4-.16.16-.32-.32-.4-.08-.08-.71-.16-.16-.63.63h-.32l-.32-.32-.63.63h-.32l-.32-.32-.32.32-.32-.32-.16.16v.32l-.16.16-.32-.32-.32.32-2.7.56-.63.24-1.27.59-5.39,1.31-1.9.67-3.17,1.51-.79.2-1.59,1.59-1.43.79-.48.16-.95.95-.79.2-2.22.91-5.07,1.94-.48.12-.32-.32-.32.32-1.11-1.11-.16-.48-.28-.63-.2-.79-.63-.63.32-.32.2-.79.75-1.43,1.11-1.11h.32l.63-.63.79-.2.63-.28.48-.16.63-.63.79-.16,5-1.82.08-.4.48-.48h.63l.63-.63.4-.08.16-.48,1.03-.4.95-.95.79-.16,2.85-.87,3.65-.56.32-.32.32.32.32-.32h.32l.32.32.32-.32,1.27-.32.32-.32.32.32.32-.32,5.39-.63.32-.32.32.32,4.28-.04.63.2,1.27.63.48.16.48.48.32.48-.08.56-.56-.08-.48-.16-.32.32-.32-.32-1.11,1.11v1.27l.95.95v.16M65.05,70.49v-.32h-.32v.32h.32"/>
  </g>
</svg>