<?xml version="1.0" encoding="UTF-8"?>
<svg id="Layer_1" data-name="Layer 1" xmlns="http://www.w3.org/2000/svg" version="1.1" xmlns:xlink="http://www.w3.org/1999/xlink" viewBox="0 0 282 141">
  <defs>
    <style>
      .cls-1 {
        stroke-width: 0px;
      }

      .cls-1, .cls-2, .cls-3, .cls-4 {
        fill: none;
      }

      .cls-2 {
        stroke: #95cc71;
      }

      .cls-2, .cls-3, .cls-4 {
        stroke-linecap: round;
        stroke-linejoin: round;
        stroke-width: 1.27px;
      }

      .cls-3 {
        stroke: #000;
      }

      .cls-5 {
        clip-path: url(#clippath);
      }

      .cls-4 {
        stroke: #c23131;
      }
    </style>
    <clipPath id="clippath">
      <rect class="cls-1" x="-196" y="-276" width="514" height="685"/>
    </clipPath>
  </defs>
  <g class="cls-5">
    <polyline class="cls-3" points="121.46 39.14 121.32 40.16 121.35 49.92 121.31 51.5 121.2 51.87 121.22 52.34 121.1 52.6 121.12 53.92 120.96 54.38 120.99 60.28 120.86 62.55"/>
    <polyline class="cls-3" points="122 38.89 126.69 38.89 126.82 38.99 127.14 38.97 127.8 39.18 129.02 39.2 129.29 39.31 134.55 39.29 135.32 39.62 135.75 39.6 136.25 39.79 136.99 39.82 138.31 40.46 138.67 40.9 139.53 42.55 139.75 42.75 140.17 42.91 140.3 43.38 141.93 46.5 142.03 49.88 142.15 50.19 142.12 50.62 142.24 50.8 142.26 52.07 142.42 52.66 142.4 54.56 142.29 54.82 142.31 55.28 142.15 55.51 142.18 55.7 140.86 58.33 140.6 58.55 140.18 58.68 140.03 59.02 139.41 59.52 139.24 59.91 137.29 61.18 137.01 61.61 136.46 62.07 136.01 62.23 135.14 62.69 134.95 62.92 133.08 63.85 132.53 63.84 132.06 64.07 131.11 64.13 125.71 64.16 124.12 64.25 123.74 64.36 121.45 64.34 121.18 64.23 120.74 64.25 120.41 64.05 120.04 63.35"/>
    <polyline class="cls-3" points="147.16 49.05 146.34 49.24 145.88 49.62 145.45 50.34 145 50.75 144.91 51.01 144.98 51.79 145.31 52.33 146.09 52.73 146.39 52.82 147.56 52.77 148.77 52.2 149.47 50.73 149.43 49.61 149.03 49.23 147.65 48.62 146.26 48.76 146.22 49.14"/>
    <polyline class="cls-3" points="119.05 96.64 118.98 96.63 119.52 98.69 119.47 101.69 119.35 101.99 119.38 102.94 119.21 103.34 119.25 104.3 119.12 104.71 119.15 109.76 118.84 111.09 118.83 115.21 118.62 116.01 118.52 117.95 118.4 117.98"/>
    <polyline class="cls-3" points="117.97 97.03 118.79 96.86 119.75 96.46 120.53 96.46 121.61 97.01 123.1 96.99 123.83 97.2 127.22 97.17 128.09 96.76 128.65 96.67 129.08 96.88 130.47 96.9 132.47 97.22 132.65 97.37 132.89 97.34 133.3 97.55 134 97.71 135.28 98.35 136 99.08 136.32 99.23 137.32 100.5 138.68 103.18 138.64 103.28 138.79 103.55 138.77 104.09 138.9 104.23 138.86 104.84 139.03 105.34 139.09 108.75 138.92 108.99 138.96 109.45 138.18 111.13 138.2 111.29 137.12 113.37 136.46 113.91 136.4 114.17 134.72 115.8 134.51 115.83 134.19 116.18 133.81 116.34 133.46 116.71 133.18 116.77 132.4 117.31 131.86 117.5 131.32 117.93 129.4 118.83 128.8 118.99 124.1 118.96 123.11 118.67 118.69 118.7 118.19 118.48 117.92 118.47 116.94 117.99 116.67 117.83 116.68 117.72"/>
    <polyline class="cls-3" points="142.28 107.98 141.29 107.74 141.01 107.82 140.68 108.37 140.6 108.46 140.57 108.38 140.41 108.79 140.43 109.57 141.07 110.79 141.77 111.14 142.48 111.1 143 110.77 143.44 110.64 143.86 109.84 143.82 109.5 143.33 108.55 142.39 108.18 142.2 108.19 142.27 108.23 142.18 108.3 141.49 108.63"/>
    <polyline class="cls-3" points="185.81 50.37 185.79 52.82 185.58 54.12 185.61 55.45 185.49 55.81 185.52 57.01 185.4 57.27 185.36 57.95 185.37 60.35 185.32 61.04 185.16 61.44 185.01 65.96 184.92 66.64 184.81 66.75 184.76 67.56 184.78 67.88 184.89 67.81"/>
    <polyline class="cls-3" points="186.04 49.11 187.57 49.12 188.93 49.01 193.13 49.02 193.29 48.9 193.6 48.88 204.95 48.84 205.53 48.95 206.01 49.28 206.97 49.71 207.44 49.98 207.55 50.23 207.91 50.38 208.14 50.85 208.42 51.03 208.5 51.34 208.73 51.5 209.69 53.43 209.73 54.08 209.86 54.22 209.98 54.75 210.01 55.69 210.12 55.86 210.24 58.18 210.36 58.32 210.53 59.39 210.56 62.65 210.47 63.14 210.24 63.49 209.96 64.39 209.16 65.93 206.33 67.31 203.82 67.53 198.3 67.51 197.98 67.63 197.1 67.7 196.99 67.8 196.66 67.78 196.13 68.11 195.57 68.13 194.74 68.54 194.25 68.48 194.16 68.61 192.65 68.74 190.47 68.72 189.18 68.5 188.94 68.38 187.7 68.36 187.62 68.26 187.13 68.17 186.85 68.01 186.13 67.95 185.75 67.74 184.46 67.48"/>
    <polyline class="cls-3" points="214.16 57.19 213.23 57.43 212.72 57.71 212.55 58.27 212.59 59 212.96 59.7 213.17 59.88 214.34 60.31 215.48 60.28 216.3 59.95 216.81 58.96 216.55 58.34 215.75 57.8 215 57.48 214.09 57.51 213.67 57.7"/>
    <polyline class="cls-3" points="184.63 90.52 184.56 90.51 184.59 94.1 184.48 94.27 184.51 94.98 184.39 95.16 184.41 97.12 184.29 97.39 184.32 101.99 184.01 103.11 184 103.59 183.89 103.73 183.81 105.7 183.64 105.97 183.69 106.5 183.58 107.65 183.36 108.12 183.36 108.73 182.97 109.5 183.36 108.78"/>
    <polyline class="cls-3" points="184.54 89.46 185.34 89.31 189.99 89.31 191.91 88.9 193.19 88.82 193.61 88.59 194.16 88.54 198.48 88.55 199.08 88.74 200.7 89 201.37 89.34 203.19 89.82 203.76 90.13 204.02 90.11 205 90.62 205.23 90.87 205.67 91.03 206.13 91.38 206.87 91.7 207.06 91.94 207.94 92.32 209.15 93.04 210.01 94.04 210.7 95.48 210.65 95.69 210.8 97.16 210.79 98.86 210.59 99.62 210.61 99.99 210.33 100.36 210.38 100.59 210.22 100.8 210.24 101.01 208.95 103.43 208.64 103.7 208.46 104.02 208.21 104.12 208.08 104.45 207.63 104.74 207.57 104.91 207.36 104.95 207.27 105.11 205 106.24 204.72 106.55 203.77 106.93 202.88 107.6 202.46 108.21 201.86 108.4 201.84 108.54 201.04 109.13 200 109.57 198.93 110.53 197.93 111.01 197.64 111.33 196.21 111.98 194.61 112.14 192.99 112.13 192.75 112.01 192.08 112.04 190.3 111.66 189.92 111.68 189.47 111.47 189.14 111.5 188.28 111.23 187.95 111.28 186.73 110.99 186.24 111.02 185.99 110.87 185.46 110.83 184.89 110.53 184.85 110.42"/>
    <polyline class="cls-3" points="213.94 98.92 212.67 99.52 211.43 100.74 211.26 101.19 211.3 102.42 211.68 103.07 211.92 103.27 213.18 103.89 213.76 103.86 214.28 103.57 214.58 103.27 214.91 102.63 214.97 102.16 214.54 101.42 214.27 101.18 213.3 100.73 213.31 100.62"/>
    <polyline class="cls-3" points="52.42 103.94 51.78 106.04 51.82 106.62 51.65 107.16 51.68 107.88 51.56 108.22 51.59 111.59 51.71 111.86 51.67 112.64 51.83 114.17 51.81 117.76 51.52 119.07 51.08 119.85 51.04 120.62 50.88 120.99 51.62 119.71"/>
    <polyline class="cls-3" points="52.57 102.66 53.74 103.53 54.28 104.32 54.85 104.74 55.03 104.99 55.22 105.06 55.54 105.5 56.09 105.96 56.63 106.15 56.87 106.48 57.19 106.66 58.07 108.34 58.85 109.05 59.22 109.2 59.73 109.78 60.31 110.2 61.63 110.63 63.28 111.41 63.87 111.47 65.33 112.2 66 112.98 66.24 113.13 66.31 113.32 66.57 113.49 66.61 114.23 66.32 114.77 66.07 114.93 65.89 115.22 65.57 115.4 65.3 115.81 64.87 116.03 64.82 116.22 63.99 116.69 62.43 117.3 60.04 118.47 59.31 118.68 58.66 119.13 58.01 119.35 56.51 120.12 55.77 120.44 55.55 120.4 54.89 120.78 53.88 121.04 51.66 122.13 51.25 122.08 49.85 122.42 49.22 122.4 48.21 122.81"/>
    <line class="cls-3" x1="69.29" y1="113.28" x2="69.26" y2="113.3"/>
    <polyline class="cls-3" points="69.43 112.89 68.4 112.66 67.88 113 67.66 112.93 67.28 113.14 66.92 113.6 66.58 114.31 66.62 115.42 66.9 115.94 66.88 116.07 67.34 116.55 68.13 116.91 69.1 116.91 69.91 116.51 70.1 116.5 70.43 116.3 70.66 115.84 70.96 115.59 71.64 114.25 71.62 113.77 71.09 112.83 69.89 112.27 69.37 112.32 68.56 112.68 67.59 113.34 66.93 113.61 66.9 114.09"/>
    <polyline class="cls-3" points="70.14 113.33 71.18 113.83 71.62 113.97 71.54 113.91 71.62 113.9 71.97 114.08 72.16 114.35 73.31 114.84 76.49 114.81 77.5 114.68 77.66 114.56 80.92 114.36 81.78 114 82.14 114.05 82.43 113.84 83.7 113.78 84.06 113.56 84.43 113.61 84.71 113.44 87.26 113.38 87.48 113.26 88.07 113.25 88.42 113.14 90.93 113.16 91.47 113.12 91.68 113 92.79 113.03 94.36 112.94 94.74 112.82 96.93 112.8 97.11 112.69 98.41 112.61 114.73 112.49 115.37 112.68 116.99 112.71"/>
    <polyline class="cls-3" points="49.37 111.82 48.77 111.99 47.31 111.96 46.72 112.16 43.55 112.13 42.81 112.33 42.07 112.3 41.64 112.46 40.38 112.4 39.63 112.13"/>
    <polyline class="cls-3" points="37.25 113.14 37.32 113.1 37.38 110.57 37.75 109.22 37.74 108.95 38.39 107.09 38.45 106.29 38.91 104.41 38.85 103.79 38.96 103.57 39.04 100.66 39.15 100.39 39.27 98.2 39.44 97.55 39.55 95.92 39.76 94.85 39.82 92.35 39.94 91.89 39.9 90.06 40.02 89.66 40.05 86.87 40.17 86.51 40.19 84.75 40.3 84.3 40.43 81.42 40.42 75.7 40.54 75.45 40.61 73.95 40.87 72.7 40.84 72.16 41.05 71.55 41.06 68.05 41.4 65.64 41.38 61.6 41.44 60.97 41.6 60.73 41.6 60.45 41.89 59.6 41.96 58.83 42.44 56.96 42.39 56.26 42.73 52.83"/>
    <polyline class="cls-3" points="119.94 43.21 117.99 42.71 115.75 42.73 115.09 42.52 114.82 42.54 114.47 42.33 111.45 42.32 110.87 42 110.08 42.07 109.58 41.89 108.72 41.88 108.34 41.66 107.87 41.7 107.54 41.54 107.08 41.56 106.28 41.2 104.58 40.82 102.28 40.81 100.21 40.67 99.94 40.56 88.58 40.49 87.76 40.45 87.07 40.29 83.82 40.32 83.26 40.09 82.56 40.14 82.16 39.97 81.65 40 80.91 39.84 75.93 39.78 74.34 39.54 72.55 39.5 61.61 39.51 58.47 39.28 45.34 39.38 44.79 39.26 38.74 39.2 37.75 39.01 37.82 38.24"/>
    <polyline class="cls-3" points="41.71 53.19 41.78 53.17 41.43 52.13 41.49 51.49 41.31 50.85 41.34 48.71 41.44 47.73 41.43 44.74 41.58 43.93 41.56 38.79"/>
    <polyline class="cls-3" points="41.05 40.62 40.56 40.01 39.92 38.79 40.09 37.91 40.5 37.17 41.48 36.7 41.74 36.74 42.13 37.02 42.67 38.17 42.61 38.72 42.07 39.59 41.42 39.79 40.65 39.77 40.17 39.46 39.97 39.02 40.02 38.57 40.47 37.82 41.84 37.19 42.1 37.3 42.18 37.66 42.45 38.15 42.4 38.39 41.61 39.69 40.96 39.95 40.78 39.93 40.49 39.7 40.51 39.51 40.81 39.06 41.35 39.08 41.71 39.26 41.83 39.41 41.67 40.11 40.78 40.48 40.29 40.44 40.27 40.3 39.93 40.06 39.77 39.68 39.82 38.55 40.2 38.01 40.73 37.9 41.02 38.81 41 39.02 40.62 39.59 40.18 40.6"/>
    <polyline class="cls-3" points="36.49 38.45 33.57 38.44 33.07 38.77 32.43 39 30.06 38.97 28.65 39.27 23.53 39.24 23.29 38.86 23.31 38.51"/>
    <polyline class="cls-3" points="11.45 35.85 10.67 35.9 9.32 36.59 8.25 37.59 7.97 38.03 7.8 38.72 7.89 41.81 8.07 42.04 8.69 42.28 9.76 42.23 10.81 41.51 12.15 39.69 13.39 36.08 13.9 34.07 13.94 31.76 13.69 30.67 13.2 31.65 13.27 32.31 13.11 34.38 13.12 38.41 13.43 39.87 13.8 40.83 14.22 41.49"/>
    <polyline class="cls-3" points="118.98 57.39 117.64 57.12 117.43 56.99 115.99 57.02 115.31 56.64 114.91 56.61 114.13 56.3 112.79 56.21 109.51 56.21 109.13 56.52 108.58 57.63 108.52 58.16 108.57 61.5 109 64.2 108.99 68.18 108.79 69.12 108.76 70.46 108.58 70.9 108.59 71.19 108.3 71.88 108.34 72.3 108.02 73.37 108.07 74.65 107.9 75.46 107.94 76.08 107.83 76.53 107.74 78.3 107.58 78.8 107.52 80.11 107.29 80.72 107.29 82.67 107.12 83.24 107.11 84.75 106.93 85.36 106.97 88.36 106.81 89.08 106.84 89.72 106.72 89.88 106.74 90.4 106.63 90.64 106.6 92.8 106.43 93.15 106.31 94.56 106.33 96.49 106.66 97.21 106.88 97.4 109.86 98.87 110.36 98.81 110.45 98.92 112.4 99.04 112.61 99.16 114.62 99.13 115.5 99.41 116.34 99.45"/>
    <polyline class="cls-3" points="106.07 77.12 105.08 76.88 104.37 76.49 102.47 76.54 102.17 76.65 101.39 76.62 99.99 76.97 99.57 76.93 98.62 77.14 96.68 77.12 96.43 77.03 96.31 76.86"/>
    <polyline class="cls-3" points="81.56 72.36 80.45 73.45 79.86 74.19 78.52 76.89 78.08 78.68 78.11 79.28 78.39 79.75 78.37 79.93 78.94 80.55 79.5 80.68 81.21 80.48 81.58 80.37 82.39 79.91 83.47 79.07 84.03 78.51"/>
    <polyline class="cls-3" points="85.52 65.41 84.86 66.38 83.71 69.29 83.17 72.64 83.12 78.49 83.23 79.2 83.44 79.76 83.72 80.17 84.08 80.2 84.47 79.77"/>
    <polyline class="cls-3" points="87.78 66.96 87.35 68.04 86.61 71.66 86.64 72.2 86.44 73.67 86.48 74.96 86.36 75.45 86.43 78.49 87.31 77.68 89.32 74.8 90.11 72.9 90.41 72.38"/>
    <polyline class="cls-3" points="87.51 76.27 87.86 77.49 88.18 77.72 88.89 78.68 89.91 79.26 90.19 79.2"/>
    <polyline class="cls-3" points="151.94 50.44 152.96 50.67 155.46 50.63 155.64 50.74 157.15 50.72 157.43 50.84 166.07 50.72 166.78 50.97 168.61 51.08 168.79 51.18 169.16 51.17 169.52 51.42 170.08 51.38 170.17 51.49 170.83 51.58 172.05 51.61 172.88 51.76 176.08 51.79 177.24 52.12 177.56 52.1 177.69 52.21 178.24 52.19 178.64 52.35 179.52 52.47 181.94 52.46 182.85 52.64"/>
    <line class="cls-3" x1="145.78" y1="110.5" x2="180.04" y2="106.38"/>
    <polyline class="cls-3" points="183.33 98.91 182.16 99.37 179.45 99.31 179.18 99.14 178.51 98.96 178.06 99.01 177.33 98.91 176.97 98.69 176.5 98.68 176.05 98.42 174.95 98.38 173.62 97.71 172.64 97.51 169.67 97.29 165.34 97.3 165.45 97.3 165.01 96.42 165.06 90.76 165.17 89.71 165.15 85.68 165.25 84.97 165.36 84.78 165.33 84.42 165.61 83.73 165.65 83.19 166.21 82.96 167.8 82.92 168.77 82.63 169.13 82.66 169.26 82.54 169.77 82.57 170.24 82.4 171.76 82.34 171.99 82.23 172.78 82.16 173.39 81.91 173.84 81.94 175.03 81.45 176.02 81.35 176.42 81.13 176.95 81.14 177.34 80.97 178.25 80.81 179.62 80.2 179.8 80.22 180.88 79.89 181.42 79.62 183.57 78.95 184.4 78.55 185.58 78.31 186.43 77.92 187.5 77.82 187.76 77.66 188.1 77.65 188.51 77.43 189.21 77.28 192.03 77.03 192.36 76.85 192.71 76.9 192.91 76.73 193.84 76.61 193.97 76.51 194.25 76.54 194.44 76.43 196.62 76.36 197.46 76.17 198.01 76.18 198.35 76.03 198.63 76.05 198.89 75.88 199.7 75.87 200.28 75.61 200.68 75.6 201.28 75.31 202.42 75.15 202.85 74.92 203.8 74.79 204.08 74.62 204.25 74.66 205.83 74.09 206.02 74.12 206.61 73.88 206.93 73.91 207.4 73.62 208.72 73.15 208.86 73.18 209.09 73.03 210.06 73.01 210.19 72.89 210.97 72.87 211.77 72.72 212.86 72.14 214.01 72.01 216.02 72.02 218.17 71.79 222.92 71.74 223.68 70.32 223.66 69.63 223.75 68.72 223.87 68.44 223.84 63.71 224.27 63.01 224.2 62.56 224.32 61.63 224.3 60.68 224.42 60.49 224.45 59.19 224.07 59.09 223.21 59.12 222.69 59.32 219.58 59.3 218.95 59.11 217.3 58.94"/>
    <polyline class="cls-3" points="182.73 60.72 180.5 59.92 178.91 59.97 178.62 60.09 170.3 59.95 165.87 60.01 165.89 60.12 165.61 60.64 165.66 62.08 165.85 62.29 166.26 63.23 166.23 63.4 166.75 64.51 166.72 64.71 166.99 65.13 167 65.53 167.46 66.37 167.41 66.6 167.67 67.34 167.63 67.54 167.87 68 168.02 68.66 169.14 70.79 169.56 71.18 171.89 72.23 172.09 72.59 172.41 72.65 172.48 72.81 173.36 73.33 175.01 74.11 175.91 74.32 177.38 75.04 178.02 75.12 178.69 75.5 178.84 75.48 179.24 75.66 179.83 75.69 180.5 76.02 181.51 76.28 185.08 76.27 185.95 76.6 186.26 76.58 186.79 76.78 187.66 76.8 188.99 77.17 191.49 77.52 191.71 77.67 192.16 77.75 192.66 77.99 193.15 78.02 194.15 78.4 195.35 78.5 195.85 78.74 196.7 78.86 197.14 79.1 197.4 79.08 198.89 79.73 199.25 79.76 199.46 79.92 200.08 79.88 200.16 79.99 200.54 80.04 202.24 80.87 202.52 80.83 202.97 81.09 204.04 81.38 205.19 81.89 206.02 81.98 208.44 83.13 209.03 83.35 209.26 83.33 210.7 84.06 211.12 84.7 211.36 84.71 216.17 87.1 216.68 87.22 217.18 87.5 217.43 87.48 217.63 87.63 218.79 87.93 220.67 88.84 220.82 88.82 221.91 89.28 222.38 90.3 222.43 90.88 222.37 94.04 222.26 94.17 222.28 94.71 222.12 95.06 222.01 96.85 221.89 96.98 221.81 97.97 221.87 102.29 221.36 102.53 219.64 102.48 219.12 102.44 218.53 102.16 216.13 102.13 215.76 101.96 215.48 102 214.81 101.85 214.35 101.86 214.61 102.14"/>
    <polyline class="cls-3" points="222.48 104.09 222.38 104.09 222.48 103.26 223.15 101.82 223.22 101.77 223.43 102.4 223.37 102.96 222.78 104.15 221.9 104.12 221.59 103.49 221.64 101.86 221.97 101.07 222.47 100.95 223.15 102.26 223.1 102.7 222.69 103.61 222.19 103.92 221.9 103.88 221.88 103.72 221.55 103.3 221.6 102.96 221.88 102.55 222.61 102.23 222.78 102.32 222.91 102.76 222.88 103.08 222.59 103.33 222.54 103.51 222.05 103.61 222.61 103.79 223.44 103.78 223.93 103.56 225.37 103.6 225.77 103.83 226.41 103.99 228.75 104.05 229.58 104.36 229.87 104.33 230.05 104.42 231.52 104.41 231.7 104.52 232.79 104.54 233.69 104.96 234.08 105.04 237.34 105.03 237.91 104.93 238.05 104.83 238.84 104.85"/>
    <polyline class="cls-3" points="223.59 58.62 224.93 57.97 225.15 58 225.13 58.16 225.36 58.59 225.02 59.11 224.18 59.47 223.29 59.43 223.02 59.26 222.76 58.84 222.79 58.09 223.04 57.75 224.05 57.37 224.47 57.43 225.32 57.87 225.77 58.88 225.72 59.43 225.6 59.65 224.83 60.29 224.58 60.38 224.32 60.31 224.13 60.42 223.34 60.41 223.11 60.14 222.97 59.82 223.03 59.16 223.44 58.37 224.6 57.78 225.05 57.99 225.09 58.33 225.41 58.91 225.35 59.28 224.26 60.37 223.81 60.53 223.31 60.49 222.94 59.85 222.96 59.66 223.4 58.94 223.93 58.41 224.58 58.11 224.6 58.74"/>
    <polyline class="cls-3" points="225.54 58.05 227.71 57.47 228.3 57.5 229.23 57.24 230.13 57.29 230.5 57.18 231.45 57.15 236.75 57.15 238.22 57.43 241.63 57.42"/>
    <polyline class="cls-3" points="254.7 52.91 253.54 52.18 253.05 52.2 252.39 52.49 251.56 53.26 249.77 55.94 249.47 57.34 249.49 58.39 250.08 59.47 250.41 59.74 251.07 59.91 252.11 59.87 253.59 59.47 255.11 58.62 255.37 58.19 256.1 57.5 256.97 56.17 257.52 54.3 257.35 53.49 256.82 52.29 255.79 51.37 254.56 50.85 253.86 51.24 252.85 52.24 252.75 52.51 252.82 53.13 253.16 53.67"/>
    <polyline class="cls-3" points="254.29 57.29 255.36 58.3 255.85 59.11 257.48 60.57 258.45 62.01 258.73 62.11 259.01 62.05"/>
    <polyline class="cls-3" points="251.62 101.14 251.64 99.95 249.8 99.08 249.49 99.15 248.75 99.91 248.26 101.63 247.9 102.41 247.66 103.52 247.7 105.02 248.61 106.85 248.63 107.12 249.46 107.53 250.17 107.47 251.44 106.76 252.66 105.61 253.43 104.41 253.99 102.75 254.59 100.44 254.53 99.65 254.04 98.66 253.83 98.48 252.43 97.83 252.09 97.83 251.8 98.59 251.75 99.97"/>
    <polyline class="cls-3" points="251.53 104.85 252.18 106.35 252.75 106.88 253.04 107.35 253.5 107.59 254.19 107.51"/>
    <polyline class="cls-3" points="250.1 94.44 252.8 93.91 256.47 93.91"/>
    <polyline class="cls-2" points="23.22 31.38 24.12 31.15 24.87 30.71 26.07 30.35 26.7 30.03 27.89 28.3 28.88 26.22 29.03 25.4 29.02 24.79 28.79 24.22 27.7 23.73 27.17 23.75 26.52 24.14 26.22 24.46 26.01 24.49 25.32 25.25 24.52 26.82 24.54 26.96 24.29 27.35 24.38 31.25 24.45 31.23 24.65 31.68 24.93 31.97 26.5 32.71 29.45 32.72 31.58 31.81"/>
    <polyline class="cls-2" points="35.96 28.13 37.26 28.75 38.63 28.71 39.48 28.51 40.42 28.53 40.65 28.64 47.47 28.61 50.31 27.76 50.82 27.8 51.6 27.65 54.62 27.68 55.13 27.85 61.74 27.81 64.71 27.95 69.82 27.9 71.7 28.43 76.53 28.48 76.94 28.65 79.44 28.94 79.59 29.04 81.09 29.01 83.02 29.35 89.04 29.2 89.41 29.42 89.81 29.45 90.05 29.58 91.46 29.55 92.77 29.69 94.19 30.44 95.2 30.69 95.66 30.68 96.67 30.86 98.79 30.94 100.17 31.23 101.09 31.25 101.35 31.42 102.15 31.42 102.32 31.53 104.12 31.52 105.21 31.62 105.85 31.94 107.02 32 108 32.44 108.74 32.45 109.08 32.57 109.78 32.54 109.95 32.65 110.55 32.68 111.84 33.15 112.97 33.3 112.93 33.57"/>
    <polyline class="cls-2" points="112.91 28.52 114.63 29.72 115.42 30.53 116.43 32.23 116.86 32.59 117.32 33.53 116.61 34.33 116.38 34.78 114.46 36.65 113.62 36.92 111.98 37.72 111.57 37.79"/>
    <polyline class="cls-2" points="46.55 29.42 47.47 29.7 48.71 30.29 48.93 30.48 49.37 31.2 50.15 32.04 50.89 33.52 51.2 35.05 51.17 41.15 51 41.69 51.03 42.18 50.87 42.58 50.9 43.22 50.79 43.44 50.81 44.08 50.63 44.44 50.67 44.87 50.56 45.04 50.57 45.5 50.47 45.76 50.34 47.67 49.79 49.47 49.84 49.96 49.74 50.17 49.69 51.08 49.7 54.05 49.53 54.33 49.22 56.06 49.2 62.47 49 63.43 49.01 63.9 48.84 64.16 48.83 66.8 48.67 67.55 48.64 68.63 48.42 68.99 48.47 69.52 48.3 70.32 48.33 70.95 48.21 71.13 48.05 73.9 47.7 75.5 47.73 76.04 47.52 76.93 47.5 78.18 47.38 78.38 47.36 79.94 47.25 80.2 47.27 80.68 47.15 80.88 47.08 83.69 46.96 84.08 46.99 91.33 46.87 91.51 46.85 93.43 46.71 94.9 46.66 95.3 46.51 95.47 46.49 96.69 46.34 97.35 46.35 99.4 46.2 100.74 46.21 102.07 46.09 102.28 46.12 105.92 46.59 106.88 46.84 107.12 48.41 107.86 50.11 108.03 50.48 108.17 50.6 108.42 51.09 108.62 51.38 108.6 51.51 108.48 53.03 108.47 54.07 108.17 55.25 108.16 56.41 107.74 73.52 107.75 74.1 107.8 74.43 108 75.1 108.04 78.67 108.02 79.96 107.83 82.99 107.84 84.16 108.22 84.55 108.57 85.28 108.89 86.65 108.87 87.53 108.42 88.23 108.43 88.42 108.31 88.87 108.34 89.65 108.08 91.12 107.97 91.66 107.65 91.84 107.68 93.22 107.05 93.78 107.09 94.61 106.83 95.61 106.86 95.81 106.75 96.69 106.77 97 106.65 97.54 106.63 98.92 106.64 99.15 106.76 102.12 106.87 104.11 106.86 105.03 106.73 105.24 106.62 105.92 106.64 106.74 106.26 111.88 106.28 112.32 106.51"/>
    <polyline class="cls-2" points="112.19 104.1 113.24 104.84 113.67 104.94 115.65 105.98 116.1 107.01 116.08 108.12 116.04 108.08 115.9 108.31 115.58 109.06 115.62 108.98 115.41 109.05 114.88 109.5 113.76 110.07 113.05 110.28 112.74 110.26"/>
    <polyline class="cls-4" points="95.09 69.52 96 69.52 96.39 69.3 96.68 69.33 96.89 69.17 97.17 69.16 97.82 68.83 97.92 68.67 98.39 68.4 98.86 67.83 99.36 66.84 99.22 66.17 98.96 65.75 97.74 65.14 97.23 65.21 96.03 65.81 94.86 66.87 94.34 67.82 94.38 68.63 94.66 69.12 95.35 69.69 96.53 70.24 96.81 70.2 97.22 70.45 98.11 70.51 98.37 70.67 99.8 70.64 101.96 69.89"/>
    <polyline class="cls-4" points="102.56 66.53 102.84 65.43 103.11 65.09 103.34 63.53 103.66 62.77 103.6 62.56 103.73 62.44 103.77 62.06 103.93 61.83 104.03 61.15 104.5 60.23 104.68 58.9 105.04 58.38 106.09 56.36 106.1 56.06 106.94 54.43 108.62 53.44 110.89 52.39 112.3 52.18 115.27 52.11 115.47 52.21 115.6 52.48"/>
    <polyline class="cls-4" points="115.21 50.22 116.39 50.98 116.89 51.07 117.95 51.58 117.94 51.76 118.13 52.12 118.1 52.47 117.69 53.19 116.88 53.94 116.63 54.03 116.62 53.96 116.41 54.42 116.41 54.64"/>
    <polyline class="cls-4" points="103.36 69.03 104.3 71.17 104.25 74.29 103.98 74.84 104.04 75.37 103.92 75.55 103.93 75.91 103.48 76.98 103.48 78.42 103.31 78.95 103.34 79.51 103.17 79.7 103.2 79.95 103.1 80.08 103.11 80.68 102.95 80.95 102.96 81.21 102.76 81.5 102.79 81.86 102.63 82.04 102.65 82.74 102.54 82.83 102.54 83.08 102.28 83.49 102.31 83.74 102.17 83.92 102.19 84.42 101.93 85.28 101.97 85.55 101.85 85.68 101.87 86.12 101.7 86.43 101.71 86.73 101.45 87.16 101.5 87.52 101.34 87.87 101.36 88.28 101.11 88.93 101.14 89.32 101.03 89.44 100.93 90.08 100.94 94.1 101.11 94.36 101.18 94.88 101.42 95.25 101.35 95.52 101.82 96.47 101.81 96.84 102.44 98.1 102.82 98.45 104.56 99.28 104.88 99.33 109.02 99.31 109.32 99.15 110.37 99.09 110.9 98.93"/>
    <polyline class="cls-4" points="113.65 94.58 112.87 95.09 112.48 95.53 112.23 95.6 112.21 95.54 112.16 96.28 112.63 97.16 113.23 97.65 114.01 98.05 114.68 98.67 115.62 100.22 115.78 100.85 115.1 102.03 114.3 102.39 113.04 102.35 112.81 102.29 112.84 102.21"/>
  </g>
</svg>