<?xml version="1.0" encoding="UTF-8"?>
<svg id="Layer_1" data-name="Layer 1" xmlns="http://www.w3.org/2000/svg" version="1.1" xmlns:xlink="http://www.w3.org/1999/xlink" viewBox="0 0 483 241">
  <defs>
    <style>
      .cls-1 {
        stroke-width: 0px;
      }

      .cls-1, .cls-2, .cls-3, .cls-4, .cls-5 {
        fill: none;
      }

      .cls-2 {
        stroke: #77cfe6;
      }

      .cls-2, .cls-3, .cls-4, .cls-5 {
        stroke-linecap: round;
        stroke-linejoin: round;
        stroke-width: 1.27px;
      }

      .cls-3 {
        stroke: #000;
      }

      .cls-4 {
        stroke: #909090;
      }

      .cls-6 {
        clip-path: url(#clippath);
      }

      .cls-5 {
        stroke: #c23131;
      }
    </style>
    <clipPath id="clippath">
      <rect class="cls-1" x="-6" y="-410" width="514" height="685"/>
    </clipPath>
  </defs>
  <g class="cls-6">
    <polyline class="cls-3" points="73.88 189.92 74.84 192.92 74.83 194.17 75.01 195.3 75.12 197.66 75.4 198.71 75.3 204.03 75.05 205.39 75.02 207.38 74.98 206.09"/>
    <polyline class="cls-3" points="69.57 189.83 70.15 189.61 72.39 189.09 77.84 189.09 79.2 188.88 80.72 188.91 80.77 189.13"/>
    <polyline class="cls-3" points="73.02 197.62 74.09 198.12 74.66 198.22 76.15 198.15 78.15 197.62 78.46 197.64 79.18 197.46 81.24 197.48 81.34 197.73"/>
    <polyline class="cls-3" points="84.65 191.32 84.86 192.51 84.81 202.12 84.7 202.69 84.72 205.52 84.6 205.98 84.63 206.44 84.86 205.83 85.31 203.59 85.45 203.35"/>
    <polyline class="cls-3" points="83.59 190.19 84.95 189.35 87.24 188.64 90.31 188.59 90.44 189.15"/>
    <polyline class="cls-3" points="84.74 197.35 85.59 197.57 86.72 197.52 87.71 197.37 88.26 197.17 89.26 197.12 89.96 196.85 90.23 196.87 90.47 196.74 91.05 196.67"/>
    <polyline class="cls-3" points="90.85 207.49 90.12 208.22 89.48 209.3 89.31 210.3 89.32 210.95 89.65 211.5 90.43 211.95 91.63 211.85 93.03 211.15 93.87 209 93.81 208.25 93.31 207.4 93 207.13 91.5 206.55 90.89 206.6 90.04 207 89.32 207.76 89.18 208.34 89.24 209.01 89.76 209.39 89.91 209.37"/>
    <polyline class="cls-3" points="60.5 180.27 60.6 182.28 61.01 183.84 61.06 185.2 61.1 198.92 61.14 200.41 61.32 201.24 61.27 203.24 61.45 205.06 61.56 210.05 61.67 210.87 61.64 213.01 61.42 213.85 61.46 214.63 61.36 215.12 61.37 217.58 61.48 218.16 61.58 217.87"/>
    <polyline class="cls-3" points="60.2 179.79 62.75 179.79 64.12 179.55 64.98 179.53 65.28 179.42 67.59 179.35 70 179 79.19 178.99 79.95 179.16 81.89 179.13 82.84 178.92 86.6 178.95 86.88 178.83 88.26 178.8 90.79 178.81 91.09 178.92 93.27 179.08 93.53 179.25 94.56 179.26 94.92 179.42 95.93 179.39 96.39 179.55"/>
    <polyline class="cls-3" points="95.68 180.24 96.74 179.92 97.63 179.93 97.99 180.12 99.02 182.3 99.01 183.02 99.18 183.53 99.72 189.17 99.88 189.83 99.95 191.52 100.11 192.29 100.11 194.03 100.29 194.71 100.4 196.94 100.57 197.72 100.82 204.62 101.04 205.81 100.98 208.24 101.03 210.43 101.2 211.62 101.17 213.37 101.26 214.81 101.42 215.12"/>
    <polyline class="cls-3" points="100.7 217.31 100.83 217.87 100.86 220.88 100.51 221.21 99.98 221.41 98.33 221.38 98.05 221.5 89.86 221.42 89.5 221.24 89.1 221.27 87.98 220.94 86.74 220.82 80.21 220.84 79.75 220.78 78.61 220.39 77.87 220.45 77.37 220.28 76.82 220.3 76.41 220.14 75.99 220.16 75.44 220.01 74.88 220.04 74.34 219.81 73.72 219.85 72.11 219.51 69.42 219.36 68.88 219.2 67.67 219.19 67.27 219.08 62.38 219.1 61.15 219.2 58.61 219.19 58.3 219.35 58.13 219.28"/>
    <polyline class="cls-3" points="276.55 195.23 276.56 200.07 276.44 200.45 276.47 201.91 276.25 202.7 276.28 207.13 276.05 210.03 275.94 210.25 275.96 210.83 275.79 211.57"/>
    <polyline class="cls-3" points="276.3 196.18 277.13 195.6 277.53 195.04 278.85 194.49 279.61 194.55 280.32 194.48 281.98 193.69 282.8 193.68 282.82 193.78"/>
    <polyline class="cls-3" points="276.21 202.44 277.43 203.3 277.92 203.41 280.33 203.33 280.76 203.12 281.79 202.92 282.12 202.73 282.57 202.75"/>
    <polyline class="cls-3" points="286.28 195.16 286.26 197.3 285.84 199.63 285.82 200.39 285.2 203.82 285.16 206.22 285.03 206.58 285.16 209.29 285.05 209.39 285.04 209.66"/>
    <polyline class="cls-3" points="286.5 194.89 287.69 193.98 288.54 193.8 290.1 193.15 291.29 193.19 291.42 193.35"/>
    <polyline class="cls-3" points="285.48 203.25 286.57 203.01 287.32 202.97 289.83 202.97 290.01 203.09 290.73 203.06"/>
    <polyline class="cls-3" points="290.51 212 290.91 211.41 291.82 210.41 292.55 209.94 292.88 209.84 293.38 211.23 293.33 213.33 293.22 213.6 293.25 214.6 293.12 214.99 293.15 216.68 293.36 217.31"/>
    <polyline class="cls-3" points="423.45 191.47 423.33 191.81 423.32 192.23 423.51 193.79 423.49 194.44 423.66 195.34 423.62 197.25 423.17 201.07 423.23 202.84 423.11 203.4 423.18 204.58 423.06 205.09 423.13 205.78 423.02 206.23 423.03 207.84 422.74 208.91 422.8 209.7 422.7 210.09 422.77 211.08 423.32 209.37"/>
    <polyline class="cls-3" points="422.08 192.52 422.38 191.84 422.75 191.77 423.81 191.19 423.99 191.21 424.57 190.96 425.34 190.95 426.36 190.69 427.68 190.96 428.95 190.8 429.64 190.95 430.1 190.75 430.89 190.79 431.36 190.74 431.66 190.56 432.13 190.6"/>
    <polyline class="cls-3" points="423.65 200.35 424.45 200.05 424.57 200.21 424.75 200.24 425.15 199.98 425.55 200.02 426.26 199.75 427.06 199.7 427.35 199.82 428.18 199.8 428.67 199.91 429.03 199.72 429.9 199.87 430.87 199.69 431.18 199.55 431.59 199.58"/>
    <polyline class="cls-3" points="437.62 192.39 437.06 191.76 437.29 191.63 437.22 191.68 437.23 195.49 437.12 196.07 437.03 198.03 435.69 206.56 435.27 209.98 435.3 211.14 435.41 211.48 435.54 211.44 436 210.79 436.37 209.71"/>
    <polyline class="cls-3" points="437.62 191.26 438.3 190.7 438.69 190.69 439.1 190.42 439.42 190.39 440.03 190.1 440.31 190.13 440.68 189.99 441.16 189.97 441.74 190.09 442.14 189.97 443.03 190.08 443.74 189.95 444.57 190.08 445.51 189.9 445.95 190.15 446.21 190.08"/>
    <polyline class="cls-3" points="437.21 199.99 438.02 200.09 438.49 199.84 439.01 199.88 439.44 199.73 439.87 199.87 440.3 199.68 440.86 199.82 441.42 199.58 442.48 199.53 442.93 199.38 443.09 199.46 443.2 199.4 443.15 199.73"/>
    <polyline class="cls-3" points="442.26 210.92 443.48 210.38 443.74 210.55 444.31 210.63 444.89 211.02 445.12 211.65 445.13 212.2 444.48 213.68 444.11 214.86 444.12 215.1 444.26 215.26 445.1 215.45 445.4 215.32 446.63 215.19 448.31 214.61 448.6 214.69"/>
    <polyline class="cls-3" points="414.73 181.93 414.58 181.47 414.4 181.38 414.18 181.51 413.96 182.26 413.82 183.81 413.84 184.79 413.73 185.33 413.75 186.58 413.52 187.52 413.3 189.19 413.34 190.17 413.22 191 413.39 196.25 413.38 199.05 413.01 202.71 412.67 209.61 411.91 215.16 411.71 215.92 412.01 219.43 412.34 221.04 412.34 222.5"/>
    <polyline class="cls-3" points="413.81 179.43 415.4 179.35 416.01 179.56 416.62 179.53 420.36 180.37 421.21 180.44 421.81 180.43 422.29 180.3 423.64 180.33 425.47 180.02 426.29 180.05 427.9 179.74 429.78 179.69 431.1 179.71 433.83 180.28 434.4 180.3 436.5 180.28 439.44 179.79 442.4 179.84 443.16 180.07 447.01 180.06 447.4 180.18 455.33 180.15 455.53 180.26 455.85 181.02 455.9 181.74 456.12 182.31 456.09 182.7 456.38 184.99 456.5 187.89 456.49 192.64 456.67 193.14 456.73 194.45 456.99 195.35 456.95 195.92 457.05 196.68 457.04 205.83 457.35 207.97 457.32 208.62 457.49 209.36 457.68 216.4 457.8 216.67 457.93 218.16 458.13 218.76 458.1 222.09 457.93 222.62 457.95 223.03 457.74 223.56 457.75 223.83 457.52 224.35 457.55 225.9 457.44 226.15 457.43 227.21 457.26 227.23 455.79 227.13 455.35 226.86 454.76 226.92 452.12 226.2 451.21 226.2 450.36 225.98 449.87 226.01 448.65 225.7 447.02 225.67 446.39 225.49 444.93 225.43 444.33 225.27 443.45 225.31 443.08 225.2 442.57 225.21 441.65 224.94 441.2 224.99 440.39 224.72 439.27 224.51 436.87 224.42 435.68 224.16 435.11 224.19 434.46 224.03 433.56 224.06 432.76 223.95 432.12 223.74 427.19 223.7 426.33 223.87 425.51 223.9 423.25 224.42 422.71 224.37 420.14 225.04 419.22 224.98 418.52 225.2 414.47 225.17 414.11 224.94 413.68 224.99 413.16 224.9 412.84 224.68"/>
    <line class="cls-3" x1="267.33" y1="188.62" x2="267.35" y2="188.65"/>
    <polyline class="cls-3" points="266.97 182.15 266.48 180.78 266.45 180.2 266.22 180.81 266.14 181.4 266.17 186.46 265.96 189.16 265.98 204.25 265.76 206.26 265.59 209.89 265.62 214.47 266.26 217.24 266.2 217.73 266.32 218.56 266.31 220.61 266.05 221.22 266.06 221.53 265.81 222.15 265.5 223.41 265.54 225.14"/>
    <polyline class="cls-3" points="265.47 179.48 265.71 179.48 267.04 179.69 268.03 180.01 269.31 180.19 273.16 180.49 282.93 180.47 284.27 180.73 289.08 180.78 289.37 180.89 291 180.92 297.95 180.87 299.58 180.43 302.39 180.47"/>
    <polyline class="cls-3" points="303.03 180.78 303.03 183.06 303.09 183.64 303.31 184.36 303.31 185.35 303.64 188.72 304.51 193.26 305.92 201.57 306.06 202.52 306.02 203.29 306.42 206.46 306.48 213.17 306.31 214.33 306.29 216.43 306.12 216.93 306.16 217.76 306.11 218.93 306 219.28 306.02 221.6 305.86 222.69 305.88 223.95 305.7 224.39 305.75 224.89 305.41 225.91 305.42 226.65 305.38 226.6 304.76 226.97 304.14 226.95 303.63 227.06 303.12 227.32 302.71 227.33 301.96 227.58 297.53 228.02 294.21 228.14 281.64 228.12 280.23 227.79 279.49 227.85 277.23 227.6 276.33 227.63 275.79 227.46 275.23 227.48 272.94 226.91 272.02 226.48 270.58 226.11 269.76 225.67 269 225.44 268.64 225.48 268.26 225.22 268.07 225.24 267.5 224.95 266.37 224.86 265.88 225.12 265.48 225.66"/>
    <polyline class="cls-4" points="147.39 194.36 146.9 195.41 146.31 197.29 146.04 198.6 145.89 200.37 145.52 201.5 145.57 204.18 145.92 205.03 146.34 205.8 147.15 206.19 150.26 206.1 151.08 205.89 153.6 205.92 153.24 205.71"/>
    <polyline class="cls-4" points="158.31 203.87 157.32 204.32 156.25 205.29 155.41 206.55 155.15 207.8 155.18 209.35 155.86 210.87 156.38 211.33 156.75 211.46 157.29 211.4 158.17 211.01 159.2 209.45 159.77 207.34 159.71 206.51 159.22 205.2 158.25 204.18 157.15 203.74 155.71 204.9 155.75 205.45 155.88 205.57"/>
    <polyline class="cls-4" points="200.96 196.62 200.38 197.64 200.19 198.31 200.23 198.9 200.1 199.34 200.13 202.14 199.84 203.19 199.86 203.65 199.68 204.36 199.71 206.05 199.88 206.49 199.91 206.95 200.2 207.55 200.8 207.83 201.73 207.79 203.43 207.17 204.16 207.01 206.46 206.95 206.83 207.14"/>
    <polyline class="cls-4" points="209.82 210.05 210.11 208.93 211.6 206.67 211.78 206.22 211.95 206.1 212.13 206.14 212.85 208.3 212.95 211.71 213.06 212.38 213.04 216.05 213.22 216.61 213.47 216.8"/>
    <polyline class="cls-4" points="353.92 195.09 354.33 196.89 354.38 198.86 354.36 200.3 353.82 202.92 353.88 203.98 353.65 205.46 353.68 208.23 353.8 208.36 353.88 208.86 354.14 209.09 354.67 209.32 355.79 209.27 359.14 208.56 360.74 208.16 361.5 207.84 362.13 207.94"/>
    <polyline class="cls-4" points="366.24 206.54 366.36 206 366.58 205.75 366.98 205.48 367.7 205.32 368.34 205.03 368.68 205.08 368.97 205.29 369.4 206.15 369.37 206.43 368.93 207.66 368.33 208.79 366.78 210.74 366.29 211.81 365.45 212.74 365.24 213.34 365.59 213.8 366.65 214.32 368.7 214.81 369.68 215.33 370.58 215.31 372.09 215.75"/>
    <polyline class="cls-4" points="161.29 218.03 159.89 219.35 158.95 219.77 158.35 219.87 157.7 220.17 156.28 220.17 156.19 220.07 155.38 220.03 154.82 219.77 154.25 219.82 153.62 219.77 153.22 219.63 152.41 219.64 151.87 219.36 151.36 219.42 150.94 219.19 149.9 219.19 149.82 219.08 149.18 218.85 147.82 218.79 147.15 218.64 147 218.53 146.12 218.56 145.51 218.47 144.94 218.21 144.67 218.19 143.37 217.54 143.09 217.58 142.82 217.42 142.36 217.33 140.47 216.39 140.17 216.07 140.05 215.78 139.35 215.22 139.13 214.91 137.83 214.24 137.68 214.06 134.77 208.43 134.22 206.96 133.39 205.17 133.21 204.52 133.27 203.87 133.15 203.61 133.16 203.07 132.83 202.26 132.85 201.42 132.73 201.25 132.7 200.15 132.58 199.87 132.61 196.55 132.84 195.88 132.83 195.61 132.97 195.21 132.94 194.8 133.21 194.25 133.18 194.01 134.13 192.12 135.09 191.19 135.44 190.69 137.43 188.73 139.44 187.39 140.75 186.76 146.08 185.16 146.61 185.03 150.62 185.07 152.4 185.68 153.15 186.04 153.87 186.7 154.73 187.18 155.4 187.71 155.68 187.79 157.01 189.04 157.28 189.18 158.49 190.57 158.94 190.82 159.28 191.32 159.87 191.91 160.16 192.45 160.56 192.79 161.33 194.42 162.04 195.39 162.3 195.61 162.8 196.67 163.13 197.86 163.86 199.8 165.75 203.42 165.81 203.88 166.34 205.05 166.99 206.94 167.1 207.89 167.41 208.52 167.61 209.4 167.8 210.53 167.77 213.33 167.39 214.35 167.36 215.51 167.04 216.41 167.07 216.7 166.07 218.74 164.92 219.81 164.64 220.2 163.63 221.06 163.34 221.24 162.47 221.45 161.3 221.41 159.96 220.93 158.9 220.25 158.61 219.87"/>
    <polyline class="cls-4" points="198.25 189.19 195.52 187.83 194.89 187.89 192.22 189.32 190.57 190.78 190.54 190.98 189.28 192.16 189.05 192.61 188.66 193.06 188.3 193.59 187.86 194.63 187.9 194.9 187.49 196.02 187.5 196.94 187.32 197.34 187.14 198.41 187.07 200.03 186.95 200.43 186.98 205.83 187.16 206.31 187.12 206.94 187.45 207.75 188.16 210.21 189.32 213.65 190.11 215.12 190.52 216.25 191.82 218.11 192.25 218.56 193.46 219.28 194.79 220.57 196.41 221.33 196.86 221.83 197.37 221.99 199.02 222.8 200.72 223.43 201.36 223.54 201.92 223.52 202.32 223.68 205.32 223.65 205.72 223.82 208.32 223.83 209.57 223.57 210.24 223.56 212.3 222.85 212.86 222.44 214.61 221.77 215.21 221.37 217.08 220.48 217.45 220.14 218.09 219.87 218.55 219.53 219.01 219.05 219.37 218.92 220.06 218.17 220.19 217.82 220.46 217.53 220.86 216.71 221.09 215.89 221.96 214.87 222.09 214.09 222.56 212.79 222.54 206.11 222.28 205.17 221.76 204.14 221.63 203.28 221.04 201.01 220.21 198.37 219.96 198.42 219.63 198.06 217.41 194.76 216.86 194.28 216.31 193.4 214.44 191.9 212.77 190.87 212.01 190.66 211.3 190.24 209.51 189.71 207.72 189.04 207.12 188.73 206.74 188.78 205.88 188.4 205.7 188.43 205.42 188.3 204.99 188.33 204.16 188 202.66 187.88 202.25 187.71 201.41 187.75 200.41 187.6 198.7 187.61 198.55 187.72 198.18 187.72 197.91 187.87 197.69 187.86 196.43 188.27 196.08 188.51"/>
    <polyline class="cls-4" points="358.89 189.11 358.26 188.72 357.6 188.09 355.38 187.03 353.66 187.03 351.99 187.93 350.69 188.89 350.22 189.04 347.57 191.63 347.44 192.13 346.87 192.56 346.1 193.74 345.22 196.14 344.87 196.67 344.24 198.67 343.91 199.22 343.75 199.92 343.47 200.53 343.48 201.6 343.31 201.87 343.29 208.83 343.41 209.17 343.48 210.65 343.81 211.59 343.9 212.99 344.22 213.84 344.17 214.32 344.39 215.09 344.85 216.41 347.33 220.12 348.5 221.15 350.16 222.4 350.59 222.85 352.12 223.64 356.48 225.17 357.22 225.24 358.45 225.58 359.01 225.53 359.62 225.75 360.07 225.72 360.99 225.92 361.75 225.88 362.17 226 364.67 225.98 365.03 226.09 366.17 226.11 366.43 226.22 371.23 226.24 371.51 226.13 371.92 226.14 372.56 225.88 373.48 225.79 374.04 225.47 374.22 225.5 375.01 225.2 376.58 224.42 376.86 223.96 377.71 223.03 377.98 222.41 378.28 222.05 379.83 218.64 380.28 217.13 380.29 215.33 379.97 214.53 380.02 213.55 379.89 213.15 379.92 210.76 379.72 209.81 379.73 209.27 379.63 209.08 379.64 206.91 379.53 206.64 379.56 205.88 379.33 205.43 379.17 204.22 378.93 203.57 377.2 199.96 373.76 194.98 372.02 193.09 370.91 192.08 370.64 191.98 370.46 191.8 367.86 190.45 366.73 190.12 365.67 189.58 364.52 189.22 362.83 188.37 362.13 188.14 361.14 188.1 360.87 187.94 360.2 187.86 359.76 187.61 359.46 187.65 359.2 187.49 358.19 187.53 357.06 187.85 355.98 188.34 355.28 188.92 354.92 189.45"/>
    <polyline class="cls-2" points="105.45 200.96 107.25 200.54 108.55 200.42 109.8 200.43 110.28 200.54 111.53 201.09 111.89 201.05 112.44 201.27 112.89 201.23 113.71 201.58 114.99 201.55 115.56 201.65 116.2 202 116.7 201.99 116.89 202.15 117.31 202.24 119.33 202.3 119.5 202.41 120.06 202.39 120.24 202.5 121.38 202.48 121.78 202.58 124.43 202.71"/>
    <polyline class="cls-2" points="121.32 196.58 123.1 196.64 124.84 197.39 125.2 197.8 125.98 198.32 126.49 198.87 127.41 200.74 127.42 203.09 126.77 204.58 126.36 204.9 125.17 206.43 123.33 208.2 122.32 208.59 120.85 208.6 120.65 208.45"/>
    <polyline class="cls-2" points="172.24 203.7 173.66 204.06 174.88 204.53 178.94 204.54 179.07 204.64 179.28 204.62 180.55 205.28 181.42 205.19 182.06 204.84"/>
    <polyline class="cls-2" points="180.29 200.43 181.65 200.69 183.07 201.32 183.26 201.67 183.48 201.75 184.22 203.24 184.18 204.31 183.63 205.47 183.01 206.01 182.39 206.89 181.79 207.44 180.93 208.01 180.14 208.83 178.29 209.62"/>
    <polyline class="cls-2" points="228.38 206.5 229.44 206.55 230.35 206.84 230.71 206.81 231.19 207.03 231.57 207 232.17 207.2 233.52 207.26 233.81 207.38 235.76 207.3 236 207.19 236.72 207.22 237.04 207.11 240.45 207.08 241.41 206.77 241.76 206.82 242.59 206.62 246.05 206.55 247.33 206.46 247.62 206.35 255.13 206.37 255.38 206.48 257.8 206.51"/>
    <polyline class="cls-2" points="257.78 202.57 258.81 203.36 259.29 203.95 260.43 204.62 261.17 205.52 262.12 207.26 262.08 208.46 261.66 209.42 260.05 210.51 256.58 212.19 255.3 212.22"/>
    <line class="cls-2" x1="313.49" y1="205.98" x2="331.49" y2="206.01"/>
    <polyline class="cls-2" points="332.42 200.29 336.35 202.21 336.73 202.57 337.59 203.11 338.54 204.08 339.25 205.86 339.3 206.29 339.29 206.99 338.77 208.21 337.91 209.4 336.91 210.38 334.93 211.64 333.35 212.07 332.4 212.04"/>
    <polyline class="cls-2" points="387.78 207.43 387.64 207.37 388.53 207.22 389.46 207.21 390.1 207.05 396.9 207.08 397.77 206.98 400.37 206.99 401.02 207.14 402.08 207.13"/>
    <polyline class="cls-2" points="405.12 201.18 407.72 202.93 408.64 203.82 409.29 204.65 410.44 208.07 410.4 208.63 409.71 210.3 409.06 211.18 408.18 211.76 406.73 212.4 404.11 213.27 401.82 213.34 401.49 213.11 401.62 213.07"/>
    <polyline class="cls-3" points="231.26 13.76 229.81 13.38 229.25 13.45 228.06 13.93 225.64 15.58 224.96 16.29 224.31 17.29 224.14 17.77 224.18 18.69 224.23 18.93 224.73 19.73 226.58 20.8 228.14 21.05 229.85 20.98 232.06 20.51 232.7 20.6"/>
    <polyline class="cls-3" points="238.11 5.43 237.63 6.11 235.8 9.73 235.26 12.75 235.3 14.4 235.18 15.12 235.15 18.32 235.52 19.02 235.47 19.26 235.77 19.78 236.4 20.09 236.99 20.04 238.56 19.56 240.48 18.64 240.88 18.11"/>
    <polyline class="cls-3" points="244.32 7.13 243.79 8.4 242.73 12.51 242.22 13.78 242.13 14.61 241.84 15.47 241.5 17.4 241.54 20.22 241.96 20.22 242.31 20.04 243.08 19.36 244.76 18.18 246 16.51 246.55 16.15 247.47 15.22 247.91 15.03"/>
    <polyline class="cls-3" points="243.59 18.85 244.55 20.19 246.87 21.7 247.42 21.77 249.71 22.53"/>
    <polyline class="cls-3" points="231.76 37.85 230.64 36.68 229.18 36.04 228.08 36.19 226.88 36.79 226.75 37.2 225.92 38.06 225.24 39.32 225.05 40.08 225.09 40.98 226.02 41.89 227.16 42.6 227.57 42.81 228.9 43.13 230.73 43.03 231.47 42.82 233.17 42.83 233.49 43.03 234.56 43.01"/>
    <polyline class="cls-3" points="237.09 30.62 236.75 31.79 236.8 33.7 236.69 34.04 236.71 36.86 236.6 37.32 236.63 39.33 236.85 41.32 237.2 40.83 238.69 39.43 238.76 39.25 240.25 37.69 241.4 37.34 242.32 37.38 243.38 37.9 243.71 38.3 244.53 40.45 244.48 41.75 243.78 43.21 242.85 43.76 241.22 44.26 239.98 44.2 235.98 44.3 235.93 43.81"/>
    <polyline class="cls-3" points="178.83 95.75 177.78 95.46 177.41 95.21 176.92 95.27 174.8 96.26 174.24 96.79 174.14 96.77 173.85 97.19 172.34 98.74 171.56 100.43 171.59 101.6 172.41 103.12 173.03 103.55 173.83 103.75 176.46 103.74 177.16 103.46 177.44 103.49 178.25 103.21 178.68 103.25 179.69 102.77 180.33 102.65 180.61 102.5 181.51 102.41"/>
    <polyline class="cls-3" points="185.3 89.09 185.29 90.75 185.05 91.4 184.78 93.12 184.81 93.67 184.5 95.36 184.55 96.42 184.45 96.9 184.46 99.3 184.62 99.8 184.61 99.73 185.12 99.53 187.59 97.18 188.27 96.79 189.38 96.42 189.66 96.44 190.29 96.8 191.58 98.07 192.13 99.23 192.07 99.76 191.54 100.83 190.29 102.04 188.21 102.56 186.66 102.53 185.07 101.83 185.12 101.61"/>
    <polyline class="cls-3" points="345.07 96.42 344.18 95.88 342.95 95.4 341.38 95.54 339.16 96.55 338.61 97.15 338.01 99.11 338.07 100.2 338.18 100.57 338.38 100.92 339.17 101.47 340.53 101.81 342.47 101.78 344.77 101.05 346.07 100.27 346.77 99.93 346.87 100.04"/>
    <polyline class="cls-3" points="351.68 88.51 351.31 89.47 350.89 91.3 350.23 94.89 349.74 98 349.77 99.45 350.48 98.76 350.75 98.33 351.9 97.27 352.12 96.87 352.71 96.33 353.27 95.53 353.91 94.96 354.6 94.63 355.16 94.69 355.79 95.09 357.17 96.42 357.91 98.23 357.87 98.64 357.32 99.96 356.43 100.83 356.26 101.12 354.29 102.36 353.6 102.58 352.63 102.52 351.63 102.1 350.39 101.2 349.87 100.65 349.65 100.26 349.26 100.07"/>
    <polyline class="cls-5" points="238.45 22.61 238.13 23.6 238.2 24.42 238.08 24.55 238.08 24.89 237.53 25.72 237.97 26.52 237.89 27.06 237.97 27.64 237.97 28.47 237.61 28.87 237.7 28.86 237.64 29.16 237.52 28.94 237.52 28.68 237.93 28.02"/>
    <polyline class="cls-4" points="239.4 28 239.09 27.08 238.59 26.28 238.05 25.91 237.45 25.72 236.03 25.01 234.13 25.05 233.99 25.16 231.76 25.77 231.2 26.05 229.61 26.48 228.59 27.06 227.36 27.36 226.53 28.03 225.14 28.76 224.46 29.47 224 29.74 223.12 30.51 219.48 34.12 218.93 35.11 218.38 35.69 217.47 37.74 217.5 39.79 217.74 40.1 217.92 40.77 219.21 42.42 220.4 43.54 220.74 43.75 222.05 44.34 223.99 45.01 225.49 45.41 229.59 46.95 236.2 48.72 237.08 48.78 238.26 49.01 241.02 48.99 241.89 48.76 244.07 48.76 246.58 48.05 247.73 47.42 250.99 45.11 251.69 44.39 252.58 42.76 253.16 42.11 253.53 41.09 253.54 38.29 252.85 35.95 252.35 35.37 251.55 34.77 250.32 33.17 249.31 32.26 247.29 30.82 245.96 30.29 243.24 29.43 242.21 29.12 240.64 28.85 238.37 28.07 236.91 27.78 236.56 27.47 235.29 27.11 234.97 26.92"/>
    <polyline class="cls-4" points="187.69 82.87 186.78 81.88 185.42 81.28 180.97 81.23 180.28 81.51 179.25 81.55 175.27 82.69 172.97 83.53 170.08 85.32 168.33 86.55 167.77 87.09 166.95 88.15 165.84 88.96 165.62 89.4 164.79 90.2 164.37 91.2 164.09 91.49 163.27 93.61 162.77 94.54 162.35 95.8 162.35 96.33 162.19 96.86 162.21 98.83 162.5 99.5 162.51 99.9 164.05 103.35 165.17 105.19 167.32 106.43 170.39 107.49 173.19 108.25 174.12 108.48 175.24 108.53 175.89 108.79 178 109.32 180.94 109.28 184.3 108.43 185.97 107.67 187.07 107.46 189.8 106.11 190.71 105.27 192.48 104.33 193.24 103.68 193.85 103.39 196.31 101.13 197.47 99.58 197.87 99.19 199.14 96.51 200.31 92.3 200.1 90.2 199.58 88.36 199.27 88.11 198.07 86.33 197.32 85.66 195.75 84.8 194.31 84.28 186.67 82.98 181.31 82.97 181.29 83.22"/>
    <polyline class="cls-4" points="354.58 85.11 354.38 84.24 354.09 83.75 351.71 82.57 351.25 82.44 347.08 82.49 344.33 83.11 342.7 83.7 341.34 84.01 340.41 84.47 338.34 85.25 337.6 85.78 336.87 86.11 336.06 86.76 335.29 87.22 334.38 88.24 332.36 89.77 331.37 90.88 330.64 91.51 329.72 92.72 328.42 93.91 326.82 95.71 326.02 97.3 325.97 99.36 326.46 100.32 328.36 101.9 329.99 102.76 330.72 102.99 331.42 103.41 333.6 103.96 334.02 104.44 334.39 104.69 335.69 104.93 341.8 106.69 344.32 107.12 347.23 107.09 347.7 106.98 348.39 106.99 350 106.64 351.38 106.43 351.79 106.45 353.16 106.1 354.96 106.02 357.09 105.53 358.18 105.53 358.92 105.31 359.28 105.32 360.09 105.13 360.8 105.17 364.67 103.92 366.28 103.07 367.56 101.78 368.25 100.4 368.56 99.32 368.53 96.86 367.8 94.86 367.14 93.75 365.41 91.28 363.54 89.88 362.7 89.01 361.15 87.75 360.04 87.07 359.77 86.71 358.42 85.58 357.73 84.79 357.13 84.5 355.58 83.47 353.6 82.8 352.72 82.35 351.56 81.58 350.88 81.37 349.83 80.84 349.03 81 348.63 81.45 348.56 81.67"/>
    <polyline class="cls-5" points="231.7 49.7 231.74 49.77 230.58 50.5 228.12 52.96 227.29 53.52 226.38 54.44 225.41 55.06 224.35 56.13 223.75 56.49 221.59 58.59 220.33 59.47 219.89 59.94 217.64 61.8 217.01 62.21 214.89 64.26 214.43 64.53 212.34 66.5 211.34 67.58 209.98 68.73 207.62 71.1 205.54 72.88 203.72 74.71 203.35 75.3 202.17 76.28 201.4 76.75 199.03 79.13 198.88 79.4 198.39 79.79 198.23 80.06 197.42 80.78 197.04 81.32 193.93 84.27 193.57 84.36 193.72 84.35 194.03 84.12"/>
    <polyline class="cls-5" points="231.29 49.1 231.82 50.09 232.27 50.46 232.38 50.79 232.93 51.45 233.4 51.94 234.01 52.38 234.15 52.64 234.36 52.71 234.51 53.03 234.79 53.17 234.97 53.58 235.57 54.18 235.81 54.56 236.21 54.8 237.14 55.73 237.59 55.83 238.41 56.21 238.78 56.63 239.48 56.87 241.03 57.65 242.14 58.81 242.75 59.02 243.55 59.51 244.2 59.76 245.58 60.64 248.01 61.8 248.55 61.91 249.99 62.56 252.31 63.36 254.76 64.7 255.53 65.23 257.22 66 259.76 67.44 262.54 68.77 264.16 69.27 265.52 69.97 266.42 70.21 268.01 70.82 268.7 70.92 273.19 72.94 278.28 74.18 279.81 75.02 280.1 75.09 280.61 75.45 281.25 75.66 281.49 75.84 282.42 76.09 283.4 76.7 284.02 76.85 284.78 77.26 285.6 77.48 286.72 78.06 287.09 78.06 287.64 78.39 289.98 79.42 290.8 79.59 291.2 79.84 291.41 79.83 292.41 80.19 292.88 80.16 293.56 80.53 293.84 80.49 294.4 80.62 294.52 80.73 294.41 80.88 294.79 80.95 295.96 81.52 296.71 81.7 297.54 81.67 298.16 81.94 298.75 81.94 299.14 82.27 299.86 82.59 300.12 82.58 301.17 82.91 301.84 82.88 302.08 83.05 303.22 83.02 303.63 83.27 304.76 83.62 306.4 83.73 307.32 83.98 308.19 84 309.18 84.23 312.23 84.27 312.5 84.44 314.12 84.68 314.61 84.99 315.17 84.93 315.96 85.18 316.91 85.16 317.37 85.38 317.65 85.35 318.08 85.55 318.36 85.52 319.48 86.1 319.8 86.11 320.28 86.36 320.45 86.34 323.44 87.77 323.94 88.24 324.64 88.57 324.73 88.76 325.26 89.21"/>
    <polyline class="cls-5" points="364.98 108.48 366.25 109.55 368.16 110.76 369.04 111.55 371.28 113.06 373.3 114.23 374.07 114.9 375.78 116.74 377.23 117.64 380.08 119.11 380.97 119.77 382.92 120.87 383.77 121.52 386.77 123.07 388.03 123.56 389.29 124.42 392.82 125.94 394.12 126.74 395.65 127.98 399.18 129.69 401.24 130.57 402.85 131.48 404.02 132.01 406.45 133.85 407.31 134.35 408.24 135.08 409.02 135.46 410.1 136.34 411.06 136.88 412.2 137.75 414.21 139.07 414.89 139.72 417.2 140.87 418.12 141.6 418.73 142.28 419.32 142.6 420.12 143.48 420.54 143.71 421.41 144.54 422.35 145.27 422.94 145.57 423.72 146.4 424.18 147.06 424.74 147.6 425.03 148.11 425.32 149.08 425.76 149.74 426.94 153.03 426.89 153.46 427.94 157.21 427.95 158.59 428.12 159.39 428.08 160.33 428.39 161.26 428.36 161.75 428.53 162.09 428.51 162.64 428.67 163.4 429.06 164.12 429.02 164.39 429.37 165.38 429.33 165.71 429.5 166.08 429.52 169 429.25 169.93 429.2 171.54 429.08 171.89 429.11 172.83 428.77 173.46 428.57 174.25 428.51 176 428.38 176.27 428.42 177.03 428.41 176.92 428.53 176.95"/>
    <polyline class="cls-5" points="191.92 106.19 193.85 106.7 194.53 107.28 196.65 108.44 198.1 109.41 200.98 110.05 201.84 110.57 203.37 111.15 207.1 113.11 207.51 113.18 208.16 113.56 208.87 113.74 209.27 114.04 211.16 114.78 211.58 115.08 212.77 115.56 213.68 116.27 215.89 117.68 219 118.71 219.81 118.89 220.61 119.27 221.23 119.38 223.56 120.4 224.71 120.76 226.26 121.56 226.77 121.65 228.07 122.28 228.44 122.35 231.92 123.77 233.77 124.69 234.19 124.95 235.33 126.08 236.34 126.67 237.98 127.83 239.44 128.38 242.01 129.74 245.49 132.48 247.33 134.29 248.01 134.83 250.27 136.32 251.92 137.61 252.66 137.99 254.06 138.97 254.77 139.68 255.5 140.19 256.08 140.85 257.58 141.98 259.43 143.76 260.68 145.3 261.87 146.12 263 147.36 265.09 149.38 265.81 149.78 266.44 150.4 266.77 151.08 267.22 151.45 267.76 152.15 268.7 153.9 271.55 157.96 271.91 158.66 274.36 161.69 274.86 163.28 276.61 166.71 276.56 167.06 276.66 167.61 276.88 168.06 276.88 168.68 277.05 169.04 277.26 171.35 277.54 171.8 277.49 172.25 277.76 172.71 277.82 173.21 278.54 174.57 278.69 176.17 279.03 176.73 278.99 176.61 279.24 176.21"/>
    <polyline class="cls-5" points="161.77 105.19 160.1 104.81 159.34 104.88 155.76 105.8 154.63 106.39 152.8 106.99 150.61 108.3 148.01 109.37 147.67 109.66 145.61 110.75 142.37 112.81 141.67 113.4 141 113.76 140.03 114.51 138.81 115.67 134.83 118.55 131.92 121.11 129.13 123.11 128.57 123.66 127.87 124.06 126.91 125.01 125.83 125.78 124.89 126.31 123.61 127.61 121.67 128.97 118.27 131.7 116.63 133.31 114.58 134.7 111.31 137.41 110.15 138.14 109.79 138.59 108.22 140 106.87 140.89 105.32 142.28 104.71 142.65 104.01 143.5 102.47 144.86 101.24 146.13 100.87 146.25 100.06 146.97 98.8 147.87 97.2 149.52 96.49 150.08 96.25 150.63 95.88 151.01 95.56 151.61 94.36 152.43 94.1 152.71 93.73 153.38 93.06 154.22 92.82 154.33 92.65 154.77 92.2 155.17 92.12 155.51 91.64 156.15 91.36 156.28 91.15 156.6 90.8 156.89 90.7 157.21 90.49 157.21 90.23 157.47 90.11 157.85 89.47 158.48 89.41 158.73 89.08 158.82 88.91 159.15 88.04 160.01 88.01 160.16 86.2 161.85 85.7 162 85.41 162.68 85.09 162.85 84.82 163.37 84.4 163.67 84.35 163.91 84.03 164.29 82.92 166.37 82.23 166.89 82.09 167.39 80.78 169.92 80.77 170.57 80.52 171.05 80.53 171.32 80.32 171.62 80.3 171.95 80.14 172.14 80.17 172.42 80.01 172.78 80.04 173.32 79.93 173.45 79.85 174.86 79.7 175.15 79.61 177.28"/>
  </g>
</svg>