<?xml version="1.0" encoding="UTF-8"?>
<svg id="Layer_1" data-name="Layer 1" xmlns="http://www.w3.org/2000/svg" version="1.1" xmlns:xlink="http://www.w3.org/1999/xlink" viewBox="0 0 483 156">
  <defs>
    <style>
      .cls-1 {
        stroke-width: 0px;
      }

      .cls-1, .cls-2, .cls-3, .cls-4, .cls-5 {
        fill: none;
      }

      .cls-2 {
        stroke: #77cfe6;
      }

      .cls-2, .cls-3, .cls-4, .cls-5 {
        stroke-linecap: round;
        stroke-linejoin: round;
        stroke-width: 1.27px;
      }

      .cls-3 {
        stroke: #000;
      }

      .cls-4 {
        stroke: #909090;
      }

      .cls-6 {
        clip-path: url(#clippath);
      }

      .cls-5 {
        stroke: #c23131;
      }
    </style>
    <clipPath id="clippath">
      <rect class="cls-1" x="-6" y="-254" width="514" height="685"/>
    </clipPath>
  </defs>
  <g class="cls-6">
    <polyline class="cls-3" points="68.57 109.57 69.52 112.57 69.52 113.83 69.69 114.96 69.8 117.31 70.08 118.37 69.98 123.69 69.73 125.05 69.71 127.04 69.66 125.75"/>
    <polyline class="cls-3" points="64.26 109.49 64.84 109.26 67.08 108.75 72.53 108.74 73.88 108.54 75.41 108.56 75.46 108.78"/>
    <polyline class="cls-3" points="67.7 117.28 68.78 117.78 69.34 117.88 70.84 117.81 72.83 117.27 73.14 117.3 73.86 117.12 75.93 117.14 76.03 117.39"/>
    <polyline class="cls-3" points="79.33 110.98 79.55 112.17 79.5 121.78 79.38 122.35 79.41 125.18 79.29 125.64 79.32 126.1 79.55 125.49 80 123.25 80.13 123.01"/>
    <polyline class="cls-3" points="78.28 109.85 79.63 109.01 81.93 108.3 85 108.25 85.12 108.81"/>
    <polyline class="cls-3" points="79.43 117.01 80.28 117.23 81.41 117.17 82.39 117.03 82.94 116.83 83.95 116.77 84.65 116.51 84.92 116.53 85.15 116.4 85.74 116.33"/>
    <polyline class="cls-3" points="85.54 127.15 84.81 127.88 84.16 128.96 83.99 129.96 84.01 130.61 84.34 131.16 85.12 131.61 86.31 131.51 87.71 130.8 88.55 128.66 88.49 127.91 88 127.06 87.68 126.78 86.19 126.21 85.58 126.26 84.73 126.66 84.01 127.42 83.87 128 83.93 128.67 84.44 129.05 84.59 129.03"/>
    <polyline class="cls-3" points="55.19 99.93 55.28 101.93 55.7 103.49 55.74 104.86 55.78 118.58 55.83 120.07 56 120.9 55.96 122.9 56.13 124.72 56.24 129.71 56.36 130.53 56.33 132.67 56.11 133.5 56.15 134.29 56.04 134.78 56.06 137.23 56.16 137.81 56.27 137.53"/>
    <polyline class="cls-3" points="54.88 99.45 57.44 99.45 58.81 99.21 59.66 99.18 59.96 99.08 62.28 99.01 64.69 98.66 73.87 98.65 74.63 98.82 76.57 98.78 77.53 98.58 81.28 98.6 81.56 98.49 82.94 98.46 85.48 98.47 85.77 98.58 87.95 98.74 88.22 98.9 89.24 98.92 89.6 99.08 90.62 99.05 91.08 99.21"/>
    <polyline class="cls-3" points="90.36 99.9 91.43 99.58 92.32 99.59 92.68 99.77 93.7 101.95 93.7 102.68 93.87 103.19 94.41 108.83 94.56 109.49 94.63 111.17 94.79 111.95 94.79 113.68 94.98 114.36 95.08 116.6 95.25 117.38 95.51 124.28 95.72 125.46 95.67 127.89 95.72 130.08 95.89 131.28 95.86 133.03 95.95 134.46 96.11 134.77"/>
    <polyline class="cls-3" points="95.38 136.97 95.51 137.53 95.55 140.54 95.2 140.87 94.66 141.07 93.01 141.03 92.73 141.15 84.55 141.08 84.18 140.9 83.79 140.93 82.67 140.59 81.42 140.48 74.89 140.5 74.43 140.44 73.29 140.05 72.55 140.1 72.06 139.94 71.51 139.96 71.1 139.79 70.67 139.81 70.13 139.67 69.57 139.69 69.03 139.47 68.41 139.51 66.8 139.17 64.1 139.02 63.57 138.86 62.36 138.84 61.96 138.74 57.06 138.75 55.83 138.86 53.29 138.84 52.99 139.01 52.82 138.94"/>
    <polyline class="cls-3" points="271.24 114.89 271.24 119.73 271.13 120.1 271.15 121.56 270.93 122.36 270.97 126.79 270.73 129.68 270.63 129.91 270.65 130.49 270.47 131.22"/>
    <polyline class="cls-3" points="270.99 115.84 271.81 115.25 272.22 114.7 273.54 114.15 274.3 114.2 275 114.13 276.67 113.34 277.49 113.34 277.51 113.44"/>
    <polyline class="cls-3" points="270.9 122.1 272.11 122.96 272.61 123.07 275.02 122.99 275.45 122.78 276.48 122.58 276.8 122.38 277.26 122.41"/>
    <polyline class="cls-3" points="280.96 114.82 280.94 116.96 280.52 119.29 280.51 120.05 279.88 123.47 279.84 125.87 279.72 126.24 279.85 128.95 279.73 129.05 279.73 129.31"/>
    <polyline class="cls-3" points="281.19 114.55 282.37 113.64 283.23 113.46 284.78 112.81 285.98 112.85 286.1 113.01"/>
    <polyline class="cls-3" points="280.17 122.91 281.26 122.67 282.01 122.62 284.51 122.63 284.7 122.74 285.42 122.72"/>
    <polyline class="cls-3" points="285.2 131.66 285.59 131.07 286.51 130.06 287.23 129.59 287.56 129.5 288.07 130.89 288.02 132.99 287.9 133.26 287.93 134.26 287.81 134.65 287.83 136.34 288.05 136.97"/>
    <polyline class="cls-3" points="418.14 111.13 418.01 111.46 418.01 111.89 418.2 113.45 418.18 114.1 418.34 115 418.31 116.91 417.85 120.72 417.92 122.5 417.8 123.05 417.87 124.24 417.75 124.75 417.82 125.43 417.71 125.89 417.72 127.5 417.43 128.56 417.49 129.36 417.38 129.75 417.46 130.73 418.01 129.03"/>
    <polyline class="cls-3" points="416.77 112.17 417.06 111.5 417.44 111.43 418.49 110.84 418.67 110.87 419.26 110.62 420.03 110.61 421.05 110.35 422.37 110.61 423.64 110.46 424.32 110.6 424.78 110.4 425.57 110.44 426.04 110.4 426.34 110.22 426.82 110.26"/>
    <polyline class="cls-3" points="418.34 120 419.13 119.71 419.26 119.87 419.44 119.9 419.84 119.64 420.24 119.67 420.95 119.41 421.74 119.36 422.04 119.48 422.87 119.46 423.36 119.57 423.71 119.38 424.59 119.52 425.56 119.35 425.87 119.2 426.27 119.24"/>
    <polyline class="cls-3" points="432.31 112.05 431.74 111.41 431.97 111.29 431.91 111.33 431.92 115.15 431.8 115.73 431.71 117.69 430.38 126.21 429.96 129.64 429.99 130.8 430.09 131.14 430.23 131.1 430.68 130.44 431.05 129.37"/>
    <polyline class="cls-3" points="432.31 110.92 432.99 110.36 433.37 110.35 433.78 110.07 434.1 110.05 434.71 109.76 435 109.78 435.37 109.65 435.85 109.63 436.42 109.75 436.82 109.62 437.71 109.74 438.43 109.61 439.26 109.74 440.19 109.56 440.64 109.81 440.9 109.73"/>
    <polyline class="cls-3" points="431.9 119.65 432.7 119.75 433.18 119.5 433.69 119.54 434.12 119.39 434.55 119.53 434.99 119.34 435.55 119.47 436.11 119.24 437.16 119.19 437.61 119.04 437.77 119.11 437.89 119.06 437.83 119.39"/>
    <polyline class="cls-3" points="436.94 130.58 438.17 130.03 438.43 130.2 439 130.29 439.57 130.68 439.8 131.3 439.82 131.86 439.17 133.34 438.8 134.52 438.81 134.75 438.95 134.92 439.79 135.11 440.08 134.98 441.31 134.85 442.99 134.27 443.29 134.35"/>
    <polyline class="cls-3" points="409.42 101.59 409.27 101.13 409.08 101.03 408.87 101.17 408.65 101.92 408.51 103.46 408.53 104.44 408.41 104.99 408.44 106.23 408.2 107.17 407.99 108.85 408.03 109.83 407.91 110.66 408.08 115.9 408.06 118.71 407.7 122.37 407.36 129.26 406.59 134.81 406.4 135.58 406.7 139.09 407.03 140.7 407.02 142.15"/>
    <polyline class="cls-3" points="408.5 99.09 410.09 99.01 410.69 99.22 411.3 99.19 415.04 100.03 415.89 100.1 416.49 100.09 416.98 99.96 418.33 99.99 420.15 99.68 420.98 99.71 422.59 99.4 424.46 99.35 425.79 99.37 428.51 99.94 429.09 99.96 431.18 99.94 434.12 99.45 437.08 99.5 437.85 99.72 441.7 99.72 442.09 99.83 450.02 99.81 450.21 99.92 450.54 100.67 450.59 101.4 450.81 101.97 450.78 102.36 451.06 104.65 451.19 107.55 451.17 112.3 451.36 112.8 451.42 114.11 451.67 115 451.63 115.58 451.74 116.34 451.73 125.49 452.03 127.63 452.01 128.28 452.17 129.01 452.37 136.05 452.48 136.32 452.61 137.81 452.82 138.42 452.78 141.74 452.61 142.28 452.63 142.68 452.42 143.21 452.44 143.49 452.2 144.01 452.23 145.55 452.12 145.81 452.11 146.86 451.94 146.89 450.48 146.78 450.03 146.52 449.45 146.58 446.81 145.86 445.89 145.86 445.05 145.64 444.56 145.67 443.34 145.36 441.7 145.32 441.08 145.15 439.62 145.09 439.02 144.92 438.14 144.97 437.77 144.86 437.26 144.86 436.34 144.6 435.88 144.65 435.08 144.38 433.95 144.17 431.56 144.08 430.36 143.82 429.8 143.85 429.15 143.68 428.24 143.72 427.45 143.61 426.81 143.4 421.87 143.35 421.02 143.53 420.2 143.56 417.93 144.07 417.4 144.03 414.83 144.69 413.91 144.64 413.21 144.86 409.16 144.83 408.8 144.6 408.37 144.65 407.84 144.56 407.53 144.33"/>
    <line class="cls-3" x1="262.02" y1="108.28" x2="262.04" y2="108.3"/>
    <polyline class="cls-3" points="261.66 101.81 261.17 100.44 261.14 99.86 260.9 100.47 260.83 101.06 260.86 106.12 260.64 108.82 260.67 123.91 260.45 125.92 260.28 129.55 260.3 134.12 260.95 136.9 260.89 137.38 261.01 138.22 260.99 140.27 260.73 140.87 260.75 141.18 260.49 141.81 260.19 143.07 260.23 144.8"/>
    <polyline class="cls-3" points="260.16 99.14 260.39 99.14 261.73 99.35 262.72 99.67 263.99 99.85 267.84 100.15 277.61 100.12 278.96 100.39 283.77 100.43 284.06 100.55 285.69 100.58 292.64 100.52 294.27 100.09 297.07 100.12"/>
    <polyline class="cls-3" points="297.72 100.44 297.71 102.72 297.78 103.29 298 104.02 298 105.01 298.32 108.38 299.2 112.92 300.61 121.22 300.75 122.18 300.71 122.95 301.1 126.12 301.16 132.83 301 133.99 300.98 136.09 300.81 136.59 300.85 137.41 300.8 138.59 300.68 138.94 300.7 141.25 300.55 142.34 300.57 143.61 300.39 144.05 300.44 144.55 300.09 145.57 300.11 146.31 300.06 146.25 299.44 146.62 298.82 146.6 298.32 146.72 297.81 146.98 297.39 146.99 296.64 147.24 292.21 147.67 288.9 147.79 276.32 147.78 274.92 147.45 274.18 147.51 271.92 147.26 271.02 147.29 270.47 147.12 269.91 147.14 267.62 146.57 266.71 146.14 265.27 145.77 264.45 145.32 263.69 145.1 263.33 145.14 262.95 144.87 262.75 144.89 262.19 144.6 261.05 144.52 260.56 144.78 260.17 145.31"/>
    <polyline class="cls-4" points="142.08 114.02 141.58 115.07 141 116.95 140.73 118.25 140.57 120.03 140.21 121.16 140.26 123.84 140.61 124.68 141.02 125.46 141.83 125.85 144.94 125.75 145.77 125.55 148.28 125.58 147.93 125.36"/>
    <polyline class="cls-4" points="153 123.53 152 123.98 150.94 124.95 150.09 126.21 149.83 127.46 149.87 129.01 150.55 130.52 151.07 130.98 151.43 131.11 151.97 131.05 152.85 130.67 153.89 129.11 154.46 127 154.4 126.17 153.91 124.86 152.94 123.84 151.84 123.4 150.4 124.56 150.44 125.1 150.56 125.22"/>
    <polyline class="cls-4" points="195.64 116.27 195.06 117.3 194.87 117.97 194.92 118.56 194.78 119 194.81 121.79 194.52 122.85 194.55 123.31 194.36 124.02 194.4 125.71 194.57 126.15 194.59 126.61 194.89 127.2 195.48 127.48 196.42 127.45 198.11 126.83 198.85 126.67 201.15 126.61 201.52 126.8"/>
    <polyline class="cls-4" points="204.51 129.71 204.8 128.58 206.28 126.32 206.46 125.88 206.63 125.75 206.81 125.8 207.54 127.95 207.63 131.37 207.75 132.04 207.73 135.71 207.91 136.27 208.15 136.46"/>
    <polyline class="cls-4" points="348.61 114.75 349.02 116.55 349.07 118.52 349.05 119.95 348.5 122.57 348.56 123.64 348.34 125.12 348.36 127.89 348.48 128.02 348.57 128.52 348.82 128.75 349.35 128.98 350.47 128.92 353.83 128.22 355.43 127.81 356.19 127.5 356.82 127.6"/>
    <polyline class="cls-4" points="360.93 126.2 361.04 125.66 361.27 125.41 361.66 125.13 362.39 124.98 363.03 124.69 363.37 124.73 363.65 124.95 364.08 125.81 364.06 126.09 363.61 127.32 363.01 128.45 361.46 130.4 360.97 131.47 360.13 132.4 359.92 132.99 360.27 133.46 361.33 133.97 363.39 134.47 364.37 134.99 365.27 134.96 366.77 135.41"/>
    <polyline class="cls-4" points="155.98 137.68 154.57 139.01 153.64 139.42 153.04 139.52 152.39 139.82 150.96 139.83 150.87 139.72 150.07 139.69 149.5 139.43 148.94 139.48 148.3 139.42 147.91 139.28 147.1 139.29 146.56 139.02 146.05 139.08 145.63 138.85 144.58 138.85 144.5 138.74 143.87 138.51 142.5 138.44 141.84 138.3 141.69 138.19 140.81 138.22 140.2 138.12 139.63 137.87 139.35 137.85 138.05 137.19 137.77 137.24 137.51 137.08 137.05 136.99 135.15 136.05 134.85 135.73 134.73 135.44 134.04 134.88 133.82 134.57 132.51 133.9 132.37 133.72 129.46 128.09 128.91 126.62 128.08 124.82 127.9 124.18 127.95 123.52 127.83 123.26 127.84 122.73 127.52 121.92 127.53 121.08 127.41 120.91 127.39 119.81 127.27 119.52 127.3 116.2 127.53 115.54 127.51 115.27 127.65 114.87 127.63 114.46 127.9 113.91 127.86 113.67 128.81 111.78 129.78 110.85 130.12 110.34 132.12 108.39 134.13 107.05 135.43 106.41 140.77 104.81 141.3 104.69 145.3 104.72 147.08 105.34 147.83 105.7 148.56 106.35 149.42 106.83 150.08 107.36 150.37 107.45 151.7 108.7 151.97 108.84 153.17 110.23 153.63 110.48 153.97 110.98 154.56 111.57 154.84 112.1 155.25 112.45 156.02 114.07 156.72 115.05 156.99 115.27 157.49 116.33 157.82 117.52 158.55 119.45 160.43 123.08 160.5 123.54 161.03 124.7 161.67 126.6 161.79 127.54 162.1 128.17 162.3 129.06 162.48 130.18 162.45 132.99 162.08 134.01 162.04 135.17 161.72 136.07 161.76 136.36 160.76 138.4 159.61 139.47 159.33 139.86 158.31 140.72 158.03 140.9 157.15 141.11 155.99 141.06 154.64 140.58 153.58 139.9 153.29 139.52"/>
    <polyline class="cls-4" points="192.93 108.85 190.21 107.49 189.57 107.55 186.9 108.98 185.25 110.44 185.22 110.64 183.97 111.82 183.74 112.27 183.34 112.72 182.98 113.25 182.54 114.29 182.58 114.55 182.18 115.67 182.18 116.6 182 117 181.83 118.07 181.76 119.68 181.64 120.08 181.67 125.49 181.85 125.96 181.8 126.6 182.14 127.41 182.84 129.86 184.01 133.3 184.79 134.78 185.2 135.91 186.5 137.77 186.94 138.22 188.15 138.94 189.48 140.23 191.09 140.99 191.54 141.49 192.06 141.65 193.71 142.46 195.41 143.09 196.04 143.2 196.61 143.17 197.01 143.34 200 143.31 200.41 143.48 203 143.49 204.25 143.22 204.92 143.21 206.99 142.51 207.54 142.1 209.3 141.43 209.9 141.03 211.77 140.14 212.14 139.8 212.78 139.52 213.24 139.19 213.7 138.7 214.06 138.58 214.74 137.83 214.88 137.48 215.15 137.19 215.54 136.37 215.77 135.55 216.64 134.53 216.78 133.75 217.24 132.44 217.23 125.76 216.97 124.83 216.44 123.8 216.32 122.94 215.72 120.67 214.9 118.03 214.64 118.08 214.31 117.72 212.09 114.42 211.54 113.94 210.99 113.06 209.12 111.55 207.45 110.53 206.69 110.32 205.99 109.9 204.2 109.37 202.4 108.7 201.81 108.39 201.43 108.44 200.56 108.06 200.38 108.09 200.11 107.96 199.67 107.99 198.85 107.66 197.34 107.54 196.93 107.37 196.1 107.41 195.1 107.26 193.39 107.27 193.24 107.38 192.87 107.38 192.6 107.53 192.38 107.52 191.11 107.93 190.77 108.17"/>
    <polyline class="cls-4" points="353.57 108.76 352.95 108.37 352.29 107.75 350.07 106.69 348.34 106.69 346.67 107.58 345.38 108.54 344.91 108.69 342.25 111.29 342.12 111.78 341.55 112.21 340.78 113.4 339.91 115.8 339.56 116.33 338.92 118.33 338.6 118.88 338.44 119.58 338.16 120.19 338.17 121.26 337.99 121.53 337.98 128.49 338.1 128.83 338.16 130.3 338.49 131.25 338.58 132.65 338.91 133.49 338.86 133.98 339.07 134.75 339.54 136.07 342.02 139.77 343.19 140.81 344.85 142.06 345.28 142.5 346.81 143.3 351.17 144.83 351.91 144.89 353.13 145.24 353.7 145.19 354.3 145.4 354.76 145.38 355.67 145.58 356.43 145.53 356.86 145.65 359.36 145.63 359.72 145.75 360.85 145.77 361.11 145.87 365.91 145.9 366.19 145.79 366.6 145.79 367.25 145.54 368.17 145.45 368.72 145.13 368.9 145.16 369.69 144.86 371.27 144.08 371.55 143.61 372.4 142.68 372.66 142.06 372.97 141.71 374.51 138.3 374.97 136.79 374.98 134.99 374.66 134.19 374.71 133.21 374.58 132.81 374.61 130.42 374.41 129.47 374.42 128.93 374.31 128.73 374.33 126.57 374.21 126.3 374.24 125.54 374.01 125.09 373.85 123.87 373.61 123.23 371.89 119.62 368.45 114.64 366.7 112.75 365.6 111.73 365.32 111.64 365.14 111.45 362.54 110.11 361.42 109.78 360.36 109.23 359.2 108.88 357.51 108.03 356.81 107.8 355.83 107.76 355.55 107.6 354.89 107.52 354.44 107.27 354.15 107.3 353.88 107.15 352.87 107.19 351.75 107.5 350.67 108 349.97 108.57 349.6 109.11"/>
    <polyline class="cls-2" points="100.14 120.62 101.94 120.19 103.24 120.07 104.49 120.09 104.97 120.19 106.22 120.75 106.57 120.71 107.13 120.92 107.57 120.89 108.39 121.24 109.68 121.2 110.25 121.31 110.89 121.66 111.39 121.65 111.57 121.81 111.99 121.9 114.01 121.96 114.19 122.07 114.75 122.05 114.93 122.16 116.06 122.14 116.47 122.24 119.11 122.36"/>
    <polyline class="cls-2" points="116.01 116.24 117.79 116.3 119.53 117.05 119.89 117.45 120.67 117.98 121.17 118.52 122.1 120.4 122.1 122.74 121.46 124.24 121.05 124.55 119.86 126.09 118.01 127.86 117.01 128.24 115.53 128.26 115.34 128.11"/>
    <polyline class="cls-2" points="166.93 123.35 168.35 123.72 169.56 124.19 173.62 124.19 173.75 124.3 173.97 124.28 175.23 124.93 176.11 124.85 176.75 124.5"/>
    <polyline class="cls-2" points="174.98 120.09 176.34 120.34 177.76 120.98 177.95 121.33 178.17 121.41 178.91 122.9 178.86 123.96 178.31 125.13 177.7 125.67 177.08 126.54 176.47 127.1 175.62 127.66 174.83 128.48 172.97 129.28"/>
    <polyline class="cls-2" points="223.06 126.16 224.13 126.21 225.04 126.5 225.4 126.47 225.88 126.69 226.26 126.66 226.85 126.86 228.21 126.92 228.5 127.03 230.45 126.96 230.68 126.85 231.41 126.88 231.73 126.76 235.14 126.74 236.1 126.43 236.44 126.47 237.28 126.27 240.73 126.2 242.02 126.12 242.31 126.01 249.82 126.03 250.07 126.14 252.48 126.16"/>
    <polyline class="cls-2" points="252.46 122.23 253.49 123.02 253.98 123.61 255.11 124.27 255.86 125.17 256.81 126.92 256.77 128.12 256.34 129.07 254.73 130.16 251.26 131.85 249.98 131.88"/>
    <line class="cls-2" x1="308.18" y1="125.63" x2="326.18" y2="125.67"/>
    <polyline class="cls-2" points="327.11 119.95 331.03 121.87 331.41 122.23 332.28 122.76 333.23 123.74 333.93 125.51 333.99 125.95 333.97 126.65 333.45 127.87 332.6 129.06 331.6 130.03 329.62 131.29 328.03 131.73 327.08 131.7"/>
    <polyline class="cls-2" points="382.47 127.08 382.33 127.03 383.21 126.87 384.15 126.87 384.78 126.71 391.59 126.74 392.45 126.64 395.05 126.65 395.71 126.79 396.76 126.79"/>
    <polyline class="cls-2" points="399.81 120.84 402.41 122.58 403.33 123.48 403.98 124.31 405.12 127.73 405.08 128.29 404.39 129.95 403.74 130.83 402.87 131.42 401.41 132.05 398.8 132.92 396.5 133 396.18 132.76 396.31 132.72"/>
    <polyline class="cls-3" points="45.26 30.09 44.1 29.25 43.79 29.35 43.23 29.3 41.89 29.78 39.55 31.34 38.01 33.75 37.4 35.2 37.2 36.42 37.54 37.07 37.95 37.41 38.87 37.86 39.85 38.17 43.96 38.13 44.68 37.91 45 37.92 45.26 37.79 45.82 37.82 47.03 37.48 47.26 37.51"/>
    <polyline class="cls-3" points="49.82 23.12 48.98 24.61 48 27.09 47.55 30.09 47.6 32.12 48.32 35.36 48.99 36.28 49.66 36.93 50.12 37.09"/>
    <polyline class="cls-3" points="54.5 23.38 53.82 24.93 53.39 27.56 53.43 33.51 53.55 33.87 53.62 35.36 53.89 35.8 53.87 35.94 54.25 35.94 54.86 35.5 56.26 33.78 57.43 31.93 58.67 30.73 59.74 29.21 60.31 28.84 60.83 28.33 61.55 27.9"/>
    <polyline class="cls-3" points="57.13 33.58 58.1 34.96 58.75 35.29 60.14 36.3 61.95 37.37"/>
    <polyline class="cls-3" points="67.24 32.37 69.46 33.26 70.27 33.46 71.73 33.44 72.46 33.07 73.4 33 72.65 33.26 71.86 33.21 71.17 33.43 69.74 33.39 69.31 33.57 68.21 33.53 68.04 33.42 67.17 33.25 67.29 33.27 67.68 32.8"/>
    <polyline class="cls-5" points="74.83 33.09 75.66 33.87 76.1 34.48 76.34 34.59 76.91 35.17 77.46 36.08 77.67 36.25 79.21 38.88 80.13 41.06 80.5 42.22 80.5 43.94 80.61 44.31 80.58 45.95 80.7 46.26 80.74 47.23 80.73 49.67 80.62 50.87 80.46 51.55 80.44 52.48 80.34 52.69 80.36 54.01 80.24 54.4 80.17 56.12 80 56.64 79.97 57.62 79.71 58.67 79.67 60.95 79.33 62.21 79.39 64.12 79.22 64.88 79.16 66.78 78.99 67.34 78.89 68 78.94 68.5 78.77 68.99 78.59 70.46 78.46 72.83 78.14 73.75 78.17 74.07 77.83 75.51 77.85 75.87 77.6 76.71 77.59 77.2 76.83 80.34 76.86 80.86 76.59 81.5 76.57 81.98 76.31 82.73 76.27 83.8 75.99 84.59 75.9 85.61 75.73 85.87 75.75 86.32 75.43 87.3 75.5 88.03 75.39 88.27 75.39 88.81 75.11 89.49 75.15 89.83 75.02 90.64 74.86 90.91 74.84 92 74.15 93.98 73.48 95.01"/>
    <polyline class="cls-5" points="75.04 34.31 76.11 35.36 76.44 35.56 77.32 36.44 77.47 36.7 79.62 38.76 80.17 39.02 80.54 39.42 80.91 39.56 81.46 40.15 82.75 40.73 85.95 41.79 87.54 42.77 88.78 43.2 90.49 43.44 93.57 43.39 95.72 43.12 96.97 43.18 99.97 42.98 102.64 43 104.22 43.37 105.03 43.38 105.87 43.52 107.51 43.48 109.9 43.94 110.71 43.95 111.59 44.21 112.59 44.26 118.98 44.3 120.21 44.53 121.55 44.58 135.64 44.65 137.98 44.97 140.52 45.12 145.98 45.9 150.17 46.88 153.9 47.6 156.64 48.54 157.48 48.63 158.85 49 173.28 51.17 174.63 51.12 175.27 51.23 180.02 51.26 189.19 52.46 191.95 52.92 197.88 52.96 201.85 53.25 203.6 53.22 205.59 53.38 210.74 54.07 211.38 54.05 212.55 54.25 213.47 54.27 222.1 55.91 227.52 57.24 234.75 59.62 235.89 59.88 239.75 61.15 241.4 61.58 246.04 63.45 248.57 64.26 250.77 64.66 257.81 66.85 260.98 68.1 262.2 68.72 263.14 69.45 266.77 72.92 268.75 75.87 269.85 80.11 270.49 81.99 270.66 82.75 270.68 84.27 270.8 84.62 270.91 92.44 271.29 93.81 271.23 94.1 271.33 94.38 271.37 95.16 271.59 95.54 271.59 98.99 271.89 99.52"/>
    <line class="cls-5" x1="258.71" y1="66.9" x2="258.68" y2="66.89"/>
    <polyline class="cls-5" points="258.48 67.21 259.59 66.93 260.13 66.63 261.16 66.68 262.44 66.58 262.63 66.47 265.03 66.35 268.23 66.36 269.21 66.46 269.62 66.62 271.88 66.78 272.61 66.98 274.22 66.93 275.69 67.16 276.43 67.13 277.46 67.34 290.64 67.39 293.76 67.38 295.66 67.22 328.53 67.21 330.59 67.1 337.59 66.27 339.53 66.33 341.22 66.09 342.47 66.12 344.64 65.87 345.59 65.88 347.84 65.65 348.97 65.68 350.02 65.53 353.95 65.55 356.12 65.23 364.78 64.26 369.07 63.46 371.27 62.83 371.94 62.82 373.09 62.51 373.99 62.46 374.55 62.31 384.04 62.34 396.78 64.44 399.98 64.82 401.34 64.79 404.37 65.33 408.46 66.13 412.17 67.07 412.41 67.27 415.26 68.63 420.6 71.76 422.01 72.89 423.07 73.94 423.69 74.31 425.82 76.18 426.01 76.52 428 78.54 428.46 79.28 429.35 80.07 430.01 81.16 431.43 84.04 432 86.13 432.06 89.74 432.05 90.84 431.81 91.23 431.08 93.42 431.14 93.77 431.02 93.97 431.02 94.27 430.17 96.41 430.21 96.6 429.69 97.13 429.87 97.65 429.27 98.7"/>
  </g>
</svg>