<?xml version="1.0" encoding="UTF-8"?>
<svg id="Layer_1" data-name="Layer 1" xmlns="http://www.w3.org/2000/svg" version="1.1" xmlns:xlink="http://www.w3.org/1999/xlink" viewBox="0 0 514 108">
  <defs>
    <style>
      .cls-1 {
        stroke-width: 0px;
      }

      .cls-1, .cls-2, .cls-3, .cls-4 {
        fill: none;
      }

      .cls-2 {
        stroke: #77cfe6;
      }

      .cls-2, .cls-3, .cls-4 {
        stroke-linecap: round;
        stroke-linejoin: round;
        stroke-width: 1.27px;
      }

      .cls-3 {
        stroke: #000;
      }

      .cls-4 {
        stroke: #909090;
      }

      .cls-5 {
        clip-path: url(#clippath);
      }
    </style>
    <clipPath id="clippath">
      <rect class="cls-1" y="-77" width="514" height="685"/>
    </clipPath>
  </defs>
  <g class="cls-5">
    <polyline class="cls-3" points="84.21 41.74 85.16 44.74 85.16 46 85.33 47.12 85.44 49.48 85.72 50.53 85.62 55.85 85.37 57.21 85.35 59.2 85.3 57.91"/>
    <polyline class="cls-3" points="79.9 41.66 80.48 41.43 82.72 40.91 88.17 40.91 89.52 40.71 91.05 40.73 91.1 40.95"/>
    <polyline class="cls-3" points="83.34 49.44 84.42 49.94 84.98 50.05 86.48 49.97 88.47 49.44 88.78 49.47 89.5 49.29 91.57 49.3 91.67 49.56"/>
    <polyline class="cls-3" points="94.97 43.14 95.19 44.33 95.14 53.94 95.02 54.51 95.05 57.35 94.93 57.81 94.96 58.26 95.19 57.65 95.64 55.41 95.77 55.18"/>
    <polyline class="cls-3" points="93.92 42.01 95.27 41.18 97.57 40.46 100.64 40.42 100.76 40.98"/>
    <polyline class="cls-3" points="95.07 49.18 95.92 49.39 97.05 49.34 98.03 49.19 98.58 48.99 99.59 48.94 100.29 48.67 100.56 48.69 100.79 48.56 101.38 48.49"/>
    <polyline class="cls-3" points="101.18 59.32 100.44 60.04 99.8 61.12 99.63 62.12 99.65 62.78 99.98 63.33 100.76 63.77 101.95 63.67 103.35 62.97 104.19 60.83 104.13 60.07 103.64 59.22 103.32 58.95 101.83 58.37 101.22 58.43 100.37 58.82 99.65 59.58 99.51 60.16 99.57 60.83 100.08 61.21 100.23 61.19"/>
    <polyline class="cls-3" points="70.83 32.09 70.92 34.1 71.34 35.66 71.38 37.02 71.42 50.75 71.47 52.24 71.64 53.06 71.6 55.06 71.77 56.88 71.88 61.88 72 62.69 71.97 64.83 71.75 65.67 71.79 66.45 71.68 66.94 71.7 69.4 71.8 69.98 71.91 69.69"/>
    <polyline class="cls-3" points="70.52 31.61 73.08 31.62 74.45 31.37 75.3 31.35 75.6 31.24 77.92 31.17 80.33 30.83 89.51 30.81 90.27 30.98 92.21 30.95 93.17 30.74 96.92 30.77 97.2 30.65 98.58 30.63 101.12 30.63 101.41 30.74 103.59 30.9 103.86 31.07 104.88 31.08 105.24 31.25 106.26 31.21 106.72 31.38"/>
    <polyline class="cls-3" points="106 32.06 107.07 31.74 107.96 31.75 108.32 31.94 109.34 34.12 109.34 34.84 109.51 35.35 110.05 40.99 110.2 41.66 110.27 43.34 110.43 44.11 110.43 45.85 110.62 46.53 110.72 48.76 110.89 49.54 111.15 56.45 111.36 57.63 111.31 60.06 111.36 62.25 111.53 63.44 111.5 65.19 111.59 66.63 111.75 66.94"/>
    <polyline class="cls-3" points="111.02 69.13 111.15 69.7 111.19 72.7 110.84 73.03 110.3 73.23 108.65 73.2 108.37 73.32 100.19 73.24 99.82 73.07 99.43 73.09 98.31 72.76 97.06 72.64 90.53 72.66 90.07 72.6 88.93 72.21 88.19 72.27 87.7 72.1 87.15 72.12 86.74 71.96 86.31 71.98 85.77 71.83 85.21 71.86 84.67 71.64 84.05 71.68 82.44 71.33 79.74 71.18 79.21 71.02 78 71.01 77.6 70.91 72.7 70.92 71.47 71.02 68.93 71.01 68.63 71.17 68.46 71.1"/>
    <polyline class="cls-3" points="286.88 47.05 286.88 51.89 286.77 52.27 286.79 53.73 286.57 54.53 286.61 58.95 286.37 61.85 286.27 62.07 286.29 62.65 286.11 63.39"/>
    <polyline class="cls-3" points="286.63 48.01 287.45 47.42 287.86 46.86 289.18 46.31 289.94 46.37 290.64 46.3 292.31 45.51 293.13 45.51 293.15 45.61"/>
    <polyline class="cls-3" points="286.54 54.27 287.75 55.13 288.25 55.23 290.66 55.15 291.09 54.94 292.12 54.74 292.44 54.55 292.9 54.57"/>
    <polyline class="cls-3" points="296.6 46.98 296.58 49.12 296.16 51.45 296.15 52.22 295.52 55.64 295.48 58.04 295.36 58.4 295.49 61.11 295.37 61.21 295.37 61.48"/>
    <polyline class="cls-3" points="296.83 46.71 298.01 45.8 298.87 45.62 300.42 44.97 301.62 45.01 301.74 45.17"/>
    <polyline class="cls-3" points="295.81 55.07 296.9 54.83 297.65 54.79 300.15 54.8 300.34 54.91 301.06 54.89"/>
    <polyline class="cls-3" points="300.84 63.83 301.23 63.23 302.15 62.23 302.87 61.76 303.2 61.66 303.71 63.05 303.66 65.15 303.54 65.42 303.57 66.43 303.45 66.81 303.47 68.51 303.69 69.13"/>
    <polyline class="cls-3" points="433.78 43.29 433.65 43.63 433.65 44.05 433.84 45.62 433.82 46.27 433.98 47.16 433.95 49.07 433.49 52.89 433.56 54.66 433.44 55.22 433.51 56.4 433.39 56.91 433.46 57.6 433.35 58.06 433.36 59.67 433.07 60.73 433.13 61.53 433.02 61.91 433.1 62.9 433.65 61.19"/>
    <polyline class="cls-3" points="432.41 44.34 432.7 43.66 433.08 43.59 434.13 43.01 434.31 43.03 434.9 42.78 435.67 42.78 436.69 42.51 438.01 42.78 439.28 42.62 439.96 42.77 440.42 42.57 441.21 42.61 441.68 42.56 441.98 42.38 442.46 42.43"/>
    <polyline class="cls-3" points="433.98 52.17 434.77 51.87 434.9 52.04 435.08 52.06 435.48 51.8 435.88 51.84 436.59 51.58 437.38 51.53 437.68 51.65 438.51 51.63 439 51.74 439.35 51.54 440.23 51.69 441.2 51.51 441.51 51.37 441.91 51.41"/>
    <polyline class="cls-3" points="447.95 44.22 447.38 43.58 447.61 43.46 447.55 43.5 447.56 47.32 447.44 47.89 447.35 49.85 446.02 58.38 445.6 61.81 445.63 62.96 445.73 63.3 445.87 63.26 446.32 62.61 446.69 61.54"/>
    <polyline class="cls-3" points="447.95 43.08 448.63 42.52 449.01 42.51 449.42 42.24 449.74 42.22 450.35 41.92 450.64 41.95 451.01 41.81 451.49 41.79 452.06 41.92 452.46 41.79 453.35 41.9 454.07 41.77 454.9 41.91 455.83 41.72 456.28 41.97 456.54 41.9"/>
    <polyline class="cls-3" points="447.54 51.81 448.34 51.91 448.82 51.67 449.33 51.71 449.76 51.55 450.19 51.69 450.63 51.5 451.19 51.64 451.75 51.4 452.8 51.35 453.25 51.2 453.41 51.28 453.53 51.22 453.47 51.55"/>
    <polyline class="cls-3" points="452.58 62.75 453.81 62.2 454.07 62.37 454.64 62.45 455.21 62.84 455.44 63.47 455.46 64.02 454.81 65.5 454.44 66.68 454.45 66.92 454.59 67.08 455.43 67.27 455.72 67.14 456.95 67.01 458.63 66.43 458.93 66.51"/>
    <polyline class="cls-3" points="425.06 33.75 424.91 33.3 424.72 33.2 424.51 33.33 424.29 34.08 424.15 35.63 424.17 36.61 424.05 37.15 424.08 38.4 423.84 39.34 423.63 41.01 423.67 41.99 423.55 42.83 423.72 48.07 423.7 50.87 423.34 54.53 423 61.43 422.23 66.98 422.04 67.75 422.34 71.26 422.67 72.86 422.66 74.32"/>
    <polyline class="cls-3" points="424.14 31.25 425.73 31.17 426.33 31.39 426.94 31.35 430.68 32.2 431.53 32.26 432.13 32.25 432.62 32.13 433.97 32.16 435.79 31.84 436.62 31.87 438.23 31.57 440.1 31.52 441.43 31.53 444.15 32.11 444.73 32.12 446.82 32.11 449.76 31.61 452.72 31.66 453.49 31.89 457.34 31.88 457.73 32 465.66 31.97 465.85 32.08 466.18 32.84 466.23 33.56 466.45 34.13 466.42 34.52 466.7 36.82 466.83 39.71 466.81 44.47 467 44.96 467.06 46.28 467.31 47.17 467.27 47.74 467.38 48.5 467.37 57.65 467.67 59.79 467.65 60.44 467.81 61.18 468.01 68.22 468.12 68.49 468.25 69.98 468.46 70.58 468.42 73.91 468.25 74.44 468.27 74.85 468.06 75.38 468.08 75.65 467.84 76.17 467.87 77.72 467.76 77.97 467.75 79.03 467.58 79.05 466.12 78.95 465.67 78.69 465.09 78.75 462.45 78.02 461.53 78.03 460.69 77.8 460.2 77.84 458.98 77.52 457.34 77.49 456.72 77.31 455.26 77.26 454.66 77.09 453.78 77.13 453.41 77.02 452.9 77.03 451.98 76.76 451.52 76.82 450.72 76.55 449.59 76.33 447.2 76.24 446 75.98 445.44 76.01 444.79 75.85 443.88 75.88 443.09 75.77 442.45 75.57 437.51 75.52 436.66 75.7 435.84 75.73 433.57 76.24 433.04 76.2 430.47 76.86 429.55 76.8 428.85 77.03 424.8 77 424.44 76.77 424.01 76.81 423.48 76.72 423.17 76.5"/>
    <line class="cls-3" x1="277.66" y1="40.45" x2="277.68" y2="40.47"/>
    <polyline class="cls-3" points="277.3 33.98 276.81 32.6 276.78 32.02 276.54 32.63 276.47 33.22 276.5 38.28 276.28 40.98 276.31 56.07 276.09 58.09 275.92 61.71 275.94 66.29 276.59 69.07 276.53 69.55 276.65 70.38 276.63 72.44 276.37 73.04 276.39 73.35 276.13 73.98 275.83 75.23 275.87 76.96"/>
    <polyline class="cls-3" points="275.8 31.3 276.03 31.3 277.37 31.51 278.36 31.83 279.63 32.01 283.48 32.32 293.25 32.29 294.6 32.56 299.41 32.6 299.7 32.71 301.33 32.74 308.28 32.69 309.91 32.26 312.71 32.29"/>
    <polyline class="cls-3" points="313.36 32.6 313.35 34.88 313.42 35.46 313.64 36.18 313.64 37.17 313.96 40.54 314.84 45.08 316.25 53.39 316.39 54.34 316.35 55.12 316.74 58.28 316.8 64.99 316.64 66.16 316.62 68.25 316.45 68.76 316.49 69.58 316.44 70.75 316.32 71.1 316.34 73.42 316.19 74.51 316.21 75.78 316.03 76.21 316.08 76.72 315.73 77.74 315.75 78.48 315.7 78.42 315.08 78.79 314.46 78.77 313.96 78.89 313.45 79.14 313.03 79.15 312.28 79.41 307.85 79.84 304.54 79.96 291.96 79.94 290.56 79.62 289.82 79.68 287.55 79.43 286.66 79.45 286.11 79.28 285.55 79.3 283.26 78.74 282.35 78.3 280.91 77.93 280.09 77.49 279.33 77.26 278.97 77.3 278.59 77.04 278.39 77.06 277.83 76.77 276.69 76.69 276.2 76.94 275.81 77.48"/>
    <polyline class="cls-4" points="157.72 46.18 157.22 47.23 156.64 49.12 156.37 50.42 156.21 52.19 155.85 53.32 155.9 56 156.25 56.85 156.66 57.62 157.47 58.01 160.58 57.92 161.41 57.72 163.92 57.74 163.57 57.53"/>
    <polyline class="cls-4" points="168.64 55.69 167.64 56.14 166.58 57.11 165.73 58.37 165.47 59.62 165.51 61.18 166.19 62.69 166.71 63.15 167.07 63.28 167.61 63.22 168.49 62.83 169.53 61.27 170.1 59.16 170.04 58.33 169.55 57.02 168.58 56.01 167.48 55.57 166.04 56.72 166.08 57.27 166.2 57.39"/>
    <polyline class="cls-4" points="211.28 48.44 210.7 49.46 210.51 50.13 210.56 50.72 210.42 51.16 210.45 53.96 210.16 55.01 210.19 55.47 210 56.18 210.04 57.87 210.21 58.31 210.23 58.77 210.53 59.37 211.12 59.65 212.06 59.62 213.75 59 214.49 58.83 216.79 58.77 217.16 58.97"/>
    <polyline class="cls-4" points="220.15 61.87 220.44 60.75 221.92 58.49 222.1 58.04 222.27 57.92 222.45 57.96 223.18 60.12 223.27 63.54 223.39 64.2 223.37 67.87 223.55 68.43 223.79 68.62"/>
    <polyline class="cls-4" points="364.25 46.91 364.66 48.71 364.71 50.68 364.69 52.12 364.14 54.74 364.2 55.81 363.98 57.28 364 60.05 364.12 60.19 364.21 60.69 364.46 60.91 364.99 61.14 366.11 61.09 369.47 60.38 371.07 59.98 371.83 59.66 372.46 59.77"/>
    <polyline class="cls-4" points="376.57 58.37 376.68 57.83 376.91 57.57 377.3 57.3 378.03 57.14 378.67 56.85 379.01 56.9 379.29 57.11 379.72 57.97 379.7 58.25 379.25 59.48 378.65 60.61 377.1 62.56 376.61 63.64 375.77 64.56 375.56 65.16 375.91 65.62 376.97 66.14 379.03 66.63 380.01 67.15 380.91 67.13 382.41 67.57"/>
    <polyline class="cls-4" points="171.62 69.85 170.21 71.17 169.28 71.59 168.68 71.69 168.03 71.99 166.6 71.99 166.51 71.89 165.71 71.86 165.14 71.59 164.58 71.64 163.94 71.59 163.55 71.45 162.74 71.46 162.2 71.18 161.69 71.24 161.27 71.02 160.22 71.01 160.14 70.9 159.51 70.67 158.14 70.61 157.48 70.47 157.33 70.35 156.45 70.38 155.84 70.29 155.27 70.03 154.99 70.01 153.69 69.36 153.41 69.4 153.15 69.24 152.69 69.15 150.79 68.22 150.49 67.9 150.37 67.6 149.68 67.04 149.46 66.74 148.15 66.06 148.01 65.88 145.1 60.25 144.55 58.78 143.72 56.99 143.54 56.34 143.59 55.69 143.47 55.43 143.48 54.9 143.16 54.08 143.17 53.25 143.05 53.07 143.03 51.97 142.91 51.69 142.94 48.37 143.17 47.7 143.15 47.43 143.29 47.03 143.27 46.63 143.54 46.07 143.5 45.83 144.45 43.95 145.42 43.01 145.76 42.51 147.76 40.55 149.77 39.21 151.07 38.58 156.41 36.98 156.94 36.85 160.94 36.89 162.72 37.5 163.47 37.87 164.2 38.52 165.06 39 165.72 39.53 166.01 39.62 167.34 40.87 167.61 41.01 168.81 42.39 169.27 42.64 169.61 43.15 170.2 43.74 170.48 44.27 170.89 44.61 171.66 46.24 172.36 47.21 172.63 47.43 173.13 48.49 173.46 49.68 174.19 51.62 176.07 55.24 176.14 55.7 176.67 56.87 177.31 58.77 177.42 59.71 177.74 60.34 177.94 61.22 178.12 62.35 178.09 65.15 177.72 66.17 177.68 67.33 177.36 68.23 177.4 68.52 176.4 70.56 175.25 71.63 174.97 72.03 173.95 72.88 173.67 73.06 172.79 73.27 171.63 73.23 170.28 72.75 169.22 72.07 168.93 71.69"/>
    <polyline class="cls-4" points="208.57 41.01 205.85 39.66 205.21 39.71 202.54 41.15 200.89 42.6 200.86 42.8 199.61 43.99 199.38 44.43 198.98 44.88 198.62 45.41 198.18 46.45 198.22 46.72 197.82 47.84 197.82 48.77 197.64 49.17 197.47 50.23 197.4 51.85 197.28 52.25 197.31 57.65 197.49 58.13 197.44 58.76 197.78 59.57 198.48 62.03 199.65 65.47 200.43 66.94 200.84 68.07 202.14 69.93 202.58 70.38 203.79 71.11 205.12 72.4 206.73 73.16 207.18 73.65 207.7 73.81 209.35 74.63 211.05 75.25 211.68 75.36 212.25 75.34 212.65 75.5 215.64 75.47 216.05 75.65 218.64 75.65 219.89 75.39 220.56 75.38 222.63 74.67 223.18 74.26 224.94 73.59 225.54 73.2 227.41 72.3 227.78 71.96 228.42 71.69 228.88 71.35 229.34 70.87 229.7 70.75 230.38 69.99 230.52 69.64 230.79 69.36 231.18 68.53 231.41 67.71 232.28 66.69 232.42 65.91 232.88 64.61 232.87 57.93 232.61 57 232.08 55.97 231.96 55.11 231.36 52.83 230.54 50.2 230.28 50.24 229.95 49.88 227.73 46.58 227.18 46.1 226.63 45.23 224.76 43.72 223.09 42.69 222.33 42.49 221.63 42.07 219.84 41.53 218.04 40.86 217.45 40.55 217.07 40.6 216.2 40.23 216.02 40.25 215.75 40.12 215.31 40.15 214.49 39.82 212.98 39.7 212.57 39.53 211.74 39.57 210.74 39.42 209.03 39.43 208.88 39.54 208.51 39.54 208.24 39.7 208.02 39.68 206.75 40.09 206.41 40.33"/>
    <polyline class="cls-4" points="369.21 40.93 368.59 40.54 367.93 39.91 365.71 38.85 363.98 38.85 362.31 39.75 361.02 40.71 360.55 40.86 357.89 43.45 357.76 43.95 357.19 44.38 356.42 45.56 355.55 47.96 355.2 48.49 354.56 50.49 354.24 51.05 354.08 51.74 353.8 52.35 353.81 53.42 353.63 53.69 353.62 60.65 353.74 60.99 353.8 62.47 354.13 63.41 354.22 64.81 354.55 65.66 354.5 66.14 354.71 66.91 355.18 68.23 357.66 71.94 358.83 72.98 360.49 74.22 360.92 74.67 362.45 75.47 366.81 76.99 367.55 77.06 368.77 77.4 369.34 77.35 369.94 77.57 370.4 77.55 371.31 77.74 372.07 77.7 372.5 77.82 375 77.8 375.36 77.91 376.49 77.93 376.75 78.04 381.55 78.07 381.83 77.95 382.24 77.96 382.89 77.7 383.81 77.61 384.36 77.3 384.54 77.32 385.33 77.03 386.91 76.24 387.19 75.78 388.04 74.85 388.3 74.23 388.61 73.87 390.15 70.47 390.61 68.96 390.62 67.15 390.3 66.35 390.35 65.37 390.22 64.98 390.25 62.58 390.05 61.63 390.06 61.09 389.95 60.9 389.97 58.73 389.85 58.46 389.88 57.71 389.65 57.25 389.49 56.04 389.25 55.39 387.53 51.79 384.09 46.81 382.34 44.91 381.24 43.9 380.96 43.8 380.78 43.62 378.18 42.28 377.06 41.94 376 41.4 374.84 41.04 373.15 40.19 372.45 39.97 371.47 39.93 371.19 39.76 370.53 39.68 370.08 39.43 369.79 39.47 369.52 39.32 368.51 39.35 367.39 39.67 366.31 40.16 365.61 40.74 365.24 41.27"/>
    <polyline class="cls-2" points="115.78 52.78 117.58 52.36 118.88 52.24 120.13 52.25 120.61 52.36 121.86 52.91 122.21 52.87 122.77 53.09 123.21 53.05 124.03 53.41 125.32 53.37 125.89 53.47 126.53 53.82 127.03 53.81 127.21 53.97 127.63 54.07 129.65 54.12 129.83 54.24 130.39 54.21 130.57 54.32 131.7 54.31 132.11 54.41 134.75 54.53"/>
    <polyline class="cls-2" points="131.65 48.4 133.43 48.47 135.17 49.21 135.53 49.62 136.31 50.15 136.81 50.69 137.74 52.56 137.74 54.91 137.1 56.4 136.69 56.72 135.5 58.25 133.65 60.02 132.65 60.41 131.17 60.42 130.98 60.28"/>
    <polyline class="cls-2" points="182.57 55.52 183.99 55.88 185.2 56.35 189.26 56.36 189.39 56.46 189.61 56.44 190.87 57.1 191.75 57.01 192.39 56.66"/>
    <polyline class="cls-2" points="190.62 52.25 191.98 52.51 193.4 53.15 193.59 53.49 193.81 53.57 194.55 55.06 194.5 56.13 193.95 57.29 193.34 57.83 192.72 58.71 192.11 59.26 191.26 59.83 190.47 60.65 188.61 61.44"/>
    <polyline class="cls-2" points="238.7 58.32 239.77 58.38 240.68 58.66 241.04 58.63 241.52 58.85 241.9 58.82 242.49 59.02 243.85 59.08 244.14 59.2 246.09 59.13 246.32 59.02 247.05 59.04 247.37 58.93 250.78 58.91 251.74 58.6 252.08 58.64 252.92 58.44 256.37 58.37 257.66 58.28 257.95 58.17 265.46 58.19 265.71 58.3 268.12 58.33"/>
    <polyline class="cls-2" points="268.1 54.39 269.13 55.18 269.62 55.77 270.75 56.44 271.5 57.34 272.45 59.08 272.41 60.29 271.98 61.24 270.37 62.33 266.9 64.01 265.62 64.04"/>
    <line class="cls-2" x1="323.82" y1="57.8" x2="341.82" y2="57.83"/>
    <polyline class="cls-2" points="342.75 52.12 346.67 54.04 347.05 54.39 347.92 54.93 348.87 55.9 349.57 57.68 349.63 58.11 349.61 58.81 349.09 60.03 348.24 61.22 347.24 62.2 345.26 63.46 343.67 63.89 342.72 63.86"/>
    <polyline class="cls-2" points="398.11 59.25 397.97 59.19 398.85 59.04 399.79 59.03 400.42 58.88 407.23 58.91 408.09 58.8 410.69 58.82 411.35 58.96 412.4 58.95"/>
    <polyline class="cls-2" points="415.45 53.01 418.05 54.75 418.97 55.64 419.62 56.47 420.76 59.89 420.72 60.46 420.03 62.12 419.38 63 418.51 63.58 417.05 64.22 414.44 65.09 412.14 65.16 411.82 64.93 411.95 64.89"/>
  </g>
</svg>