<?xml version="1.0" encoding="UTF-8"?>
<svg id="Layer_1" data-name="Layer 1" xmlns="http://www.w3.org/2000/svg" version="1.1" xmlns:xlink="http://www.w3.org/1999/xlink" viewBox="0 0 313 135.5">
  <defs>
    <style>
      .cls-1 {
        stroke: #4659a8;
      }

      .cls-1, .cls-2, .cls-3, .cls-4 {
        fill: none;
      }

      .cls-1, .cls-3 {
        stroke-width: 1.27px;
      }

      .cls-1, .cls-3, .cls-4 {
        stroke-linecap: round;
        stroke-linejoin: round;
      }

      .cls-2 {
        stroke-width: 0px;
      }

      .cls-3 {
        stroke: #77cfe6;
      }

      .cls-5 {
        clip-path: url(#clippath);
      }

      .cls-4 {
        stroke: #000;
        stroke-width: .87px;
      }
    </style>
    <clipPath id="clippath">
      <rect class="cls-2" x="-199" y="-207" width="514" height="685"/>
    </clipPath>
  </defs>
  <g class="cls-5">
    <polyline class="cls-1" points="30.22 96.36 30.82 95.17 31.44 94.58 31.77 94.47 32.07 94.09 32.6 93.83 32.72 93.64 34.07 92.8 34.67 92.54 34.74 92.39 36.46 91.6 36.76 91.17 37.11 91.08 38.88 89.95 42.25 88.32 42.8 88.17 43.4 87.85 43.62 87.88 44.09 87.67 45.1 87.47 45.52 87.25 46.02 87.2 46.99 86.83 48.04 86.8 48.65 86.6 49.13 86.63 52.08 86.21 54.98 86.22 58.11 87.76 58.18 87.91 59.9 88.69 60.2 89.09 60.44 89.13 60.88 89.8 61.31 90.02 61.75 90.91 62.01 91.01 62.13 91.27 62.48 91.37 62.53 91.63 62.83 91.75 63.13 92.2 63.34 92.32 63.4 92.56 63.69 92.68 63.82 93.02 64.09 93.18 64.2 93.52 64.54 93.8 64.79 94.31 64.95 94.37 65.3 95.15 66.03 95.49 66.05 95.73 67.14 97.72 67.16 97.96 68.01 99.67 68.31 99.86 68.42 100.11 68.67 100.22 68.74 100.45 69.04 100.71 69.16 101.06 69.31 101.1 69.6 101.61 69.9 101.79 70.24 102.44 70.35 102.42 70.49 102.58 70.82 102.71 70.9 102.87 71.24 102.98 71.55 103.36 71.72 103.39 72 103.65 73.22 104.28 73.9 105.11 76.4 106.34 76.94 106.42 79.44 106.41 80.35 106.28 82.09 105.38 82.77 105.18 83.35 104.86 83.75 104.8 87.59 102.98 88.09 102.87 88.25 102.65 88.95 102.33 89.2 102.11 95.13 99.14 95.9 98.44 96.5 98.17 96.77 97.83 96.94 97.76 97.06 97.52 97.24 97.47 97.58 97.02 97.7 97 97.83 96.77 98.74 95.91 99.28 95.55 99.57 95.01 99.78 94.97 100.44 94.25 100.69 94.14 100.77 93.96 101.51 93.36 102.58 92.81 102.99 92.46 106.86 90.56 107.15 90.55 107.52 90.33 109.46 89.61 109.78 89.65 110.34 89.4 110.96 89.45 111.13 89.34 111.78 89.35 112.61 89.1 116.29 89 116.7 88.88 122.58 88.9 123.22 89.06 125.1 89.12 125.71 89.38 126.27 89.34 126.44 89.45 126.93 89.49 127.41 89.73 127.84 89.76 128.25 89.96 129.1 90.03 130.12 90.31 130.44 90.28 130.76 90.45 131.24 90.42 132.6 91.09 132.84 91.05 133.23 91.26 133.52 91.22 134.01 91.32 134.22 91.47 134.45 91.45 136.68 92.51 137.35 93.14 137.5 93.41 138.19 93.72 138.36 94.07 138.82 94.49 139.07 95 139.32 95.2 139.92 96.37 140.32 96.63 140.4 96.97 140.56 97.04 140.82 97.48 141.3 98 141.6 98.61 142.03 99.03 142.69 100.06 142.97 100.18 143.02 100.43 143.28 100.61 143.8 101.67 143.91 102.2 144.32 102.68 145.27 103.23 146.22 104.13 147.14 104.6 148.44 106.04 148.96 106.32 149.56 106.95 150.44 107.35 150.61 107.68 151.25 108.42 151.66 108.67 151.81 108.91 151.97 108.94 152.13 109.18 152.73 109.47 152.91 109.71 153.17 109.78 153.36 110.07 154.2 110.58 156.37 111.61 156.73 111.65 157.01 111.84 157.44 111.91 158.11 112.28 158.38 112.27 158.68 112.47 160.16 112.57 160.41 112.68 162.37 112.62 164.53 111.65 165.02 111.25 165.92 110.74 166.3 110.34 167.04 109.95 167.42 109.58 167.99 109.37 168.54 109.05 168.83 108.74 169.28 108.56 169.74 108.16 169.87 107.8 170.16 107.63 170.36 107.26 172.87 105.03 173.37 104.44 174.74 103.76 174.81 103.54 175.01 103.44 175.63 102.64 175.91 102.54 176.74 101.86 181.87 99.4 183.07 98.53 183.41 98.41 183.96 97.92 186.92 96.45 188.03 95.47 190.61 94.26 190.94 93.88 191.44 93.69 192.26 92.91 192.97 92.48 194.11 91.55 194.36 91.45 195.48 90.34 195.82 90.22 197.23 89.13 201.87 87.03 202.14 87.07 202.27 86.97 203.07 86.83 203.49 86.85 203.9 86.68 204.23 86.72 205.09 86.52 210.24 86.45 210.71 86.49 210.93 86.65 211.65 86.71 212.23 86.91 212.48 86.89 212.77 87.05 214.11 87.35 214.61 87.63 214.85 87.61 215.52 87.95 216.43 88.07 218.33 89.01 219.66 89.88 219.96 89.98 220.45 90.33 220.53 90.69 220.75 90.92 221.04 90.91 225.08 92.9 225.33 93.24 225.6 93.34 225.85 93.74 226.14 93.82 226.2 93.98 226.37 94.02 226.52 94.35 226.69 94.43 227.09 95.02 227.25 95.11 227.5 95.61 227.65 95.68 228.29 96.94 228.42 97.4 229.92 100.3 230.36 100.82 230.91 101.78 231.84 102.78 231.97 103.15 232.7 103.75 233.43 104.68 233.66 104.82 235 107.4 235.6 108.32 236.03 108.7 236.36 108.83 236.57 109.23 236.88 109.37 238.04 110.52 238.44 110.67 238.64 110.88 240.2 111.49 240.61 111.5 241.06 111.71 241.36 111.67 241.67 111.89 242.03 111.92 242.78 112.29 244.2 112.5 246.42 112.36 247.59 111.98 248.37 111.87 249.63 111.34 250.51 111.17 250.9 110.94 251.23 110.92 251.64 110.67 252.12 110.56 256.96 108.16 257 108.03 257.52 107.77 258.27 107.05 258.26 106.91 259.08 106.21 259.17 105.94 259.31 105.89 259.53 105.57 259.66 105.56 259.71 105.4 260.27 104.81 261.01 104.45 261.34 104.13 262.21 103.76 262.47 103.43 264.23 102.66 268.59 102.66 269.62 102.62 269.9 102.51 273.39 102.47"/>
    <polyline class="cls-3" points="191.45 41.72 192.03 41.33 192.52 40.72 193.02 40.45 194.2 39.42 199.72 36.71 200.81 35.86 203.98 34.32 208.51 32.59 208.68 32.39 210.64 31.47 212.05 30.93 212.28 30.96 213.13 30.66 214.32 30.13 215.21 30.04 215.57 29.81 215.76 29.84 216.26 29.59 216.39 29.63 218.27 28.7 218.74 28.64 221.33 27.63 227.51 25.53 227.78 25.55 229.12 25.12 230.08 25.03 230.64 24.82 234.59 24.82 235.56 24.66 244.21 24.68 245.67 24.87 245.85 24.97 246.31 24.95 246.67 25.17 247.8 25.32 248.37 25.52 249.14 25.48 250.22 25.94 250.59 25.94 250.95 26.15 251.46 26.21 253.34 27.18 253.53 27.53 254.17 28.16 254.31 28.47 255.05 29.36 255.75 29.96 256.04 30.07 256.35 30.82 256.75 31.36 257.16 32.58 258.96 35.88 258.95 36.26 259.53 37.9 259.5 38.34 259.77 39.13 259.93 41.43 260.29 42.1 260.38 43.52 260.53 43.82 260.58 45.48 260.56 48.89 260.44 49.16 260.51 51.89 260.19 52.54 260.16 52.92 259.9 53.49 259.84 54.09 259.27 55.25 258.94 55.66 258.68 56.4 258.4 56.71 258.29 57.05 257.66 57.79 257.48 58.26 257.13 58.57 257.02 58.86 256.55 59.24 256.51 59.41 256.11 59.72 256.08 59.67 255.78 60.08 255.22 60.54 255.09 60.54 254.37 61.1 252.55 62.11 250.51 63.02 250.11 63.32 247.77 64.44 247.65 64.4 246.86 64.9 246.08 65.22 245.64 65.61 245.14 65.79 244.59 66.22 242.24 67.32 241.54 67.85 240.58 68.22 240.25 68.64 239.06 69.07 238.91 69.05 238.46 69.3 238.09 69.25 237.54 69.51 237.35 69.5 235.63 70.25 234.9 70.9 234 71.48 233.54 71.87 233.04 72.5 232.69 72.63 232.27 73.06 232.06 73.61 231.38 74.66 230.18 77.14 230.23 77.81 229.96 78.21 229.85 78.82 229.27 79.81 229.3 80.07 229 80.61 229.04 80.89 228.46 81.93 228.48 82.17 228.17 82.68 228.21 82.89 227.9 83.38 227.79 84.21 227.68 84.35 227.65 84.95 227.4 85.42 227.32 85.79 227.28 90.71 227.39 91.07 227.41 92.85 227.53 93.1 227.75 93.24 228.13 93.14"/>
    <polyline class="cls-3" points="191.26 41.42 190.68 41.87 189.94 42.27 189.25 43.03 189.11 43.02 188.9 43.21 187.98 44.23 187.71 44.83 187.32 45.31 186.85 46.47 186.89 47.29 186.77 47.46 186.8 48.04 186.67 48.35 186.7 49.52 186.82 49.69 186.85 50.19 187 50.4 186.97 50.95 187.09 51.12 187.17 51.92 190.86 59.12 191.12 60.34 191.29 60.56 191.39 61.3 191.57 61.54 191.52 61.74 191.68 62.24 191.81 63.36 191.85 66.61 191.58 67.14 191.62 67.23 191.46 67.46 191.33 67.98 190.48 69.64 190.3 69.71 190.19 69.97 190.06 70 189.92 70.21 189.34 70.5 189.22 70.67 188.76 70.84 188.53 71.04 188.5 71.21 188.23 71.33 187.99 71.62 187.9 71.93 187.76 71.96 186.5 74.44 186.42 77.82 186.63 79.12 186.63 81.88 186.47 82.7 185.89 83.9 185.59 84.93 185.02 86.06 184.85 86.64 184.11 88.01 184.13 88.26 183.87 88.73 183.88 88.88 182.87 90.77 182.57 91.62 180.66 95.38 180.69 95.61 180.43 96 180.47 96.13 179.31 98.58 179.35 99.04 179.13 99.54"/>
    <polyline class="cls-3" points="134.74 90.63 133.95 89.59 133.95 89.44 133.42 88.94 133.18 88.57 132.37 88 131.91 87.46 131.55 87.29 130.94 86.42 130.58 86.09 130.05 85.12 129.86 84.98 129.39 84.22 128.53 82.55 128.57 81.98 128.45 81.8 128.32 80.86 128.11 80.59 127.75 79.47 127.78 79.13 127.53 77.96 127.51 77.29 127.25 76.38 127.23 74.52 127.03 73.68 127 72.47 126.85 71.35 126.82 69.07 126.7 68.77 126.72 66.65 126.53 65.64 126.54 64.13 126.37 63.76 126.11 62.24 125.9 57.81 125.72 57.47 125.76 57.11 125.6 56.48 124.93 54.88 124.62 54.47 123.65 51.84 123.42 51.45 122.31 48.31 122.06 47.11 121.3 44.7 121.32 44.42 120.75 42.84 120.7 42.11 120.42 41.71 120.22 40.8 118.31 37.14 117.93 36.61 117.43 36.16 117.36 35.85 117.12 35.65 117.02 35.41 115.73 34.49 115.28 34.01 114.91 33.88 114.57 33.5 113.71 33.13 112.39 31.79 112.12 31.68 111.67 31.11 111.43 31.02 110.76 30.34 110.74 30.19 110.08 29.86 109.51 29.31 109.39 29.07 109.04 28.98 107.98 28.38 105.08 27.03 104.15 26.96 103.96 26.82 103.06 26.59 99.78 26.51 99.12 26.84 98.96 26.78 98.63 27 98.47 26.97 95.56 28.35 95.36 28.64 94.99 28.78 94.87 28.98 94.15 29.27 93.94 29.76 93.36 29.91 92.98 30.3 92.71 30.37 92.61 30.63 92.41 30.68 92.31 30.9 91.99 31.04 91.84 31.35 91.29 31.93 91.18 32.54 90.89 32.63 90.79 32.93 90.47 33.21 90.41 33.44 90.25 33.49 90.12 33.91 89.5 34.28 89.3 34.96 89 35.42 88.79 35.54 88.13 37.01 88.17 37.46 87.96 37.8 87.97 38.12 87.76 38.58 87.81 39.06 87.51 39.45 87.58 40.06 87.45 40.25 87.41 41.79 87.43 44.68 87.55 44.86 87.52 45.2 87.86 45.75 87.95 46.25 88 46.3 87.99 46.2 88.21 46.71 88.57 46.99 89.34 47.33 90.46 47.32 91.08 47 91.72 45.63 91.71 45.11 91.26 44.91 90.52 44.95 89.99 44.61 89.92 44.4 89.47 44.18 89.05 43.43 89.07 41.9 91.97 36.26 92.11 36.22 92.2 35.96 92.49 35.82 92.56 35.68 93.08 35.47 93.25 35.21 94.02 34.87 94.33 34.86 94.99 34.49 95.52 34.41 96.04 34.17 96.36 34.2 96.86 33.91 97.26 33.86 97.89 33.55 99.9 33.28 104.1 33.26 104.22 33.36 104.8 33.34 105.2 33.49 105.55 33.48 106.41 33.9 106.91 33.93 107.65 34.3 108.61 35.44 110.41 39.02 110.41 39.35 110.58 39.62 110.56 39.91 110.92 40.63 110.97 41.18 111.1 41.27 111.28 41.8 111.28 42.47 111.4 42.71 111.42 43.25 111.58 43.48 111.66 44.16 111.82 44.42 111.84 44.91 111.95 45.15 111.92 45.94 112.05 46.18 112.12 46.88 112.53 47.65 112.51 48.21 112.76 48.61 112.71 48.87 112.81 49.24 113.54 50.58 113.97 51.8 113.94 52.46 114.06 52.65 114.04 53.49 114.15 53.95 114.18 58.31 114.22 59.02 114.33 59.23 114.36 60.72 114.56 63.2 114.54 64.56 114.64 65.23 114.54 75.33 114.36 77.85 114.25 78.03 114.12 79.64 114.13 82.02 114.3 82.3 114.63 84.66 114.78 85.06 114.77 85.48 114.89 85.66 115.01 88.4"/>
    <polyline class="cls-3" points="94.51 31.33 94.51 31.42 94.61 31.31 95.3 31.14 96.57 30.46 97.39 30.24 97.65 30.27 97.96 30.42 98.13 31.1 98.1 31.7 97.84 31.99 97.62 32.09 97.46 32.07 97.41 31.32 97.85 30.53"/>
    <polyline class="cls-3" points="102.28 30.49 102.46 29.77 102.66 29.43"/>
    <polyline class="cls-3" points="109.87 35.14 109.5 34.15 109.59 33.57 109.77 33.29 110.3 33.04 110.67 33.09 110.99 33.32 111.2 33.69 111.25 34.04 110.6 34.22 110.14 34.18 110.13 33.76 110.3 33.58"/>
    <polyline class="cls-3" points="104.97 31.94 104.84 31.9 105.9 31.28 106.63 31.04 107.01 31.08 107.33 31.33 107.5 31.79 107.47 32.1 107.27 32.34 106.71 32.47 106.36 32.45 105.43 31.94 105.61 31.58 106.44 31.21"/>
    <polyline class="cls-3" points="112.49 38.92 112.66 38.33 113.32 37.06 114.05 36.79 114.36 36.83 115.09 37.36 115.56 38.31 115.5 38.7 115.29 38.7 114.62 39.17 113.63 39.5 113.21 39.47 112.7 39.67 112.31 39.64 112.17 39.22 112.21 38.62 113.06 36.91 113.5 36.73 113.99 36.89"/>
    <polyline class="cls-3" points="114.88 44.55 114.87 42.48 115.12 41.9 115.81 41.77 116.62 42.26 116.98 42.76 117.16 43.23 116.86 43.85 116.23 44.43 115.96 44.52 114.97 44.55 114.4 44.23 114.22 44.26 114.35 44.09 114.8 43.87"/>
    <polyline class="cls-3" points="115.58 51.7 115.8 50.9 115.93 50.75 115.91 50.87 116.11 50.83 115.26 50.81 115.27 50.67 115.05 50.47 114.82 49.99 114.92 49.02 115.23 48.57 115.19 48.47 115.57 48.34 115.51 48.69 115.05 48.6 115.01 48.13 115.58 47.94 115.68 48.01 115.99 48.61 115.9 48.88 115.94 50.28 115.75 50.47 115.78 50.66 115.51 50.81 115.17 50.94 114.82 50.88"/>
    <polyline class="cls-3" points="119.75 49.21 119.45 48.28 119.51 47.38 119.66 47.1 119.82 47.01 120.19 47.01 120.6 47.26 121.12 48.41 121.08 48.66 120.77 49.1 120.52 49.75 119.9 50 118.64 49.96 118.36 49.76"/>
    <polyline class="cls-3" points="121.66 57.32 121.56 57 121.58 56.16 121.96 55.97 121.28 55.99 121.31 55.64 121.83 55.43 122.12 55.46 122.3 55.78"/>
    <polyline class="cls-3" points="116.72 57.46 117.22 56.36 117.56 56 117.71 55.65 118.52 55.04 119.23 54.71 119.79 54.7 120.3 55.18 120.41 55.62 119.86 55.85 119.63 55.81 119.77 55.81"/>
    <polyline class="cls-3" points="116.18 63.52 116.27 63.54 116.18 63.53 116.19 63.43 116.39 62.82 116.39 62.4 116.45 62.48 116.57 62.45 117.05 62.16 117.38 62.26 117.51 62.63 117.48 63.06 117.27 63.06 116.76 63.31 116.39 63.26 116.8 63.09"/>
    <polyline class="cls-3" points="122.18 62.29 121.52 61.23 121.68 60.31 121.97 59.74 122.46 59.59 123 60.76 122.94 61.48 122.04 63.13 121.38 63.39 121.49 63.34 121.78 62.75 122.35 62.31 122.41 62.11"/>
    <polyline class="cls-3" points="117.05 70.9 116.5 69.8 116.59 69.54 116.57 68.54 116.81 67.83 117.73 67.47 117.99 67.5 118.45 67.74 119.05 68.17 119.69 69.47 119.63 69.92 119.16 70.79 118.34 71.08 117.53 71.03 116.67 70.63 116.67 70.31 117.07 69.93 118.04 69.62"/>
    <polyline class="cls-3" points="123.52 67.73 123.7 67.02 123.92 66.66 124.5 66.52 124.93 66.65 124.93 67 125.15 67.45 124.43 68.4 124.02 69.16 123.71 69.43 123.62 69.61 123.68 69.63 123.04 69.64 122.87 69.27 123.03 68.82 122.84 69.44"/>
    <polyline class="cls-3" points="97.74 93.06 97.96 92.25 97.91 91.03 97.58 90.44 97.58 90.15 97.06 89.2 96.52 88.58 96.1 87.9 95.69 87.51 95.58 87.17 95.14 86.82 95.03 86.4 93.61 84.81 93.11 83.8 92.44 83.19 92.21 82.82 91.82 82.56 91.51 82.06 91.05 81.71 91.01 81.54 90.9 81.56 90.4 81.08 89.66 80.72 89.28 80.34 88.79 80.13 88.54 79.61 88.36 79.44 88.09 79.38 87.9 78.95 87.77 78.93 87.57 78.62 87.39 78.55 87.14 78.26 86.42 77.9 86.29 77.75 77.36 73.42 77.12 73.4 76.79 73.19 76.67 73.22 75.34 72.65 75.2 72.69 74.96 72.53 74.74 72.56 74.4 72.33 73.42 71.96 72.95 71.81 72.45 71.85 71.78 71.57 71.34 71.58 71.13 71.42 70.38 71.23 63.72 71.17 63.42 71.34 62.87 71.35 62.24 71.54 61.74 71.53 61.6 71.64 60.65 71.67 60.09 71.87 57.71 72.07 57.4 72.24 56.43 72.29 55.65 72.47 54.94 72.83 54.62 72.84 54.05 73.18 53.74 73.15 53.25 73.34 51.91 74 51.77 74.19 51.55 74.27 51.4 74.55 51.29 74.52 51.27 74.65 50.55 75.1 50.54 75.31 50.25 75.43 49.88 75.89 49.75 75.87 48.76 76.81 48.43 76.98 48.01 77.41 47.5 77.76 47.56 77.79 47.49 77.89 46.97 78.32 46.81 78.6 46.39 78.88 46.11 79.38 45.74 79.49 45.67 79.65 45.46 79.73 45.41 79.93 45.05 80.05 44.76 80.56 44.61 80.69 44.45 80.68 44.08 81.23 43.87 81.32 43.7 81.75 43.33 81.98 43.3 82.2 43 82.32 42.76 82.74 42.62 82.8 42.41 83.3 42.2 83.47 42.21 83.57 41.76 83.73 40.23 86.48 39.96 87.27 40 87.67 39.78 88.41 39.76 88.93"/>
    <polyline class="cls-3" points="91.06 100.24 89.57 99.51 88.58 98.76 88.07 97.99 86.94 96.92 86.73 96.35 86.16 95.69 84.66 94.24 83.94 93.81 83.75 93.54 83.33 93.36 83.13 92.83 82.98 92.68 82.58 92.56 82.26 92.27 81.17 91.79 80.89 91.31 79.69 90.7 79.01 90.04 78.87 90.04 78.55 89.75 77.39 89.22 77.22 88.97 76.92 88.82 76.47 88.22 75.7 87.81 75.26 87.35 74.01 86.79 73.91 86.61 73.59 86.53 73.37 86.32 72.67 86.03 72.58 85.85 72.26 85.77 68.24 83.78 68 83.81 67.82 83.66 67.01 83.55 66.81 83.43 63.2 83.41 62.76 83.57 62.06 83.64 61.73 83.81 59.64 84.03 59.14 84.28 58.89 84.25 58.56 84.41 57.82 84.39 57.5 84.52"/>
    <polyline class="cls-3" points="89.2 91.9 89.07 91.57 89.08 90.67 89.75 90.26 90.11 90.12 90.36 90.16 90.6 90.85 90.12 91.53 89.26 91.88 88.77 91.84 88.39 91.22 88.45 90.83 88.8 90.28 89.58 89.97 89.3 90.48 88.98 90.76 88.34 90.91"/>
    <polyline class="cls-3" points="85.01 84.47 83.93 85.15 83.45 85.31 83.13 85.27 82.77 85.06 82.63 84.89 82.7 84.78"/>
    <polyline class="cls-3" points="75.88 80.54 75.16 79.68 75.12 79.54 75.34 79.48 75.64 79.64 75.78 80.26 75.55 80.27 74.78 80.73 74.12 80.69 73.85 80.4 73.83 79.81 74.01 79.55 74.48 79.3"/>
    <polyline class="cls-3" points="63.68 77.95 62.09 77.9 61.56 77.59 61.72 77.66 61.99 77.48"/>
    <polyline class="cls-3" points="52.24 80.06 53.48 79.61 53.66 79.68 53.25 79.93 52.83 80.35 52.24 80.52 51.43 80.51 51.08 80.4 51.17 80.42 50.91 80.78"/>
    <polyline class="cls-3" points="147.09 102.56 147.08 100.84 146.97 100.64 146.93 100.07 146.93 99.95"/>
    <polyline class="cls-3" points="184.55 57.53 184.68 57.46 184.8 57.51 185.25 57.3 186.1 57.29"/>
    <polyline class="cls-3" points="186.61 61.48 188.12 60.72 188.63 60.78"/>
    <polyline class="cls-3" points="156.27 108.52 156.27 108.96 156.39 109.14 156.37 110.16 156.52 110.83 156.57 110.75 156.92 110.72"/>
    <line class="cls-3" x1="197.24" y1="52.45" x2="197.25" y2="52.47"/>
    <polyline class="cls-3" points="200.83 51.4 199 51.39 198.82 51.51 198.24 51.47 195.86 52.55 194.84 53.49 194.48 53.61 194.1 54.02 194.17 54.05 193.7 54.86 193.54 55.52 193.55 56.38 193.72 56.67 194.28 56.94 196.09 56.87 196.77 56.61 197.31 56.55 199.31 55.67 202.7 54.52 206.59 52.58 206.84 51.97 206.83 51.55 206.61 51.18 206.1 50.72 205 50.23 204.34 50.05 203.07 50.11 200.9 50.62 199.48 51.08 197.29 52.78"/>
    <polyline class="cls-3" points="169.94 108.29 168.78 108.24 167.4 107.83 167.02 107.83 166.2 107.39 166.04 107.43 165.67 107.23 164.55 107.12 163.17 106.41 163.12 106.26 162.68 105.94 162.41 105.42 161.97 105.02 161.62 104.13 161.56 103.37 161.39 103.11 161.37 102.67 160.69 101.3 160.55 90.52 161.38 87.8 161.61 85.42 161.83 84.7 161.98 81.86 162.2 81 162.16 80.34 162.51 78.41 162.57 76.97 162.74 76.63 162.91 75.01 162.99 71.9 163.14 70.69 163.12 69.39 163.34 68.69 163.35 67.02 163.44 65.95 163.57 65.68 163.54 57.42 163.42 57.24 163.45 56.71 163.33 56.53 163.36 55.81 163.2 55.05 163.22 54.5 162.98 54.16 163.04 53.72 162.76 53.18 162.66 52.37 162.2 51.38 162.22 51.2 161.99 50.59 161.96 50.23 161.61 49.53 161.64 49.25 161.37 48.79 161.41 48.54 161.23 47.84 161.01 47.46 160.68 47.18 160.48 46.62 158.49 42.78 158.18 42.78 157.69 41.61 157.29 41.21 157.25 41.06 157 41.01 156.7 40.51 155.51 39.62 152.41 38.15 151.91 38.09 151.66 37.91 151.25 37.81 150.71 37.77 150.59 37.66 149 37.54 147.26 37.09 144.93 37.1 143.06 37.32 142.72 37.48 137.83 37.95 137.16 38.22 136.85 38.55 136.56 39.18 136.45 39.68"/>
    <polyline class="cls-3" points="146.64 103.24 146.67 100.38 146.84 99.85 146.86 99.14 147.03 98.79 147.14 97.97 147.25 97.79 147.27 95.74 147.39 95.56 147.36 95.11 147.54 94.72 147.59 93.37 147.8 92.57 147.77 91.9 148.09 91.24 148.04 90.78 148.36 89.79 148.38 89.35 148.65 88.91 149.65 86.18 149.89 85.79 149.85 85.45 150.06 84.64 150.03 84.26 150.25 83.73 150.2 83.04 151.35 79.65 151.63 79.09 151.61 78.91 151.9 78.18 151.87 77.92 152.09 77.57 152.11 77.2 152.27 76.94 152.28 76.31 152.45 76.05 152.53 75.6 152.5 74.99 152.67 74.53 152.64 73.83 152.7 73.46 152.87 73.18 152.92 69.61 153.18 68.46 153.39 66.39 153.38 62.69 153.22 61.94 153.2 60.77 153.08 60.59 153.11 60 152.77 58.71 152.5 58.32 152.54 58.16 152.16 56.97 151.99 55.81 151.83 55.55 151.86 55.14 151.69 54.87 151.44 53.85 149.75 50.32 149.49 49.52 149.02 48.63 148.5 48.11 147.66 46.55 147.52 46.5 147.29 46.07 146.35 45.23 145.9 44.37 145.6 44.22 145.09 43.65 144.95 43.64 144.02 42.92 139.27 40.74 138.08 40.54 137.54 40.35 136.58 40.36 136.33 40.26 135.95 40.27 135.35 40.74"/>
    <polyline class="cls-3" points="154.91 104.64 155.1 104.61 154.31 104.44 153.8 104.17 153.67 104.2 153.37 103.53 153.43 102.81 154.08 102.43 154.57 102.44 155.04 102.85 155.37 103.86 154.34 104.89 153.65 105.16 153.1 105.11 153.05 104.91 152.71 104.68 152.66 104.53 152.7 103.86 153.02 103.28 152.95 102.89 152.84 102.76"/>
    <polyline class="cls-3" points="154.06 95.53 153.51 94.63 153.57 94.41 153.57 94.52 153.29 94.65 152.72 94.61 153.19 94.35 153.57 94.35 153.78 94.46 153.91 95 153.26 95.19 152.88 95.15 152.03 94.53 151.77 94.21 151.72 93.91"/>
    <polyline class="cls-3" points="155.51 85.99 155.49 84.41 155.78 83.74 155.77 83.15 155.93 82.98 155.91 83.51 155.64 84.08 155.28 84.25 154.78 84.76 154.54 84.85 154.57 84.77 154.13 84.79 154.34 84.36"/>
    <polyline class="cls-3" points="157.19 78.23 157.2 76.73 157.41 76.35 157.23 76.4 156.48 76.03 156.2 75.46 156.87 73.37 157.03 73.15 157 73.71 156.5 74.67 156.01 74.8"/>
    <polyline class="cls-3" points="156.71 67.11 156.75 66.23 156.99 65.67 157.23 65.54 157.5 65.6 157.54 65.93 157.94 66.66 157.7 66.88 157.67 67.04 157.2 67.06"/>
    <polyline class="cls-3" points="160.02 62.38 161.02 62.38 161.34 62.26 161.25 62.25"/>
    <line class="cls-3" x1="155.47" y1="55.31" x2="155.45" y2="55.32"/>
    <line class="cls-3" x1="155.73" y1="57.78" x2="155.77" y2="57.78"/>
    <line class="cls-3" x1="156.98" y1="51.2" x2="157.44" y2="51.14"/>
    <line class="cls-3" x1="157.11" y1="50.15" x2="157.05" y2="50.14"/>
    <polyline class="cls-3" points="153.3 50.63 152.18 49.5 152.2 48.86 152.38 48.63 152.37 48.7 152.75 48.61 152.25 48.83"/>
    <polyline class="cls-3" points="154.87 44.5 155.39 44.39 155.91 44.43 155.64 44.42 155.2 44.22"/>
    <line class="cls-3" x1="149.17" y1="41.2" x2="149.39" y2="42.17"/>
    <line class="cls-3" x1="145.73" y1="40.09" x2="145.7" y2="40.09"/>
    <polyline class="cls-3" points="143.86 40.59 143.72 40.57 144.87 40 145.46 39.87"/>
    <polyline class="cls-3" points="160.29 67.82 159.89 68.99 158.99 69.92 159.27 69.8"/>
    <polyline class="cls-3" points="158.73 78.54 159 77.55 159.18 77.36 159.15 77.46 159.59 77.32"/>
    <polyline class="cls-3" points="157.63 86.54 158.73 87.34 158.72 87.58 158.93 87.97 158.89 88.36 158.66 88.66 158.63 88.91 158.69 88.82 158.74 88.9"/>
    <line class="cls-3" x1="157.88" y1="90.73" x2="157.9" y2="90.74"/>
    <polyline class="cls-4" points="82.6 66.02 82.16 66.89 81.11 67.96 79.79 68.67 77.31 70.94 76.63 71.37 76.48 71.66 76.02 72.03"/>
    <polyline class="cls-4" points="50.75 72.39 49.5 72.2 49.16 72.02 48.82 72.03 48.7 71.96 47.87 71.84 47.32 71.61 46.94 71.56 46.58 71.41 46.08 71.36 45.54 71.07 44.98 70.89 44.05 70.07 44.02 69.95 43.82 69.77 43.52 69.15 43.17 68.97 42.92 68.56 42.69 68.41 42.68 68.32 42.54 68.18 42.55 68.09"/>
    <polyline class="cls-4" points="42.46 66.98 43.29 67.32 44.15 67.34 44.31 67.45 45.82 67.43 45.98 67.51 46.28 67.49 46.42 67.57 48.08 67.55 48.33 67.43 48.63 67.47 48.88 67.36 49.15 67.34 50.92 67.34 52.36 67.43 52.56 67.54 52.98 67.56 58.45 67.61 59.28 67.44 61.8 67.4 61.96 67.32 62.62 67.34 63.42 67.29 63.63 67.21 64.59 67.19 64.8 67.12 65.02 67.14 65.15 67.06 66.92 67.04 67.68 66.91 69.75 66.84 70.12 66.76 72.69 66.71 73.41 66.35 73.78 66.36 74.04 66.25 74.27 66.27 74.47 66.15 74.76 66.18 75.42 66.07 76.19 66.06 76.38 65.98 77.16 65.93 77.33 65.81 78.07 65.78 78.29 65.66 79.16 65.63 79.59 65.54 80.7 65.44 81.8 65.46"/>
    <polyline class="cls-4" points="62.99 36.5 62.98 40.02 63.12 40.56 63.1 40.99 63.2 42 63.31 42.18 63.32 42.64 63.4 42.77 63.38 43.17 63.5 43.41 63.51 45.06 63.59 45.24 63.6 45.84 63.71 46.11 63.69 48.11 63.79 48.81 63.79 50.67 63.86 51.03 63.88 53.02 63.96 53.13 63.94 53.43 64.16 54.56 64.28 54.73 64.27 55.05 64.36 55.15 64.35 55.29 64.48 55.6 64.59 56.57 64.7 56.86 64.71 57.27 64.83 57.47 64.8 57.83 64.87 58.24 64.93 60.77 65.01 60.9 64.99 61.14 65.06 61.26 65.11 62.33 65.22 62.58 65.21 63.3 65.29 63.4 65.26 63.66 65.37 63.95 65.36 64.25 65.45 64.34 65.42 64.68 65.5 64.83 65.48 65.1 65.6 65.3 65.57 65.51 65.66 65.71 65.7 66.29"/>
    <polyline class="cls-4" points="63.6 59.25 62.59 59.62 61.6 59.66 61.29 59.81 60.86 59.85 60.55 59.99 59.65 60.02 58.94 60.25 58.54 60.23 58 60.45 57.75 60.41 57.1 60.58 56.6 60.6 56.48 60.67 55.96 60.72 55.5 60.92 55.17 60.89 54.74 61.07 53.94 61.05 53.81 61.12 53.42 61.13 53.21 61.29 52.15 61.57 50.92 61.58 50.8 61.66 50.55 61.64 50.13 61.78 49.62 61.8 49.37 61.91 48.5 61.93 46.18 61.92 46.28 61.64"/>
    <polyline class="cls-4" points="61.09 37.53 60.47 38.27 60.03 38.65 59.88 39.06 59.58 39.49 59.12 40.48 58.84 40.71 58.84 40.79 58.62 41 58.4 41.46 57.95 41.91 57.78 42.33 57.57 42.57 57.34 43.05 57.33 43.26 57.15 43.55 56.65 44.07 56.38 44.55 56.17 44.73 56.05 45.06 55.81 45.25 55.44 45.87 55.09 46.23 54.91 46.68 54.04 47.55 53.92 47.85 53.2 48.57 52.89 49.14 52.73 49.27 52.65 49.5 52.43 49.68 52.36 49.86 52.21 49.96 52.16 50.11 51.99 50.26 51.44 51.21 50.7 51.73 50.69 51.88 48.59 55.95 48.36 56.33 48.19 56.44 47.88 57.11 47.73 57.25 47.66 57.46 47.49 57.55 47.11 58.32 46.92 58.62 46.82 58.66 46.5 59.36 46.39 59.4 46.03 60.07 46.04 60.24"/>
    <polyline class="cls-4" points="63.61 37.18 63.97 37.76 64.53 38.91 65.42 40.35 65.51 40.41 65.85 41.1 66.07 41.39 66.5 41.7 66.94 42.54 67.31 42.75 67.48 43.2 67.62 43.27 67.93 43.65 68.12 44.04 68.33 44.22 68.52 44.57 68.7 44.77 68.91 45.21 69.31 45.83 70.46 48.06 70.56 48.43 70.74 48.75 70.7 48.83 71.87 50.97 72.1 51.03 72.23 51.13 72.25 51.26 72.66 51.56 72.78 51.74 73.03 51.86 73.07 51.99 73.51 52.41 74.24 53.34 74.42 53.46 74.49 53.61 74.71 53.77 74.94 53.84 75.38 54.72 75.83 55.37 77.05 57.72 77.3 58.09 77.68 58.43 77.86 58.85 77.95 58.86 78.11 59.1 78.27 59.13 79.07 60.06 79.11 60.2 79.31 60.34 80.38 62.49 80.43 62.56 80.5 62.5"/>
    <polyline class="cls-4" points="79.75 61.71 79.75 61.76 79.06 61.95 78.66 61.97 77.99 62.1 77.91 62.17 77.55 62.15 77.54 62.2 77.04 62.33 76.37 62.33 75.96 62.46 75.11 62.46 74.46 62.66 73.69 62.7 72.58 62.87 71.87 63.06 71.58 63.05 71.07 63.25 70.82 63.26 69.84 63.64 69.42 63.65 68.59 64.04 68.14 64.08"/>
    <polyline class="cls-4" points="67.07 63.38 67.24 61.65 67.34 61.32 67.55 59.64 67.66 59.31 67.68 58.24 67.82 57.79 67.79 57.35 67.87 57.21 67.89 56.72 67.96 56.54 67.92 53.9 67.83 52.83 67.76 52.76 67.61 51.77 67.5 51.63 67.46 50.94 67.38 50.85 67.33 50.45 67.31 49.76 67.18 49.64 67.18 49.37 66.41 47.94 66.43 47.79 66.33 47.67 66.25 47.13 66.08 46.81 66.07 46.51 65.9 46.08 65.92 45.81 65.8 45.67 65.73 45.03 65.55 44.78 65.45 43.97 65.33 43.82 65.33 43.44 65.18 43.08 65.08 42.31 64.98 42.16 64.99 42 64.5 41.1 64.51 41.01 63.71 39.51 63.73 39.25 63.85 39.06"/>
    <line class="cls-4" x1="66.15" y1="63.46" x2="66.14" y2="63.48"/>
    <polyline class="cls-4" points="66.36 62.94 64.72 63.86 64.44 63.92 63.54 63.9 63.42 63.97 63.11 63.96 62.98 64.03 62.66 64.02 62.26 64.12"/>
    <line class="cls-4" x1="42.96" y1="67.31" x2="43" y2="67.31"/>
    <polyline class="cls-4" points="43.55 66.26 44.89 66.13 45.76 66.14 45.96 66.07 48.35 66.08 48.82 66.05 49.31 65.84 49.65 65.88 49.92 65.8"/>
    <polyline class="cls-4" points="51.92 65.6 54.77 65.39 55.61 65.15 56.72 64.99 57.18 64.82 57.62 64.78 58.11 64.65 58.31 64.53 60.57 64.4 61.53 64.25 61.7 64.15"/>
    <line class="cls-4" x1="66.51" y1="63.26" x2="66.5" y2="63.27"/>
    <polyline class="cls-4" points="50.58 61.48 49.93 63.53 49.89 63.99 49.63 64.88 49.65 65.24 49.58 65.36 49.53 66.04 49.45 66.19 49.48 66.75 49.3 66.99 49.32 67.27"/>
    <polyline class="cls-4" points="79.53 63.04 80 63.48 80.18 63.74 80.28 64.03 80.98 65.29"/>
  </g>
</svg>