<?xml version="1.0" encoding="UTF-8"?>
<svg id="Layer_1" data-name="Layer 1" xmlns="http://www.w3.org/2000/svg" version="1.1" xmlns:xlink="http://www.w3.org/1999/xlink" viewBox="0 0 491 161">
  <defs>
    <style>
      .cls-1 {
        stroke: #4659a8;
      }

      .cls-1, .cls-2, .cls-3, .cls-4, .cls-5 {
        fill: none;
      }

      .cls-1, .cls-3, .cls-4, .cls-5 {
        stroke-linecap: round;
        stroke-linejoin: round;
        stroke-width: 1.27px;
      }

      .cls-2 {
        stroke-width: 0px;
      }

      .cls-3 {
        stroke: #77cfe6;
      }

      .cls-4 {
        stroke: #000;
      }

      .cls-6 {
        clip-path: url(#clippath);
      }

      .cls-5 {
        stroke: #fae608;
      }
    </style>
    <clipPath id="clippath">
      <rect class="cls-2" x="-21" y="-18" width="514" height="685"/>
    </clipPath>
  </defs>
  <g class="cls-6">
    <polyline class="cls-1" points="41.76 89.19 42.63 89.52 42.95 89.44 43.77 89.46 44.02 89.57 46.31 89.54 47.44 89.4 50.46 89.41 50.66 89.3 52.83 89.19 53.08 89.08 58.52 89.1 58.67 88.98 59.03 88.95 64.86 88.92 66.56 88.77 68.62 88.79 68.79 88.67 69.73 88.64 77.41 88.65 79.15 88.52 79.37 88.4 81.49 88.34 82.22 88.19 83.21 88.17 83.39 88.05 84.3 88.07 84.82 87.81 97.06 87.76 97.54 87.6 98.37 87.63 98.64 87.52 101.66 87.44 102.46 87.29 103.16 87.31 103.56 87.15 103.88 87.18 104.42 86.95 104.83 87.01 105.38 86.9 105.85 86.7 106.16 86.74 106.39 86.62 106.87 86.64 107.14 86.53 108.88 86.51 109.16 86.33 113.03 86.28 113.3 86.13 114.63 86.07 114.95 85.95 115.32 85.97 115.6 85.8 116.02 85.83 116.31 85.73 118.35 85.75 118.68 85.64 119.27 85.65 120.92 85.37 123.27 85.35 123.67 85.23 125.19 85.2 128.98 85.21 129.7 85.3 130.02 85.51 130.55 85.58 130.98 85.84 131.5 85.78 131.59 85.89 132.19 85.88 132.37 85.99 133.56 86.06 133.74 86.17 134.21 86.15 134.85 86.3 136.8 86.42 137.01 86.52 137.33 86.5 137.45 86.61 138.43 86.64 138.66 86.75 141.74 86.87 142.39 86.91 142.54 87.01"/>
    <polyline class="cls-4" points="142.35 79.26 142.98 80.18 143.5 81.16 143.43 81.47 143.63 83.96 143.78 84.53 144.06 84.92 144.18 86.36 144.3 86.53 144.32 87.21 144.43 87.52 144.41 92.23 144.26 93.97 144.27 97.45 144.08 99.66 144.1 101.47 144.03 101.97 143.93 102.09 143.95 103.06 143.8 103.48 143.67 104.42 143.57 104.54 143.4 107.54 143.29 107.67 143.21 108.35 143.11 108.48 142.98 109.56 142.74 109.9 142.7 110.27 141.76 112.04 141.52 112.12 140.57 113.06 140.51 113.23 138.88 113.96 138.56 114.38 138.26 114.43 137.75 114.71 134.96 114.74 133.52 114.92 133.31 115.03 125.8 115.05 121.36 115.18 120.26 115.49 119.14 115.44 118.94 115.56 118.07 115.54 117.84 115.65 116.25 115.92 114.7 115.9 114.4 116.01 113.54 116.03 112.57 116.28 110.45 116.48 110.17 116.65 109.24 116.6 108.89 116.78 108.48 116.76 108.25 116.86 100.38 116.88 99.53 117.11 98.12 117.16 96.99 117.42 96.07 117.37 94.23 117.62 93.59 117.6 90.79 118.07 89.26 118.58 88.43 118.68 87.33 118.66 86.09 118.83 79.19 118.8 78.51 118.97 77.55 118.99 74.84 118.98 73.67 118.65 72.26 118.57 71.72 118.35 71 118.41 70.75 118.29 70.36 118.3 65.54 116.75 64.99 116.8 64.61 116.69 62.87 116.65 61.31 116.46 59.26 116.37 55.84 116.39 54.43 116.34 54.06 116.17 52.97 116.21 52.02 115.91 51.15 115.89 50.48 115.54 50.17 115.57 49.33 115.23 49.11 115.27 48.74 115.05 48.42 115.05 47.76 114.79 47.44 114.83 46.86 114.57 46.01 114.51 45.61 114.28 44.89 114.24 44.63 114.02 43.48 113.49 41.82 113.26 40.88 112.79 40.71 112.42 40.56 112.35 39.63 110.51 39.63 109.95 39.47 109.54 39.48 109.06 39.36 108.94 39.29 108.57 39.3 107.17 39.06 104.98 39.07 101.55 39.44 100.07 39.63 99.71 39.68 99.06 39.85 98.78 39.81 98.54 39.96 98.29 40.17 96.06 40.45 94.65 40.63 91.96 40.74 91.85 40.82 90.45 40.93 90.12 40.97 87.18 40.71 86.69 40.73 86.37 40.61 86.23 40.63 85.61 40.47 85.26 40.45 83.63 40.35 83.09 40.24 82.93 40.27 81.84 40.14 81.68 40.17 80.26"/>
    <polyline class="cls-4" points="62.85 140.15 62.34 138.94 62.07 138.69 60.94 138.12 60.66 138.04 59.6 138.05 59.36 138.26 59.17 138.22 58.87 138.83 59.03 139.84 59.66 140.91 59.91 141.04 60.44 142.02 61.04 142.75 61.65 143.88 61.94 144.63 61.93 145.49 61.62 146.02 61.38 146.3 60.37 146.78 59.24 146.8 58.77 146.7 58.12 146.35 57.52 145.73 57 144.78 56.74 144.75 56.55 144.57 56.58 144.47 56.42 144.22 56.44 143.97 56.78 143.3 57.37 142.73 58.11 142.3"/>
    <polyline class="cls-4" points="66.84 140.11 66.48 140.89 66.11 142.07 65.75 144.16 65.77 146.12 66.06 145.85"/>
    <line class="cls-4" x1="68.46" y1="136.43" x2="68.44" y2="136.44"/>
    <polyline class="cls-4" points="70.1 141.5 69.75 142.88 69.61 143.06 69.69 144.97 69.92 145.03 70.61 144.89 71.52 144.43 72.39 143.54 72.49 143.27 72.88 142.87 73.46 141.68 73.56 142.17 73.54 143.22 73.34 143.94 73.36 144.92 73.47 145.24 73.97 145.46 74.47 145.41 75.47 145.05 77.16 143.86 77.85 142.91 78.32 142.52 78.46 142.22 78.38 142.34 78.7 143.06 78.63 143.98 78.46 144.43 78.5 146.26 78.93 147.16 79.55 147.36"/>
    <polyline class="cls-5" points="128.58 28.5 128.55 27.31 128.39 27.06 126.8 26.28 125.73 26.26 125.72 26.34 125.42 26.36 124.74 26.69 123.48 27.84 123.37 28.28 123.02 28.7 121.63 31.67 121.67 33.01 121.54 33.29 121.57 34.63 121.81 35.01 121.76 35.37 121.89 35.47 122.39 36.63 122.72 36.99 124.75 37.95 127.47 37.83 127.89 37.55 127.98 37.6 128.37 37.45 129.24 37.03 129.67 36.61 130.9 34.21 131.04 33.59 131.4 32.82 131.36 30.56 130.78 29.56 130.55 29.41 130.36 29.02 129.5 28.17 129.27 27.82 128.16 27.27"/>
    <polyline class="cls-5" points="132.11 27.73 132.7 26.91 133.39 26.42 134.06 25.73 135.31 24.97 136.3 24.66"/>
    <polyline class="cls-5" points="133.36 32.18 134.34 32.67 135.59 32.93 136.01 32.91 137.05 33.4"/>
    <polyline class="cls-5" points="131.47 38.85 131.27 39.41 131.32 40.24 131.82 41.09"/>
    <polyline class="cls-5" points="125.08 40.9 124.65 41.47 124.09 42.52 122.63 44.23 122.45 44.65 122.48 44.83"/>
    <polyline class="cls-5" points="118.69 38.63 117.64 38.63 116.53 38.92 114.63 38.9"/>
    <polyline class="cls-5" points="119.24 33 117.29 31.09 117.11 30.74 116.8 30.46 116.2 29.39 116.37 29.02"/>
    <polyline class="cls-5" points="121.03 23.39 120.33 22.23 120.17 21.65 120.19 20.28 120.48 19.4 120.79 19.28"/>
    <polyline class="cls-5" points="126.98 22.34 126.92 22.26 127.44 21.46 127.71 20.74 128.87 19.87"/>
    <polyline class="cls-4" points="258.54 140.08 256.9 139.4 255.83 139.54 255.59 140.18 255.64 141.16 257.47 144.79 257.52 145.89 256.89 147.15 256.21 147.42 255.41 147.38 254.42 146.7"/>
    <polyline class="cls-4" points="262.64 141.08 261.75 141.65 261.25 142.11 260.36 144.03 260.44 144.65 260.83 145.46 261.64 146.08 261.95 146.15 262.75 146.06 264.01 145.72 264.74 145.32 265.83 143.94 266.2 142.95 266.17 142.7 265.84 142.18 263.86 141.26 263.49 141.32 262.63 141.7 262.52 142.26 262.53 142.54 262.66 142.59"/>
    <polyline class="cls-4" points="270.73 135.22 270.06 136.37 268.82 140.03 268.73 140.83 268.78 143.16 269.16 144.26 269.51 144.91 269.72 145.1 270.04 145.2 270.48 145.13 271.53 144.7"/>
    <polyline class="cls-4" points="273.48 141.22 273.11 142.03 272.75 143.47 272.78 144.47 272.96 144.74 272.99 145.01 273.2 145.26 273.52 145.24 273.89 145.01"/>
    <line class="cls-4" x1="276.61" y1="139.82" x2="276.59" y2="139.83"/>
    <polyline class="cls-4" points="280.84 141.53 279.46 141.85 278.57 143.15 278.47 143.72 278.55 144.56 279.03 145.5 279.22 145.6 279.76 145.53 280.78 144.91 282.3 142.81 282.9 140.68 283.48 137.73 283.81 136.55 283.77 135.78 283.19 136.79 282.91 137.55 282.73 139.12 282.29 140.3 282.15 141.35 282.19 141.83 282.98 144.76 283.39 145.5 283.8 145.85 284.37 145.85"/>
    <polyline class="cls-4" points="288.42 142.2 289.13 142.02 290.38 141.4 290.56 141.42"/>
    <polyline class="cls-4" points="297.66 138.45 296.96 138.15 295.64 137.79 295.31 137.83 294.61 138.18 294.48 138.54 294.53 139.08 294.89 139.93 296.87 142.13 297.6 143.62 297.12 144.52 296.93 144.7 296.23 144.91 295.07 144.84 294.47 144.61 293.93 144.55 293.66 144.4 293.56 144.21 293.66 143.9 294.02 143.63"/>
    <polyline class="cls-4" points="301.06 133.71 300.93 134.09 300.96 135.7 300.84 136.31 300.86 138.54 300.98 138.98 300.97 139.65 300.66 140.77 300.31 142.64 299.72 144.28 299.78 144.57 299.46 143.98 299.52 142.62 300.26 141.31 301.35 140.77 302.43 140.37 303.34 140.43 304.07 140.82 304.23 140.78"/>
    <polyline class="cls-4" points="305.73 141.4 304.76 141.16 304.46 141.2 304.19 141.46 303.85 142.04 303.91 142.47 304.27 143.09 304.58 143.36 305.23 143.53 305.97 143.48 307.65 142.92 308.15 142.54 308.51 141.8 308.42 141.43 308.03 141.34 307.78 141.34 307.41 141.59 306.99 142.43 307.02 143.5 307.2 143.77 307.52 143.89 308.08 143.84"/>
    <polyline class="cls-4" points="312.5 133.75 311.91 135.25 311.53 137.41 311.56 138.09 311.29 139.2 311.34 140.1 311.17 140.77 311.2 142.71 312.29 140.25 312.72 140.47 314.07 141.66 315.16 141.92 316.73 141.83 317.89 141.35 318.22 141.06 318.54 140.34 318.5 139.91 318.38 139.66 317.49 139.39 316.79 139.5 316.56 139.62 316.3 139.97 315.94 141.09 315.99 142.28 316.27 143.18 316.68 143.67 318.6 144.88 319.23 145.14 320.47 145.41"/>
    <polyline class="cls-4" points="332.82 138.27 332.96 140.43 332.94 144.65 332.82 145.12 332.85 146.78 332.6 147.87 332.09 147.34 331.96 146.99 332.04 145.91 332.25 145.14 332.66 142.65 333.68 139.65 334.18 139.22 335.61 138.71 335.94 138.76 336.42 139.05 336.69 139.35 337.21 141.23 336.78 143.05 336.29 143.88 335.56 144.8 334.47 145.41 334.08 145.51 333.31 145.44 332.57 145.05 332.39 144.86 332.27 144.54 332.34 144.11 332.81 142.8"/>
    <polyline class="cls-4" points="340.63 133.12 340.49 134.75 340.15 136.2 339.8 138.68 339.84 139.72 339.72 140.62 339.75 141.47 339.86 141.89 340.21 142.46 341.15 142.09 342 141.52 342.68 140.81 343.88 139.85 343.92 139.7 344.02 140.08 344.07 141.37 344.75 142.6 345.36 142.75"/>
    <polyline class="cls-4" points="348.31 138.22 347.97 139.62 348.03 140.45 348.34 141.53 348.66 142.1 349.27 142.6 350.04 142.53"/>
    <polyline class="cls-4" points="353.23 139.65 351.47 141.79 350.3 143.62 349.41 144.65 346.23 149.17 345.77 149.55 345.72 149.83 345.8 149.94"/>
    <polyline class="cls-4" points="357.64 138.13 356.55 137.44 355.9 137.34 354.92 137.77 354.92 138.33 355.29 138.94 356.92 140.42 357.48 141.57 357.44 141.84 357.05 142.47 355.87 143.63 355.23 143.88 354.95 143.84"/>
    <polyline class="cls-4" points="361.41 138.89 360.42 140.7 360.34 140.97 360.38 141.71"/>
    <line class="cls-4" x1="365.08" y1="135.85" x2="365.06" y2="135.86"/>
    <polyline class="cls-4" points="366.43 138.55 365.81 138.71 364.79 139.23 363.53 140.1 362.91 140.73 362.84 140.91 362.93 141.35 363.15 141.71 363.74 142.25 364.53 142.63 365.31 142.77 366.62 142.72 367.35 142.56"/>
    <polyline class="cls-4" points="374.18 137.15 373.62 137.01 373.04 137.05 372.71 137.35 372.35 137.52 372.27 137.72 372.45 138.5 373.44 140.07 373.79 141.04 373.32 141.84 372.7 142.47 372.42 142.56 371.63 142.51 371.54 142.4"/>
    <polyline class="cls-4" points="388.71 133.54 387.88 135.08 386.3 137.44 384.84 140.57 383.68 143.97 383.74 144.54 383.85 144.68 384.55 144.43"/>
    <polyline class="cls-4" points="394.17 138.8 393.53 138.66 392.86 138.7 392.34 138.95 391.74 139.54 390.89 141.05 390.83 141.41 390.92 142.29 391.23 143.31 391.85 143.64 392.41 143.58"/>
    <polyline class="cls-4" points="397.99 133.26 396.74 135.45 396.02 137.39 395.5 139.51 394.94 141.34 394.87 141.83 394.95 143.33 395.36 144.14 395.78 144.46 396.47 144.37 398.21 143.53 398.57 143.25 399.07 142.56 399.5 142.28 399.95 141.58 399.95 143.24 400.64 144.39 401.07 144.57 401.8 144.5 403.07 144.14 404.93 143.14 405.82 142.2 406.05 141.81 406.28 141.27 406.23 140.93 406.06 140.6 404.73 140.19 404.17 140.24 403.36 140.57 403.08 140.88 402.73 141.98 402.76 143.12 402.87 143.47 403.42 144.17 403.77 144.3 404.57 144.41 405.4 144.37 406.11 144.21"/>
    <polyline class="cls-4" points="408.24 139.96 407.75 140.98 407.55 141.9 407.58 143.67 407.96 144.3 408.24 144.48 408.46 144.57 409.09 144.51 410.1 143.99 410.93 143.13 411.44 141.88 411.81 141.28 411.85 141.75 412.04 142.08 411.98 142.54 412.1 142.72 412.14 143.14 412.72 143.24 413.85 142.68 414.93 141.62 415.18 141.21 415.44 141.99 415.38 142.72 415.61 143.32 415.75 143.34 416.37 143.31 417.72 142.65 418.12 142.37 418.5 141.76 418.97 141.36 419.08 141.15 418.99 141.27 419.18 141.62 419.16 143.1 419.28 143.64 419.8 144.94"/>
    <polyline class="cls-4" points="424.56 138.84 424.16 141.04 424.28 143.84"/>
    <line class="cls-4" x1="426.07" y1="136.88" x2="426.05" y2="136.89"/>
    <polyline class="cls-4" points="430.38 139.57 429.18 139.8 428.71 140.1 428.12 140.7 427.95 141.13 427.99 142.1 429.09 144.07 429.03 144.36 428.7 144.93 428.08 145.55 427.43 145.8 426.2 145.72 426.01 145.32 426.06 144.87 426.4 144.45"/>
    <polyline class="cls-4" points="435.69 133.97 435.25 134.66 434.6 136.28 434.48 137.02 434.51 137.49 434.24 138.57 434.17 139.65 433.59 141.93 433.65 142.54 433.07 142.5 432.52 141.59 433.34 141.27 434.4 141.32 435.22 141.03 436.51 141.04 436.97 140.85"/>
    <polyline class="cls-4" points="437.05 138.49 436.92 138.82 436.95 140.11 437.28 140.62 438.75 141.98 439.81 142.26 440.34 142.24"/>
    <polyline class="cls-4" points="442.8 139.25 442.66 139.59 442.67 140.06 442.7 141.2 442.86 141.71 443.29 142.51 444.05 143.21 444.13 143.18"/>
    <polyline class="cls-4" points="449.37 139.25 448.16 140.12 445.16 143.08 440.57 147.11 437.14 150.52 436.43 151.62"/>
    <polyline class="cls-1" points="234.74 84.23 235.33 83.04 235.95 82.45 236.29 82.34 236.59 81.96 237.12 81.7 237.23 81.5 238.58 80.67 239.18 80.41 239.25 80.26 240.98 79.47 241.27 79.04 241.62 78.95 243.4 77.82 246.76 76.18 247.32 76.04 247.92 75.72 248.14 75.74 248.6 75.54 249.61 75.34 250.03 75.12 250.53 75.07 251.5 74.69 252.55 74.67 253.16 74.47 253.65 74.49 256.6 74.08 259.49 74.09 262.62 75.63 262.7 75.78 264.41 76.56 264.72 76.96 264.95 77 265.4 77.67 265.82 77.89 266.26 78.77 266.52 78.87 266.64 79.14 266.99 79.24 267.04 79.5 267.34 79.62 267.65 80.07 267.86 80.18 267.92 80.43 268.2 80.55 268.33 80.88 268.6 81.05 268.71 81.39 269.05 81.66 269.3 82.18 269.47 82.23 269.81 83.02 270.55 83.36 270.57 83.6 271.66 85.59 271.68 85.83 272.52 87.54 272.82 87.73 272.94 87.98 273.18 88.09 273.25 88.32 273.56 88.58 273.67 88.93 273.82 88.97 274.12 89.48 274.42 89.65 274.75 90.31 274.87 90.29 275 90.45 275.34 90.58 275.41 90.73 275.76 90.85 276.06 91.23 276.23 91.26 276.51 91.52 277.73 92.15 278.41 92.97 280.91 94.21 281.45 94.29 283.95 94.28 284.86 94.15 286.6 93.25 287.28 93.05 287.86 92.73 288.26 92.66 292.11 90.85 292.6 90.74 292.76 90.52 293.47 90.19 293.72 89.98 299.65 87.01 300.41 86.31 301.02 86.03 301.28 85.7 301.45 85.63 301.58 85.38 301.75 85.34 302.09 84.89 302.22 84.87 302.35 84.63 303.25 83.78 303.8 83.41 304.08 82.88 304.29 82.84 304.96 82.12 305.2 82.01 305.28 81.83 306.03 81.23 307.09 80.68 307.51 80.33 311.37 78.42 311.66 78.42 312.03 78.2 313.97 77.48 314.3 77.52 314.85 77.26 315.47 77.32 315.65 77.2 316.3 77.22 317.12 76.97 320.8 76.86 321.22 76.75 327.1 76.77 327.73 76.93 329.62 76.99 330.22 77.25 330.78 77.21 330.95 77.32 331.45 77.36 331.92 77.6 332.36 77.63 332.77 77.82 333.61 77.89 334.64 78.18 334.95 78.15 335.27 78.32 335.75 78.29 337.12 78.96 337.35 78.92 337.74 79.12 338.04 79.09 338.52 79.19 338.73 79.34 338.96 79.32 341.2 80.37 341.86 81 342.02 81.28 342.7 81.59 342.88 81.94 343.33 82.36 343.59 82.86 343.84 83.07 344.43 84.24 344.83 84.49 344.91 84.83 345.08 84.91 345.33 85.35 345.81 85.87 346.11 86.48 346.55 86.9 347.2 87.92 347.48 88.05 347.53 88.29 347.8 88.48 348.32 89.54 348.43 90.07 348.84 90.55 349.78 91.1 350.73 92 351.65 92.46 352.95 93.9 353.47 94.18 354.07 94.81 354.95 95.22 355.13 95.55 355.77 96.29 356.17 96.54 356.32 96.78 356.48 96.8 356.65 97.05 357.24 97.34 357.42 97.58 357.68 97.65 357.88 97.94 358.71 98.45 360.88 99.48 361.24 99.51 361.52 99.71 361.96 99.78 362.62 100.15 362.89 100.13 363.19 100.34 364.68 100.44 364.92 100.55 366.88 100.49 369.05 99.52 369.53 99.11 370.44 98.6 370.82 98.2 371.55 97.82 371.93 97.45 372.5 97.24 373.06 96.91 373.34 96.61 373.79 96.43 374.26 96.03 374.38 95.67 374.67 95.5 374.87 95.12 377.39 92.9 377.89 92.3 379.25 91.63 379.33 91.41 379.53 91.31 380.14 90.51 380.43 90.41 381.25 89.73 386.39 87.27 387.58 86.4 387.92 86.27 388.48 85.79 391.43 84.32 392.55 83.34 395.12 82.13 395.46 81.75 395.95 81.56 396.77 80.78 397.48 80.35 398.62 79.42 398.88 79.32 399.99 78.2 400.33 78.09 401.75 77 406.38 74.9 406.65 74.94 406.79 74.83 407.59 74.7 408 74.72 408.41 74.55 408.75 74.59 409.61 74.38 414.75 74.31 415.22 74.36 415.45 74.52 416.16 74.58 416.74 74.78 416.99 74.76 417.28 74.92 418.63 75.22 419.13 75.5 419.37 75.48 420.03 75.82 420.95 75.93 422.84 76.88 424.17 77.75 424.48 77.85 424.96 78.19 425.05 78.56 425.26 78.79 425.56 78.77 429.6 80.76 429.85 81.1 430.11 81.21 430.37 81.61 430.65 81.69 430.72 81.84 430.89 81.89 431.04 82.22 431.2 82.3 431.6 82.89 431.76 82.98 432.01 83.47 432.16 83.54 432.8 84.81 432.93 85.27 434.44 88.17 434.87 88.69 435.42 89.65 436.35 90.65 436.48 91.02 437.22 91.62 437.95 92.54 438.18 92.69 439.52 95.26 440.11 96.19 440.55 96.57 440.88 96.7 441.09 97.1 441.39 97.24 442.55 98.39 442.96 98.53 443.15 98.75 444.71 99.35 445.12 99.37 445.57 99.58 445.87 99.54 446.18 99.75 446.55 99.78 447.29 100.16 448.71 100.37 450.94 100.22 452.1 99.85 452.88 99.73 454.14 99.21 455.02 99.04 455.41 98.81 455.75 98.79 456.16 98.54 456.64 98.43 461.47 96.02 461.51 95.9 462.03 95.64 462.78 94.91 462.78 94.77 463.59 94.08 463.68 93.81 463.82 93.76 464.04 93.44 464.18 93.43 464.22 93.26 464.79 92.68 465.52 92.32 465.85 92 466.72 91.62 466.99 91.3 468.75 90.53 473.1 90.53 474.14 90.48 474.41 90.37 477.9 90.34"/>
    <polyline class="cls-3" points="395.96 29.59 396.55 29.2 397.03 28.59 397.54 28.32 398.71 27.28 404.23 24.58 405.33 23.73 408.49 22.19 413.02 20.46 413.2 20.25 415.16 19.34 416.57 18.8 416.79 18.82 417.65 18.53 418.83 18 419.73 17.91 420.08 17.68 420.28 17.71 420.78 17.46 420.91 17.49 422.79 16.57 423.25 16.51 425.84 15.49 432.02 13.4 432.3 13.42 433.63 12.99 434.6 12.9 435.16 12.69 439.11 12.69 440.07 12.52 448.73 12.55 450.18 12.74 450.36 12.84 450.83 12.82 451.18 13.04 452.32 13.19 452.89 13.39 453.65 13.34 454.73 13.8 455.11 13.81 455.46 14.02 455.97 14.08 457.86 15.05 458.04 15.4 458.68 16.02 458.82 16.34 459.56 17.23 460.27 17.82 460.55 17.94 460.87 18.69 461.26 19.23 461.67 20.45 463.47 23.75 463.46 24.12 464.05 25.76 464.01 26.21 464.28 26.99 464.44 29.3 464.81 29.97 464.89 31.39 465.05 31.68 465.09 33.35 465.07 36.76 464.95 37.03 465.03 39.76 464.7 40.41 464.67 40.79 464.41 41.36 464.35 41.96 463.78 43.11 463.45 43.53 463.19 44.27 462.91 44.57 462.81 44.92 462.18 45.66 461.99 46.13 461.64 46.44 461.53 46.73 461.07 47.11 461.02 47.28 460.63 47.59 460.59 47.53 460.3 47.95 459.73 48.41 459.61 48.41 458.88 48.97 457.06 49.97 455.03 50.89 454.62 51.18 452.28 52.31 452.16 52.26 451.37 52.77 450.59 53.09 450.15 53.48 449.65 53.66 449.11 54.08 446.76 55.19 446.05 55.72 445.1 56.09 444.76 56.5 443.57 56.94 443.42 56.92 442.97 57.17 442.61 57.12 442.05 57.38 441.87 57.37 440.14 58.12 439.41 58.76 438.51 59.35 438.05 59.74 437.55 60.36 437.21 60.5 436.78 60.92 436.58 61.47 435.89 62.53 434.7 65.01 434.74 65.68 434.47 66.07 434.36 66.68 433.78 67.68 433.81 67.94 433.52 68.48 433.56 68.76 432.98 69.79 433 70.04 432.68 70.55 432.72 70.75 432.41 71.25 432.31 72.08 432.19 72.22 432.17 72.82 431.91 73.29 431.83 73.66 431.8 78.58 431.9 78.94 431.93 80.72 432.05 80.96 432.27 81.11 432.65 81.01"/>
    <polyline class="cls-3" points="395.78 29.28 395.19 29.74 394.45 30.13 393.76 30.9 393.62 30.89 393.41 31.07 392.5 32.09 392.23 32.7 391.83 33.18 391.36 34.34 391.4 35.16 391.28 35.33 391.31 35.91 391.19 36.22 391.21 37.39 391.34 37.56 391.37 38.06 391.51 38.27 391.49 38.82 391.61 38.99 391.68 39.79 395.38 46.98 395.64 48.21 395.8 48.43 395.91 49.17 396.08 49.4 396.04 49.61 396.19 50.11 396.32 51.23 396.36 54.48 396.09 55.01 396.14 55.1 395.98 55.33 395.85 55.85 394.99 57.51 394.81 57.58 394.7 57.84 394.57 57.86 394.43 58.08 393.85 58.37 393.73 58.54 393.28 58.7 393.04 58.91 393.02 59.08 392.74 59.2 392.5 59.49 392.41 59.8 392.27 59.83 391.01 62.31 390.94 65.69 391.15 66.99 391.14 69.75 390.99 70.57 390.41 71.77 390.11 72.79 389.53 73.93 389.36 74.51 388.62 75.88 388.64 76.13 388.38 76.6 388.39 76.75 387.38 78.63 387.09 79.49 385.17 83.25 385.2 83.47 384.94 83.87 384.99 84 383.83 86.45 383.87 86.91 383.65 87.41"/>
    <polyline class="cls-3" points="339.25 78.5 338.46 77.46 338.47 77.3 337.94 76.81 337.69 76.44 336.89 75.87 336.42 75.33 336.06 75.15 335.45 74.29 335.09 73.95 334.56 72.99 334.37 72.85 333.9 72.09 333.04 70.42 333.09 69.85 332.97 69.67 332.83 68.73 332.62 68.46 332.26 67.34 332.3 67 332.04 65.83 332.02 65.16 331.76 64.24 331.74 62.39 331.54 61.54 331.52 60.33 331.36 59.21 331.33 56.93 331.22 56.64 331.24 54.52 331.04 53.51 331.05 52 330.88 51.63 330.62 50.11 330.41 45.67 330.24 45.33 330.27 44.98 330.11 44.35 329.45 42.75 329.13 42.34 328.16 39.71 327.93 39.31 326.83 36.17 326.57 34.97 325.82 32.57 325.84 32.29 325.27 30.71 325.22 29.98 324.93 29.57 324.73 28.67 322.83 25.01 322.45 24.48 321.95 24.03 321.88 23.72 321.63 23.52 321.54 23.27 320.24 22.36 319.8 21.88 319.42 21.75 319.08 21.36 318.22 21 316.9 19.66 316.64 19.55 316.18 18.98 315.95 18.89 315.28 18.2 315.25 18.06 314.59 17.73 314.02 17.18 313.9 16.93 313.55 16.85 312.49 16.25 309.59 14.89 308.67 14.83 308.48 14.68 307.57 14.46 304.29 14.38 303.64 14.71 303.48 14.64 303.15 14.87 302.98 14.84 300.07 16.21 299.88 16.51 299.5 16.65 299.38 16.85 298.66 17.14 298.45 17.63 297.88 17.78 297.49 18.16 297.22 18.24 297.12 18.5 296.92 18.55 296.82 18.76 296.5 18.91 296.36 19.22 295.8 19.8 295.69 20.4 295.4 20.5 295.3 20.79 294.98 21.08 294.93 21.31 294.76 21.36 294.63 21.77 294.02 22.14 293.81 22.83 293.51 23.29 293.3 23.41 292.64 24.87 292.69 25.33 292.47 25.67 292.48 25.99 292.28 26.44 292.32 26.92 292.02 27.32 292.09 27.93 291.97 28.12 291.93 29.66 291.94 32.55 292.06 32.73 292.03 33.07 292.38 33.62 292.46 34.12 292.51 34.16 292.5 34.06 292.72 34.57 293.08 34.86 293.85 35.2 294.98 35.19 295.59 34.87 296.24 33.49 296.22 32.98 295.77 32.78 295.04 32.82 294.51 32.48 294.43 32.27 293.98 32.05 293.57 31.3 293.58 29.76 296.48 24.13 296.62 24.09 296.71 23.83 297 23.69 297.08 23.55 297.59 23.34 297.76 23.08 298.53 22.74 298.84 22.73 299.5 22.36 300.03 22.28 300.55 22.04 300.87 22.07 301.38 21.78 301.78 21.73 302.41 21.42 304.42 21.15 308.62 21.12 308.73 21.23 309.31 21.21 309.71 21.36 310.06 21.34 310.92 21.77 311.42 21.79 312.17 22.17 313.12 23.3 314.92 26.89 314.93 27.22 315.09 27.49 315.07 27.78 315.44 28.5 315.48 29.04 315.61 29.14 315.79 29.67 315.79 30.33 315.91 30.58 315.94 31.12 316.1 31.35 316.17 32.03 316.34 32.29 316.35 32.78 316.46 33.02 316.43 33.8 316.56 34.05 316.63 34.75 317.05 35.52 317.03 36.07 317.27 36.48 317.23 36.74 317.33 37.11 318.05 38.44 318.48 39.67 318.45 40.33 318.57 40.52 318.55 41.36 318.66 41.82 318.69 46.18 318.73 46.89 318.85 47.09 318.87 48.59 319.08 51.07 319.06 52.43 319.16 53.1 319.06 63.2 318.88 65.72 318.76 65.9 318.63 67.51 318.64 69.89 318.81 70.16 319.15 72.53 319.3 72.92 319.28 73.35 319.4 73.53 319.52 76.27"/>
    <polyline class="cls-3" points="299.03 19.19 299.02 19.29 299.12 19.18 299.81 19 301.09 18.33 301.9 18.11 302.16 18.14 302.47 18.28 302.64 18.97 302.61 19.57 302.36 19.86 302.13 19.96 301.97 19.94 301.92 19.19 302.36 18.4"/>
    <polyline class="cls-3" points="306.8 18.36 306.98 17.64 307.18 17.3"/>
    <polyline class="cls-3" points="314.39 23 314.02 22.01 314.11 21.44 314.29 21.16 314.82 20.91 315.19 20.95 315.5 21.19 315.71 21.56 315.76 21.91 315.12 22.09 314.65 22.05 314.65 21.63 314.82 21.45"/>
    <polyline class="cls-3" points="309.49 19.81 309.35 19.77 310.41 19.15 311.14 18.91 311.53 18.95 311.84 19.2 312.02 19.66 311.98 19.97 311.78 20.21 311.22 20.34 310.87 20.32 309.94 19.81 310.12 19.44 310.95 19.07"/>
    <polyline class="cls-3" points="317 26.78 317.18 26.2 317.83 24.93 318.57 24.66 318.87 24.69 319.61 25.23 320.07 26.18 320.01 26.56 319.8 26.57 319.13 27.04 318.14 27.37 317.72 27.34 317.22 27.54 316.83 27.51 316.68 27.09 316.72 26.48 317.57 24.77 318.01 24.6 318.5 24.76"/>
    <polyline class="cls-3" points="319.4 32.42 319.38 30.35 319.63 29.77 320.32 29.63 321.13 30.13 321.5 30.63 321.67 31.1 321.38 31.72 320.74 32.29 320.48 32.39 319.48 32.42 318.92 32.1 318.73 32.13 318.86 31.96 319.31 31.74"/>
    <polyline class="cls-3" points="320.1 39.57 320.31 38.77 320.45 38.62 320.42 38.74 320.62 38.7 319.77 38.67 319.79 38.54 319.56 38.33 319.33 37.86 319.44 36.88 319.74 36.44 319.7 36.33 320.08 36.21 320.02 36.56 319.56 36.47 319.53 36 320.1 35.8 320.19 35.88 320.5 36.48 320.42 36.75 320.45 38.15 320.27 38.34 320.29 38.53 320.02 38.68 319.69 38.81 319.33 38.75"/>
    <polyline class="cls-3" points="324.26 37.08 323.96 36.15 324.03 35.25 324.17 34.96 324.33 34.87 324.71 34.88 325.11 35.13 325.63 36.28 325.6 36.53 325.29 36.97 325.03 37.62 324.41 37.87 323.15 37.83 322.88 37.63"/>
    <polyline class="cls-3" points="326.17 45.19 326.07 44.87 326.09 44.02 326.47 43.84 325.79 43.85 325.82 43.51 326.35 43.29 326.63 43.33 326.81 43.65"/>
    <polyline class="cls-3" points="321.23 45.32 321.74 44.23 322.07 43.86 322.23 43.52 323.04 42.91 323.75 42.58 324.31 42.56 324.81 43.05 324.93 43.49 324.37 43.72 324.14 43.68 324.28 43.67"/>
    <polyline class="cls-3" points="320.69 51.39 320.79 51.41 320.7 51.4 320.7 51.3 320.9 50.68 320.91 50.27 320.97 50.35 321.09 50.31 321.56 50.03 321.89 50.12 322.02 50.5 322 50.92 321.79 50.93 321.27 51.17 320.91 51.12 321.32 50.96"/>
    <polyline class="cls-3" points="326.69 50.15 326.04 49.1 326.19 48.18 326.48 47.61 326.98 47.46 327.52 48.63 327.46 49.35 326.56 51 325.9 51.25 326 51.21 326.29 50.62 326.86 50.18 326.93 49.98"/>
    <polyline class="cls-3" points="321.57 58.77 321.01 57.67 321.1 57.41 321.08 56.41 321.33 55.7 322.24 55.34 322.5 55.37 322.96 55.61 323.57 56.04 324.21 57.34 324.15 57.79 323.68 58.66 322.85 58.94 322.05 58.9 321.18 58.5 321.18 58.18 321.58 57.8 322.56 57.49"/>
    <polyline class="cls-3" points="328.03 55.6 328.21 54.89 328.44 54.53 329.02 54.38 329.45 54.52 329.45 54.87 329.67 55.32 328.94 56.27 328.54 57.02 328.22 57.29 328.13 57.48 328.19 57.49 327.55 57.51 327.39 57.13 327.54 56.68 327.35 57.31"/>
    <polyline class="cls-3" points="302.25 80.93 302.48 80.12 302.42 78.9 302.09 78.31 302.09 78.02 301.58 77.07 301.03 76.45 300.61 75.77 300.21 75.38 300.1 75.04 299.66 74.69 299.54 74.27 298.12 72.68 297.63 71.66 296.95 71.06 296.73 70.69 296.34 70.43 296.02 69.92 295.56 69.58 295.52 69.4 295.41 69.43 294.92 68.95 294.17 68.59 293.8 68.2 293.3 68 293.05 67.48 292.87 67.31 292.61 67.24 292.41 66.82 292.28 66.79 292.09 66.48 291.91 66.42 291.65 66.13 290.93 65.77 290.8 65.62 281.87 61.29 281.63 61.26 281.31 61.06 281.19 61.09 279.86 60.52 279.71 60.56 279.47 60.4 279.26 60.43 278.91 60.2 277.93 59.83 277.47 59.68 276.96 59.72 276.29 59.44 275.85 59.45 275.64 59.28 274.89 59.1 268.24 59.04 267.93 59.21 267.38 59.22 266.76 59.41 266.25 59.39 266.11 59.51 265.17 59.54 264.6 59.74 262.22 59.94 261.91 60.11 260.94 60.16 260.16 60.34 259.46 60.7 259.13 60.7 258.56 61.05 258.25 61.02 257.77 61.21 256.43 61.87 256.28 62.06 256.06 62.14 255.91 62.42 255.8 62.39 255.78 62.52 255.06 62.97 255.06 63.18 254.77 63.3 254.39 63.76 254.27 63.74 253.27 64.68 252.94 64.85 252.53 65.28 252.02 65.62 252.08 65.66 252.01 65.76 251.48 66.19 251.32 66.47 250.9 66.74 250.63 67.25 250.25 67.36 250.18 67.52 249.98 67.6 249.92 67.8 249.57 67.92 249.27 68.42 249.12 68.56 248.97 68.55 248.59 69.1 248.39 69.19 248.21 69.61 247.84 69.85 247.81 70.07 247.51 70.19 247.27 70.61 247.14 70.67 246.92 71.17 246.71 71.34 246.73 71.44 246.27 71.6 244.75 74.35 244.48 75.14 244.52 75.54 244.29 76.28 244.28 76.8"/>
    <polyline class="cls-3" points="295.57 88.11 294.08 87.37 293.09 86.63 292.58 85.86 291.45 84.79 291.24 84.22 290.67 83.56 289.17 82.11 288.45 81.68 288.26 81.4 287.84 81.23 287.65 80.7 287.49 80.55 287.1 80.43 286.77 80.14 285.68 79.66 285.41 79.18 284.21 78.57 283.52 77.91 283.38 77.91 283.06 77.62 281.9 77.08 281.73 76.84 281.44 76.69 280.98 76.09 280.22 75.68 279.77 75.22 278.52 74.66 278.42 74.47 278.1 74.4 277.88 74.19 277.19 73.89 277.09 73.71 276.77 73.63 272.75 71.65 272.51 71.68 272.34 71.53 271.53 71.42 271.33 71.29 267.71 71.28 267.27 71.44 266.57 71.51 266.25 71.68 264.15 71.9 263.66 72.15 263.4 72.12 263.08 72.28 262.33 72.26 262.01 72.38"/>
    <polyline class="cls-3" points="293.71 79.76 293.58 79.44 293.6 78.53 294.26 78.12 294.62 77.99 294.88 78.03 295.11 78.72 294.63 79.4 293.78 79.75 293.28 79.71 292.91 79.09 292.97 78.69 293.32 78.15 294.09 77.83 293.82 78.34 293.5 78.63 292.85 78.77"/>
    <polyline class="cls-3" points="289.52 72.34 288.44 73.01 287.97 73.18 287.64 73.14 287.28 72.93 287.15 72.76 287.21 72.65"/>
    <polyline class="cls-3" points="280.39 68.41 279.68 67.54 279.63 67.41 279.85 67.35 280.15 67.51 280.29 68.13 280.06 68.13 279.29 68.6 278.64 68.56 278.36 68.26 278.34 67.68 278.52 67.42 278.99 67.17"/>
    <polyline class="cls-3" points="268.19 65.82 266.6 65.77 266.07 65.46 266.23 65.53 266.51 65.35"/>
    <polyline class="cls-3" points="256.75 67.93 257.99 67.48 258.18 67.54 257.76 67.8 257.34 68.22 256.75 68.39 255.94 68.37 255.6 68.27 255.68 68.29 255.42 68.64"/>
    <polyline class="cls-3" points="351.6 90.42 351.6 88.71 351.48 88.51 351.44 87.93 351.44 87.82"/>
    <polyline class="cls-3" points="389.06 45.39 389.19 45.33 389.31 45.38 389.76 45.17 390.61 45.15"/>
    <polyline class="cls-3" points="391.12 49.35 392.63 48.59 393.14 48.65"/>
    <polyline class="cls-3" points="360.78 96.39 360.79 96.83 360.91 97.01 360.88 98.03 361.04 98.69 361.08 98.62 361.43 98.59"/>
    <line class="cls-3" x1="401.76" y1="40.31" x2="401.76" y2="40.34"/>
    <polyline class="cls-3" points="405.34 39.26 403.51 39.26 403.33 39.38 402.75 39.34 400.37 40.42 399.35 41.36 398.99 41.48 398.61 41.89 398.68 41.92 398.21 42.73 398.05 43.39 398.07 44.25 398.24 44.54 398.79 44.8 400.6 44.74 401.28 44.47 401.82 44.41 403.82 43.54 407.21 42.38 411.1 40.45 411.36 39.83 411.34 39.42 411.13 39.05 410.62 38.59 409.51 38.1 408.85 37.92 407.58 37.97 405.41 38.49 403.99 38.94 401.8 40.64"/>
    <polyline class="cls-3" points="374.46 96.16 373.3 96.11 371.92 95.7 371.54 95.7 370.72 95.26 370.55 95.3 370.18 95.09 369.07 94.99 367.68 94.28 367.63 94.13 367.19 93.81 366.92 93.28 366.48 92.89 366.13 92 366.08 91.24 365.9 90.98 365.88 90.53 365.21 89.17 365.06 78.38 365.89 75.67 366.13 73.29 366.34 72.57 366.49 69.73 366.71 68.87 366.68 68.21 367.03 66.28 367.08 64.83 367.26 64.5 367.42 62.88 367.5 59.76 367.65 58.56 367.64 57.26 367.86 56.56 367.87 54.89 367.96 53.82 368.08 53.55 368.05 45.29 367.93 45.11 367.96 44.57 367.85 44.39 367.87 43.68 367.71 42.91 367.73 42.37 367.5 42.03 367.55 41.59 367.27 41.04 367.17 40.24 366.71 39.25 366.74 39.07 366.51 38.46 366.47 38.1 366.12 37.39 366.16 37.12 365.89 36.66 365.93 36.41 365.75 35.71 365.52 35.33 365.19 35.05 364.99 34.48 363.01 30.65 362.69 30.65 362.2 29.48 361.81 29.08 361.77 28.93 361.52 28.88 361.21 28.38 360.03 27.49 356.92 26.02 356.43 25.95 356.17 25.78 355.76 25.68 355.22 25.64 355.11 25.53 353.51 25.41 351.77 24.95 349.44 24.96 347.57 25.19 347.23 25.35 342.34 25.81 341.68 26.09 341.36 26.42 341.07 27.05 340.97 27.55"/>
    <polyline class="cls-3" points="351.16 91.11 351.18 88.25 351.35 87.72 351.37 87 351.54 86.66 351.65 85.84 351.76 85.66 351.78 83.61 351.9 83.43 351.87 82.98 352.05 82.59 352.1 81.24 352.32 80.44 352.28 79.77 352.6 79.1 352.56 78.65 352.88 77.66 352.89 77.22 353.17 76.78 354.17 74.05 354.4 73.66 354.36 73.32 354.57 72.51 354.55 72.12 354.77 71.59 354.71 70.91 355.86 67.52 356.15 66.95 356.12 66.77 356.41 66.05 356.38 65.79 356.6 65.44 356.63 65.07 356.78 64.81 356.8 64.18 356.97 63.91 357.04 63.47 357.01 62.86 357.18 62.4 357.16 61.7 357.21 61.33 357.38 61.05 357.43 57.48 357.7 56.33 357.9 54.26 357.89 50.56 357.73 49.81 357.71 48.64 357.59 48.46 357.62 47.87 357.28 46.58 357.02 46.19 357.06 46.02 356.67 44.84 356.51 43.68 356.34 43.42 356.38 43.01 356.21 42.74 355.95 41.72 354.26 38.19 354.01 37.38 353.53 36.5 353.01 35.98 352.18 34.42 352.03 34.36 351.8 33.94 350.87 33.1 350.42 32.24 350.12 32.09 349.6 31.51 349.47 31.5 348.53 30.78 343.79 28.6 342.59 28.41 342.05 28.21 341.09 28.23 340.84 28.12 340.47 28.14 339.86 28.61"/>
    <polyline class="cls-3" points="359.43 92.51 359.61 92.48 358.82 92.31 358.31 92.04 358.19 92.07 357.89 91.39 357.94 90.68 358.59 90.3 359.08 90.31 359.55 90.71 359.89 91.73 358.85 92.76 358.17 93.03 357.61 92.97 357.56 92.78 357.22 92.55 357.17 92.39 357.22 91.73 357.54 91.15 357.47 90.76 357.35 90.62"/>
    <polyline class="cls-3" points="358.57 83.39 358.02 82.5 358.08 82.28 358.09 82.39 357.81 82.51 357.23 82.48 357.7 82.22 358.08 82.21 358.3 82.33 358.42 82.86 357.78 83.06 357.39 83.02 356.54 82.39 356.29 82.07 356.23 81.78"/>
    <polyline class="cls-3" points="360.03 73.86 360 72.27 360.3 71.61 360.28 71.02 360.44 70.85 360.42 71.38 360.15 71.94 359.8 72.12 359.3 72.63 359.05 72.72 359.08 72.64 358.64 72.66 358.86 72.22"/>
    <polyline class="cls-3" points="361.71 66.1 361.71 64.6 361.92 64.22 361.75 64.27 361 63.89 360.71 63.32 361.38 61.24 361.55 61.02 361.51 61.58 361.02 62.54 360.52 62.67"/>
    <polyline class="cls-3" points="361.22 54.97 361.26 54.1 361.51 53.54 361.74 53.41 362.01 53.47 362.05 53.8 362.45 54.53 362.21 54.74 362.18 54.9 361.71 54.92"/>
    <polyline class="cls-3" points="364.53 50.24 365.53 50.24 365.86 50.13 365.76 50.11"/>
    <line class="cls-3" x1="359.98" y1="43.18" x2="359.96" y2="43.18"/>
    <line class="cls-3" x1="360.25" y1="45.65" x2="360.29" y2="45.64"/>
    <line class="cls-3" x1="361.5" y1="39.07" x2="361.96" y2="39.01"/>
    <line class="cls-3" x1="361.63" y1="38.02" x2="361.56" y2="38.01"/>
    <polyline class="cls-3" points="357.81 38.5 356.69 37.37 356.71 36.73 356.89 36.49 356.88 36.57 357.26 36.48 356.77 36.7"/>
    <polyline class="cls-3" points="359.38 32.37 359.91 32.26 360.42 32.3 360.16 32.29 359.71 32.09"/>
    <line class="cls-3" x1="353.69" y1="29.07" x2="353.9" y2="30.04"/>
    <line class="cls-3" x1="350.25" y1="27.96" x2="350.21" y2="27.96"/>
    <polyline class="cls-3" points="348.37 28.46 348.23 28.44 349.39 27.87 349.97 27.73"/>
    <polyline class="cls-3" points="364.81 55.68 364.41 56.86 363.51 57.79 363.79 57.67"/>
    <polyline class="cls-3" points="363.25 66.41 363.51 65.42 363.69 65.22 363.67 65.33 364.11 65.18"/>
    <polyline class="cls-3" points="362.15 74.41 363.24 75.21 363.23 75.44 363.44 75.84 363.4 76.23 363.17 76.52 363.15 76.78 363.2 76.69 363.25 76.77"/>
    <line class="cls-3" x1="362.39" y1="78.6" x2="362.42" y2="78.61"/>
    <polyline class="cls-4" points="115.2 77.89 114.54 79.18 112.98 80.78 111.01 81.83 107.33 85.21 106.31 85.86 106.09 86.28 105.41 86.83"/>
    <polyline class="cls-4" points="67.78 87.36 65.92 87.08 65.41 86.82 64.9 86.83 64.72 86.72 63.5 86.55 62.67 86.21 62.11 86.14 61.57 85.9 60.82 85.83 60.02 85.41 59.19 85.13 57.8 83.91 57.76 83.73 57.46 83.47 57.02 82.54 56.5 82.27 56.12 81.67 55.77 81.45 55.76 81.3 55.55 81.1 55.57 80.96"/>
    <polyline class="cls-4" points="55.44 79.31 56.68 79.81 57.96 79.85 58.19 80.02 60.43 79.99 60.67 80.11 61.12 80.07 61.34 80.19 63.81 80.17 64.18 79.99 64.62 80.03 64.99 79.87 65.4 79.85 68.03 79.85 70.18 79.99 70.47 80.15 71.1 80.18 79.24 80.26 80.48 80 84.24 79.94 84.47 79.82 85.45 79.85 86.64 79.77 86.95 79.65 88.38 79.63 88.69 79.51 89.03 79.55 89.22 79.42 91.85 79.41 92.99 79.21 96.07 79.1 96.63 78.99 100.44 78.92 101.52 78.38 102.07 78.39 102.45 78.22 102.79 78.25 103.1 78.08 103.53 78.12 104.51 77.96 105.66 77.94 105.95 77.82 107.11 77.75 107.36 77.57 108.47 77.53 108.79 77.35 110.08 77.31 110.72 77.16 112.37 77.03 114.01 77.04"/>
    <polyline class="cls-4" points="86.01 33.93 85.99 39.16 86.2 39.97 86.17 40.61 86.32 42.11 86.49 42.39 86.49 43.07 86.62 43.26 86.59 43.86 86.77 44.21 86.78 46.67 86.9 46.94 86.91 47.83 87.08 48.24 87.05 51.21 87.2 52.25 87.19 55.03 87.3 55.56 87.33 58.52 87.44 58.69 87.41 59.13 87.74 60.82 87.92 61.07 87.92 61.55 88.04 61.69 88.02 61.9 88.22 62.36 88.39 63.81 88.55 64.24 88.56 64.86 88.75 65.16 88.7 65.68 88.81 66.29 88.89 70.07 89.01 70.26 88.98 70.62 89.09 70.79 89.16 72.39 89.33 72.76 89.3 73.84 89.43 73.98 89.39 74.36 89.55 74.8 89.53 75.25 89.67 75.38 89.63 75.88 89.74 76.11 89.71 76.51 89.89 76.81 89.85 77.12 89.98 77.42 90.04 78.28"/>
    <polyline class="cls-4" points="86.92 67.81 85.41 68.35 83.93 68.41 83.47 68.64 82.83 68.69 82.37 68.9 81.03 68.95 79.98 69.29 79.38 69.26 78.57 69.58 78.2 69.52 77.23 69.79 76.49 69.8 76.31 69.92 75.53 69.98 74.85 70.28 74.36 70.24 73.72 70.52 72.52 70.48 72.34 70.59 71.76 70.61 71.44 70.84 69.87 71.26 68.03 71.28 67.85 71.4 67.48 71.36 66.85 71.56 66.1 71.59 65.72 71.76 64.43 71.79 60.97 71.77 61.13 71.36"/>
    <polyline class="cls-4" points="83.17 35.46 82.25 36.56 81.6 37.13 81.38 37.74 80.93 38.38 80.24 39.85 79.83 40.2 79.82 40.31 79.49 40.62 79.16 41.31 78.5 41.98 78.24 42.6 77.93 42.96 77.59 43.68 77.58 43.99 77.32 44.42 76.56 45.2 76.16 45.91 75.85 46.18 75.67 46.67 75.31 46.96 74.77 47.88 74.24 48.41 73.98 49.08 72.67 50.37 72.5 50.82 71.43 51.89 70.97 52.74 70.73 52.94 70.6 53.29 70.27 53.54 70.18 53.82 69.95 53.97 69.88 54.19 69.63 54.42 68.8 55.83 67.71 56.6 67.69 56.83 64.56 62.89 64.22 63.46 63.97 63.61 63.5 64.62 63.28 64.82 63.18 65.14 62.93 65.28 62.35 66.42 62.07 66.87 61.93 66.92 61.45 67.97 61.28 68.03 60.75 69.02 60.76 69.27"/>
    <polyline class="cls-4" points="86.92 34.93 87.46 35.8 88.29 37.52 89.63 39.66 89.76 39.76 90.27 40.78 90.59 41.2 91.23 41.68 91.88 42.93 92.44 43.23 92.68 43.91 92.9 44.01 93.35 44.58 93.64 45.15 93.95 45.42 94.23 45.95 94.51 46.24 94.82 46.9 95.42 47.81 97.12 51.13 97.27 51.69 97.54 52.17 97.49 52.29 99.23 55.48 99.57 55.56 99.76 55.71 99.79 55.91 100.4 56.35 100.59 56.62 100.95 56.8 101.01 56.99 101.68 57.62 102.76 59 103.03 59.17 103.13 59.4 103.45 59.64 103.8 59.75 104.45 61.05 105.12 62.02 106.94 65.53 107.31 66.07 107.87 66.58 108.15 67.21 108.28 67.22 108.52 67.58 108.75 67.63 109.94 69 110 69.22 110.3 69.43 111.89 72.62 111.98 72.72 112.07 72.64"/>
    <polyline class="cls-4" points="110.96 71.46 110.95 71.53 109.94 71.83 109.33 71.85 108.35 72.05 108.21 72.15 107.69 72.12 107.67 72.2 106.92 72.4 105.92 72.4 105.32 72.59 104.05 72.57 103.09 72.88 101.93 72.93 100.28 73.2 99.22 73.48 98.8 73.47 98.03 73.76 97.66 73.78 96.21 74.34 95.57 74.36 94.34 74.93 93.67 74.99"/>
    <polyline class="cls-4" points="92.07 73.96 92.34 71.37 92.49 70.88 92.79 68.38 92.96 67.88 92.98 66.3 93.2 65.63 93.15 64.98 93.27 64.76 93.3 64.03 93.41 63.77 93.35 59.84 93.21 58.24 93.1 58.14 92.88 56.67 92.72 56.45 92.66 55.42 92.55 55.29 92.46 54.7 92.43 53.67 92.25 53.49 92.24 53.09 91.09 50.96 91.13 50.73 90.98 50.55 90.86 49.76 90.6 49.28 90.58 48.83 90.33 48.2 90.37 47.78 90.19 47.59 90.08 46.63 89.81 46.25 89.67 45.05 89.49 44.82 89.49 44.27 89.27 43.73 89.11 42.58 88.97 42.36 88.98 42.11 88.25 40.78 88.27 40.64 87.07 38.41 87.1 38.03 87.28 37.73"/>
    <line class="cls-4" x1="90.71" y1="74.07" x2="90.69" y2="74.11"/>
    <polyline class="cls-4" points="91.02 73.29 88.58 74.66 88.17 74.75 86.82 74.72 86.64 74.84 86.19 74.81 86 74.92 85.52 74.9 84.92 75.06"/>
    <line class="cls-4" x1="56.17" y1="79.81" x2="56.23" y2="79.81"/>
    <polyline class="cls-4" points="57.05 78.24 59.06 78.05 60.35 78.07 60.65 77.95 64.21 77.98 64.9 77.93 65.63 77.61 66.14 77.68 66.54 77.56"/>
    <polyline class="cls-4" points="69.51 77.26 73.77 76.94 75.01 76.59 76.66 76.36 77.35 76.1 78.01 76.03 78.74 75.84 79.04 75.66 82.41 75.48 83.83 75.24 84.08 75.09"/>
    <line class="cls-4" x1="91.25" y1="73.78" x2="91.23" y2="73.78"/>
    <polyline class="cls-4" points="67.53 71.12 66.55 74.17 66.51 74.85 66.11 76.19 66.15 76.73 66.03 76.9 65.96 77.92 65.84 78.14 65.88 78.97 65.63 79.33 65.65 79.74"/>
    <polyline class="cls-4" points="110.63 73.44 111.34 74.1 111.6 74.48 111.75 74.92 112.8 76.8"/>
  </g>
</svg>