<?xml version="1.0" encoding="UTF-8"?>
<svg id="Layer_1" data-name="Layer 1" xmlns="http://www.w3.org/2000/svg" version="1.1" xmlns:xlink="http://www.w3.org/1999/xlink" viewBox="0 0 313 135">
  <defs>
    <style>
      .cls-1 {
        stroke: #4659a8;
      }

      .cls-1, .cls-2, .cls-3, .cls-4 {
        fill: none;
      }

      .cls-1, .cls-3 {
        stroke-width: 1.27px;
      }

      .cls-1, .cls-3, .cls-4 {
        stroke-linecap: round;
        stroke-linejoin: round;
      }

      .cls-2 {
        stroke-width: 0px;
      }

      .cls-3 {
        stroke: #77cfe6;
      }

      .cls-4 {
        stroke: #000;
        stroke-width: .79px;
      }

      .cls-5 {
        clip-path: url(#clippath);
      }
    </style>
    <clipPath id="clippath">
      <rect class="cls-2" x="-199" y="-367" width="514" height="685"/>
    </clipPath>
  </defs>
  <g class="cls-5">
    <polyline class="cls-1" points="38.77 96.61 39.36 95.42 39.98 94.83 40.32 94.72 40.62 94.34 41.15 94.08 41.27 93.88 42.61 93.05 43.21 92.79 43.29 92.64 45.01 91.85 45.3 91.42 45.65 91.33 47.43 90.2 50.79 88.56 51.35 88.42 51.95 88.1 52.17 88.13 52.63 87.92 53.64 87.72 54.06 87.5 54.56 87.45 55.53 87.07 56.58 87.05 57.19 86.85 57.68 86.88 60.63 86.46 63.52 86.47 66.65 88.01 66.73 88.16 68.44 88.94 68.75 89.34 68.98 89.38 69.43 90.05 69.85 90.27 70.29 91.15 70.55 91.25 70.67 91.52 71.02 91.62 71.07 91.88 71.37 92 71.68 92.45 71.89 92.56 71.95 92.81 72.23 92.93 72.36 93.26 72.63 93.43 72.74 93.77 73.08 94.04 73.33 94.56 73.5 94.61 73.84 95.4 74.58 95.74 74.6 95.98 75.69 97.97 75.71 98.21 76.55 99.92 76.85 100.11 76.97 100.36 77.22 100.47 77.29 100.7 77.59 100.96 77.7 101.31 77.85 101.35 78.15 101.86 78.45 102.03 78.78 102.69 78.9 102.67 79.04 102.83 79.37 102.96 79.44 103.11 79.79 103.23 80.09 103.61 80.27 103.64 80.54 103.9 81.76 104.53 82.44 105.35 84.94 106.59 85.48 106.67 87.98 106.66 88.89 106.53 90.63 105.63 91.31 105.43 91.89 105.11 92.29 105.04 96.14 103.23 96.63 103.12 96.79 102.9 97.5 102.58 97.75 102.36 103.68 99.39 104.45 98.69 105.05 98.41 105.31 98.08 105.48 98.01 105.61 97.76 105.78 97.72 106.12 97.27 106.25 97.25 106.38 97.01 107.28 96.16 107.83 95.79 108.11 95.26 108.32 95.22 108.99 94.5 109.23 94.39 109.31 94.21 110.06 93.61 111.12 93.06 111.54 92.71 115.4 90.8 115.69 90.8 116.06 90.58 118.01 89.86 118.33 89.9 118.88 89.64 119.5 89.7 119.68 89.59 120.33 89.6 121.15 89.35 124.83 89.24 125.25 89.13 131.13 89.15 131.76 89.31 133.65 89.37 134.25 89.63 134.81 89.59 134.98 89.7 135.48 89.74 135.95 89.98 136.39 90.01 136.8 90.2 137.64 90.27 138.67 90.56 138.98 90.53 139.3 90.7 139.78 90.67 141.15 91.34 141.38 91.3 141.77 91.5 142.07 91.47 142.55 91.57 142.76 91.72 142.99 91.7 145.23 92.75 145.89 93.38 146.05 93.66 146.73 93.97 146.91 94.32 147.36 94.74 147.62 95.25 147.87 95.45 148.46 96.62 148.86 96.87 148.94 97.21 149.11 97.29 149.36 97.73 149.84 98.25 150.14 98.86 150.58 99.28 151.23 100.3 151.51 100.43 151.56 100.67 151.83 100.86 152.35 101.92 152.46 102.45 152.87 102.93 153.81 103.48 154.76 104.38 155.68 104.84 156.98 106.28 157.5 106.56 158.1 107.19 158.98 107.6 159.16 107.93 159.8 108.67 160.2 108.92 160.35 109.16 160.51 109.18 160.68 109.43 161.27 109.72 161.46 109.96 161.71 110.03 161.91 110.32 162.74 110.83 164.91 111.86 165.27 111.89 165.55 112.09 165.99 112.16 166.65 112.53 166.92 112.51 167.22 112.72 168.71 112.82 168.95 112.93 170.91 112.87 173.08 111.9 173.56 111.49 174.47 110.99 174.85 110.58 175.58 110.2 175.96 109.83 176.53 109.62 177.09 109.29 177.37 108.99 177.82 108.81 178.29 108.41 178.41 108.05 178.7 107.88 178.9 107.5 181.42 105.28 181.92 104.68 183.28 104.01 183.36 103.79 183.56 103.69 184.17 102.89 184.46 102.79 185.29 102.11 190.42 99.65 191.61 98.78 191.95 98.65 192.51 98.17 195.46 96.7 196.58 95.72 199.15 94.51 199.49 94.13 199.98 93.94 200.81 93.16 201.51 92.73 202.65 91.8 202.91 91.7 204.02 90.58 204.36 90.47 205.78 89.38 210.41 87.28 210.68 87.32 210.82 87.21 211.62 87.08 212.03 87.1 212.44 86.93 212.78 86.97 213.64 86.76 218.78 86.7 219.26 86.74 219.48 86.9 220.19 86.96 220.77 87.16 221.02 87.14 221.31 87.3 222.66 87.6 223.16 87.88 223.4 87.86 224.06 88.2 224.98 88.31 226.87 89.26 228.2 90.13 228.51 90.23 228.99 90.57 229.08 90.94 229.29 91.17 229.59 91.15 233.63 93.15 233.88 93.49 234.14 93.59 234.4 93.99 234.68 94.07 234.75 94.22 234.92 94.27 235.07 94.6 235.23 94.68 235.63 95.27 235.79 95.36 236.04 95.85 236.19 95.92 236.83 97.19 236.96 97.65 238.47 100.55 238.9 101.07 239.45 102.03 240.38 103.03 240.51 103.4 241.25 104 241.98 104.92 242.21 105.07 243.55 107.65 244.14 108.57 244.58 108.95 244.91 109.08 245.12 109.48 245.42 109.62 246.58 110.77 246.99 110.91 247.18 111.13 248.74 111.73 249.15 111.75 249.6 111.96 249.91 111.92 250.21 112.13 250.58 112.16 251.32 112.54 252.74 112.75 254.97 112.6 256.13 112.23 256.91 112.11 258.17 111.59 259.05 111.42 259.44 111.19 259.78 111.17 260.19 110.92 260.67 110.81 265.5 108.4 265.55 108.28 266.06 108.02 266.81 107.29 266.81 107.15 267.62 106.46 267.71 106.19 267.85 106.14 268.07 105.82 268.21 105.81 268.25 105.64 268.82 105.06 269.55 104.7 269.88 104.38 270.75 104 271.02 103.68 272.78 102.91 277.13 102.91 278.17 102.86 278.44 102.75 281.93 102.72"/>
    <polyline class="cls-3" points="199.99 41.97 200.58 41.58 201.06 40.97 201.57 40.7 202.74 39.66 208.26 36.96 209.36 36.11 212.52 34.57 217.05 32.84 217.23 32.63 219.19 31.72 220.6 31.18 220.82 31.2 221.68 30.91 222.86 30.38 223.76 30.29 224.11 30.06 224.31 30.09 224.81 29.84 224.94 29.87 226.82 28.95 227.28 28.89 229.87 27.87 236.05 25.78 236.33 25.8 237.66 25.37 238.63 25.28 239.19 25.07 243.14 25.07 244.1 24.91 252.76 24.93 254.21 25.12 254.39 25.22 254.86 25.2 255.21 25.42 256.35 25.57 256.92 25.77 257.69 25.72 258.76 26.18 259.14 26.19 259.49 26.4 260 26.46 261.89 27.43 262.07 27.78 262.71 28.4 262.85 28.72 263.59 29.61 264.3 30.2 264.58 30.32 264.9 31.07 265.29 31.61 265.7 32.83 267.5 36.13 267.5 36.5 268.08 38.14 268.04 38.59 268.31 39.37 268.47 41.68 268.84 42.35 268.92 43.77 269.08 44.06 269.12 45.73 269.1 49.14 268.98 49.41 269.06 52.14 268.73 52.79 268.7 53.17 268.44 53.74 268.38 54.34 267.81 55.49 267.48 55.91 267.22 56.65 266.94 56.95 266.84 57.3 266.21 58.04 266.02 58.51 265.67 58.82 265.56 59.11 265.1 59.49 265.05 59.66 264.66 59.97 264.62 59.91 264.33 60.33 263.76 60.79 263.64 60.79 262.91 61.35 261.09 62.35 259.06 63.27 258.65 63.56 256.31 64.69 256.19 64.64 255.4 65.15 254.62 65.47 254.18 65.86 253.68 66.04 253.14 66.46 250.79 67.57 250.08 68.1 249.13 68.47 248.79 68.88 247.6 69.32 247.45 69.3 247 69.55 246.64 69.5 246.08 69.76 245.9 69.75 244.17 70.5 243.45 71.15 242.54 71.73 242.08 72.12 241.58 72.74 241.24 72.88 240.82 73.3 240.61 73.85 239.92 74.91 238.73 77.39 238.77 78.06 238.5 78.45 238.39 79.06 237.81 80.06 237.84 80.32 237.55 80.86 237.59 81.14 237.01 82.17 237.03 82.42 236.71 82.93 236.75 83.13 236.44 83.63 236.34 84.46 236.23 84.6 236.2 85.2 235.94 85.67 235.86 86.04 235.83 90.96 235.93 91.32 235.96 93.1 236.08 93.34 236.3 93.49 236.68 93.39"/>
    <polyline class="cls-3" points="199.81 41.66 199.22 42.12 198.48 42.51 197.79 43.28 197.65 43.27 197.44 43.45 196.53 44.47 196.26 45.08 195.86 45.56 195.39 46.72 195.43 47.54 195.31 47.71 195.34 48.29 195.22 48.6 195.24 49.77 195.37 49.94 195.4 50.44 195.55 50.65 195.52 51.2 195.64 51.37 195.71 52.17 199.41 59.36 199.67 60.59 199.83 60.81 199.94 61.55 200.11 61.78 200.07 61.99 200.22 62.49 200.35 63.61 200.39 66.86 200.12 67.39 200.17 67.48 200.01 67.71 199.88 68.23 199.02 69.89 198.84 69.96 198.73 70.22 198.61 70.24 198.46 70.46 197.88 70.75 197.76 70.92 197.31 71.08 197.07 71.29 197.05 71.46 196.77 71.58 196.53 71.87 196.44 72.18 196.3 72.21 195.04 74.69 194.97 78.07 195.18 79.37 195.17 82.13 195.02 82.95 194.44 84.15 194.14 85.17 193.56 86.31 193.39 86.89 192.65 88.26 192.67 88.51 192.41 88.98 192.42 89.13 191.41 91.01 191.12 91.87 189.2 95.63 189.23 95.85 188.97 96.25 189.02 96.38 187.86 98.83 187.9 99.29 187.68 99.79"/>
    <polyline class="cls-3" points="143.28 90.88 142.49 89.84 142.5 89.68 141.97 89.19 141.72 88.82 140.92 88.25 140.45 87.71 140.09 87.53 139.48 86.67 139.12 86.33 138.59 85.37 138.4 85.23 137.93 84.47 137.08 82.8 137.12 82.23 137 82.05 136.86 81.11 136.66 80.84 136.29 79.72 136.33 79.38 136.07 78.21 136.05 77.54 135.79 76.63 135.77 74.77 135.57 73.92 135.55 72.71 135.39 71.59 135.36 69.31 135.25 69.02 135.27 66.9 135.07 65.89 135.08 64.38 134.91 64.01 134.65 62.49 134.44 58.05 134.27 57.71 134.3 57.36 134.14 56.73 133.48 55.13 133.16 54.72 132.19 52.09 131.96 51.69 130.86 48.56 130.6 47.35 129.85 44.95 129.87 44.67 129.3 43.09 129.25 42.36 128.96 41.95 128.76 41.05 126.86 37.39 126.48 36.86 125.98 36.41 125.91 36.1 125.67 35.9 125.57 35.65 124.27 34.74 123.83 34.26 123.46 34.13 123.11 33.74 122.25 33.38 120.93 32.04 120.67 31.93 120.21 31.36 119.98 31.27 119.31 30.58 119.28 30.44 118.63 30.11 118.05 29.56 117.93 29.31 117.58 29.23 116.52 28.63 113.62 27.27 112.7 27.21 112.51 27.06 111.6 26.84 108.32 26.76 107.67 27.09 107.51 27.02 107.18 27.25 107.01 27.22 104.1 28.59 103.91 28.89 103.53 29.03 103.41 29.23 102.69 29.52 102.48 30.01 101.91 30.16 101.52 30.54 101.25 30.62 101.15 30.88 100.95 30.93 100.85 31.14 100.53 31.29 100.39 31.6 99.83 32.18 99.72 32.78 99.43 32.88 99.33 33.17 99.01 33.46 98.96 33.69 98.79 33.74 98.66 34.15 98.05 34.52 97.84 35.21 97.54 35.67 97.33 35.79 96.67 37.26 96.72 37.71 96.5 38.05 96.51 38.37 96.31 38.82 96.35 39.3 96.05 39.7 96.12 40.31 96 40.5 95.96 42.04 95.97 44.93 96.09 45.11 96.06 45.45 96.41 46 96.49 46.5 96.54 46.54 96.54 46.44 96.75 46.95 97.11 47.24 97.88 47.58 99.01 47.57 99.62 47.25 100.27 45.87 100.25 45.36 99.8 45.16 99.07 45.2 98.54 44.86 98.46 44.65 98.01 44.43 97.6 43.68 97.61 42.15 100.51 36.51 100.65 36.47 100.74 36.21 101.03 36.07 101.11 35.93 101.63 35.72 101.79 35.46 102.56 35.12 102.87 35.11 103.53 34.74 104.06 34.66 104.58 34.42 104.9 34.45 105.41 34.16 105.81 34.11 106.44 33.8 108.45 33.53 112.65 33.5 112.76 33.61 113.34 33.59 113.74 33.74 114.09 33.72 114.95 34.15 115.46 34.17 116.2 34.55 117.15 35.69 118.95 39.27 118.96 39.6 119.12 39.87 119.11 40.16 119.47 40.88 119.51 41.42 119.64 41.52 119.82 42.05 119.82 42.71 119.94 42.96 119.97 43.5 120.13 43.73 120.2 44.41 120.37 44.67 120.38 45.16 120.49 45.4 120.46 46.18 120.59 46.43 120.66 47.13 121.08 47.9 121.06 48.45 121.3 48.86 121.26 49.12 121.36 49.49 122.08 50.82 122.51 52.05 122.48 52.71 122.6 52.9 122.58 53.74 122.7 54.2 122.72 58.56 122.76 59.27 122.88 59.47 122.9 60.97 123.11 63.45 123.09 64.81 123.19 65.48 123.09 75.58 122.91 78.1 122.79 78.28 122.66 79.89 122.67 82.27 122.84 82.54 123.18 84.91 123.33 85.3 123.31 85.73 123.43 85.91 123.55 88.65"/>
    <polyline class="cls-3" points="103.06 31.57 103.05 31.67 103.15 31.56 103.84 31.38 105.12 30.71 105.94 30.49 106.19 30.52 106.5 30.66 106.67 31.35 106.64 31.95 106.39 32.24 106.16 32.34 106 32.32 105.95 31.57 106.4 30.78"/>
    <polyline class="cls-3" points="110.83 30.74 111.01 30.02 111.21 29.68"/>
    <polyline class="cls-3" points="118.42 35.38 118.05 34.39 118.14 33.82 118.32 33.54 118.85 33.29 119.22 33.33 119.53 33.57 119.74 33.94 119.79 34.29 119.15 34.47 118.68 34.43 118.68 34.01 118.85 33.83"/>
    <polyline class="cls-3" points="113.52 32.19 113.38 32.15 114.44 31.53 115.17 31.29 115.56 31.33 115.87 31.58 116.05 32.04 116.01 32.35 115.82 32.59 115.25 32.72 114.9 32.7 113.97 32.19 114.15 31.82 114.98 31.45"/>
    <polyline class="cls-3" points="121.03 39.16 121.21 38.58 121.86 37.31 122.6 37.04 122.9 37.07 123.64 37.61 124.11 38.56 124.04 38.95 123.83 38.95 123.16 39.42 122.17 39.75 121.75 39.72 121.25 39.92 120.86 39.89 120.71 39.47 120.75 38.86 121.6 37.15 122.04 36.98 122.53 37.14"/>
    <polyline class="cls-3" points="123.43 44.8 123.41 42.73 123.66 42.15 124.35 42.01 125.16 42.51 125.53 43.01 125.7 43.48 125.41 44.1 124.77 44.67 124.51 44.77 123.51 44.8 122.95 44.48 122.76 44.51 122.89 44.34 123.34 44.12"/>
    <polyline class="cls-3" points="124.13 51.95 124.34 51.15 124.48 51 124.46 51.12 124.65 51.08 123.8 51.05 123.82 50.92 123.59 50.71 123.36 50.24 123.47 49.26 123.78 48.82 123.73 48.71 124.11 48.59 124.06 48.94 123.59 48.85 123.56 48.38 124.13 48.18 124.22 48.26 124.54 48.86 124.45 49.13 124.48 50.53 124.3 50.72 124.32 50.91 124.05 51.06 123.72 51.19 123.36 51.13"/>
    <polyline class="cls-3" points="128.3 49.46 127.99 48.53 128.06 47.63 128.2 47.34 128.36 47.25 128.74 47.26 129.14 47.51 129.66 48.66 129.63 48.91 129.32 49.35 129.06 50 128.44 50.25 127.18 50.21 126.91 50.01"/>
    <polyline class="cls-3" points="130.2 57.57 130.1 57.25 130.12 56.4 130.5 56.22 129.82 56.24 129.85 55.89 130.38 55.67 130.66 55.71 130.84 56.03"/>
    <polyline class="cls-3" points="125.26 57.7 125.77 56.61 126.1 56.25 126.26 55.9 127.07 55.29 127.78 54.96 128.34 54.94 128.84 55.43 128.96 55.87 128.4 56.1 128.17 56.06 128.31 56.06"/>
    <polyline class="cls-3" points="124.72 63.77 124.82 63.79 124.73 63.78 124.73 63.68 124.93 63.07 124.94 62.65 125 62.73 125.12 62.69 125.59 62.41 125.92 62.5 126.06 62.88 126.03 63.3 125.82 63.31 125.3 63.55 124.94 63.5 125.35 63.34"/>
    <polyline class="cls-3" points="130.73 62.53 130.07 61.48 130.22 60.56 130.51 59.99 131.01 59.84 131.55 61.01 131.49 61.73 130.59 63.38 129.93 63.63 130.03 63.59 130.32 63 130.9 62.56 130.96 62.36"/>
    <polyline class="cls-3" points="125.6 71.15 125.05 70.05 125.13 69.79 125.11 68.79 125.36 68.08 126.27 67.72 126.53 67.75 126.99 67.99 127.6 68.42 128.24 69.72 128.18 70.17 127.71 71.04 126.88 71.32 126.08 71.28 125.21 70.88 125.21 70.56 125.62 70.18 126.59 69.87"/>
    <polyline class="cls-3" points="132.06 67.98 132.24 67.27 132.47 66.91 133.05 66.76 133.48 66.9 133.48 67.25 133.7 67.7 132.97 68.65 132.57 69.41 132.25 69.67 132.16 69.86 132.22 69.87 131.58 69.89 131.42 69.51 131.57 69.06 131.38 69.69"/>
    <polyline class="cls-3" points="106.28 93.31 106.51 92.5 106.45 91.28 106.12 90.69 106.12 90.4 105.61 89.45 105.06 88.83 104.64 88.15 104.24 87.76 104.13 87.42 103.69 87.07 103.57 86.65 102.15 85.06 101.66 84.04 100.98 83.44 100.76 83.07 100.37 82.81 100.05 82.3 99.59 81.96 99.55 81.78 99.44 81.81 98.95 81.33 98.2 80.97 97.83 80.58 97.33 80.38 97.09 79.86 96.9 79.69 96.64 79.62 96.44 79.2 96.31 79.17 96.12 78.86 95.94 78.8 95.68 78.51 94.96 78.15 94.83 78 85.9 73.67 85.66 73.64 85.34 73.44 85.22 73.47 83.89 72.9 83.74 72.94 83.5 72.78 83.29 72.81 82.94 72.58 81.96 72.21 81.5 72.06 80.99 72.1 80.32 71.82 79.88 71.83 79.67 71.66 78.92 71.48 72.27 71.42 71.96 71.59 71.41 71.6 70.79 71.79 70.28 71.77 70.15 71.89 69.2 71.92 68.64 72.12 66.25 72.32 65.94 72.49 64.97 72.54 64.2 72.72 63.49 73.08 63.17 73.08 62.59 73.43 62.28 73.4 61.8 73.59 60.46 74.25 60.31 74.44 60.09 74.52 59.94 74.8 59.83 74.77 59.81 74.9 59.09 75.35 59.09 75.56 58.8 75.68 58.42 76.14 58.3 76.12 57.3 77.06 56.97 77.23 56.56 77.66 56.05 78 56.11 78.04 56.04 78.14 55.51 78.57 55.35 78.85 54.93 79.12 54.66 79.63 54.28 79.74 54.21 79.9 54.01 79.98 53.95 80.18 53.6 80.3 53.3 80.8 53.15 80.94 53 80.93 52.62 81.48 52.42 81.57 52.24 81.99 51.87 82.23 51.84 82.45 51.55 82.57 51.3 82.99 51.17 83.05 50.95 83.55 50.74 83.72 50.76 83.82 50.3 83.98 48.78 86.73 48.51 87.52 48.55 87.92 48.32 88.66 48.31 89.18"/>
    <polyline class="cls-3" points="99.6 100.49 98.11 99.75 97.12 99.01 96.61 98.24 95.48 97.17 95.27 96.6 94.7 95.94 93.2 94.49 92.48 94.06 92.29 93.78 91.88 93.61 91.68 93.08 91.52 92.93 91.13 92.81 90.8 92.52 89.71 92.04 89.44 91.56 88.24 90.95 87.55 90.29 87.41 90.29 87.09 90 85.93 89.46 85.76 89.22 85.47 89.07 85.01 88.47 84.25 88.06 83.8 87.6 82.55 87.04 82.45 86.85 82.14 86.78 81.91 86.57 81.22 86.28 81.12 86.09 80.8 86.01 76.78 84.03 76.54 84.06 76.37 83.91 75.56 83.8 75.36 83.67 71.75 83.66 71.3 83.82 70.6 83.89 70.28 84.06 68.18 84.28 67.69 84.53 67.43 84.5 67.11 84.66 66.36 84.64 66.04 84.76"/>
    <polyline class="cls-3" points="97.75 92.14 97.61 91.82 97.63 90.91 98.29 90.5 98.66 90.37 98.91 90.41 99.14 91.1 98.66 91.78 97.81 92.13 97.31 92.09 96.94 91.47 97 91.08 97.35 90.53 98.12 90.21 97.85 90.72 97.53 91.01 96.89 91.15"/>
    <polyline class="cls-3" points="93.56 84.72 92.47 85.39 92 85.56 91.68 85.52 91.31 85.31 91.18 85.14 91.24 85.03"/>
    <polyline class="cls-3" points="84.43 80.79 83.71 79.92 83.66 79.79 83.88 79.73 84.18 79.89 84.33 80.51 84.09 80.51 83.32 80.98 82.67 80.94 82.39 80.65 82.37 80.06 82.55 79.8 83.02 79.55"/>
    <polyline class="cls-3" points="72.22 78.2 70.63 78.15 70.1 77.84 70.26 77.91 70.54 77.73"/>
    <polyline class="cls-3" points="60.79 80.31 62.02 79.86 62.21 79.92 61.79 80.18 61.38 80.6 60.78 80.77 59.97 80.75 59.63 80.65 59.71 80.67 59.46 81.02"/>
    <polyline class="cls-3" points="155.63 102.8 155.63 101.09 155.51 100.89 155.47 100.31 155.47 100.2"/>
    <polyline class="cls-3" points="193.09 57.77 193.22 57.71 193.34 57.76 193.79 57.55 194.64 57.53"/>
    <polyline class="cls-3" points="195.16 61.73 196.66 60.97 197.17 61.03"/>
    <polyline class="cls-3" points="164.82 108.77 164.82 109.21 164.94 109.39 164.91 110.41 165.07 111.07 165.12 111 165.46 110.97"/>
    <line class="cls-3" x1="205.79" y1="52.69" x2="205.79" y2="52.72"/>
    <polyline class="cls-3" points="209.37 51.64 207.55 51.64 207.36 51.76 206.78 51.72 204.4 52.8 203.38 53.74 203.02 53.86 202.64 54.27 202.71 54.3 202.24 55.11 202.08 55.77 202.1 56.63 202.27 56.92 202.82 57.18 204.63 57.12 205.31 56.85 205.85 56.79 207.85 55.92 211.24 54.76 215.13 52.83 215.39 52.21 215.37 51.8 215.16 51.43 214.65 50.97 213.54 50.48 212.88 50.3 211.61 50.35 209.45 50.87 208.02 51.32 205.83 53.02"/>
    <polyline class="cls-3" points="178.49 108.54 177.33 108.49 175.95 108.08 175.57 108.08 174.75 107.64 174.58 107.68 174.21 107.47 173.1 107.37 171.71 106.66 171.66 106.51 171.22 106.19 170.95 105.66 170.51 105.27 170.16 104.38 170.11 103.62 169.93 103.36 169.91 102.91 169.24 101.55 169.1 90.76 169.92 88.05 170.16 85.67 170.37 84.95 170.52 82.11 170.74 81.25 170.71 80.59 171.06 78.66 171.11 77.21 171.29 76.88 171.45 75.26 171.53 72.14 171.68 70.94 171.67 69.64 171.89 68.94 171.9 67.27 171.99 66.2 172.11 65.93 172.08 57.67 171.96 57.49 171.99 56.95 171.88 56.77 171.9 56.06 171.74 55.3 171.76 54.75 171.53 54.41 171.58 53.97 171.3 53.42 171.21 52.62 170.74 51.63 170.77 51.45 170.54 50.84 170.5 50.48 170.15 49.77 170.19 49.5 169.92 49.04 169.96 48.79 169.78 48.09 169.55 47.71 169.22 47.43 169.03 46.86 167.04 43.03 166.72 43.03 166.23 41.86 165.84 41.46 165.8 41.31 165.55 41.26 165.24 40.76 164.06 39.87 160.95 38.4 160.46 38.33 160.2 38.16 159.8 38.06 159.26 38.02 159.14 37.91 157.55 37.79 155.8 37.33 153.47 37.34 151.6 37.57 151.26 37.73 146.37 38.19 145.71 38.47 145.39 38.8 145.1 39.43 145 39.93"/>
    <polyline class="cls-3" points="155.19 103.49 155.21 100.63 155.38 100.1 155.4 99.38 155.57 99.04 155.68 98.22 155.79 98.04 155.81 95.99 155.93 95.81 155.9 95.36 156.08 94.97 156.13 93.62 156.35 92.82 156.31 92.15 156.63 91.49 156.59 91.03 156.91 90.04 156.93 89.6 157.2 89.16 158.2 86.43 158.43 86.04 158.39 85.7 158.6 84.89 158.58 84.5 158.8 83.97 158.74 83.29 159.89 79.9 160.18 79.33 160.16 79.15 160.44 78.43 160.41 78.17 160.63 77.82 160.66 77.45 160.81 77.19 160.83 76.56 161 76.3 161.07 75.85 161.04 75.24 161.21 74.78 161.19 74.08 161.25 73.71 161.41 73.43 161.47 69.86 161.73 68.71 161.93 66.64 161.92 62.94 161.76 62.19 161.74 61.02 161.63 60.84 161.65 60.25 161.31 58.96 161.05 58.57 161.09 58.4 160.7 57.22 160.54 56.06 160.37 55.8 160.41 55.39 160.24 55.12 159.98 54.1 158.29 50.57 158.04 49.76 157.56 48.88 157.04 48.36 156.21 46.8 156.06 46.74 155.83 46.32 154.9 45.48 154.45 44.62 154.15 44.47 153.64 43.89 153.5 43.88 152.56 43.17 147.82 40.98 146.62 40.79 146.09 40.59 145.12 40.61 144.87 40.5 144.5 40.52 143.89 40.99"/>
    <polyline class="cls-3" points="163.46 104.89 163.64 104.86 162.85 104.69 162.34 104.42 162.22 104.45 161.92 103.77 161.97 103.06 162.62 102.68 163.11 102.69 163.58 103.09 163.92 104.11 162.89 105.14 162.2 105.41 161.64 105.35 161.59 105.16 161.25 104.93 161.2 104.77 161.25 104.11 161.57 103.53 161.5 103.14 161.38 103"/>
    <polyline class="cls-3" points="162.61 95.77 162.05 94.88 162.11 94.66 162.12 94.77 161.84 94.89 161.26 94.86 161.73 94.6 162.11 94.59 162.33 94.71 162.46 95.24 161.81 95.44 161.42 95.4 160.57 94.77 160.32 94.45 160.26 94.16"/>
    <polyline class="cls-3" points="164.06 86.24 164.03 84.65 164.33 83.99 164.31 83.4 164.47 83.23 164.45 83.76 164.18 84.32 163.83 84.5 163.33 85.01 163.08 85.1 163.11 85.02 162.68 85.04 162.89 84.6"/>
    <polyline class="cls-3" points="165.74 78.48 165.74 76.98 165.95 76.6 165.78 76.65 165.03 76.27 164.74 75.7 165.41 73.62 165.58 73.4 165.54 73.96 165.05 74.92 164.55 75.05"/>
    <polyline class="cls-3" points="165.25 67.35 165.29 66.48 165.54 65.92 165.77 65.79 166.04 65.85 166.08 66.18 166.48 66.91 166.24 67.12 166.21 67.28 165.74 67.3"/>
    <polyline class="cls-3" points="168.56 62.62 169.56 62.62 169.89 62.51 169.79 62.49"/>
    <line class="cls-3" x1="164.01" y1="55.56" x2="163.99" y2="55.56"/>
    <line class="cls-3" x1="164.28" y1="58.03" x2="164.32" y2="58.02"/>
    <line class="cls-3" x1="165.53" y1="51.45" x2="165.99" y2="51.39"/>
    <line class="cls-3" x1="165.66" y1="50.4" x2="165.59" y2="50.39"/>
    <polyline class="cls-3" points="161.84 50.88 160.72 49.75 160.74 49.11 160.92 48.87 160.91 48.95 161.29 48.86 160.8 49.08"/>
    <polyline class="cls-3" points="163.41 44.75 163.94 44.64 164.45 44.68 164.19 44.67 163.74 44.47"/>
    <line class="cls-3" x1="157.72" y1="41.45" x2="157.93" y2="42.42"/>
    <line class="cls-3" x1="154.28" y1="40.34" x2="154.24" y2="40.34"/>
    <polyline class="cls-3" points="152.4 40.84 152.26 40.82 153.42 40.25 154 40.11"/>
    <polyline class="cls-3" points="168.84 68.06 168.44 69.24 167.54 70.17 167.82 70.05"/>
    <polyline class="cls-3" points="167.28 78.79 167.54 77.8 167.72 77.6 167.7 77.71 168.14 77.56"/>
    <polyline class="cls-3" points="166.18 86.79 167.27 87.59 167.26 87.82 167.47 88.22 167.44 88.61 167.2 88.9 167.18 89.16 167.23 89.07 167.28 89.15"/>
    <line class="cls-3" x1="166.42" y1="90.98" x2="166.45" y2="90.99"/>
    <polyline class="cls-4" points="170.93 33.61 170.54 34.37 169.63 35.3 168.48 35.92 166.33 37.89 165.73 38.27 165.6 38.52 165.2 38.84"/>
    <polyline class="cls-4" points="143.19 39.15 142.1 38.99 141.8 38.83 141.5 38.84 141.4 38.78 140.68 38.68 140.2 38.48 139.87 38.44 139.55 38.3 139.12 38.26 138.65 38.01 138.16 37.85 137.35 37.13 137.32 37.03 137.15 36.88 136.89 36.33 136.59 36.18 136.37 35.82 136.16 35.69 136.15 35.61 136.03 35.49 136.05 35.41"/>
    <polyline class="cls-4" points="135.97 34.44 136.69 34.74 137.44 34.76 137.58 34.86 138.89 34.84 139.03 34.91 139.29 34.89 139.42 34.96 140.87 34.94 141.08 34.84 141.34 34.87 141.56 34.77 141.8 34.76 143.33 34.76 144.59 34.84 144.76 34.93 145.13 34.95 149.89 35 150.62 34.85 152.81 34.81 152.95 34.74 153.53 34.76 154.22 34.71 154.4 34.64 155.24 34.63 155.42 34.56 155.62 34.58 155.73 34.51 157.27 34.5 157.94 34.38 159.74 34.32 160.06 34.26 162.3 34.21 162.93 33.9 163.25 33.9 163.47 33.8 163.67 33.82 163.85 33.72 164.1 33.75 164.67 33.65 165.35 33.64 165.51 33.57 166.19 33.53 166.34 33.43 166.99 33.4 167.18 33.3 167.93 33.27 168.31 33.19 169.27 33.11 170.23 33.12"/>
    <polyline class="cls-4" points="153.85 7.9 153.84 10.96 153.97 11.43 153.95 11.81 154.03 12.68 154.13 12.85 154.14 13.24 154.21 13.36 154.19 13.71 154.29 13.91 154.3 15.35 154.37 15.51 154.38 16.03 154.48 16.27 154.46 18.01 154.55 18.61 154.54 20.24 154.61 20.55 154.62 22.28 154.69 22.38 154.67 22.64 154.87 23.62 154.97 23.77 154.97 24.06 155.04 24.14 155.03 24.26 155.15 24.53 155.24 25.37 155.34 25.63 155.35 25.99 155.45 26.16 155.42 26.47 155.49 26.83 155.54 29.04 155.61 29.15 155.59 29.36 155.66 29.46 155.7 30.39 155.79 30.61 155.78 31.24 155.85 31.32 155.83 31.55 155.93 31.8 155.91 32.07 155.99 32.14 155.97 32.44 156.03 32.57 156.02 32.8 156.12 32.98 156.1 33.16 156.18 33.34 156.21 33.84"/>
    <polyline class="cls-4" points="154.38 27.71 153.5 28.03 152.64 28.07 152.37 28.2 151.99 28.23 151.72 28.35 150.94 28.38 150.32 28.58 149.98 28.56 149.5 28.75 149.28 28.72 148.72 28.87 148.28 28.88 148.18 28.95 147.72 28.99 147.33 29.16 147.04 29.14 146.66 29.3 145.96 29.28 145.86 29.34 145.52 29.35 145.33 29.49 144.41 29.73 143.33 29.74 143.23 29.81 143.01 29.79 142.65 29.91 142.21 29.93 141.98 30.03 141.23 30.04 139.21 30.03 139.3 29.79"/>
    <polyline class="cls-4" points="152.19 8.79 151.65 9.43 151.27 9.77 151.14 10.13 150.88 10.5 150.48 11.36 150.24 11.56 150.23 11.63 150.04 11.81 149.85 12.22 149.46 12.61 149.31 12.97 149.13 13.18 148.93 13.6 148.92 13.78 148.77 14.03 148.33 14.49 148.09 14.9 147.91 15.06 147.81 15.35 147.59 15.52 147.28 16.06 146.97 16.37 146.81 16.76 146.05 17.52 145.95 17.78 145.32 18.4 145.05 18.9 144.91 19.02 144.84 19.22 144.65 19.37 144.59 19.53 144.46 19.62 144.42 19.75 144.27 19.88 143.79 20.71 143.14 21.16 143.14 21.29 141.3 24.84 141.1 25.17 140.96 25.26 140.68 25.85 140.56 25.97 140.5 26.15 140.35 26.23 140.01 26.9 139.85 27.17 139.77 27.2 139.49 27.81 139.39 27.85 139.08 28.42 139.08 28.57"/>
    <polyline class="cls-4" points="154.39 8.48 154.7 8.99 155.19 10 155.97 11.25 156.05 11.3 156.34 11.9 156.53 12.15 156.9 12.43 157.29 13.16 157.61 13.34 157.76 13.74 157.88 13.79 158.15 14.13 158.32 14.46 158.5 14.62 158.66 14.93 158.82 15.1 159.01 15.49 159.36 16.02 160.35 17.96 160.44 18.29 160.6 18.57 160.57 18.64 161.59 20.5 161.79 20.55 161.9 20.64 161.92 20.76 162.27 21.01 162.38 21.17 162.59 21.28 162.62 21.38 163.02 21.75 163.65 22.56 163.81 22.66 163.87 22.8 164.06 22.94 164.26 23 164.64 23.76 165.03 24.33 166.09 26.38 166.32 26.7 166.64 27 166.8 27.36 166.88 27.37 167.02 27.58 167.16 27.61 167.85 28.41 167.89 28.54 168.06 28.66 168.99 30.53 169.04 30.59 169.1 30.54"/>
    <polyline class="cls-4" points="168.45 29.85 168.44 29.89 167.85 30.07 167.49 30.08 166.92 30.2 166.84 30.26 166.53 30.24 166.52 30.28 166.09 30.4 165.5 30.4 165.15 30.51 164.4 30.5 163.84 30.68 163.17 30.71 162.2 30.87 161.58 31.03 161.33 31.02 160.89 31.2 160.67 31.21 159.82 31.54 159.45 31.55 158.73 31.88 158.33 31.92"/>
    <polyline class="cls-4" points="157.4 31.31 157.55 29.8 157.64 29.51 157.82 28.05 157.92 27.76 157.93 26.83 158.06 26.44 158.03 26.06 158.1 25.93 158.12 25.5 158.18 25.35 158.15 23.05 158.06 22.12 158 22.06 157.87 21.2 157.78 21.07 157.74 20.47 157.68 20.39 157.63 20.05 157.61 19.45 157.5 19.34 157.5 19.11 156.83 17.86 156.85 17.73 156.76 17.62 156.69 17.15 156.54 16.88 156.53 16.61 156.38 16.24 156.4 16 156.3 15.89 156.23 15.33 156.08 15.11 156 14.4 155.89 14.27 155.89 13.94 155.76 13.63 155.67 12.96 155.58 12.83 155.59 12.68 155.16 11.9 155.17 11.82 154.48 10.52 154.49 10.29 154.6 10.12"/>
    <line class="cls-4" x1="156.6" y1="31.38" x2="156.59" y2="31.4"/>
    <polyline class="cls-4" points="156.78 30.92 155.36 31.72 155.11 31.78 154.33 31.76 154.22 31.83 153.96 31.81 153.84 31.87 153.57 31.87 153.22 31.96"/>
    <line class="cls-4" x1="136.4" y1="34.74" x2="136.43" y2="34.73"/>
    <polyline class="cls-4" points="136.91 33.82 138.09 33.71 138.84 33.72 139.02 33.65 141.1 33.66 141.5 33.63 141.93 33.45 142.23 33.49 142.46 33.42"/>
    <polyline class="cls-4" points="144.2 33.24 146.69 33.06 147.42 32.85 148.39 32.71 148.79 32.56 149.17 32.53 149.6 32.41 149.77 32.31 151.74 32.2 152.58 32.07 152.72 31.98"/>
    <line class="cls-4" x1="156.92" y1="31.21" x2="156.91" y2="31.21"/>
    <polyline class="cls-4" points="143.04 29.65 142.47 31.44 142.44 31.84 142.21 32.62 142.23 32.93 142.17 33.03 142.12 33.63 142.05 33.76 142.08 34.25 141.93 34.45 141.95 34.7"/>
    <polyline class="cls-4" points="168.26 31.01 168.67 31.39 168.82 31.62 168.91 31.87 169.52 32.98"/>
  </g>
</svg>