<?xml version="1.0" encoding="UTF-8"?>
<svg id="Layer_1" data-name="Layer 1" xmlns="http://www.w3.org/2000/svg" version="1.1" xmlns:xlink="http://www.w3.org/1999/xlink" viewBox="0 0 313 162">
  <defs>
    <style>
      .cls-1 {
        stroke: #4659a8;
      }

      .cls-1, .cls-2, .cls-3, .cls-4 {
        fill: none;
      }

      .cls-1, .cls-2, .cls-4 {
        stroke-linecap: round;
        stroke-linejoin: round;
      }

      .cls-1, .cls-4 {
        stroke-width: 1.27px;
      }

      .cls-2 {
        stroke: #000;
        stroke-width: 1.11px;
      }

      .cls-3 {
        stroke-width: 0px;
      }

      .cls-4 {
        stroke: #77cfe6;
      }

      .cls-5 {
        clip-path: url(#clippath);
      }
    </style>
    <clipPath id="clippath">
      <rect class="cls-3" x="-201" y="-507" width="514" height="685"/>
    </clipPath>
  </defs>
  <g class="cls-5">
    <polyline class="cls-1" points="29.5 123.54 30.09 122.35 30.72 121.76 31.05 121.65 31.35 121.27 31.88 121.01 32 120.82 33.35 119.98 33.95 119.73 34.02 119.57 35.74 118.78 36.04 118.35 36.38 118.26 38.16 117.13 41.53 115.5 42.08 115.35 42.68 115.03 42.9 115.06 43.37 114.86 44.38 114.66 44.79 114.43 45.29 114.39 46.27 114.01 47.32 113.99 47.92 113.78 48.41 113.81 51.36 113.39 54.26 113.41 57.38 114.94 57.46 115.09 59.17 115.87 59.48 116.27 59.72 116.31 60.16 116.98 60.59 117.21 61.03 118.09 61.29 118.19 61.41 118.45 61.75 118.56 61.81 118.81 62.1 118.94 62.41 119.38 62.62 119.5 62.68 119.74 62.96 119.86 63.09 120.2 63.37 120.36 63.47 120.7 63.82 120.98 64.07 121.49 64.23 121.55 64.57 122.33 65.31 122.67 65.33 122.91 66.42 124.9 66.44 125.15 67.29 126.85 67.59 127.04 67.7 127.29 67.95 127.4 68.02 127.63 68.32 127.89 68.44 128.24 68.59 128.28 68.88 128.79 69.18 128.97 69.52 129.63 69.63 129.6 69.77 129.76 70.1 129.89 70.18 130.05 70.52 130.16 70.83 130.54 71 130.57 71.28 130.83 72.49 131.46 73.17 132.29 75.68 133.53 76.22 133.6 78.71 133.59 79.63 133.46 81.37 132.56 82.05 132.36 82.63 132.04 83.02 131.98 86.87 130.16 87.37 130.05 87.53 129.83 88.23 129.51 88.48 129.29 94.41 126.32 95.18 125.62 95.78 125.35 96.05 125.01 96.22 124.94 96.34 124.7 96.52 124.65 96.86 124.2 96.98 124.18 97.11 123.95 98.02 123.09 98.56 122.73 98.84 122.19 99.06 122.15 99.72 121.43 99.97 121.32 100.05 121.14 100.79 120.54 101.85 119.99 102.27 119.64 106.13 117.74 106.43 117.73 106.8 117.51 108.74 116.79 109.06 116.83 109.61 116.58 110.24 116.63 110.41 116.52 111.06 116.54 111.89 116.28 115.57 116.18 115.98 116.06 121.86 116.09 122.5 116.24 124.38 116.3 124.99 116.56 125.55 116.52 125.72 116.64 126.21 116.67 126.69 116.91 127.12 116.94 127.53 117.14 128.38 117.21 129.4 117.5 129.71 117.46 130.03 117.63 130.52 117.6 131.88 118.27 132.12 118.23 132.51 118.44 132.8 118.4 133.29 118.5 133.5 118.66 133.73 118.63 135.96 119.69 136.63 120.32 136.78 120.59 137.46 120.9 137.64 121.25 138.09 121.67 138.35 122.18 138.6 122.38 139.19 123.55 139.59 123.81 139.68 124.15 139.84 124.22 140.09 124.66 140.57 125.18 140.88 125.79 141.31 126.21 141.97 127.24 142.24 127.36 142.3 127.61 142.56 127.79 143.08 128.85 143.19 129.38 143.6 129.86 144.55 130.42 145.5 131.31 146.42 131.78 147.72 133.22 148.23 133.5 148.83 134.13 149.72 134.53 149.89 134.87 150.53 135.6 150.94 135.86 151.08 136.09 151.24 136.12 151.41 136.36 152.01 136.66 152.19 136.9 152.45 136.97 152.64 137.25 153.48 137.76 155.65 138.79 156.01 138.83 156.28 139.02 156.72 139.1 157.39 139.46 157.66 139.45 157.95 139.65 159.44 139.75 159.69 139.86 161.65 139.8 163.81 138.83 164.29 138.43 165.2 137.92 165.58 137.52 166.31 137.14 166.69 136.77 167.26 136.55 167.82 136.23 168.1 135.92 168.55 135.74 169.02 135.34 169.14 134.98 169.44 134.81 169.63 134.44 172.15 132.21 172.65 131.62 174.02 130.94 174.09 130.72 174.29 130.62 174.91 129.82 175.19 129.72 176.02 129.04 181.15 126.58 182.35 125.71 182.68 125.59 183.24 125.1 186.2 123.63 187.31 122.65 189.88 121.45 190.22 121.06 190.71 120.87 191.54 120.1 192.24 119.67 193.38 118.74 193.64 118.64 194.76 117.52 195.1 117.4 196.51 116.31 201.15 114.21 201.41 114.25 201.55 114.15 202.35 114.01 202.77 114.04 203.18 113.86 203.51 113.9 204.37 113.7 209.51 113.63 209.99 113.67 210.21 113.83 210.93 113.89 211.51 114.09 211.75 114.07 212.04 114.23 213.39 114.53 213.89 114.82 214.13 114.79 214.79 115.13 215.71 115.25 217.6 116.19 218.94 117.06 219.24 117.16 219.73 117.51 219.81 117.87 220.02 118.1 220.32 118.09 224.36 120.08 224.61 120.42 224.88 120.52 225.13 120.92 225.42 121.01 225.48 121.16 225.65 121.2 225.8 121.53 225.97 121.61 226.37 122.21 226.52 122.29 226.77 122.79 226.93 122.86 227.57 124.12 227.7 124.58 229.2 127.48 229.63 128.01 230.18 128.96 231.11 129.96 231.25 130.33 231.98 130.93 232.71 131.86 232.94 132 234.28 134.58 234.88 135.5 235.31 135.88 235.64 136.01 235.85 136.41 236.16 136.55 237.32 137.7 237.72 137.85 237.91 138.06 239.47 138.67 239.89 138.68 240.33 138.89 240.64 138.85 240.94 139.07 241.31 139.1 242.05 139.47 243.47 139.68 245.7 139.54 246.86 139.16 247.64 139.05 248.9 138.52 249.79 138.36 250.18 138.12 250.51 138.1 250.92 137.85 251.4 137.74 256.24 135.34 256.28 135.21 256.8 134.95 257.54 134.23 257.54 134.09 258.36 133.39 258.44 133.12 258.58 133.07 258.81 132.75 258.94 132.74 258.99 132.58 259.55 131.99 260.28 131.63 260.62 131.31 261.48 130.94 261.75 130.61 263.51 129.84 267.86 129.84 268.9 129.8 269.18 129.69 272.67 129.65"/>
    <polyline class="cls-4" points="190.73 68.9 191.31 68.51 191.8 67.9 192.3 67.64 193.47 66.6 199 63.89 200.09 63.04 203.26 61.5 207.78 59.77 207.96 59.57 209.92 58.65 211.33 58.11 211.56 58.14 212.41 57.84 213.6 57.31 214.49 57.22 214.85 56.99 215.04 57.02 215.54 56.77 215.67 56.81 217.55 55.88 218.01 55.82 220.61 54.81 226.79 52.71 227.06 52.74 228.4 52.3 229.36 52.21 229.92 52 233.87 52 234.83 51.84 243.49 51.86 244.95 52.05 245.13 52.15 245.59 52.13 245.95 52.35 247.08 52.5 247.65 52.7 248.42 52.66 249.49 53.12 249.87 53.13 250.22 53.33 250.73 53.39 252.62 54.36 252.81 54.71 253.44 55.34 253.59 55.65 254.33 56.54 255.03 57.14 255.32 57.25 255.63 58 256.02 58.54 256.44 59.77 258.23 63.06 258.23 63.44 258.81 65.08 258.77 65.52 259.04 66.31 259.2 68.61 259.57 69.29 259.66 70.7 259.81 71 259.85 72.67 259.84 76.07 259.72 76.34 259.79 79.07 259.47 79.72 259.44 80.1 259.18 80.67 259.12 81.27 258.55 82.43 258.22 82.84 257.95 83.58 257.67 83.89 257.57 84.23 256.94 84.97 256.75 85.44 256.41 85.75 256.3 86.04 255.83 86.42 255.78 86.59 255.39 86.9 255.35 86.85 255.06 87.26 254.5 87.72 254.37 87.72 253.65 88.29 251.83 89.29 249.79 90.2 249.39 90.5 247.05 91.62 246.92 91.58 246.14 92.08 245.36 92.4 244.92 92.8 244.42 92.97 243.87 93.4 241.52 94.5 240.82 95.03 239.86 95.4 239.53 95.82 238.34 96.25 238.19 96.23 237.74 96.48 237.37 96.43 236.81 96.7 236.63 96.68 234.91 97.43 234.18 98.08 233.28 98.66 232.82 99.05 232.32 99.68 231.97 99.81 231.55 100.24 231.34 100.79 230.65 101.85 229.46 104.32 229.5 104.99 229.24 105.39 229.13 106 228.55 106.99 228.57 107.25 228.28 107.79 228.32 108.07 227.74 109.11 227.76 109.35 227.45 109.86 227.49 110.07 227.18 110.56 227.07 111.4 226.96 111.53 226.93 112.13 226.67 112.6 226.6 112.97 226.56 117.89 226.67 118.25 226.69 120.03 226.81 120.28 227.03 120.42 227.41 120.32"/>
    <polyline class="cls-4" points="190.54 68.6 189.96 69.06 189.22 69.45 188.52 70.21 188.39 70.2 188.17 70.39 187.26 71.41 186.99 72.01 186.59 72.49 186.13 73.66 186.16 74.47 186.05 74.64 186.08 75.22 185.95 75.53 185.98 76.7 186.1 76.88 186.13 77.37 186.28 77.58 186.25 78.13 186.37 78.3 186.44 79.1 190.14 86.3 190.4 87.52 190.57 87.74 190.67 88.48 190.84 88.72 190.8 88.92 190.96 89.42 191.09 90.54 191.13 93.79 190.85 94.32 190.9 94.41 190.74 94.64 190.61 95.17 189.75 96.82 189.57 96.89 189.46 97.15 189.34 97.18 189.2 97.39 188.62 97.68 188.5 97.86 188.04 98.02 187.81 98.22 187.78 98.39 187.5 98.51 187.27 98.8 187.18 99.11 187.03 99.14 185.77 101.62 185.7 105 185.91 106.3 185.9 109.06 185.75 109.88 185.17 111.09 184.87 112.11 184.29 113.24 184.13 113.82 183.38 115.19 183.41 115.44 183.15 115.91 183.16 116.06 182.14 117.95 181.85 118.8 179.93 122.56 179.96 122.79 179.7 123.19 179.75 123.31 178.59 125.76 178.63 126.22 178.41 126.72"/>
    <polyline class="cls-4" points="134.02 117.81 133.23 116.77 133.23 116.62 132.7 116.12 132.46 115.75 131.65 115.18 131.19 114.64 130.83 114.47 130.22 113.61 129.85 113.27 129.33 112.3 129.14 112.17 128.66 111.4 127.81 109.73 127.85 109.16 127.73 108.98 127.6 108.05 127.39 107.77 127.03 106.65 127.06 106.31 126.81 105.14 126.78 104.47 126.53 103.56 126.51 101.7 126.3 100.86 126.28 99.65 126.13 98.53 126.1 96.25 125.98 95.95 126 93.83 125.81 92.82 125.82 91.31 125.64 90.94 125.39 89.42 125.17 84.99 125 84.65 125.04 84.3 124.88 83.67 124.21 82.06 123.9 81.65 122.92 79.02 122.69 78.63 121.59 75.49 121.34 74.29 120.58 71.88 120.6 71.61 120.03 70.02 119.98 69.29 119.7 68.89 119.5 67.99 117.59 64.33 117.21 63.79 116.71 63.34 116.64 63.04 116.4 62.83 116.3 62.59 115.01 61.67 114.56 61.19 114.19 61.06 113.85 60.68 112.98 60.31 111.67 58.97 111.4 58.86 110.95 58.29 110.71 58.2 110.04 57.52 110.02 57.37 109.36 57.04 108.79 56.49 108.67 56.25 108.31 56.16 107.26 55.57 104.35 54.21 103.43 54.14 103.24 54 102.34 53.78 99.06 53.69 98.4 54.02 98.24 53.96 97.91 54.18 97.75 54.16 94.84 55.53 94.64 55.83 94.27 55.96 94.15 56.16 93.43 56.45 93.22 56.94 92.64 57.09 92.26 57.48 91.99 57.55 91.89 57.81 91.69 57.86 91.58 58.08 91.26 58.22 91.12 58.53 90.57 59.11 90.46 59.72 90.16 59.81 90.07 60.11 89.75 60.39 89.69 60.63 89.53 60.67 89.4 61.09 88.78 61.46 88.58 62.14 88.27 62.6 88.06 62.72 87.41 64.19 87.45 64.64 87.24 64.98 87.24 65.3 87.04 65.76 87.08 66.24 86.79 66.63 86.86 67.24 86.73 67.44 86.69 68.97 86.71 71.86 86.82 72.05 86.8 72.38 87.14 72.93 87.22 73.43 87.27 73.48 87.27 73.38 87.49 73.89 87.85 74.17 88.61 74.51 89.74 74.5 90.36 74.18 91 72.81 90.99 72.29 90.54 72.09 89.8 72.14 89.27 71.79 89.2 71.58 88.75 71.36 88.33 70.61 88.35 69.08 91.24 63.44 91.38 63.4 91.48 63.14 91.77 63 91.84 62.86 92.36 62.65 92.53 62.39 93.29 62.05 93.6 62.04 94.27 61.67 94.8 61.59 95.32 61.35 95.64 61.38 96.14 61.1 96.54 61.04 97.17 60.73 99.18 60.46 103.38 60.44 103.5 60.54 104.08 60.52 104.47 60.67 104.83 60.66 105.68 61.08 106.19 61.11 106.93 61.48 107.88 62.62 109.69 66.2 109.69 66.53 109.86 66.81 109.84 67.09 110.2 67.81 110.25 68.36 110.38 68.45 110.56 68.98 110.55 69.65 110.68 69.89 110.7 70.43 110.86 70.66 110.94 71.34 111.1 71.6 111.12 72.09 111.23 72.33 111.2 73.12 111.32 73.36 111.4 74.06 111.81 74.83 111.79 75.39 112.03 75.79 111.99 76.05 112.09 76.42 112.82 77.76 113.25 78.99 113.22 79.65 113.34 79.83 113.31 80.68 113.43 81.13 113.45 85.49 113.5 86.2 113.61 86.41 113.63 87.9 113.84 90.38 113.82 91.74 113.92 92.41 113.82 102.51 113.64 105.03 113.53 105.21 113.4 106.82 113.41 109.2 113.57 109.48 113.91 111.84 114.06 112.24 114.05 112.66 114.16 112.84 114.28 115.58"/>
    <polyline class="cls-4" points="93.79 58.51 93.79 58.6 93.88 58.49 94.57 58.32 95.85 57.64 96.67 57.42 96.92 57.45 97.24 57.6 97.41 58.28 97.38 58.88 97.12 59.17 96.89 59.27 96.74 59.25 96.68 58.5 97.13 57.71"/>
    <polyline class="cls-4" points="101.56 57.67 101.74 56.95 101.94 56.61"/>
    <polyline class="cls-4" points="109.15 62.32 108.78 61.33 108.87 60.75 109.05 60.47 109.58 60.22 109.95 60.27 110.27 60.51 110.48 60.87 110.53 61.22 109.88 61.4 109.42 61.36 109.41 60.95 109.58 60.76"/>
    <polyline class="cls-4" points="104.25 59.12 104.12 59.08 105.18 58.46 105.91 58.22 106.29 58.26 106.6 58.51 106.78 58.97 106.75 59.28 106.55 59.52 105.99 59.65 105.64 59.63 104.71 59.12 104.88 58.76 105.71 58.39"/>
    <polyline class="cls-4" points="111.76 66.1 111.94 65.52 112.59 64.24 113.33 63.97 113.63 64.01 114.37 64.54 114.84 65.49 114.78 65.88 114.56 65.89 113.89 66.35 112.9 66.69 112.49 66.65 111.98 66.85 111.59 66.82 111.45 66.4 111.49 65.8 112.33 64.09 112.77 63.91 113.26 64.07"/>
    <polyline class="cls-4" points="114.16 71.73 114.14 69.67 114.4 69.09 115.08 68.95 115.9 69.44 116.26 69.94 116.44 70.41 116.14 71.03 115.51 71.61 115.24 71.7 114.24 71.73 113.68 71.41 113.5 71.44 113.63 71.27 114.07 71.05"/>
    <polyline class="cls-4" points="114.86 78.88 115.07 78.08 115.21 77.93 115.19 78.05 115.38 78.01 114.53 77.99 114.55 77.85 114.33 77.65 114.1 77.17 114.2 76.2 114.51 75.75 114.46 75.65 114.84 75.52 114.79 75.87 114.33 75.78 114.29 75.31 114.86 75.12 114.96 75.19 115.27 75.79 115.18 76.07 115.21 77.47 115.03 77.65 115.06 77.84 114.79 77.99 114.45 78.12 114.1 78.06"/>
    <polyline class="cls-4" points="119.03 76.39 118.72 75.46 118.79 74.56 118.94 74.28 119.09 74.19 119.47 74.19 119.88 74.45 120.4 75.59 120.36 75.84 120.05 76.28 119.8 76.93 119.17 77.18 117.91 77.14 117.64 76.94"/>
    <polyline class="cls-4" points="120.93 84.5 120.83 84.18 120.86 83.34 121.24 83.15 120.56 83.17 120.59 82.82 121.11 82.61 121.4 82.64 121.57 82.96"/>
    <polyline class="cls-4" points="116 84.64 116.5 83.54 116.83 83.18 116.99 82.83 117.8 82.22 118.51 81.9 119.07 81.88 119.58 82.37 119.69 82.8 119.14 83.03 118.91 82.99 119.05 82.99"/>
    <polyline class="cls-4" points="115.46 90.71 115.55 90.72 115.46 90.71 115.46 90.61 115.66 90 115.67 89.58 115.73 89.66 115.85 89.63 116.32 89.34 116.66 89.44 116.79 89.81 116.76 90.24 116.55 90.24 116.03 90.49 115.67 90.44 116.08 90.27"/>
    <polyline class="cls-4" points="121.46 89.47 120.8 88.41 120.96 87.49 121.24 86.92 121.74 86.77 122.28 87.94 122.22 88.66 121.32 90.32 120.66 90.57 120.76 90.52 121.06 89.93 121.63 89.49 121.69 89.29"/>
    <polyline class="cls-4" points="116.33 98.08 115.78 96.98 115.87 96.72 115.85 95.72 116.09 95.01 117.01 94.65 117.27 94.68 117.73 94.92 118.33 95.35 118.97 96.65 118.91 97.1 118.44 97.97 117.62 98.26 116.81 98.21 115.95 97.81 115.95 97.49 116.35 97.11 117.32 96.8"/>
    <polyline class="cls-4" points="122.8 94.91 122.97 94.2 123.2 93.84 123.78 93.7 124.21 93.83 124.21 94.18 124.43 94.64 123.71 95.58 123.3 96.34 122.98 96.61 122.89 96.79 122.96 96.81 122.31 96.82 122.15 96.45 122.3 96 122.11 96.62"/>
    <polyline class="cls-4" points="97.01 120.24 97.24 119.44 97.19 118.21 96.85 117.62 96.86 117.34 96.34 116.38 95.8 115.76 95.38 115.08 94.97 114.69 94.86 114.35 94.42 114 94.31 113.59 92.89 111.99 92.39 110.98 91.72 110.37 91.49 110 91.1 109.74 90.79 109.24 90.33 108.89 90.29 108.72 90.18 108.75 89.68 108.26 88.94 107.9 88.56 107.52 88.06 107.31 87.82 106.79 87.63 106.62 87.37 106.56 87.17 106.13 87.05 106.11 86.85 105.8 86.67 105.73 86.42 105.44 85.7 105.08 85.57 104.93 76.64 100.6 76.39 100.58 76.07 100.37 75.95 100.4 74.62 99.83 74.47 99.87 74.24 99.71 74.02 99.74 73.68 99.52 72.69 99.14 72.23 99 71.73 99.03 71.05 98.75 70.62 98.76 70.41 98.6 69.66 98.42 63 98.36 62.7 98.52 62.15 98.53 61.52 98.72 61.01 98.71 60.88 98.83 59.93 98.85 59.37 99.05 56.99 99.25 56.67 99.42 55.7 99.47 54.93 99.65 54.22 100.01 53.9 100.02 53.32 100.36 53.02 100.33 52.53 100.52 51.19 101.18 51.05 101.37 50.82 101.46 50.68 101.73 50.57 101.7 50.55 101.83 49.83 102.28 49.82 102.5 49.53 102.61 49.16 103.07 49.03 103.05 48.04 103.99 47.7 104.16 47.29 104.59 46.78 104.94 46.84 104.97 46.77 105.07 46.24 105.51 46.09 105.78 45.66 106.06 45.39 106.57 45.01 106.67 44.95 106.83 44.74 106.92 44.68 107.12 44.33 107.23 44.04 107.74 43.89 107.87 43.73 107.86 43.36 108.41 43.15 108.5 42.97 108.93 42.6 109.16 42.58 109.39 42.28 109.5 42.04 109.92 41.9 109.98 41.69 110.48 41.47 110.65 41.49 110.75 41.03 110.91 39.51 113.66 39.24 114.45 39.28 114.85 39.06 115.59 39.04 116.12"/>
    <polyline class="cls-4" points="90.34 127.42 88.85 126.69 87.86 125.94 87.34 125.17 86.22 124.1 86 123.53 85.44 122.87 83.93 121.42 83.22 120.99 83.03 120.72 82.61 120.54 82.41 120.01 82.26 119.86 81.86 119.74 81.53 119.45 80.44 118.97 80.17 118.49 78.97 117.89 78.28 117.22 78.15 117.22 77.83 116.93 76.67 116.4 76.5 116.16 76.2 116 75.75 115.41 74.98 114.99 74.54 114.53 73.28 113.97 73.19 113.79 72.87 113.71 72.65 113.5 71.95 113.21 71.85 113.03 71.54 112.95 67.52 110.96 67.28 110.99 67.1 110.84 66.29 110.73 66.09 110.61 62.48 110.59 62.03 110.75 61.34 110.82 61.01 110.99 58.92 111.21 58.42 111.46 58.17 111.43 57.84 111.59 57.09 111.57 56.78 111.7"/>
    <polyline class="cls-4" points="88.48 119.08 88.34 118.75 88.36 117.85 89.02 117.44 89.39 117.3 89.64 117.34 89.88 118.03 89.4 118.71 88.54 119.06 88.05 119.02 87.67 118.4 87.73 118.01 88.08 117.47 88.85 117.15 88.58 117.66 88.26 117.94 87.62 118.09"/>
    <polyline class="cls-4" points="84.29 111.65 83.21 112.33 82.73 112.49 82.41 112.46 82.04 112.25 81.91 112.07 81.98 111.97"/>
    <polyline class="cls-4" points="75.16 107.72 74.44 106.86 74.4 106.72 74.62 106.67 74.91 106.82 75.06 107.44 74.82 107.45 74.06 107.92 73.4 107.87 73.13 107.58 73.11 106.99 73.29 106.73 73.76 106.48"/>
    <polyline class="cls-4" points="62.96 105.13 61.36 105.09 60.84 104.77 60.99 104.85 61.27 104.66"/>
    <polyline class="cls-4" points="51.52 107.24 52.75 106.79 52.94 106.86 52.52 107.11 52.11 107.54 51.51 107.7 50.7 107.69 50.36 107.58 50.45 107.6 50.19 107.96"/>
    <polyline class="cls-4" points="146.37 129.74 146.36 128.03 146.25 127.82 146.21 127.25 146.21 127.13"/>
    <polyline class="cls-4" points="183.83 84.71 183.96 84.64 184.08 84.7 184.53 84.48 185.37 84.47"/>
    <polyline class="cls-4" points="185.89 88.66 187.4 87.91 187.9 87.96"/>
    <polyline class="cls-4" points="155.55 135.7 155.55 136.14 155.67 136.32 155.65 137.34 155.8 138.01 155.85 137.93 156.2 137.9"/>
    <line class="cls-4" x1="196.52" y1="79.63" x2="196.53" y2="79.65"/>
    <polyline class="cls-4" points="200.1 78.58 198.28 78.57 198.1 78.69 197.52 78.65 195.14 79.73 194.12 80.67 193.76 80.79 193.38 81.2 193.44 81.23 192.98 82.04 192.81 82.7 192.83 83.57 193 83.85 193.56 84.12 195.37 84.05 196.05 83.79 196.59 83.73 198.58 82.86 201.98 81.7 205.87 79.76 206.12 79.15 206.1 78.73 205.89 78.36 205.38 77.9 204.28 77.41 203.62 77.23 202.35 77.29 200.18 77.8 198.76 78.26 196.57 79.96"/>
    <polyline class="cls-4" points="169.22 135.47 168.06 135.42 166.68 135.01 166.3 135.01 165.48 134.57 165.32 134.62 164.95 134.41 163.83 134.3 162.45 133.59 162.4 133.45 161.96 133.12 161.69 132.6 161.24 132.2 160.9 131.31 160.84 130.55 160.67 130.29 160.65 129.85 159.97 128.48 159.83 117.7 160.65 114.98 160.89 112.6 161.11 111.88 161.26 109.04 161.47 108.18 161.44 107.53 161.79 105.59 161.84 104.15 162.02 103.81 162.18 102.19 162.26 99.08 162.42 97.87 162.4 96.58 162.62 95.87 162.63 94.2 162.72 93.13 162.84 92.86 162.82 84.61 162.7 84.42 162.73 83.89 162.61 83.71 162.64 82.99 162.47 82.23 162.49 81.68 162.26 81.35 162.32 80.9 162.03 80.36 161.94 79.56 161.48 78.56 161.5 78.38 161.27 77.77 161.24 77.41 160.89 76.71 160.92 76.43 160.65 75.98 160.69 75.72 160.51 75.02 160.29 74.64 159.96 74.36 159.76 73.8 157.77 69.96 157.46 69.96 156.97 68.79 156.57 68.4 156.53 68.24 156.28 68.19 155.97 67.69 154.79 66.81 151.69 65.33 151.19 65.27 150.94 65.09 150.53 64.99 149.99 64.95 149.87 64.84 148.28 64.72 146.54 64.27 144.21 64.28 142.34 64.51 141.99 64.66 137.11 65.13 136.44 65.4 136.13 65.73 135.83 66.37 135.73 66.86"/>
    <polyline class="cls-4" points="145.92 130.42 145.95 127.56 146.11 127.03 146.14 126.32 146.3 125.97 146.42 125.15 146.52 124.98 146.55 122.92 146.66 122.74 146.64 122.29 146.81 121.91 146.86 120.55 147.08 119.75 147.05 119.08 147.37 118.42 147.32 117.96 147.64 116.97 147.66 116.53 147.93 116.09 148.93 113.37 149.16 112.98 149.13 112.64 149.34 111.82 149.31 111.44 149.53 110.91 149.48 110.23 150.62 106.83 150.91 106.27 150.89 106.09 151.18 105.36 151.15 105.1 151.37 104.75 151.39 104.38 151.54 104.12 151.56 103.49 151.73 103.23 151.8 102.78 151.78 102.17 151.95 101.71 151.92 101.02 151.98 100.64 152.15 100.36 152.2 96.79 152.46 95.64 152.67 93.57 152.66 89.87 152.5 89.12 152.48 87.95 152.36 87.77 152.39 87.18 152.04 85.89 151.78 85.5 151.82 85.34 151.44 84.16 151.27 82.99 151.11 82.73 151.14 82.32 150.97 82.05 150.72 81.03 149.03 77.5 148.77 76.7 148.3 75.81 147.77 75.29 146.94 73.73 146.79 73.68 146.57 73.25 145.63 72.41 145.18 71.55 144.88 71.41 144.37 70.83 144.23 70.82 143.29 70.1 138.55 67.92 137.36 67.72 136.82 67.53 135.86 67.54 135.61 67.44 135.23 67.45 134.62 67.92"/>
    <polyline class="cls-4" points="154.19 131.82 154.38 131.79 153.59 131.62 153.07 131.35 152.95 131.39 152.65 130.71 152.71 129.99 153.36 129.61 153.85 129.63 154.32 130.03 154.65 131.04 153.62 132.07 152.93 132.34 152.38 132.29 152.32 132.09 151.98 131.87 151.93 131.71 151.98 131.04 152.3 130.46 152.23 130.07 152.11 129.94"/>
    <polyline class="cls-4" points="153.34 122.71 152.79 121.81 152.84 121.6 152.85 121.7 152.57 121.83 152 121.79 152.46 121.53 152.84 121.53 153.06 121.64 153.19 122.18 152.54 122.37 152.16 122.33 151.3 121.71 151.05 121.39 150.99 121.09"/>
    <polyline class="cls-4" points="154.79 113.17 154.77 111.59 155.06 110.92 155.05 110.33 155.21 110.16 155.18 110.69 154.92 111.26 154.56 111.43 154.06 111.94 153.82 112.03 153.84 111.95 153.41 111.97 153.62 111.54"/>
    <polyline class="cls-4" points="156.47 105.41 156.47 103.92 156.69 103.53 156.51 103.59 155.76 103.21 155.47 102.64 156.15 100.55 156.31 100.33 156.28 100.89 155.78 101.85 155.28 101.98"/>
    <polyline class="cls-4" points="155.99 94.29 156.03 93.41 156.27 92.85 156.51 92.72 156.78 92.78 156.81 93.11 157.21 93.84 156.98 94.06 156.94 94.22 156.47 94.24"/>
    <polyline class="cls-4" points="159.3 89.56 160.3 89.56 160.62 89.45 160.53 89.43"/>
    <line class="cls-4" x1="154.75" y1="82.49" x2="154.72" y2="82.5"/>
    <line class="cls-4" x1="155.01" y1="84.96" x2="155.05" y2="84.96"/>
    <line class="cls-4" x1="156.26" y1="78.38" x2="156.72" y2="78.32"/>
    <line class="cls-4" x1="156.39" y1="77.34" x2="156.33" y2="77.32"/>
    <polyline class="cls-4" points="152.58 77.81 151.46 76.69 151.48 76.04 151.65 75.81 151.65 75.89 152.03 75.79 151.53 76.01"/>
    <polyline class="cls-4" points="154.15 71.68 154.67 71.57 155.19 71.61 154.92 71.6 154.48 71.4"/>
    <line class="cls-4" x1="148.45" y1="68.38" x2="148.67" y2="69.35"/>
    <line class="cls-4" x1="145.01" y1="67.27" x2="144.98" y2="67.27"/>
    <polyline class="cls-4" points="143.14 67.77 143 67.75 144.15 67.18 144.74 67.05"/>
    <polyline class="cls-4" points="159.57 95 159.17 96.17 158.27 97.1 158.55 96.99"/>
    <polyline class="cls-4" points="158.01 105.72 158.28 104.73 158.45 104.54 158.43 104.64 158.87 104.5"/>
    <polyline class="cls-4" points="156.91 113.72 158.01 114.52 158 114.76 158.2 115.15 158.17 115.54 157.93 115.84 157.91 116.09 157.97 116 158.01 116.08"/>
    <line class="cls-4" x1="157.15" y1="117.91" x2="157.18" y2="117.92"/>
    <polyline class="cls-2" points="258.39 46.04 257.83 47.15 256.49 48.52 254.8 49.43 251.64 52.32 250.77 52.88 250.57 53.24 249.99 53.71"/>
    <polyline class="cls-2" points="217.69 54.17 216.1 53.93 215.66 53.7 215.22 53.71 215.06 53.62 214.01 53.47 213.3 53.18 212.82 53.12 212.36 52.92 211.72 52.86 211.03 52.49 210.32 52.25 209.12 51.2 209.09 51.06 208.83 50.83 208.46 50.03 208.01 49.8 207.69 49.28 207.38 49.09 207.37 48.97 207.19 48.79 207.21 48.67"/>
    <polyline class="cls-2" points="207.1 47.26 208.16 47.69 209.26 47.73 209.46 47.86 211.39 47.84 211.59 47.94 211.98 47.91 212.16 48.01 214.28 47.99 214.6 47.84 214.98 47.88 215.3 47.74 215.65 47.72 217.9 47.72 219.75 47.84 220 47.98 220.54 48 227.53 48.07 228.6 47.85 231.82 47.8 232.02 47.7 232.86 47.73 233.88 47.65 234.15 47.55 235.37 47.53 235.64 47.43 235.93 47.46 236.1 47.36 238.35 47.34 239.33 47.17 241.97 47.08 242.45 46.98 245.73 46.92 246.65 46.46 247.13 46.47 247.45 46.32 247.75 46.35 248.01 46.2 248.38 46.24 249.22 46.1 250.21 46.08 250.45 45.98 251.45 45.92 251.67 45.77 252.61 45.73 252.89 45.58 254 45.54 254.55 45.41 255.97 45.3 257.37 45.31"/>
    <polyline class="cls-2" points="233.34 8.31 233.33 12.8 233.51 13.49 233.48 14.04 233.61 15.33 233.75 15.57 233.76 16.15 233.86 16.32 233.84 16.83 233.99 17.13 234 19.24 234.1 19.47 234.11 20.23 234.26 20.59 234.23 23.14 234.36 24.03 234.35 26.42 234.45 26.87 234.47 29.42 234.57 29.56 234.54 29.94 234.83 31.38 234.98 31.6 234.98 32.02 235.08 32.14 235.07 32.32 235.24 32.71 235.38 33.95 235.52 34.32 235.53 34.85 235.69 35.11 235.64 35.56 235.74 36.08 235.81 39.33 235.91 39.49 235.89 39.8 235.99 39.95 236.05 41.32 236.19 41.64 236.17 42.56 236.27 42.68 236.24 43.01 236.38 43.39 236.36 43.77 236.48 43.88 236.44 44.31 236.54 44.51 236.52 44.85 236.67 45.11 236.63 45.38 236.75 45.63 236.79 46.37"/>
    <polyline class="cls-2" points="234.12 37.38 232.83 37.85 231.55 37.91 231.16 38.1 230.61 38.15 230.21 38.32 229.07 38.37 228.16 38.66 227.65 38.63 226.95 38.91 226.64 38.86 225.8 39.08 225.17 39.1 225.01 39.2 224.34 39.25 223.76 39.51 223.34 39.47 222.79 39.71 221.76 39.68 221.61 39.78 221.11 39.79 220.83 39.99 219.48 40.35 217.9 40.36 217.75 40.47 217.43 40.44 216.9 40.61 216.25 40.64 215.92 40.78 214.82 40.8 211.85 40.79 211.98 40.43"/>
    <polyline class="cls-2" points="230.9 9.62 230.11 10.56 229.55 11.05 229.36 11.58 228.98 12.12 228.39 13.39 228.04 13.68 228.03 13.79 227.74 14.05 227.46 14.64 226.9 15.22 226.67 15.75 226.4 16.06 226.11 16.67 226.1 16.94 225.88 17.31 225.23 17.98 224.89 18.59 224.62 18.82 224.47 19.24 224.15 19.49 223.69 20.28 223.23 20.73 223.01 21.31 221.89 22.42 221.74 22.81 220.82 23.72 220.43 24.46 220.22 24.62 220.11 24.92 219.83 25.14 219.75 25.38 219.55 25.5 219.49 25.7 219.28 25.89 218.57 27.1 217.63 27.77 217.62 27.96 214.93 33.17 214.63 33.65 214.42 33.79 214.02 34.65 213.83 34.82 213.74 35.09 213.52 35.21 213.03 36.2 212.79 36.58 212.67 36.63 212.26 37.52 212.11 37.58 211.66 38.42 211.67 38.64"/>
    <polyline class="cls-2" points="234.12 9.17 234.59 9.91 235.3 11.39 236.44 13.23 236.56 13.31 237 14.18 237.27 14.55 237.82 14.95 238.38 16.03 238.86 16.29 239.07 16.87 239.25 16.96 239.64 17.44 239.89 17.94 240.16 18.17 240.4 18.62 240.63 18.87 240.9 19.44 241.42 20.22 242.88 23.07 243.01 23.55 243.23 23.96 243.19 24.06 244.69 26.8 244.98 26.88 245.14 27 245.17 27.17 245.69 27.55 245.85 27.79 246.17 27.94 246.21 28.1 246.79 28.64 247.72 29.82 247.95 29.97 248.03 30.17 248.31 30.38 248.61 30.47 249.17 31.59 249.74 32.42 251.3 35.43 251.63 35.9 252.11 36.33 252.34 36.87 252.46 36.88 252.66 37.19 252.86 37.23 253.88 38.41 253.93 38.6 254.19 38.78 255.56 41.52 255.63 41.61 255.71 41.54"/>
    <polyline class="cls-2" points="254.76 40.52 254.75 40.58 253.88 40.84 253.36 40.86 252.51 41.03 252.4 41.11 251.95 41.09 251.93 41.15 251.29 41.32 250.43 41.32 249.91 41.49 248.82 41.48 248 41.74 247 41.78 245.59 42.01 244.68 42.25 244.32 42.24 243.66 42.49 243.34 42.51 242.09 42.99 241.55 43.01 240.49 43.5 239.92 43.55"/>
    <polyline class="cls-2" points="238.55 42.66 238.77 40.45 238.9 40.02 239.16 37.88 239.3 37.45 239.32 36.09 239.51 35.51 239.47 34.96 239.57 34.77 239.6 34.14 239.69 33.92 239.64 30.55 239.52 29.17 239.43 29.08 239.23 27.82 239.1 27.64 239.05 26.76 238.95 26.64 238.88 26.14 238.85 25.25 238.7 25.1 238.69 24.76 237.7 22.92 237.74 22.73 237.6 22.57 237.5 21.89 237.28 21.49 237.27 21.09 237.05 20.55 237.08 20.2 236.93 20.03 236.83 19.21 236.6 18.88 236.48 17.85 236.33 17.65 236.33 17.18 236.14 16.72 236 15.73 235.88 15.54 235.89 15.33 235.26 14.18 235.28 14.07 234.25 12.15 234.28 11.82 234.43 11.57"/>
    <line class="cls-2" x1="237.37" y1="42.76" x2="237.36" y2="42.79"/>
    <polyline class="cls-2" points="237.64 42.09 235.55 43.27 235.19 43.34 234.04 43.32 233.88 43.42 233.49 43.39 233.33 43.49 232.92 43.48 232.41 43.61"/>
    <line class="cls-2" x1="207.73" y1="47.69" x2="207.78" y2="47.69"/>
    <polyline class="cls-2" points="208.48 46.34 210.21 46.18 211.31 46.19 211.57 46.09 214.63 46.12 215.22 46.07 215.85 45.8 216.29 45.86 216.63 45.75"/>
    <polyline class="cls-2" points="219.18 45.5 222.83 45.23 223.9 44.92 225.32 44.72 225.91 44.5 226.48 44.45 227.1 44.28 227.36 44.13 230.25 43.97 231.47 43.77 231.68 43.64"/>
    <line class="cls-2" x1="237.84" y1="42.51" x2="237.82" y2="42.51"/>
    <polyline class="cls-2" points="217.48 40.23 216.64 42.85 216.6 43.43 216.26 44.58 216.29 45.04 216.19 45.19 216.13 46.06 216.03 46.25 216.06 46.97 215.84 47.27 215.87 47.63"/>
    <polyline class="cls-2" points="254.47 42.22 255.08 42.78 255.31 43.12 255.43 43.49 256.33 45.11"/>
  </g>
</svg>