<?xml version="1.0" encoding="UTF-8"?>
<svg id="Layer_1" data-name="Layer 1" xmlns="http://www.w3.org/2000/svg" version="1.1" xmlns:xlink="http://www.w3.org/1999/xlink" viewBox="0 0 348 203">
  <defs>
    <style>
      .cls-1 {
        stroke: #4659a8;
      }

      .cls-1, .cls-2, .cls-3, .cls-4 {
        fill: none;
      }

      .cls-1, .cls-3, .cls-4 {
        stroke-linecap: round;
        stroke-linejoin: round;
        stroke-width: 1.27px;
      }

      .cls-2 {
        stroke-width: 0px;
      }

      .cls-3 {
        stroke: #77cfe6;
      }

      .cls-4 {
        stroke: #000;
      }

      .cls-5 {
        clip-path: url(#clippath);
      }
    </style>
    <clipPath id="clippath">
      <rect class="cls-2" x="-40" y="-384" width="514" height="685"/>
    </clipPath>
  </defs>
  <g class="cls-5">
    <polyline class="cls-4" points="95.12 40.74 95.51 42.12 95.82 42.53 96.55 43.99 96.5 45.29 96.15 46 95.82 47.51 95.86 48.05 95.75 48.36 95.77 62.89 95.68 69.44 95.36 71.14 95.4 72.03 95.23 73 95.21 78.16 94.98 79.1 95.04 80.43 94.67 82.88 94.57 89.54 94.52 90.45 94.29 91.33 94.29 92.89 94.04 94.9 94.02 122.64 93.9 122.94 93.77 124.73 93.66 128.98 93.48 129.49 93.51 132.29 93.42 134.44 93.16 136.05 93.09 137.82 92.83 139.17 92.88 139.83 92.56 141.05 92.6 141.93 92.44 142.7 92.46 143.85 92.23 144.47 92.27 145.03 92.17 145.47 92.18 146.12 92.07 146.36 92.04 160.13 91.87 160.57 91.89 160.84 91.58 161.64 91.56 162.04 91.31 162.6"/>
    <polyline class="cls-4" points="86.4 165.16 86.4 165.24 86.99 164.97 90.52 164.13 93.05 164.09 93.33 163.97 93.87 163.99 95.1 163.63 95.94 163.54 96.47 163.55 96.17 164.05"/>
    <polyline class="cls-4" points="88.06 168.59 88.37 168.7 89.1 168.7 90.58 168.45 92.42 168.47"/>
    <polyline class="cls-4" points="91.21 43.68 91.84 42.51 92.38 41.96 93.5 40.46 97.17 36.53 99.93 34.13 101.2 33.45 101.39 33.5"/>
    <polyline class="cls-4" points="89.21 60.85 89.19 68.87 89.34 71.3 89.35 80.33 89.22 81.86 89.24 83.43 89.05 85.39 88.91 85.88 88.93 86.42 88.73 85.98"/>
    <polyline class="cls-4" points="85.85 71.46 85.21 71.68 84.09 72.28 83.62 73.2 83.68 74.12 84.2 74.68 84.33 74.98 84.86 75.35 85.57 75.68 86.31 75.66 86.63 75.48 86.78 75.51 87.81 74.91 88.6 73.2 88.55 71.89 88.25 71.31 87.83 70.99 87.45 70.78 86.91 70.79 86.21 71.38 85.85 71.51 85.38 71.89 85.07 72.26 84.84 72.8 84.46 73.07"/>
    <polyline class="cls-4" points="88.31 110.44 88.18 110.39 88.24 110.42 87.94 111.42 88 111.91 87.89 112.09 87.91 113.23 87.69 113.85 87.72 114.91 87.61 115.09 87.62 115.45 87.41 116.11 87.45 116.72 87.23 117.23 87.26 126.34 87.46 127.73 87.45 132.38 87.26 134.16 86.93 134.91 86.72 136.1"/>
    <polyline class="cls-4" points="84.98 125.09 83.91 124.82 83.57 124.65 83.33 124.7 83.06 124.54 82.59 124.57 82.33 124.39 81.34 124.43 80.72 124.65 79.27 124.61 78.53 124.81 75.4 124.79 75.22 124.9 73.84 125.12 71.46 125.1 71.25 125.22 70.47 125.25 69.83 125.19 69.66 124.77 69.7 123.45 69.82 123.27 69.85 122.73 70.02 122.47 70.22 120.31 70.5 119.6 70.53 117.96 70.75 117.03 70.87 115.77 70.86 111.21 70.73 110.99 70.77 110.05 70.65 109.78 70.62 108.84 70.51 108.58 70.53 102.05 70.64 100.18 70.62 97.16 70.86 96.52 70.9 94.09 71.02 93.92 71.08 92.32 71.19 91.87 71.28 89.06 71.27 82.92 71.87 81.7 72.14 81.02 72.1 80.88 72.63 79.94 72.61 79.7 72.76 79.43 72.74 78.26 73.04 77.48 73.11 76.57 73.31 75.56 73.4 75.47 73.39 73.94 73.57 73.69 73.65 73.25 73.77 73.1 74.65 72.72 75.01 72.71 76.18 72.71 76.37 72.82 77.56 72.89 78.5 73.09 80.45 72.93 81.06 72.79 82.21 72.8 82.6 72.9 82.68 73.51 82.14 73.73"/>
    <polyline class="cls-4" points="93.76 97.45 95.51 97.45 97.75 97.3 102.03 97.32 102.89 97.12 104.13 97.1 104.5 96.99 105.56 96.96 105.87 96.85 106.66 96.87 109.99 96.64 112.59 96.65 112.81 96.75 114.1 96.83"/>
    <polyline class="cls-4" points="69.85 98.44 69.07 98.25 68.03 98.26 66.71 97.87 66.28 97.91 66.05 97.79 65.13 97.72 64.86 97.55 61.46 97.5 61.06 97.38 54.94 97.41 54.53 97.64 51.24 97.72 50.23 98.13 45.65 98.12 45.52 98.34"/>
    <line class="cls-1" x1="27.24" y1="91.77" x2="42.78" y2="91.77"/>
    <line class="cls-1" x1="41.83" y1="91.77" x2="51.03" y2="79.72"/>
    <polyline class="cls-1" points="51.84 78.5 52.37 78.58 54.12 78.56 54.35 78.67 56.55 78.65 56.78 78.49 57.22 78.52 57.83 78.38 58.71 78 60.24 77.98 60.92 77.88 62.32 77.89 62.76 77.93 62.88 78.03 63.5 78.03 63.34 78.41"/>
    <line class="cls-1" x1="111.61" y1="74.01" x2="124.93" y2="74.01"/>
    <line class="cls-1" x1="125.57" y1="74.33" x2="132.86" y2="85.43"/>
    <polyline class="cls-1" points="133.74 86.02 134.52 85.84 139.68 85.84 139.87 85.96 142.95 85.93 143.46 86.17 145.59 86.15 145.74 86.03 146.04 86.07 146.38 85.91 146.77 85.87 148.9 85.89"/>
    <line class="cls-4" x1="275.41" y1="48.04" x2="275.43" y2="48.05"/>
    <polyline class="cls-1" points="187.65 60.5 188.58 61.85 188.67 62.42 189.25 64 190.21 65.78 190.65 65.52 191.03 65.12 191.88 63.63 192.41 62.84 192.69 62.61 192.89 62.04 193.52 61.2 193.7 60.52 194.2 59.59"/>
    <polyline class="cls-1" points="196.29 63.07 195.29 63.8 194.54 65.15 194.59 65.92 195.3 66.29 195.73 66.22 196.89 65.66 197.8 64.97 198.85 63.34 199.03 62.55 199.29 61.98 199.91 59.27 199.86 58.07 199.71 57.53 199.21 58.2 199.02 58.7 198.68 59.87 198.46 61.32 198.55 63.92 198.69 64.34 199.36 64.56"/>
    <polyline class="cls-1" points="203.1 63.23 201.89 64.08 201.22 65.24 201.02 65.69 201.07 66.46 201.12 66.37 201.48 66.34 202.03 66.05 202.3 65.74 202.9 65.38 203.59 64.66 204.65 62.75 205.19 61.47 205.93 58.49 205.9 57.62 205.29 59.18 205.32 59.44 205.17 59.9 205.11 61.14 205 61.39 205.02 62.84 205.1 63.06"/>
    <polyline class="cls-1" points="189.86 141.34 189.84 140.66 189.78 140.69 189.68 140.36 189.52 140.17 189 139.92 188.41 139.88 188.21 140 187.91 139.99 187.66 140.1 187.4 140.37 186.73 140.6 186.34 140.91 185.67 141.94 185.49 142.66 185.59 144.07 185.8 144.55 186.68 145.21 187.38 145.13 188.28 144.87 190.2 143.48 191.01 142.03 190.99 142.46 191.23 142.98 191.22 143.18 191.55 144.25 191.53 144.49 191.77 144.85 192.15 146.12 192.39 148.36 192.37 150.54 191.96 151.28 191.08 151.56 189.13 151.53 186.91 151.04 186.12 150.7 185.97 150.42 185.99 149.91 186.46 149.04"/>
    <polyline class="cls-1" points="193.04 141.17 193.61 142.55 193.56 142.92 193.73 143.36 193.76 144.29 194.03 144.65 194.21 144.66 194.52 144.47 194.91 144.07 196.96 140.93 197.23 140.72 197.33 140.78 197.52 141.34 197.48 144.45 197.6 144.79 197.96 144.95 198.45 144.92 198.72 144.75 199.36 144.58"/>
    <polyline class="cls-1" points="202.41 141.84 201.81 141.35 201.13 141.17 200.56 141.19 200.15 141.41 199.73 141.87 199.51 142.71 199.42 143.08 199.46 144.11 199.79 145.08 199.76 145.31 200.17 145.93 200.44 146.07 200.97 146.08 201.67 145.76 202.85 144.26 203.62 142.71 203.94 141.45 204.7 139.77 205 138.06 205.06 137.33 204.77 136.91 204.51 136.15 204.55 135.84 204.27 135.51 204.16 134.92 204.14 136.26 203.93 137 204.07 137.62 204.05 140.48 204.27 141.57 204.25 142.31 204.48 143.14 204.74 143.57 204.74 144.22 204.97 144.53 204.97 144.72 205.2 145.1 205.66 145.27"/>
    <line class="cls-1" x1="211.58" y1="62.31" x2="211.58" y2="62.34"/>
    <polyline class="cls-1" points="211.4 62.26 215.61 62.21 216.15 62.12 217.8 62.13 217.96 62 219.15 62.04 219.27 62.14 219.72 62.18 223.95 62.17 224.38 62.01 225.34 61.97 228.96 61.99 229.83 62.27 230.14 62.25 231.01 62.49 231.89 62.53 233.27 63.16 233.95 64.59 233.97 64.95 234.29 65.34 234.91 66.67 234.93 67.28 235.13 68.09 235.21 71.11 235.33 71.24 235.39 72.35 235.64 72.84 235.77 74.11 235.81 76.12 236.2 77.07 237 77.76 240.95 79.61 241.2 79.59 241.86 79.82 242.86 79.9 242.97 80 243.5 79.99 245.63 80.86 246.6 80.92 247.24 81.12 248.76 81.11 249.37 80.81 250.78 80.39 252.26 79.67 252.55 79.68 255.93 78.01 256.3 77.78 256.47 77.53 257.08 77.2 257.4 76.88 257.79 76.22 258.75 75.81 258.78 75.65 259.26 75.16 259.71 74.23 259.89 74.12 260.83 72.22 260.99 71.56 261.48 70.6 262.05 68.97 262.75 67.62 263.12 67.11 264.07 66.1 265.15 65.54 265.56 64.86 267.26 64.06 267.56 64.04 268.36 63.65 269.04 63.51 269.27 63.35 270.67 63.29 270.92 63.18 271.24 63.2 271.57 63.04 273.26 63.06 273.42 62.94 274.71 62.97 275.84 62.78 277.76 62.75 277.97 62.64 279.23 62.53 279.46 62.43 282.23 62.26 282.64 62.16 287.83 62.26 290.78 62.71 293.16 62.8 293.65 62.95 296.56 62.97 297.16 63.26 297.43 63.24"/>
    <polyline class="cls-1" points="210.75 144.75 211.54 144.38 212.19 144.34 212.42 144.46 212.65 144.33 212.92 144.34 213.19 144.46 213.93 144.44 214.62 144.73 215.44 144.79 216.53 145.16 217.55 145.11 217.67 145.21 218.5 145.25 218.87 145.18 219.41 145.31 219.63 145.22 221.56 145.24 222.23 145.56 222.93 145.65 229.15 145.69 230.34 145.6 230.58 145.49 231.43 145.51 231.99 145.22 232.38 144.56 232.53 144.5 233.85 142.04 233.83 141.79 233.99 141.58 234.02 141.08 234.17 140.89 234.38 138.84 234.48 138.71 234.47 138.31 234.68 137.68 234.66 136.73 234.98 135.73 235.19 135.42 235.17 135.29 235.73 134.2 236.77 133.7 236.84 133.55 238.5 132.79 238.77 132.43 241.56 131.1 242.05 131.04 242.48 130.78 242.69 130.82 243.2 130.63 244.24 130.53 244.35 130.59 244.96 130.39 245.9 130.35 246.23 130.41 246.47 130.57 246.79 130.54 247.1 130.75 247.81 130.77 247.94 130.88 248.29 130.8 249.26 130.97 249.59 130.85 250.41 130.92 251.21 130.81 251.81 130.97 252.5 130.91 252.83 131.07 253.08 130.97 253.68 131 254.12 131.2 254.64 131.16 254.75 131.27 255.41 131.41 256.2 131.4 256.52 131.57 256.78 131.55 257.34 131.73 257.91 132.03 258.54 132.06 259.08 132.32 259.5 132.33 260.07 132.63 260.59 132.75 261.99 133.48 262.78 134.21 262.81 134.34 263.24 134.73 264.01 135.72 264.12 136.17 264.45 136.58 265.16 138.09 265.65 139.92 266.01 140.52 266.44 141.64 266.87 142.35 268.44 143.92 268.89 144.28 269.38 144.46 270.08 145.25 270.35 145.32 270.82 145.78 271.02 145.85 271.2 146.16 272.35 146.88 272.71 147.26 273.36 147.59 273.82 147.55 274.84 148.03 276.21 148.19 276.42 148.29 277.19 148.28 277.31 148.38 277.7 148.36 277.88 148.47 278.52 148.45 278.77 148.57 278.99 148.5 279.98 148.78 281.82 148.81 282.14 148.93 282.53 148.83 282.83 148.97 285.41 148.99 287.99 149.27 295.7 149.26 301.11 149.02 305.39 149.04 306.16 149.49 306.48 149.36 308.23 149.39"/>
    <polyline class="cls-3" points="210.59 62.41 211.86 62.03 213.2 62.04 213.7 61.76 214.02 61.8 215.21 61.48 216.01 61.5 216.64 61.66 217.3 61.63 217.59 61.75 219.79 61.53 225.45 61.54 225.93 61.74 227.11 61.77 227.72 61.92 228.31 61.9 229 62.04 230.06 62.55 230.29 62.52 231.3 62.89 232.78 63.62 233.34 64.84 233.99 65.14 234.01 65.38 234.46 66.16 234.72 67.77 234.7 74.59 234.6 75.48 234.57 78.2 234.45 78.75 234.43 85.52 234.67 87.32 234.86 88.03 235.12 88.47 235.12 88.93 235.4 89.37 235.34 89.59 235.9 90.63 236.1 91.42 236.63 92.41 236.75 92.94 238.74 96.71 238.7 96.89 238.95 97.65 239.06 97.75 239.17 98.35 240.19 100.49 240.49 100.67 240.76 101.02 243.08 102.12 243.34 102.1 243.5 102.24 244 102.33 244.26 102.47 245.37 102.55 250.68 102.59 251.91 102.16 252.49 101.85 252.72 101.88 253.64 101.41 254.69 100.45 255.07 100.24 255.33 99.93 255.72 99.06 256.11 98.67 256.22 98.35 256.4 98.27 257.48 96.47 258.3 95.95 258.49 95.39 259.24 94.13 259.84 92.62 259.85 92.29 260.2 91.36 260.17 91.1 260.33 90.85 260.36 90.42 260.58 90.04 260.63 89.55 260.9 89.13 261.23 88.01 263.79 82.99 264.29 82.44 265.27 81.65 265.26 81.55 265.75 81.14 265.92 80.86 266.47 80.54 266.76 80.13 268.14 79.09 269.4 77.89 270.12 77.63 270.78 77.05 270.9 77.04 271.13 76.82 271.51 76.06 271.88 75.97 272.25 75.67 272.71 75.46 273.11 75.04 274.56 74.27 274.75 74.03 276.18 73.39 277.44 72.66 279.72 71.56 279.83 71.58 281.02 70.97 281.96 70.7 283.18 70.07 283.46 70.08 284.03 69.75 284.39 69.71 285.08 69.4 285.88 69.26 286.22 69.04 287.5 68.92 288.21 68.67 289.07 68.6 289.31 68.5 289.92 68.52 290.22 68.34 290.91 68.28 291.8 68 292.38 67.93 292.63 67.76 294.11 67.67 294.83 67.32 295.86 67.26 296.78 67.07 297.34 67.08 297.58 66.97 301.71 66.9 301.71 67.28"/>
    <polyline class="cls-3" points="208.32 142.74 209.24 142.5 210.76 142.42 211.39 142.85 211.57 142.8 212.1 143.03 212.78 143.05 213.1 143.26 213.66 143.33 213.76 143.43 215.12 143.46 215.68 143.75 216.25 143.86 216.79 143.8 218.77 143.86 219.36 144.19 219.86 144.21 220.45 144.46 220.69 144.43 221.08 144.67 221.86 144.75 222.48 144.93 225.6 144.93 226.35 144.59 226.7 144.26 226.93 144.2 227.01 144.04 227.45 143.82 227.6 143.59 227.91 143.48 227.98 143.2 228.11 143.15 228.43 142.55 228.78 142.15 229.88 139.97 230.32 138.84 230.28 138.45 230.4 138.29 230.39 137.97 230.55 137.61 230.61 137.02 230.71 136.91 230.9 136.01 231.38 134.68 231.34 134.37 232.18 132.69 232.14 132.53 232.51 131.88 232.71 131.17 233.87 128.76 236.31 122.26 237.04 120.81 237.65 120.13 238.05 119.25 238.35 119.01 238.49 118.76 239.96 117.59 240.56 117.35 241.87 116.5 243.48 115.72 243.77 115.77 244.17 115.6 244.54 115.62 244.91 115.41 246.28 115.36 246.72 115.21 247.94 115.19 248.13 115.07 252.32 115.01 252.62 114.83 256.86 114.83 257.45 114.87 257.91 115.06 259.26 115.14 260.35 115.53 260.83 115.6 261.46 115.95 262.65 116.08 266.14 117.79 267.37 118.89 267.7 119.39 268.02 119.58 268.39 120.2 268.64 120.36 269.75 122.37 270.19 122.97 271.46 125.58 272.06 126.59 272.67 127.35 272.85 127.79 273.85 128.93 274.67 129.65 274.78 129.89 275.3 130.23 275.85 130.95 276.73 131.63 277.27 131.72 277.55 132.03 278.01 132.34 278.88 132.76 279.19 133.03 280.48 133.62 281.34 134.27 282.32 134.69 282.82 135.14 283.22 135.27 283.41 135.47 283.7 135.61 283.84 135.57 284.19 135.93 285.63 136.61 285.93 136.91 286.28 137.03 287.23 137.67 287.93 138 288.22 138.29 288.98 138.6 290.16 139.4 290.46 139.44 294.47 141.43 294.99 141.49 295.18 141.65 295.85 141.82 296.33 141.79 296.57 141.96 297.24 142.14 298.63 142.16 299.45 142.41 299.83 142.38 300.19 142.54 301.37 142.6 301.99 142.8 302.33 142.78 303.01 143.13 304.07 143.42 304.49 143.67 309.94 143.78"/>
    <line class="cls-4" x1="209.07" y1="51.83" x2="209.05" y2="51.86"/>
    <polyline class="cls-4" points="209.17 51.14 208.25 52.7 207.97 53.62 208 54.05 207.83 54.69 207.86 57.55 208.13 59.36 208.09 61.32 208.36 63.1 208.37 65.33 208.63 67.14 208.68 69.96 208.9 71.05 208.96 74.34 209.17 76.21 209.15 91.62 208.83 93.61 208.88 94.57 208.62 97.29 208.65 98.78 208.53 99.52 208.55 109.83 208.35 115.56 208.37 140.82 208.32 142.91 208.27 143.47 208.16 143.64 208.13 144.75 208.14 150.41 208.26 150.71 208.22 151.21 208.4 151.98 208.89 150.81 209.17 149.51"/>
    <polyline class="cls-4" points="210.96 154.33 211.49 154.46 211.85 154.33 211.96 154.5 212.29 154.67 212.84 154.66 213.03 154.77 213.89 154.69 214.49 154.82 215.34 154.68 215.91 154.82 216.87 154.74 217.47 154.87 217.86 154.79 218.38 154.96 219.16 154.88 219.62 155.04 221.26 155.23 226.39 156.23 228.29 156.28 229.37 156.43 231.58 156.4 232.63 156.52 233.54 156.45 234.62 156.61 236.84 156.58 243.19 157.43 243.73 157.41 245.68 157.7 248.44 157.9 256 157.46 259.36 157.44 263.35 157.09 267.71 157.12 270.82 156.88 271.33 156.99 273.23 156.98 273.63 157.1 275.03 157.07 275.48 157.18 276.23 157.12 276.67 157.22 278.08 157.21 278.78 157.33 282.47 157.05 283.7 157.3 284.86 157.39 291.02 157.11 292.83 157.12 293.28 157.24 295.81 157.15 296.25 157.05 302.63 156.98 304.55 156.78 307.37 156.76 307.72 156.88 309.9 156.85 310.26 156.97 311.17 156.89 311.41 157.06 313 157.16 313.17 157.27 313.82 157.25 314.02 157.36 314.71 157.45"/>
    <polyline class="cls-4" points="312.85 152.42 313.76 153.26 316.58 155.11 317.14 156.01 317.57 157.29 317.61 158.58 317.5 159.02 317.09 159.72 316.55 160.26 315.56 160.95 315.25 161.05 315.01 161 314.22 161.38 313.77 161.44 313.01 161.72 312.38 161.78 311.96 161.97 311.58 161.94 311.33 162.15"/>
    <polyline class="cls-4" points="320.97 161.42 321.05 161.01 321 160.7 321.21 161.04 321.15 161.52 321.36 162.61 321.34 165.38 321.22 165.63 321.24 166.22 321.14 166.42 321.16 167.1 321.04 167.34 321.08 167.63 321.12 167.05"/>
    <polyline class="cls-4" points="318.88 163.41 320.37 163.36 321.28 163.06 323.06 162.66 324.16 162.24 324.4 162.06 325.09 161.86 326.7 161.06"/>
    <polyline class="cls-4" points="204.84 40.41 204.94 41.43 205.21 42.04 205.22 42.41 205.57 43.14 205.63 43.71 206.39 45.28 206.41 45.5 206.79 45.28 207.61 44.35 208.07 43.46 209.06 40.76 209.58 40.4 209.6 40.23 210.18 39.96"/>
    <polyline class="cls-4" points="203.61 51 205.86 50.47 207.22 49.53 208.04 49.33 208.58 48.99 208.84 49 209.46 48.77 209.78 48.98 210.53 50.46 210.58 51.38 211.22 52.8 211.83 52.99"/>
  </g>
</svg>