<?xml version="1.0" encoding="UTF-8"?>
<svg id="Layer_1" data-name="Layer 1" xmlns="http://www.w3.org/2000/svg" version="1.1" xmlns:xlink="http://www.w3.org/1999/xlink" viewBox="0 0 488 247">
  <defs>
    <style>
      .cls-1 {
        stroke-width: 0px;
      }

      .cls-1, .cls-2, .cls-3 {
        fill: none;
      }

      .cls-2 {
        stroke: #95cc71;
      }

      .cls-2, .cls-3 {
        stroke-linecap: round;
        stroke-linejoin: round;
        stroke-width: 1.27px;
      }

      .cls-3 {
        stroke: #000;
      }

      .cls-4 {
        clip-path: url(#clippath);
      }
    </style>
    <clipPath id="clippath">
      <rect class="cls-1" x="-26" y="-67" width="514" height="685"/>
    </clipPath>
  </defs>
  <g class="cls-4">
    <line class="cls-3" x1="47.9" y1="83.03" x2="90.09" y2="83.03"/>
    <line class="cls-3" x1="92.31" y1="44.01" x2="92.31" y2="82.71"/>
    <line class="cls-3" x1="91.36" y1="41.48" x2="134.81" y2="41.48"/>
    <line class="cls-3" x1="159.55" y1="85.56" x2="195.39" y2="85.56"/>
    <line class="cls-3" x1="196.03" y1="86.83" x2="223.3" y2="44.33"/>
    <line class="cls-3" x1="224.26" y1="43.7" x2="256.29" y2="43.7"/>
    <line class="cls-3" x1="284.2" y1="86.83" x2="321.31" y2="86.83"/>
    <line class="cls-3" x1="322.26" y1="87.15" x2="399.02" y2="50.67"/>
    <line class="cls-3" x1="399.66" y1="50.04" x2="435.5" y2="50.04"/>
    <polyline class="cls-3" points="76.26 160.48 76.6 161.18 76.83 162.05 77.08 162.58 77.03 163.17 76.78 164.3 76.8 164.65 76.6 165.04 76.63 165.61 76.4 165.99 76.43 166.4 75.89 168.18 75.95 169.32 75.9 170.42 75.78 170.76 75.8 171.64 75.63 172.02 75.66 172.7 75.56 173.5 75.34 174.08 75.21 174.9 75.25 175.39 75.15 175.61 75.16 176.72 75.01 178.19 74.79 178.72 74.85 179.77 74.74 180.92 74.7 184.27 74.58 184.53 74.52 188.08 74.05 188.99 73.75 190.07 73.73 190.74 73.42 191.68 73.28 193.86 73.13 194.77 73.14 195.93 73.02 196.19 73.06 196.79 73.04 196.41 73.23 195.71"/>
    <polyline class="cls-3" points="77.24 160.58 79.1 161.88 79.66 162.43 81.32 163.51 81.86 164.08 82.23 164.32 82.47 164.8 83.22 165.72 83.77 165.97 83.89 166.24 84.13 166.42 84.23 166.62 85.02 167.31 86.13 167.64 87.32 168.21 87.74 168.68 88.29 169.58 89.68 170.96 90.05 171.08 90.23 171.28 91.52 171.98 94.92 175.13 95.19 175.73 95.53 176.06 95.66 176.35 96.3 176.95 96.93 177.35 98.88 178.25 99.97 179.13 100.42 179.29 100.79 179.67 101.79 180.18 102.12 180.5 102.28 180.53 102.48 180.81 102.84 180.99 103.01 181.13 103.29 181.83 103.65 182.2 103.95 182.79 104.28 183.14 104.56 183.27 104.63 183.5 104.91 183.72"/>
    <polyline class="cls-3" points="72.21 197.11 75.2 196.19 80.02 194.99 81.81 194.05 82.54 193.89 84.49 193.1 85.92 192.34 86.67 191.82 87.09 191.72 90.73 189.9 93.31 189.18 95.24 188.51 95.93 188.13 96.62 187.93 97.21 187.57 98.51 187.17 101.49 185.67 102.12 185.6 102.69 185.32 103.01 185.34 106.59 183.6"/>
    <polyline class="cls-3" points="108.89 182.53 109.93 182.84 110.77 182.79 111.03 182.95 112.13 182.93 112.89 182.52 113.67 182.26 116.89 182.21 117.81 181.91 122.31 181.9 122.59 181.78 123.32 181.76 129.29 181.81 129.61 181.64 137.39 181.63 138.21 181.88 139.22 181.99 139.78 182.2 140.42 182.16 141.52 182.41 142.58 182.48 142.86 182.64 143.14 182.62 143.42 182.83 144.11 182.84 144.23 182.94 147.84 182.97 148.46 182.75 148.74 182.79"/>
    <polyline class="cls-3" points="32.45 177.24 34.41 177.21 34.7 177.32 35.37 177.3 35.7 177.41 36.72 177.4"/>
    <polyline class="cls-3" points="67.97 178.04 68.51 178.16 69.27 178.15 69.41 178.25 69.76 178.23 69.97 178.34 71.04 178.41 71.42 178.61 72.21 178.77 72.71 178.99"/>
    <polyline class="cls-3" points="34.42 177.1 35.45 177.78 36.45 178.21 38.85 178.15 39.01 178.02 39.42 178.06 40.51 177.93 40.72 177.81 41.01 177.82 41.54 177.56 41.79 177.6 42.47 177.41 43.17 177.39 43.36 177.28 45.79 177.15 50.49 177.17 50.64 177.28 51.34 177.25 52.08 177.41 52.41 177.38 53.99 177.9 54.73 177.97 55 178.13 55.65 178.1 56.03 178.27 56.32 178.23 56.44 178.33 57.01 178.32 57.43 178.43 59.08 178.46 59.6 178.62 61 178.59 61.27 178.44 61.91 178.41 62.4 178.2 62.74 178.22 63.16 177.97 63.4 178.01 63.88 177.78 65.64 177.79 65.97 177.94 66.38 177.92 66.97 178.16 67.87 178.15"/>
    <polyline class="cls-2" points="67.43 143.99 68.53 144.54 69.02 144.41 70.04 144.43 72 143.48 72.09 143.23 72.44 143.02 73.82 140.46 73.78 139.27 73.57 138.89 73.07 138.61 72.45 138.48 71.6 138.9 71.17 139.33 71.03 139.35 70.28 140.15 68.91 143.17 68.95 143.54 68.79 143.87 68.82 145.68 68.9 145.69 69.04 146.13 69.32 146.42 70.24 146.84 70.61 146.79 70.79 146.89 71.34 146.88 71.62 147 73.08 146.97 73.28 146.86 73.74 146.83 74.48 146.89"/>
    <polyline class="cls-2" points="60.15 152.24 61.45 152.56 62.08 152.5 62.51 152.62 68.2 152.6 68.85 152.42 75.17 152.42 75.32 152.54 76.02 152.61 78.88 152.74 79.95 153.13 80.22 153.1 80.57 153.31 81.13 153.26 81.56 153.43 83.45 153.41 83.96 153.63 85.22 153.77 85.84 153.98 86.7 153.93 87.55 154.24 88.19 154.2 88.51 154.32 90.55 154.38 92.15 154.86 92.62 154.83 93.21 155 94.41 154.97 94.59 155.08 95.71 155.14 96.02 155.36 96.58 155.32 96.73 155.44 98.21 155.46 99.41 155.83 100.21 155.86 100.44 156.02 100.94 155.99 101.63 156.19 102.18 156.23 103.97 156.22 104.65 156.5 105.75 156.63"/>
    <polyline class="cls-2" points="104.08 151.97 105.5 152.25 106.01 152.47 107.87 153 109.03 153.68 109.43 154.07 110.08 155.42 110.04 155.87 109.75 156.35 109.52 157.29 108.9 158.17 108.62 158.42 108.52 158.67 107.57 159.67 107.21 159.82 106.31 160.52 105.04 161.15 103.82 161.48 102.98 161.88 101.9 162.15 100.73 162.11 100.22 161.79 100.07 161.79 99.97 161.48"/>
    <polyline class="cls-3" points="218.22 162.97 218.28 163.03 218.22 162.99 218 163.62 217.22 166.57 216.81 167.13 216.5 168.24 216.54 169.28 216.41 169.8 216.44 174.75 216.27 175.28 216.24 175.82 216.26 180.6 216.14 181.19 216.17 182.12 216.05 182.38 215.79 185.29 215.63 185.65 215.66 186.01 215.43 186.53 215.38 188.64 215.2 188.95 215.25 189.25 215.09 189.63 215.11 189.89 214.88 190.3 214.94 190.46 215.45 189.42"/>
    <polyline class="cls-3" points="219.49 162.24 221.34 164.07 221.46 164.3 222.05 164.68 222.41 165.07 222.78 165.21 223.2 165.65 224.62 166.42 225.21 166.99 225.42 167.05 225.68 167.46 226.14 167.73 226.32 168.15 226.55 168.26 226.68 168.56 226.97 168.87 227.31 169.02 227.93 169.58 228.42 169.75 228.65 170.02 229.61 170.43 230.02 170.96 230.65 171.25 230.71 171.38 231.35 171.69 231.4 171.83 231.66 171.91 231.83 172.11 233.12 172.76 233.35 173.01 234 173.39 234.3 173.77 234.47 173.79 234.85 174.21 235.72 174.64 236.66 175.37 237.08 175.53 237.43 175.97 237.98 176.21 238.17 176.45 238.49 176.54 239.22 177.29 239.48 177.36 239.74 177.71 240 177.77 240.24 178.06 240.57 178.16 240.73 178.41 242.27 179.11 242.34 179.25 242.59 179.4"/>
    <polyline class="cls-3" points="242.7 180.24 241.56 180.52 239.56 181.5 239.49 181.7 239.11 182.09 238.82 182.14 238.59 182.36 237.12 183.06 236.9 183.08 234.74 184.09 234.29 184.16 233.31 184.63 232.86 184.7 230.6 185.78 229.3 186.19 228.25 186.81 227.88 187.22 227.62 187.25 227.04 187.7 226.64 187.83 226.37 188.16 225.49 188.81 221.11 190.87 219.93 191.25 219.47 191.29 216.75 192.65 216.53 193.14 216.31 193.15 215.61 193.57 214.9 193.64"/>
    <polyline class="cls-3" points="248.43 179.22 249.26 179.33 249.68 179.54 250.11 179.48 250.29 179.59 250.87 179.57 250.99 179.68 251.72 179.71 251.9 179.82 253.93 179.9 256.81 179.62 257.12 179.45 258.76 179.45 259.65 179.23 260.32 179.27 262.11 179.12 268.07 179.13 268.32 179.25 270.06 179.28 276.5 179.26 279.51 179.08 281.01 179.09 281.35 178.97 289.84 179.04 291.19 178.88 298.24 178.91 298.56 178.79 301.37 178.82 301.65 178.7 304.7 178.62 318.47 178.64 319.54 178.43 321.5 178.41 321.97 178.26 322.19 178.28"/>
    <polyline class="cls-3" points="332.55 163.93 331.52 165.43 330.05 171 329.96 175.86 329.92 176.99 329.8 177.38 329.82 178.06 329.65 178.59 329.59 179.97 329.42 180.28 329.45 182.03 329.36 183.1 329.2 183.71 329.13 184.88 328.96 185.22 329 185.75 328.83 186.17 328.81 187.26 328.59 187.7 328.63 188.42 328.58 188.79 328.42 189.01 328.35 190"/>
    <polyline class="cls-3" points="334.16 162.95 335.6 163.99 336.03 164.45 337.26 165.06 337.36 165.25 337.77 165.42 337.91 165.65 338.09 165.72 339.59 167.47 339.77 167.52 340.02 167.9 340.82 168.53 341.72 170.06 342.61 170.52 342.81 170.89 343.52 171.54 344.04 172.47 344.43 172.92 345.87 174.03 347.52 175.57 348.07 175.89 348.27 176.17 349.49 176.72 349.7 177.02 350.08 177.27 350.2 177.51 350.43 177.65 350.59 177.94 350.78 177.98 350.93 178.32 351.16 177.77"/>
    <line class="cls-3" x1="351.36" y1="179.18" x2="351.35" y2="179.17"/>
    <line class="cls-3" x1="351.44" y1="179.13" x2="330.51" y2="193.41"/>
    <polyline class="cls-3" points="212.14 177.41 211.16 177.24 209.47 177.3 208.36 177.57 207.77 177.51 207.23 177.74 204.8 177.7 204.63 177.82 204.04 177.91 195.63 178.01 194.37 177.88 194.02 177.72 190.02 177.52 189.85 177.41 189.33 177.44 189.15 177.33 188.59 177.35 188.41 177.23 186.59 177.25 185.39 177.17 185.2 177.07"/>
    <polyline class="cls-3" points="357.2 178.57 358.35 178.72 360.62 178.64 361.44 178.59 361.86 178.42 362.26 178.44 362.84 178.31 366.26 178.33 368.35 178.14 378.56 178.15 378.76 178.26 380.63 178.24 381.29 178.37"/>
    <polyline class="cls-2" points="267.45 164.53 268.43 164.86 268.89 164.78 269.31 164.9 271.33 164.88 273.51 163.99 274.66 163.27 275.07 162.85 275.97 161.09 275.95 160.83 276.06 160.65 276.05 160.36 275.93 160.14 274.77 159.61 273.75 159.66 271.91 160.6 270.63 161.84 270.17 162.57 269.44 164.15 269.39 165.18 269.27 165.42 269.29 166.7 269.98 168.1 271.85 168.81 272.56 168.75 272.93 168.88 273.99 168.85 274.81 168.53 276.37 168.46"/>
    <polyline class="cls-2" points="251.48 171.53 253.77 171.63 253.98 171.79 254.53 171.75 255.18 171.97 270.73 171.94 271.02 171.82 271.59 171.84 272.15 171.63 273.29 171.53 279.13 171.54 279.31 171.42 285.11 171.4 285.65 171.29 290.39 171.46 293.05 171.45 294.15 171.74 294.9 171.81 298.52 171.81"/>
    <polyline class="cls-2" points="297.66 167.51 299.14 168.23 300.08 168.49 301.05 168.92 302.28 169.72 302.53 169.98 302.79 170.56 303.12 170.86 303.54 171.52 303.8 172.26 303.76 172.51 303.52 172.87 301.7 174.66 300.54 175.38 297.98 176.09 297.53 176.04 297.34 176.15 296.25 176.14 296.33 176.05"/>
    <polyline class="cls-3" points="55.96 214.19 55.58 212.97 55.31 212.47 54.89 212.1 53.6 211.56 52.72 211.34 51.59 211.87 50.81 212.52 49.75 214.68 49.65 215.4 49.72 216.19 49.97 216.75 50.55 217.23 51.14 217.36 51.66 217.31 53.59 216.83 54.52 216.32 55.48 215.38 55.78 214.79 56.73 218.21 57.74 223.6 57.69 224.45 57.05 226.46 55.81 227.76 55.45 227.89 53.86 227.52 51.99 226.78 50.74 226.04 50.22 225.62 49.91 225.05 49.62 224.76 49.51 224.34 49.86 223.35 50.16 222.94 51.14 222.28"/>
    <polyline class="cls-3" points="62.9 213.69 62.89 213.14 62.67 212.61 62.48 212.48 61.71 212.17 61.45 212.21 60.82 212.83 60.18 214.03 60.08 214.56 60.15 215.74 60.51 216.35 60.82 216.63 61.23 216.74 61.93 216.67 63.08 216.37 64.2 215.63 64.63 215.24 65.09 214.29 65.08 213.86 64.73 213.82 64.48 213.89 64.27 214.55 64.32 215.21 64.95 216.5 65.16 216.68 65.66 216.86 66.71 216.7"/>
    <polyline class="cls-3" points="70.4 205.02 69.97 205.71 69.33 207.58 68.74 212.03 68.77 212.83 68.56 214.22 68.58 216.05 69.55 213.78 70.4 213.38 75.84 213.34 76.62 212.97 76.94 212.94 77.14 212.4 77.07 212.1 75.38 211.42 75.1 211.45 74.15 212.33 74.01 212.9 74.07 213.57 74.49 214.76 74.8 215.13 75.89 216.02 76.42 216.39 78.06 216.88 82.07 216.71"/>
    <polyline class="cls-3" points="95.05 213.3 94.98 213.29 95.02 212.49 94.9 212.31 94.9 211.92 94.44 210.4 93.8 209.19 93.3 208.73 92.56 208.38 92.34 208.42 90.84 209.85 90.28 210.78 89.84 212.68 89.86 214.54 90.25 215.54 90.83 216.65 91.9 217.15 92.98 217.18 94.09 216.6 94.9 215.87 95.23 215.43 95.5 215.28 96.84 213.39 97.3 212.41 97.9 210.35 98.4 209.49 98.57 208.02 99.24 205.27 99.2 202.1 98.37 202.79 97.69 204.16 97.41 206.14 97.4 210.89 97.82 212.53 98.14 213.01 99.13 213.64 99.62 214.13 100.52 214.25 100.9 214.4 102.74 214.37 103.53 214.09 104.53 213.46 104.77 213.2 105.02 212.7 105.49 212.15 105.84 211.21 105.8 210.37 105.69 210.17 105.38 209.73 104.74 209.37 103.93 209.16 103.52 209.19 103.13 209.32 102.14 210.16 101.11 211.8 101.04 212.05 101.1 212.67 101.37 213.63 101.88 214.33 102.98 215.23 103.67 215.58 105.77 216.21 106.68 216.14 107.7 215.77"/>
    <polyline class="cls-3" points="110.66 202.38 109.59 203.13 109.4 203.38 108.02 206.98 107.92 207.79 107.97 212.97 108.36 214.47 108.76 215.15 109.6 215.59 110.25 215.53 115.37 214.37 116.56 213.71 117.11 213.16 117.38 212.54 117.34 212.09 116.66 210.93 115.26 210.48 113.92 210.6 113.16 210.85 112.62 211.25 112.39 211.52 112.07 212.45 112.12 213.38 112.24 213.65 112.87 214.12 113.49 214.4 114.07 214.51 116.05 214.5 117.48 213.78 117.99 212.9 117.98 212.48 117.45 212.45 117.33 212.62 116.99 213.73 117.1 214.9 117.48 215.67 118.01 216.22 118.72 216.5 119.28 216.46"/>
    <polyline class="cls-3" points="121.97 210.43 121.57 211.87 121.62 214.03 122.47 216.17 123.42 217.04 123.87 217.14 124.71 217.07 125.39 216.81 125.49 216.69"/>
    <polyline class="cls-3" points="129.08 214.01 128.08 214.35 126.87 215.09 123.92 217.95 120.58 221.81 119.83 223.16 118.97 224.39 118.86 224.62 118.91 224.91"/>
    <polyline class="cls-3" points="226.64 213.13 226.81 213.95 226.83 215.64 227.65 219.52 227.97 220.69 228.81 221.45 229.4 221.36 230.22 220.92 230.62 220.51 231.77 218.78 232.47 217.26 232.65 216.44 232.94 215.85 232.88 215.31 232.89 218.01 233.36 219.05 233.96 219.53 234.5 219.77 235.16 219.71 235.67 219.55 236.65 218.95 236.78 218.56 238.12 216.41 238.69 214.17 238.63 213.22 238.32 212.77 237.88 212.6 237.68 212.67 237.5 212.99 237.55 213.63 237.78 214.07"/>
    <polyline class="cls-3" points="241.68 214.14 241.1 215.64 240.91 216.58 240.93 218.38 241.62 219.68 241.93 219.75"/>
    <line class="cls-3" x1="244.5" y1="210.65" x2="244.46" y2="210.66"/>
    <polyline class="cls-3" points="246.73 213.48 246.9 214.33 246.92 217.67 247.2 219.1 247.54 218.81 248.15 217.18 248.45 216.7 249.18 216.45 249.95 216.59 251.37 216.56 251.92 216.44 253.57 215.89 254.4 215.29 254.81 215.21 255.59 214.36 255.96 213.57 255.73 213.26 254.77 212.81 254.49 212.85 254.12 213.1 253.56 213.63 253.1 214.25 252.63 215.42 252.34 216.67 252.4 217.75 252.67 218.65 253.36 219.42 254.21 219.85 254.61 219.92 257.13 219.49 258.77 219.01"/>
    <polyline class="cls-3" points="276.02 214.23 274.62 213.91 274.23 213.97 273.25 214.4 272.69 214.78 271.73 215.94 271.01 218.08 271.11 219.5 271.5 221.06 272.4 221.75 273.1 221.68 274.27 221.23 276.19 220.08 277.23 219.01 280 215.7 281.6 213.48 282.11 212.43 282.47 211.33 282.97 208.18 282.96 207.64 282.56 206.22 282.22 205.9 281.74 205.73 281.37 205.94 280.59 206.95 279.79 208.21 279.53 208.86 279.24 210.03 278.67 211.58 278.54 212.49 278.59 214.27 279 215.89 279.41 216.59 279.87 216.96 281.21 217.52 281.94 217.63 282.86 217.57 285.04 217.05 286.13 216.33 286.39 216 286.99 214.77 286.94 214.41 286.69 214.05 285.75 213.62 284.91 213.9 283.95 214.73 283.32 216 283.22 216.41 283.29 216.94 283.73 218.05 284.98 218.92 285.5 219.02 287.17 218.96 287.53 218.86"/>
    <polyline class="cls-3" points="292.89 206.05 291.92 207.04 290.67 208.79 289.88 211.03 289.45 211.95 288.74 214.08 288.64 214.85 288.71 215.74 289.02 216.54 289.85 217.21 291.36 217.21"/>
    <polyline class="cls-3" points="296.28 214.95 295.65 214.8 295.19 214.83 294.61 215.04 293.77 215.63 293.25 216.15 292.87 216.78 292.94 217.46 293.29 218.11 293.8 218.56 294.54 218.9 295.21 218.81 296.19 218.43 296.82 217.8 297.47 216.17 297.41 215.68 296.96 216.22 296.77 216.66 296.84 217.31 297.29 218.38 298.72 219.6 299.45 220.04 299.73 220.1 300.28 219.96"/>
    <polyline class="cls-3" points="301.48 214.63 301.35 215.01 301.44 216.03 302.2 217.89 303.03 218.65 303.91 219.19 304.46 219.32 305.41 219.27 306.29 218.87 306.68 218.57"/>
    <polyline class="cls-3" points="309.84 215.8 308.06 217.14 306.62 218.61 304.18 221.43 301.38 224.99 300.89 225.48 300.25 226.48 299.18 228.64 299.1 228.9 299.17 229.1 299.43 229.45 299.61 229.5"/>
  </g>
</svg>