<?xml version="1.0" encoding="UTF-8"?>
<svg xmlns="http://www.w3.org/2000/svg" version="1.1" xmlns:xlink="http://www.w3.org/1999/xlink" viewBox="0 0 514 301.5">
  <defs>
    <style>
      .cls-1 {
        isolation: isolate;
      }

      .cls-2 {
        stroke: #4659a8;
      }

      .cls-2, .cls-3, .cls-4, .cls-5, .cls-6, .cls-7, .cls-8, .cls-9, .cls-10, .cls-11 {
        fill: none;
      }

      .cls-2, .cls-6, .cls-7, .cls-9, .cls-10 {
        stroke-linecap: round;
        stroke-linejoin: round;
        stroke-width: 1.27px;
      }

      .cls-3 {
        stroke: #d3a3cb;
      }

      .cls-3, .cls-5, .cls-8, .cls-11 {
        mix-blend-mode: darken;
        stroke-linejoin: bevel;
        stroke-width: 9.52px;
      }

      .cls-4 {
        stroke-width: 0px;
      }

      .cls-5 {
        stroke: #feec75;
      }

      .cls-6 {
        stroke: #77cfe6;
      }

      .cls-7 {
        stroke: #000;
      }

      .cls-8 {
        stroke: #fcc38d;
      }

      .cls-9 {
        stroke: #909090;
      }

      .cls-12 {
        clip-path: url(#clippath);
      }

      .cls-10 {
        stroke: #c23131;
      }

      .cls-11 {
        stroke: #b5d77b;
      }
    </style>
    <clipPath id="clippath">
      <rect class="cls-4" y="-29.5" width="514" height="685"/>
    </clipPath>
  </defs>
  <g class="cls-1">
    <g id="Layer_1" data-name="Layer 1">
      <g class="cls-12">
        <polyline class="cls-7" points="57.44 218.72 58.39 221.72 58.39 222.97 58.56 224.1 58.68 226.46 58.96 227.51 58.85 232.83 58.61 234.19 58.58 236.18 58.53 234.89"/>
        <polyline class="cls-7" points="53.13 218.63 53.71 218.41 55.95 217.89 61.4 217.89 62.75 217.68 64.28 217.71 64.33 217.93"/>
        <polyline class="cls-7" points="56.57 226.42 57.65 226.92 58.22 227.02 59.71 226.95 61.71 226.42 62.02 226.44 62.74 226.26 64.8 226.28 64.9 226.53"/>
        <polyline class="cls-7" points="68.21 220.12 68.42 221.31 68.37 230.92 68.25 231.49 68.28 234.32 68.16 234.78 68.19 235.24 68.42 234.63 68.87 232.39 69.01 232.15"/>
        <polyline class="cls-7" points="67.15 218.99 68.51 218.15 70.8 217.44 73.87 217.39 74 217.95"/>
        <polyline class="cls-7" points="68.3 226.15 69.15 226.37 70.28 226.32 71.27 226.17 71.82 225.97 72.82 225.92 73.52 225.65 73.79 225.67 74.03 225.54 74.61 225.47"/>
        <polyline class="cls-7" points="74.41 236.29 73.68 237.02 73.03 238.1 72.87 239.1 72.88 239.75 73.21 240.3 73.99 240.75 75.19 240.65 76.59 239.95 77.42 237.8 77.36 237.05 76.87 236.2 76.56 235.93 75.06 235.35 74.45 235.4 73.6 235.8 72.88 236.56 72.74 237.14 72.8 237.81 73.31 238.19 73.47 238.17"/>
        <polyline class="cls-7" points="44.06 209.07 44.16 211.08 44.57 212.64 44.61 214 44.65 227.72 44.7 229.21 44.88 230.04 44.83 232.04 45.01 233.86 45.11 238.85 45.23 239.67 45.2 241.81 44.98 242.64 45.02 243.43 44.91 243.92 44.93 246.38 45.04 246.96 45.14 246.67"/>
        <polyline class="cls-7" points="43.75 208.59 46.31 208.59 47.68 208.35 48.54 208.33 48.83 208.22 51.15 208.15 53.56 207.8 62.75 207.79 63.51 207.96 65.44 207.93 66.4 207.72 70.16 207.75 70.43 207.63 71.82 207.6 74.35 207.61 74.64 207.72 76.82 207.88 77.09 208.05 78.11 208.06 78.47 208.22 79.49 208.19 79.95 208.35"/>
        <polyline class="cls-7" points="79.23 209.04 80.3 208.72 81.19 208.73 81.55 208.92 82.58 211.09 82.57 211.82 82.74 212.33 83.28 217.97 83.44 218.63 83.51 220.32 83.67 221.09 83.67 222.83 83.85 223.51 83.96 225.74 84.12 226.52 84.38 233.42 84.6 234.61 84.54 237.04 84.59 239.23 84.76 240.42 84.73 242.17 84.82 243.61 84.98 243.92"/>
        <polyline class="cls-7" points="84.25 246.11 84.39 246.67 84.42 249.68 84.07 250.01 83.53 250.21 81.88 250.18 81.6 250.3 73.42 250.22 73.06 250.04 72.66 250.07 71.54 249.74 70.29 249.62 63.77 249.64 63.3 249.58 62.17 249.19 61.43 249.25 60.93 249.08 60.38 249.1 59.97 248.94 59.54 248.96 59 248.81 58.44 248.84 57.9 248.61 57.28 248.65 55.67 248.31 52.97 248.16 52.44 248 51.23 247.99 50.83 247.88 45.93 247.9 44.7 248 42.17 247.99 41.86 248.15 41.69 248.08"/>
        <polyline class="cls-7" points="260.11 224.03 260.11 228.87 260 229.25 260.03 230.71 259.8 231.5 259.84 235.93 259.6 238.83 259.5 239.05 259.52 239.63 259.35 240.37"/>
        <polyline class="cls-7" points="259.86 224.98 260.68 224.4 261.09 223.84 262.41 223.29 263.17 223.35 263.87 223.28 265.54 222.49 266.36 222.48 266.38 222.58"/>
        <polyline class="cls-7" points="259.77 231.24 260.99 232.1 261.48 232.21 263.89 232.13 264.32 231.92 265.35 231.72 265.67 231.53 266.13 231.55"/>
        <polyline class="cls-7" points="269.83 223.96 269.81 226.1 269.39 228.43 269.38 229.19 268.76 232.62 268.71 235.02 268.59 235.38 268.72 238.09 268.6 238.19 268.6 238.46"/>
        <polyline class="cls-7" points="270.06 223.69 271.24 222.78 272.1 222.6 273.66 221.95 274.85 221.99 274.98 222.15"/>
        <polyline class="cls-7" points="269.04 232.05 270.13 231.81 270.88 231.77 273.38 231.77 273.57 231.89 274.29 231.86"/>
        <polyline class="cls-7" points="274.07 240.8 274.46 240.21 275.38 239.21 276.11 238.74 276.44 238.64 276.94 240.03 276.89 242.13 276.77 242.4 276.8 243.4 276.68 243.79 276.71 245.48 276.92 246.11"/>
        <polyline class="cls-7" points="407.01 220.27 406.89 220.61 406.88 221.03 407.07 222.59 407.05 223.24 407.21 224.14 407.18 226.05 406.73 229.87 406.79 231.64 406.67 232.2 406.74 233.38 406.62 233.89 406.69 234.57 406.58 235.03 406.59 236.64 406.3 237.71 406.36 238.5 406.25 238.89 406.33 239.88 406.88 238.17"/>
        <polyline class="cls-7" points="405.64 221.32 405.94 220.64 406.31 220.57 407.37 219.99 407.55 220.01 408.13 219.76 408.9 219.75 409.92 219.49 411.24 219.76 412.51 219.6 413.19 219.75 413.65 219.55 414.45 219.59 414.92 219.54 415.22 219.36 415.69 219.4"/>
        <polyline class="cls-7" points="407.21 229.15 408.01 228.85 408.13 229.01 408.31 229.04 408.71 228.78 409.11 228.82 409.82 228.55 410.61 228.5 410.91 228.62 411.74 228.6 412.23 228.71 412.58 228.52 413.46 228.67 414.43 228.49 414.74 228.35 415.15 228.38"/>
        <polyline class="cls-7" points="421.18 221.19 420.61 220.56 420.85 220.43 420.78 220.48 420.79 224.29 420.68 224.87 420.59 226.83 419.25 235.36 418.83 238.78 418.86 239.94 418.97 240.28 419.1 240.24 419.55 239.59 419.93 238.51"/>
        <polyline class="cls-7" points="421.18 220.06 421.86 219.5 422.25 219.49 422.65 219.22 422.98 219.19 423.59 218.9 423.87 218.93 424.24 218.79 424.72 218.77 425.29 218.89 425.69 218.77 426.59 218.88 427.3 218.75 428.13 218.88 429.07 218.7 429.51 218.95 429.77 218.88"/>
        <polyline class="cls-7" points="420.77 228.79 421.57 228.89 422.05 228.64 422.56 228.68 422.99 228.53 423.43 228.67 423.86 228.48 424.42 228.62 424.98 228.38 426.03 228.33 426.48 228.18 426.64 228.26 426.76 228.2 426.7 228.53"/>
        <polyline class="cls-7" points="425.82 239.72 427.04 239.18 427.3 239.35 427.87 239.43 428.45 239.82 428.68 240.45 428.69 241 428.04 242.48 427.67 243.66 427.68 243.9 427.82 244.06 428.66 244.25 428.96 244.12 430.19 243.99 431.86 243.41 432.16 243.49"/>
        <polyline class="cls-7" points="398.29 210.73 398.14 210.27 397.96 210.18 397.74 210.31 397.52 211.06 397.38 212.61 397.4 213.59 397.29 214.13 397.31 215.38 397.08 216.32 396.86 217.99 396.9 218.97 396.78 219.8 396.95 225.05 396.93 227.85 396.57 231.51 396.23 238.41 395.47 243.95 395.27 244.72 395.57 248.23 395.9 249.84 395.89 251.3"/>
        <polyline class="cls-7" points="397.37 208.23 398.96 208.15 399.57 208.36 400.18 208.33 403.91 209.17 404.76 209.24 405.37 209.23 405.85 209.1 407.2 209.13 409.02 208.82 409.85 208.85 411.46 208.54 413.33 208.49 414.66 208.51 417.38 209.08 417.96 209.1 420.06 209.08 422.99 208.59 425.96 208.64 426.72 208.87 430.57 208.86 430.96 208.98 438.89 208.95 439.08 209.06 439.41 209.82 439.46 210.54 439.68 211.11 439.65 211.5 439.93 213.79 440.06 216.69 440.05 221.44 440.23 221.94 440.29 223.25 440.55 224.15 440.51 224.72 440.61 225.48 440.6 234.63 440.9 236.77 440.88 237.42 441.04 238.16 441.24 245.2 441.35 245.47 441.49 246.95 441.69 247.56 441.66 250.89 441.48 251.42 441.5 251.83 441.29 252.36 441.31 252.63 441.07 253.15 441.11 254.7 440.99 254.95 440.98 256.01 440.81 256.03 439.35 255.92 438.91 255.66 438.32 255.72 435.68 255 434.76 255 433.92 254.78 433.43 254.81 432.21 254.5 430.58 254.47 429.95 254.29 428.49 254.23 427.89 254.07 427.01 254.11 426.64 254 426.13 254.01 425.21 253.74 424.76 253.79 423.95 253.52 422.83 253.31 420.43 253.22 419.23 252.96 418.67 252.99 418.02 252.83 417.12 252.86 416.32 252.75 415.68 252.54 410.74 252.5 409.89 252.67 409.07 252.7 406.81 253.21 406.27 253.17 403.7 253.84 402.78 253.78 402.08 254 398.03 253.97 397.67 253.74 397.24 253.79 396.71 253.7 396.4 253.48"/>
        <line class="cls-7" x1="250.89" y1="217.42" x2="250.91" y2="217.45"/>
        <polyline class="cls-7" points="250.53 210.95 250.04 209.58 250.01 209 249.78 209.61 249.7 210.2 249.73 215.26 249.52 217.96 249.54 233.05 249.32 235.06 249.15 238.69 249.18 243.27 249.82 246.04 249.76 246.53 249.88 247.36 249.87 249.41 249.6 250.02 249.62 250.33 249.37 250.95 249.06 252.21 249.1 253.94"/>
        <polyline class="cls-7" points="249.03 208.28 249.27 208.28 250.6 208.49 251.59 208.81 252.86 208.99 256.72 209.29 266.48 209.26 267.83 209.53 272.64 209.58 272.93 209.69 274.56 209.72 281.51 209.67 283.14 209.23 285.95 209.27"/>
        <polyline class="cls-7" points="286.59 209.58 286.59 211.86 286.65 212.44 286.87 213.16 286.87 214.15 287.2 217.52 288.07 222.06 289.48 230.37 289.62 231.32 289.58 232.09 289.97 235.26 290.03 241.97 289.87 243.13 289.85 245.23 289.68 245.73 289.72 246.56 289.67 247.73 289.56 248.08 289.57 250.4 289.42 251.49 289.44 252.75 289.26 253.19 289.31 253.69 288.96 254.71 288.98 255.45 288.94 255.4 288.32 255.77 287.7 255.75 287.19 255.86 286.68 256.12 286.26 256.13 285.52 256.38 281.08 256.82 277.77 256.94 265.19 256.92 263.79 256.59 263.05 256.65 260.79 256.4 259.89 256.43 259.35 256.26 258.78 256.28 256.5 255.71 255.58 255.28 254.14 254.91 253.32 254.47 252.56 254.24 252.2 254.28 251.82 254.02 251.62 254.04 251.06 253.75 249.92 253.66 249.43 253.92 249.04 254.46"/>
        <polyline class="cls-9" points="130.95 223.16 130.46 224.21 129.87 226.09 129.6 227.4 129.45 229.17 129.08 230.3 129.13 232.98 129.48 233.83 129.89 234.6 130.71 234.99 133.81 234.9 134.64 234.69 137.16 234.72 136.8 234.51"/>
        <polyline class="cls-9" points="141.87 232.67 140.88 233.12 139.81 234.09 138.97 235.35 138.7 236.6 138.74 238.15 139.42 239.67 139.94 240.13 140.31 240.26 140.84 240.2 141.72 239.81 142.76 238.25 143.33 236.14 143.27 235.31 142.78 234 141.81 232.98 140.71 232.54 139.27 233.7 139.31 234.25 139.43 234.37"/>
        <polyline class="cls-9" points="184.51 225.42 183.93 226.44 183.75 227.11 183.79 227.7 183.66 228.14 183.68 230.94 183.4 231.99 183.42 232.45 183.24 233.16 183.27 234.85 183.44 235.29 183.47 235.75 183.76 236.35 184.36 236.63 185.29 236.59 186.99 235.97 187.72 235.81 190.02 235.75 190.39 235.94"/>
        <polyline class="cls-9" points="193.38 238.85 193.67 237.73 195.16 235.47 195.33 235.02 195.51 234.9 195.69 234.94 196.41 237.1 196.5 240.51 196.62 241.18 196.6 244.85 196.78 245.41 197.02 245.6"/>
        <polyline class="cls-9" points="337.48 223.89 337.89 225.69 337.94 227.66 337.92 229.1 337.37 231.72 337.43 232.78 337.21 234.26 337.24 237.03 337.35 237.16 337.44 237.66 337.69 237.89 338.22 238.12 339.34 238.07 342.7 237.36 344.3 236.96 345.06 236.64 345.69 236.74"/>
        <polyline class="cls-9" points="349.8 235.34 349.91 234.8 350.14 234.55 350.53 234.28 351.26 234.12 351.9 233.83 352.24 233.88 352.53 234.09 352.96 234.95 352.93 235.23 352.49 236.46 351.89 237.59 350.34 239.54 349.85 240.61 349 241.54 348.8 242.14 349.14 242.6 350.21 243.11 352.26 243.61 353.24 244.13 354.14 244.11 355.65 244.55"/>
        <polyline class="cls-9" points="144.85 246.83 143.44 248.15 142.51 248.57 141.91 248.67 141.26 248.97 139.84 248.97 139.74 248.87 138.94 248.83 138.37 248.57 137.81 248.62 137.17 248.57 136.78 248.43 135.97 248.44 135.43 248.16 134.92 248.22 134.5 247.99 133.46 247.99 133.38 247.88 132.74 247.65 131.37 247.59 130.71 247.44 130.56 247.33 129.68 247.36 129.07 247.27 128.5 247.01 128.22 246.99 126.93 246.34 126.64 246.38 126.38 246.22 125.92 246.13 124.02 245.19 123.72 244.87 123.61 244.58 122.91 244.02 122.69 243.71 121.39 243.04 121.24 242.86 118.33 237.23 117.78 235.76 116.95 233.97 116.77 233.32 116.82 232.67 116.71 232.41 116.71 231.87 116.39 231.06 116.4 230.22 116.29 230.05 116.26 228.95 116.14 228.67 116.17 225.35 116.4 224.68 116.38 224.41 116.53 224.01 116.5 223.6 116.77 223.05 116.73 222.81 117.68 220.92 118.65 219.99 118.99 219.49 120.99 217.53 123 216.19 124.3 215.56 129.64 213.96 130.17 213.83 134.18 213.87 135.95 214.48 136.71 214.84 137.43 215.5 138.29 215.98 138.96 216.51 139.24 216.59 140.57 217.84 140.84 217.98 142.04 219.37 142.5 219.62 142.84 220.12 143.43 220.71 143.72 221.25 144.12 221.59 144.89 223.22 145.59 224.19 145.86 224.41 146.36 225.47 146.69 226.66 147.42 228.6 149.3 232.22 149.37 232.68 149.9 233.84 150.54 235.74 150.66 236.69 150.97 237.32 151.17 238.2 151.36 239.33 151.33 242.13 150.95 243.15 150.91 244.31 150.6 245.21 150.63 245.5 149.63 247.54 148.48 248.61 148.2 249 147.18 249.86 146.9 250.04 146.02 250.25 144.86 250.21 143.52 249.73 142.45 249.05 142.17 248.67"/>
        <polyline class="cls-9" points="181.8 217.99 179.08 216.63 178.45 216.69 175.78 218.12 174.12 219.58 174.1 219.78 172.84 220.96 172.61 221.41 172.22 221.86 171.85 222.39 171.41 223.43 171.45 223.69 171.05 224.82 171.05 225.74 170.87 226.14 170.7 227.21 170.63 228.83 170.51 229.23 170.54 234.63 170.72 235.11 170.67 235.74 171.01 236.55 171.72 239.01 172.88 242.45 173.66 243.92 174.08 245.05 175.37 246.91 175.81 247.36 177.02 248.08 178.35 249.37 179.97 250.13 180.42 250.63 180.93 250.79 182.58 251.6 184.28 252.23 184.92 252.34 185.48 252.32 185.88 252.48 188.88 252.45 189.28 252.62 191.88 252.63 193.12 252.37 193.8 252.36 195.86 251.65 196.42 251.24 198.17 250.57 198.77 250.17 200.64 249.28 201.01 248.94 201.65 248.67 202.11 248.33 202.57 247.85 202.93 247.72 203.61 246.97 203.75 246.62 204.02 246.33 204.41 245.51 204.64 244.69 205.51 243.67 205.65 242.89 206.12 241.59 206.1 234.91 205.84 233.97 205.32 232.94 205.19 232.08 204.59 229.81 203.77 227.17 203.51 227.22 203.18 226.86 200.97 223.56 200.42 223.08 199.86 222.2 198 220.7 196.33 219.67 195.56 219.46 194.86 219.04 193.07 218.51 191.27 217.84 190.68 217.53 190.3 217.58 189.44 217.2 189.26 217.23 188.98 217.1 188.54 217.13 187.72 216.8 186.22 216.68 185.81 216.51 184.97 216.55 183.97 216.4 182.26 216.41 182.11 216.52 181.74 216.52 181.47 216.67 181.25 216.66 179.98 217.07 179.64 217.31"/>
        <polyline class="cls-9" points="342.44 217.91 341.82 217.52 341.16 216.89 338.94 215.83 337.21 215.83 335.54 216.73 334.25 217.69 333.78 217.84 331.13 220.43 330.99 220.93 330.43 221.36 329.65 222.54 328.78 224.94 328.43 225.47 327.8 227.47 327.47 228.02 327.31 228.72 327.03 229.33 327.04 230.4 326.86 230.67 326.85 237.63 326.97 237.97 327.04 239.45 327.36 240.39 327.46 241.79 327.78 242.64 327.73 243.12 327.94 243.89 328.41 245.21 330.89 248.92 332.06 249.95 333.72 251.2 334.15 251.65 335.68 252.44 340.04 253.97 340.78 254.04 342.01 254.38 342.57 254.33 343.17 254.55 343.63 254.52 344.55 254.72 345.31 254.68 345.73 254.8 348.23 254.78 348.59 254.89 349.72 254.91 349.99 255.02 354.78 255.04 355.06 254.93 355.48 254.94 356.12 254.68 357.04 254.59 357.6 254.27 357.77 254.3 358.56 254 360.14 253.22 360.42 252.76 361.27 251.83 361.53 251.21 361.84 250.85 363.38 247.44 363.84 245.93 363.85 244.13 363.53 243.33 363.58 242.35 363.45 241.95 363.48 239.56 363.28 238.61 363.29 238.07 363.18 237.88 363.2 235.71 363.08 235.44 363.11 234.68 362.89 234.23 362.72 233.02 362.48 232.37 360.76 228.76 357.32 223.78 355.57 221.89 354.47 220.88 354.19 220.78 354.02 220.6 351.42 219.25 350.29 218.92 349.23 218.38 348.07 218.02 346.38 217.17 345.69 216.94 344.7 216.9 344.42 216.74 343.76 216.66 343.31 216.41 343.02 216.45 342.76 216.29 341.75 216.33 340.62 216.65 339.54 217.14 338.84 217.72 338.47 218.25"/>
        <polyline class="cls-6" points="89.01 229.76 90.81 229.34 92.11 229.22 93.36 229.23 93.84 229.34 95.09 229.89 95.44 229.85 96 230.07 96.45 230.03 97.26 230.38 98.55 230.35 99.12 230.45 99.76 230.8 100.26 230.79 100.45 230.95 100.86 231.04 102.88 231.1 103.06 231.21 103.62 231.19 103.8 231.3 104.94 231.28 105.34 231.38 107.98 231.51"/>
        <polyline class="cls-6" points="104.88 225.38 106.66 225.44 108.4 226.19 108.76 226.6 109.54 227.12 110.05 227.67 110.97 229.54 110.97 231.89 110.33 233.38 109.92 233.7 108.73 235.23 106.89 237 105.88 237.39 104.41 237.4 104.21 237.25"/>
        <polyline class="cls-6" points="155.8 232.5 157.22 232.86 158.44 233.33 162.49 233.34 162.63 233.44 162.84 233.42 164.11 234.08 164.98 233.99 165.62 233.64"/>
        <polyline class="cls-6" points="163.85 229.23 165.21 229.49 166.63 230.12 166.82 230.47 167.04 230.55 167.78 232.04 167.73 233.11 167.19 234.27 166.57 234.81 165.95 235.69 165.34 236.24 164.49 236.81 163.7 237.63 161.85 238.42"/>
        <polyline class="cls-6" points="211.93 235.3 213 235.35 213.91 235.64 214.27 235.61 214.75 235.83 215.13 235.8 215.72 236 217.08 236.06 217.37 236.18 219.32 236.1 219.55 235.99 220.28 236.02 220.6 235.91 224.01 235.88 224.97 235.57 225.32 235.62 226.15 235.42 229.61 235.35 230.89 235.26 231.18 235.15 238.69 235.17 238.94 235.28 241.36 235.31"/>
        <polyline class="cls-6" points="241.33 231.37 242.36 232.16 242.85 232.75 243.98 233.42 244.73 234.32 245.68 236.06 245.64 237.26 245.22 238.22 243.6 239.31 240.14 240.99 238.86 241.02"/>
        <line class="cls-6" x1="297.05" y1="234.78" x2="315.05" y2="234.81"/>
        <polyline class="cls-6" points="315.98 229.09 319.91 231.01 320.29 231.37 321.15 231.91 322.1 232.88 322.81 234.66 322.86 235.09 322.85 235.79 322.32 237.01 321.47 238.2 320.47 239.18 318.49 240.44 316.91 240.87 315.96 240.84"/>
        <polyline class="cls-6" points="371.34 236.23 371.2 236.17 372.08 236.02 373.02 236.01 373.66 235.85 380.46 235.88 381.33 235.78 383.93 235.79 384.58 235.94 385.63 235.93"/>
        <polyline class="cls-6" points="388.68 229.98 391.28 231.73 392.2 232.62 392.85 233.45 394 236.87 393.95 237.43 393.27 239.1 392.62 239.98 391.74 240.56 390.29 241.2 387.67 242.06 385.38 242.14 385.05 241.91 385.18 241.87"/>
        <polyline class="cls-7" points="214.81 42.56 213.37 42.18 212.81 42.25 211.62 42.73 209.19 44.38 208.52 45.09 207.86 46.09 207.7 46.57 207.73 47.49 207.79 47.73 208.29 48.53 210.13 49.6 211.7 49.85 213.41 49.78 215.62 49.31 216.26 49.4"/>
        <polyline class="cls-7" points="221.67 34.23 221.19 34.91 219.36 38.53 218.82 41.55 218.86 43.2 218.74 43.92 218.71 47.12 219.08 47.82 219.03 48.06 219.33 48.58 219.96 48.89 220.55 48.83 222.11 48.36 224.04 47.44 224.44 46.91"/>
        <polyline class="cls-7" points="227.87 35.93 227.35 37.2 226.29 41.31 225.78 42.58 225.68 43.41 225.39 44.27 225.06 46.2 225.1 49.02 225.51 49.02 225.87 48.84 226.64 48.16 228.31 46.98 229.55 45.31 230.11 44.95 231.03 44.02 231.46 43.83"/>
        <polyline class="cls-7" points="227.14 47.64 228.11 48.99 230.43 50.5 230.98 50.57 233.27 51.33"/>
        <polyline class="cls-7" points="215.31 66.65 214.19 65.48 212.74 64.84 211.64 64.99 210.44 65.59 210.31 66 209.47 66.86 208.8 68.12 208.61 68.88 208.65 69.78 209.57 70.69 210.72 71.4 211.12 71.61 212.46 71.93 214.29 71.83 215.03 71.62 216.72 71.63 217.05 71.83 218.12 71.81"/>
        <polyline class="cls-7" points="220.65 59.42 220.3 60.59 220.36 62.5 220.25 62.84 220.27 65.66 220.15 66.12 220.19 68.13 220.41 70.12 220.76 69.63 222.25 68.23 222.32 68.05 223.81 66.49 224.95 66.14 225.87 66.18 226.94 66.7 227.27 67.1 228.09 69.25 228.04 70.54 227.34 72.01 226.41 72.56 224.78 73.06 223.53 73 219.54 73.1 219.49 72.61"/>
        <polyline class="cls-7" points="162.38 124.55 161.34 124.26 160.97 124.01 160.48 124.07 158.36 125.06 157.8 125.59 157.7 125.57 157.41 125.99 155.9 127.54 155.12 129.23 155.15 130.4 155.97 131.92 156.58 132.35 157.39 132.55 160.01 132.54 160.72 132.26 160.99 132.29 161.81 132.01 162.24 132.05 163.24 131.57 163.89 131.45 164.16 131.3 165.07 131.21"/>
        <polyline class="cls-7" points="168.86 117.89 168.85 119.55 168.61 120.2 168.33 121.92 168.37 122.47 168.06 124.16 168.11 125.22 168 125.7 168.02 128.1 168.18 128.6 168.17 128.53 168.68 128.33 171.14 125.98 171.83 125.59 172.93 125.22 173.22 125.24 173.85 125.6 175.14 126.87 175.69 128.03 175.63 128.56 175.09 129.63 173.85 130.84 171.77 131.36 170.22 131.33 168.62 130.63 168.68 130.41"/>
        <polyline class="cls-7" points="328.62 125.22 327.73 124.68 326.5 124.2 324.94 124.34 322.72 125.35 322.17 125.95 321.57 127.91 321.63 129 321.73 129.37 321.94 129.72 322.73 130.27 324.09 130.61 326.03 130.58 328.33 129.85 329.63 129.07 330.33 128.73 330.43 128.84"/>
        <polyline class="cls-7" points="335.23 117.31 334.87 118.27 334.45 120.1 333.79 123.69 333.3 126.8 333.33 128.25 334.04 127.56 334.31 127.13 335.45 126.07 335.68 125.67 336.26 125.13 336.83 124.33 337.47 123.76 338.16 123.43 338.71 123.49 339.35 123.89 340.73 125.22 341.47 127.03 341.43 127.44 340.88 128.76 339.99 129.63 339.82 129.92 337.84 131.16 337.15 131.38 336.19 131.32 335.18 130.9 333.95 130 333.42 129.45 333.21 129.06 332.82 128.86"/>
        <polyline class="cls-10" points="222.01 51.41 221.69 52.4 221.76 53.22 221.64 53.35 221.64 53.69 221.09 54.52 221.53 55.32 221.45 55.86 221.53 56.44 221.53 57.27 221.17 57.67 221.26 57.66 221.2 57.96 221.07 57.74 221.08 57.48 221.49 56.82"/>
        <polyline class="cls-9" points="222.96 56.8 222.65 55.88 222.15 55.08 221.6 54.71 221.01 54.52 219.58 53.81 217.69 53.85 217.54 53.96 215.32 54.57 214.76 54.85 213.17 55.28 212.15 55.86 210.91 56.16 210.08 56.83 208.69 57.56 208.02 58.27 207.55 58.54 206.68 59.31 203.04 62.92 202.49 63.91 201.94 64.49 201.03 66.54 201.06 68.59 201.3 68.9 201.48 69.57 202.76 71.22 203.95 72.34 204.29 72.55 205.61 73.14 207.55 73.81 209.05 74.21 213.15 75.75 219.76 77.52 220.63 77.58 221.82 77.81 224.58 77.79 225.44 77.56 227.63 77.56 230.14 76.85 231.29 76.22 234.55 73.9 235.24 73.19 236.14 71.56 236.72 70.91 237.08 69.89 237.09 67.09 236.41 64.75 235.91 64.17 235.1 63.57 233.88 61.97 232.87 61.06 230.85 59.62 229.52 59.09 226.8 58.23 225.77 57.92 224.2 57.65 221.93 56.87 220.47 56.58 220.11 56.27 218.85 55.91 218.53 55.72"/>
        <polyline class="cls-9" points="171.25 111.67 170.34 110.68 168.98 110.08 164.52 110.03 163.83 110.31 162.81 110.35 158.83 111.49 156.53 112.33 153.64 114.12 151.89 115.35 151.33 115.88 150.51 116.95 149.4 117.76 149.18 118.2 148.35 119 147.93 120 147.64 120.29 146.83 122.41 146.32 123.34 145.91 124.6 145.9 125.13 145.75 125.66 145.77 127.63 146.06 128.3 146.07 128.7 147.61 132.15 148.73 133.99 150.88 135.23 153.95 136.29 156.75 137.05 157.67 137.28 158.8 137.33 159.45 137.59 161.56 138.12 164.49 138.08 167.86 137.23 169.53 136.47 170.63 136.26 173.35 134.91 174.27 134.07 176.03 133.13 176.8 132.48 177.41 132.19 179.87 129.93 181.03 128.38 181.43 127.99 182.7 125.31 183.87 121.1 183.66 119 183.13 117.16 182.82 116.91 181.62 115.13 180.87 114.46 179.31 113.6 177.87 113.08 170.23 111.78 164.87 111.77 164.84 112.02"/>
        <polyline class="cls-9" points="338.13 113.91 337.94 113.04 337.65 112.55 335.27 111.37 334.81 111.24 330.63 111.28 327.89 111.91 326.25 112.5 324.89 112.81 323.97 113.27 321.9 114.05 321.16 114.58 320.43 114.91 319.62 115.56 318.85 116.02 317.94 117.04 315.92 118.57 314.93 119.68 314.2 120.31 313.28 121.52 311.97 122.71 310.38 124.51 309.58 126.1 309.53 128.16 310.01 129.12 311.92 130.7 313.55 131.56 314.28 131.79 314.98 132.21 317.15 132.76 317.58 133.24 317.95 133.49 319.25 133.73 325.36 135.49 327.87 135.92 330.79 135.89 331.26 135.78 331.95 135.79 333.56 135.44 334.94 135.23 335.35 135.25 336.71 134.9 338.52 134.82 340.64 134.33 341.74 134.33 342.48 134.11 342.84 134.12 343.65 133.93 344.35 133.97 348.22 132.72 349.84 131.87 351.12 130.58 351.8 129.2 352.12 128.12 352.09 125.66 351.35 123.66 350.7 122.55 348.96 120.08 347.1 118.68 346.26 117.81 344.71 116.55 343.6 115.87 343.33 115.51 341.98 114.38 341.29 113.59 340.68 113.3 339.13 112.27 337.16 111.6 336.28 111.15 335.12 110.38 334.44 110.17 333.39 109.64 332.58 109.8 332.19 110.25 332.12 110.47"/>
        <polyline class="cls-10" points="215.26 78.5 215.3 78.57 214.14 79.3 211.68 81.76 210.85 82.32 209.94 83.24 208.97 83.86 207.91 84.93 207.31 85.29 205.15 87.39 203.89 88.27 203.45 88.74 201.2 90.6 200.57 91.01 198.44 93.06 197.99 93.33 195.9 95.3 194.9 96.38 193.54 97.53 191.18 99.9 189.1 101.68 187.28 103.51 186.91 104.1 185.73 105.08 184.96 105.55 182.59 107.93 182.44 108.2 181.94 108.58 181.79 108.86 180.98 109.58 180.6 110.12 177.49 113.07 177.13 113.16 177.28 113.15 177.59 112.92"/>
        <polyline class="cls-10" points="214.85 77.9 215.37 78.89 215.83 79.26 215.94 79.59 216.49 80.25 216.96 80.74 217.57 81.18 217.71 81.44 217.92 81.51 218.07 81.83 218.35 81.97 218.52 82.38 219.13 82.98 219.37 83.36 219.76 83.6 220.7 84.53 221.15 84.63 221.97 85.01 222.33 85.43 223.04 85.67 224.59 86.45 225.69 87.61 226.31 87.82 227.11 88.31 227.75 88.56 229.14 89.44 231.57 90.6 232.11 90.71 233.55 91.36 235.87 92.16 238.32 93.5 239.09 94.03 240.77 94.8 243.32 96.24 246.1 97.57 247.72 98.07 249.07 98.77 249.98 99.01 251.57 99.62 252.26 99.72 256.75 101.74 261.84 102.98 263.37 103.82 263.66 103.89 264.17 104.25 264.81 104.46 265.05 104.64 265.98 104.89 266.96 105.5 267.58 105.65 268.33 106.06 269.16 106.28 270.28 106.86 270.65 106.86 271.2 107.19 273.54 108.22 274.36 108.39 274.75 108.64 274.97 108.63 275.97 108.99 276.44 108.96 277.12 109.33 277.4 109.29 277.95 109.42 278.08 109.53 277.97 109.68 278.35 109.75 279.52 110.32 280.27 110.5 281.1 110.47 281.72 110.74 282.3 110.74 282.69 111.07 283.41 111.39 283.67 111.38 284.73 111.71 285.4 111.68 285.64 111.85 286.78 111.82 287.19 112.07 288.31 112.42 289.96 112.53 290.87 112.78 291.75 112.8 292.74 113.03 295.79 113.07 296.05 113.24 297.68 113.48 298.17 113.79 298.73 113.73 299.51 113.98 300.47 113.96 300.93 114.18 301.21 114.15 301.64 114.35 301.92 114.32 303.04 114.9 303.36 114.91 303.84 115.16 304.01 115.14 307 116.57 307.5 117.04 308.19 117.37 308.29 117.56 308.82 118.01"/>
        <polyline class="cls-10" points="348.53 137.28 349.81 138.35 351.72 139.56 352.59 140.35 354.84 141.86 356.86 143.03 357.62 143.7 359.33 145.54 360.78 146.44 363.64 147.91 364.53 148.57 366.48 149.66 367.33 150.32 370.32 151.87 371.59 152.36 372.85 153.22 376.38 154.74 377.68 155.54 379.2 156.78 382.74 158.49 384.8 159.37 386.41 160.28 387.57 160.81 390 162.65 390.87 163.15 391.8 163.88 392.58 164.26 393.66 165.14 394.62 165.68 395.76 166.55 397.76 167.87 398.45 168.52 400.76 169.67 401.68 170.4 402.29 171.08 402.87 171.39 403.68 172.28 404.1 172.51 404.96 173.34 405.91 174.07 406.5 174.37 407.27 175.2 407.74 175.86 408.29 176.4 408.59 176.91 408.88 177.88 409.32 178.54 410.5 181.83 410.45 182.26 411.5 186.01 411.51 187.39 411.68 188.19 411.64 189.13 411.94 190.06 411.92 190.55 412.09 190.89 412.07 191.44 412.23 192.2 412.62 192.92 412.57 193.19 412.93 194.18 412.89 194.51 413.06 194.88 413.07 197.8 412.8 198.73 412.76 200.34 412.64 200.69 412.67 201.63 412.33 202.26 412.13 203.05 412.06 204.8 411.94 205.07 411.98 205.83 411.97 205.72 412.09 205.75"/>
        <polyline class="cls-10" points="175.48 134.99 177.41 135.5 178.09 136.08 180.2 137.24 181.66 138.21 184.54 138.85 185.39 139.37 186.93 139.95 190.66 141.91 191.07 141.98 191.71 142.36 192.43 142.54 192.83 142.84 194.72 143.58 195.14 143.88 196.33 144.36 197.23 145.07 199.45 146.48 202.56 147.51 203.37 147.69 204.17 148.07 204.79 148.18 207.11 149.2 208.27 149.56 209.82 150.36 210.32 150.45 211.63 151.08 212 151.15 215.47 152.57 217.33 153.49 217.75 153.75 218.89 154.88 219.9 155.47 221.54 156.63 223 157.18 225.56 158.54 229.05 161.28 230.89 163.09 231.57 163.63 233.83 165.12 235.48 166.41 236.21 166.79 237.61 167.77 238.33 168.48 239.06 168.99 239.64 169.65 241.13 170.78 242.99 172.56 244.24 174.1 245.43 174.92 246.56 176.16 248.65 178.18 249.36 178.58 250 179.2 250.33 179.88 250.78 180.25 251.31 180.95 252.25 182.7 255.11 186.76 255.47 187.46 257.91 190.49 258.42 192.08 260.17 195.51 260.12 195.86 260.22 196.41 260.44 196.86 260.44 197.48 260.61 197.84 260.82 200.15 261.09 200.6 261.05 201.05 261.32 201.51 261.37 202.01 262.09 203.37 262.24 204.97 262.58 205.53 262.55 205.41 262.8 205.01"/>
        <polyline class="cls-10" points="145.33 133.99 143.66 133.6 142.9 133.68 139.32 134.6 138.19 135.19 136.36 135.79 134.17 137.1 131.57 138.17 131.22 138.46 129.16 139.55 125.92 141.61 125.23 142.2 124.56 142.56 123.59 143.31 122.37 144.47 118.39 147.35 115.47 149.91 112.69 151.91 112.13 152.46 111.43 152.86 110.46 153.81 109.39 154.58 108.45 155.11 107.17 156.41 105.23 157.77 101.83 160.5 100.19 162.11 98.14 163.5 94.87 166.21 93.71 166.94 93.35 167.39 91.78 168.8 90.43 169.69 88.88 171.08 88.27 171.45 87.56 172.3 86.03 173.66 84.8 174.93 84.43 175.05 83.62 175.77 82.36 176.67 80.76 178.32 80.05 178.88 79.81 179.43 79.44 179.81 79.11 180.41 77.92 181.23 77.66 181.51 77.29 182.18 76.62 183.02 76.37 183.13 76.21 183.57 75.76 183.97 75.68 184.31 75.2 184.95 74.92 185.08 74.71 185.4 74.35 185.69 74.26 186.01 74.04 186.01 73.78 186.27 73.67 186.65 73.03 187.28 72.96 187.53 72.64 187.62 72.46 187.95 71.59 188.81 71.57 188.96 69.76 190.65 69.25 190.8 68.96 191.48 68.65 191.65 68.38 192.17 67.96 192.47 67.91 192.71 67.58 193.09 66.48 195.17 65.79 195.69 65.65 196.19 64.34 198.72 64.33 199.37 64.08 199.85 64.09 200.12 63.88 200.42 63.85 200.75 63.7 200.94 63.73 201.22 63.57 201.58 63.6 202.12 63.49 202.25 63.41 203.66 63.26 203.95 63.17 206.08"/>
        <polyline class="cls-7" points="239.32 50.94 240 49.67 240 49.38 240.45 48.47 240.52 47.64 240.67 47.36 240.65 46.84 240.76 46.33 240.91 46.1 240.87 45.59 241.12 44.58 241.29 42.74 241.46 42.36 241.47 41.18 241.63 40.44 241.67 36.31"/>
        <polyline class="cls-7" points="235.68 37.76 236.57 37.17 237.09 36.49 237.64 36.21 239.35 34.7 240.15 33.54 241.2 32.4 241.86 31.98 242.71 31.68 243.03 31.95 243.27 32.35 244.82 35.41 244.78 35.73 244.89 35.9 244.93 36.36 245.04 36.46 245.01 36.69 245.44 38.25 245.42 38.88 245.55 39.03 245.57 39.76 245.82 40.2 245.93 39.93"/>
        <polyline class="cls-7" points="250.52 34.57 251.37 34.49 251.85 34.18 252.26 34.14 252.99 33.79 254.02 33.59 258.61 31.42 259.71 30.97 260.53 30.88 261.93 30.17 262.43 30.12 262.83 29.9 263.65 29.95 263.95 29.83 264.31 29.85 264.69 29.69 264.92 29.72 265.34 29.56 267.3 29.54 267.58 29.37 268.03 29.41 268.68 29.32 269.05 29.09 269.5 29.15 272.18 28.95 274.47 28.92 274.93 28.7 277.54 28.65 278 28.75 278.22 28.91 278.69 28.88 278.85 28.98 281.59 29.01 282.39 29.25 283.29 29.33 283.57 29.52 283.99 29.54 284.31 29.69 284.68 29.68 285.13 29.87 285.82 29.9 286.42 30.19 287.04 30.26 287.26 30.41 288.25 30.57 288.33 30.67 289.6 30.66 289.98 30.7 290.1 30.81 291.25 30.84 292.74 31.53 292.88 31.81"/>
        <polyline class="cls-7" points="290.16 26.54 291.57 27.64 293.23 28.7 293.91 28.86 295.06 29.7 296.14 30.66 296.86 32.09 296.8 32.71 296.43 33.53 296.05 33.74 295.46 34.33 293.96 35.2 293.34 35.39 292.4 35.88 291.94 35.92"/>
        <polyline class="cls-7" points="315.57 38.02 314.04 37.65 313.1 38.24 310.46 40.71 309.45 43.39 309.49 44.8 310.1 45.84 311.05 46.57 312.26 46.95 313.49 46.91 314.05 46.69 314.45 46.67 316.01 46.07 316.24 46.12 316.73 46.01 317.13 45.79"/>
        <polyline class="cls-7" points="323.02 31.49 322.54 32.13 322.15 32.95 321.64 33.69 320.68 37.62 320.71 41.06 320.89 41.45 320.87 41.8 321.06 42.47 321.88 44 322.21 44.14 323.05 44.04"/>
        <line class="cls-7" x1="328.92" y1="38.38" x2="327.01" y2="38.38"/>
        <polyline class="cls-7" points="328.82 30.96 328.38 31.65 327.75 33.18 327.29 35.5 327.34 37.66 327.32 39.86 327.21 40.62 327.23 45.21 329.17 43.34 332.61 38.84 332.98 38.47 333.26 37.8"/>
        <polyline class="cls-7" points="329.04 40.36 328.39 41.56 328.32 41.9 328.4 42.7 329.07 44.16 330.22 45.5 332.33 47.54 333.18 47.88 333.46 47.85 334.03 47.54"/>
        <polyline class="cls-7" points="341.55 32.17 341.53 33.8 341.72 35.97 341.8 38.46 341.85 38.89 342.27 39.73 342.21 40.07 342.44 40.62 342.39 41.13 342.51 41.49 342.54 45.68 343.34 44.93 343.45 44.59"/>
        <polyline class="cls-7" points="339.99 44.19 340.2 45.16 340.6 45.82 340.58 46.01 340.94 46.65 340.91 46.82 341.58 48.28 342.37 49.31 343.04 50.62 343.68 51.04 343.92 51.05 344.99 50.46 345.85 49.64 346.25 49 346.82 48.43 347.28 47.76 348.05 46.2 348.73 45.88"/>
        <polyline class="cls-7" points="302.19 51.25 300.43 52.32 299.96 52.85 298.01 53.75 297.46 53.82 297.2 53.96 296.59 53.92"/>
        <polyline class="cls-7" points="289.56 53.95 287.84 54.55 285.28 54.51 284.91 54.45 284.36 54.14 284.17 54.17 282.89 53.53"/>
        <polyline class="cls-7" points="268.96 54.88 268.74 54.86 267.67 55.25 267.12 55.16 264.72 55.12 263.57 54.77 262.71 54.33 262.44 54.02 262.39 53.79"/>
        <polyline class="cls-7" points="253.32 54.6 252.5 54.47 250.9 54.51 250.64 54.33 250.33 54.35 249.8 54.06 249.41 54.05 248.12 53.35"/>
        <polyline class="cls-7" points="247.16 49.24 245.7 50.11 243.87 51.87 243.6 52.5 243.42 53.44 243.45 55.07 243.89 56.82 244.42 57.76 245.49 58.13 246.89 58.08 247.69 58.2"/>
        <polyline class="cls-7" points="280.42 49.89 279.61 52.18 279.12 53.11 277.18 58.07 275.25 62.29 275.45 61.79 275.86 59.97 276.55 58.4 276.91 57.28 277.51 56.2 278.49 54.87 280.49 50.53 282.41 47.28 282.64 46.64 283.09 45.84 282.4 46.81 282.05 47.56 281.18 48.72 281.02 49.31 277.74 55.23 274.75 61.95 273.96 64.01 273.52 64.62 273.29 65.16 277.51 55.68 278.47 54.24 280.5 49.56 281.41 46.98 281.66 46.61 281.66 46.31 281.6 46.42"/>
        <polyline class="cls-7" points="230.66 227.21 230.57 227.29 230.64 227.24 229.57 225.84 229.23 224.56 229.25 221.99 229.43 219.66 229.81 218.7 229.74 218.29 229.86 217.96 229.84 217.48 229.95 217.38 230.09 216.49 230.43 215.54 230.45 215.2 230.61 214.93 230.59 214.63 230.93 214.39 231.49 213.16 231.5 212.74 231.73 212.33 231.7 212.06 231.9 211.55 231.96 210.88 232.42 209.84 232.37 209.48 232.6 209.14 232.85 207.75 234.39 204.71 234.53 204.62 234.64 204.3 235.2 203.85 236.56 201.8 237.2 201.24 237.55 200.73 237.85 200.57 238.09 200.14 238.68 199.72 238.81 199.46 239.03 199.42 239.3 199.09 239.5 199.05 239.75 198.73 240.6 198.34 241.42 197.72 243.68 196.78 244.22 196.7 244.6 196.51 247.22 196.49"/>
        <polyline class="cls-7" points="244.99 192.24 246.5 192.64 247.36 192.7 248.18 193.01 248.41 192.99 248.97 193.27 249.15 193.25 250.58 193.91 251.14 194.49 251.45 195.12 251.4 195.64 251.11 196.03 250.53 197.2 248.83 198.86 248.41 199.01"/>
        <polyline class="cls-7" points="225.32 223.91 226.22 225.19 227.64 226.5 227.92 226.59 228.37 227.02 229.63 227.55 230.17 227.57 230.83 227.78 231.16 227.74 231.36 227.86 231.87 227.84 232.32 227.57 233.15 225.93 233.39 225.2 233.98 224.1 234.04 223.73 234.62 222.7 234.63 222.01"/>
        <polyline class="cls-7" points="409.48 196.13 407.34 195.15 406.4 195.05 404.08 195.06 403.9 195.18 403.2 195.26 402.83 195.46 402.56 195.78 402.39 195.74 400.27 196.33 397.23 197.83 396.45 198.63 395.79 199.52 395.21 200.06 395.07 200.42 394.37 201.4 394.27 201.69 393.19 202.74 392.97 203.27 392.34 204.08 391.21 206.13 390.94 206.83 389.65 209.26 389.68 209.44 389.37 209.97 389.3 210.34 388.41 212.12 388.43 212.3 388.24 212.74 388.26 213.01 387.94 213.55 387.67 215.2 387.51 215.37 387.54 215.84 387.33 216.59 387.36 217.01 387.12 218.34 387.12 224.85 387.2 224.88 387.22 224.72"/>
        <polyline class="cls-7" points="383.54 223.46 383.62 223.46 383.81 224.43 384.78 226.81 385.46 228.15 385.93 228.38 386.45 228.32 386.82 228.1 387.21 227.59 387.76 227.08 388.57 225.74 389.05 225.13 389.23 224.44 389.64 223.65"/>
        <polyline class="cls-7" points="403.96 193.36 404.76 193.25 405.82 193.28 408.17 194.03 409.03 194.8 409.87 195.33 410.56 196.75 410.51 197.1 410.18 197.65 409.78 198 409.64 198.36 407.67 200.24 406.65 200.67 406.03 200.63"/>
        <polyline class="cls-7" points="153.12 163.4 154.58 162.23 154.95 162.16 155.94 161.65 156.88 161.76"/>
        <polyline class="cls-7" points="166.95 161.8 167.77 161.61 168.28 161.38 168.98 161.44 170.34 162.1 170.7 162.05 170.92 162.15 171.67 162.14 172.89 162.5"/>
        <polyline class="cls-7" points="183.35 169.25 184.27 169.01 184.52 169.05 186.88 170.18 187.07 170.39 188.25 171.03 188.52 171.33 188.81 171.45 189.36 171.97 189.63 172.5"/>
        <polyline class="cls-7" points="195.37 182.73 195.14 183.66 195.19 184.27 195.09 184.36 195.1 184.95 194.98 185.24 195.01 187.02 195.24 187.56"/>
        <polyline class="cls-7" points="184.73 199.17 184.13 199.02 181.15 199.08 180.89 199.2 179.94 199.17"/>
        <polyline class="cls-7" points="166.44 202.7 157.26 202.65 156.7 202.42"/>
        <polyline class="cls-7" points="140.71 203.99 139.49 203.71 139.3 203.74 138.86 203.5 138.58 203.54 138.31 203.38 137.83 203.41 137.57 203.24 136.67 203.28 136.27 203.16 133.42 203.19 132.49 202.66"/>
        <polyline class="cls-7" points="119.47 197.25 117.33 196.63 116.8 196.36 116.42 195.95 114.95 195.28 114.31 194.71 114.08 194.21 114.12 193.52 114.24 193.35"/>
        <polyline class="cls-7" points="115.77 182.84 115.51 182 115.6 180.98 116.32 179.56 116.55 178.84 117.57 177.51 118.11 177.03 119.27 176.57 120.01 176.67"/>
        <polyline class="cls-7" points="126.73 171.87 127.77 171.36 128.14 171.07 129.82 170.54"/>
        <polyline class="cls-7" points="130.55 163.75 132.3 163.34 134.14 163.45 136.93 164.06 137.45 164.37 138.24 165.09 138.56 166.26 138.4 167.02 137.18 169.27 136.21 170.64 134.61 172.64 133.94 173.86 133.95 174.24 134.05 174.29"/>
        <line class="cls-7" x1="81.52" y1="273.55" x2="81.48" y2="273.58"/>
        <polyline class="cls-7" points="81.22 273.83 83.16 273.84 83.51 273.96 90.74 273.93 90.9 274.04"/>
        <polyline class="cls-7" points="104.53 273.75 105.35 273.57 106 273.31 106.42 273.35 106.86 273.19 115.98 273.17 117.29 273.32"/>
        <polyline class="cls-7" points="135.92 274.02 136.74 274.02 137.33 274.14 144.56 274.11"/>
        <polyline class="cls-7" points="166.61 274.6 167.86 274.32 169.5 273.75 169.89 273.66 170.47 273.7 171.39 273.44 172.16 273.48 173.14 273.27 174.22 273.32 176.7 273.22"/>
        <polyline class="cls-7" points="196.44 275.81 197.49 275.18 199.69 274.74 204.92 273.84 206.25 273.9 206.91 273.74"/>
        <polyline class="cls-7" points="222 274.2 222.83 274.02 223.81 274.08 225.85 273.82 231.44 273.76"/>
        <polyline class="cls-7" points="239.08 273.17 239.86 273.35 240.56 273.3 240.72 273.41 241.38 273.39 241.56 273.5 242.72 273.57 242.91 273.68"/>
        <polyline class="cls-7" points="247.14 267.57 248.72 268.7 249.79 269.69 250.24 269.95 250.84 270.58 251.54 272.11 251.49 272.56 250.99 273.72 250.38 274.23 246.21 276.3 245.02 276.65 243.93 277.16 243.64 277.79 243.68 278.15"/>
        <polyline class="cls-8" points="78.14 271.89 79.39 272.18 79.86 272.14 80.18 272.36 80.78 272.32 81.22 272.43 85.28 272.41 85.45 272.52 86.46 272.5 87.21 272.29 87.64 272.32 88.1 272.16 88.64 272.2 89.06 272.09 98.99 272.1 99.27 272.21 99.67 272.19 100.16 272.41 100.96 272.36 101.35 272.47 102.27 272.46 102.8 272.62 104.99 272.68 105.23 272.79 108.46 272.77 111.14 272.92 127.72 272.91 128.49 272.74 129.18 272.77 130.29 272.5 130.88 272.53 131.75 272.33 132.92 272.37 133.61 272.21 146.25 272.28 148.97 272.09 160.82 272.01 161.42 271.89 175.88 271.88 180.12 271.98 184.99 271.96 185.85 272.14 188.52 272.1 191.75 272.39 192.78 272.37 194.17 272.59 195.38 272.54 195.84 272.65 197.32 272.69 206.58 272.72 206.94 272.83 208.06 272.81 208.42 272.92 210.49 273.07 214.66 273.04 215.41 272.87 215.95 272.89 218.03 272.42 218.95 272.35 219.87 272.1 220.78 272.15 221.34 271.98 222.12 272.01 222.67 271.84 223.17 271.87 223.45 271.77 225.38 271.74 225.8 271.57 226.48 271.61 227.05 271.39 227.58 271.43 228.38 271.27 233.34 270.89 242.56 270.89 242.74 271.01 243.22 270.99 243.49 271.15 244.58 271.2 245.06 271.37 245.58 271.35 245.97 271.5 246.69 271.47 246.97 271.58 249.28 271.65 249.69 271.69 250.05 271.89"/>
        <polyline class="cls-11" points="248.32 34.35 248.25 34.31 249.33 33.75 251.23 33.07 252.87 32.97 254.26 32.63 254.53 32.64 257.31 31.69 257.72 31.74 258.67 31.48 258.93 31.5 259.72 31.19 260.28 31.12 260.82 30.93 261.18 30.96 261.5 30.82 261.87 30.84 262.26 30.61 263.17 30.57 263.63 30.29 264.7 30.17 266.06 29.83 266.89 29.76 267.04 29.66 268.72 29.63 268.91 29.52 269.37 29.54 269.83 29.38 271.17 29.36 271.53 29.2 274.5 29.19 274.93 29.07 276.95 29.09 278.34 29.24 285.59 29.32 285.78 29.43 286.23 29.4 286.33 29.51 286.75 29.5 286.94 29.6 288.58 29.72 288.76 29.83 289.32 29.81 290.7 30.19 291.13 30.16 291.42 30.33 292.9 30.35 293.11 30.45 293.45 30.44 293.72 30.64 294.99 30.75 296.06 31.13 297.31 31.39 297.78 31.62 298.22 31.65 301.32 33.18 301.44 33.44 302.01 33.76 302.27 34.11 302.71 34.25 302.79 34.6 303.37 35.24 303.45 35.48 304.18 35.81 304.16 35.95 304.37 36.35 304.55 36.42 304.69 36.73 304.85 36.81 306.27 39.61 306.28 40.34 306.71 41.09 306.74 44.02 306.57 44.18 306.25 44.89 305.96 45.18 305.71 45.77 305.55 45.89 304.78 47.48 304.58 47.7 304.17 47.9 303.96 48.56 302.84 50.84 302.7 50.84 302.35 51.39 301.77 51.76 301.64 52.02 301.19 52.44 300.98 52.47 300.16 53.09 299.8 53.2 299.76 53.38 299.03 53.73 298.64 54.07 298.23 54.2 298.02 54.4 297.32 54.72 296.48 54.77 296.2 54.95 295.29 55.11 294.74 55.41 294.24 55.35 293.88 55.52 293.56 55.5 293.28 55.66 291.56 55.71 291.37 55.83 289.92 55.9 289.36 56.18 288.54 56.43 287.12 56.47 286.7 56.59 284.08 56.56 283.94 56.68 282.69 56.65 282.24 56.77 276.09 56.74 275.45 56.63 269.56 56.65 269.26 56.77 265.51 56.74 264.69 56.54 264.22 56.57 264.05 56.46 261.95 56.3 261.73 56.12 261.41 56.17 260.39 55.92 259.45 55.95 258.61 55.54 258.38 55.59 258.26 55.48 256.49 55.45 255.9 55.4 255.27 55.21 253.26 55.14 252.98 54.98 252.6 55.01 252.13 54.85 251.5 54.87 251.01 54.71 250.19 54.64 249.95 54.47 249.46 54.47 249.08 54.32 247.36 54.2 245.31 53.51 245.02 53.52 244.55 53.31 244.38 53.36 243.49 52.9 243 53.18 242.69 53.68"/>
        <polyline class="cls-5" points="149.81 162.77 151.38 162.28 152.69 162.28 153.79 162.13 155.57 162.1 156.71 162.49 158.8 162.46 159.07 162.34 160.73 162.11 161.23 162.14 161.72 161.92 164.98 161.92 165.69 162.14 166.73 162.25 167.31 162.44 169.71 162.54 169.95 162.66 170.99 162.68 171.62 162.89 173 162.9 173.61 163.13 175.11 163.22 175.81 163.54 177.17 163.96 178.6 164.69 180.39 165.27 182.87 166.47 183.42 167.02 183.89 167.18 184.25 167.52 184.74 167.68 185.46 168.12 186.09 168.66 186.35 168.76 186.6 169.08 187 169.24 187.23 169.72 188.12 170.69 188.43 171.35 188.86 171.85 189.25 172.58 189.64 173.01 189.86 173.49 190.3 173.84 192 176.12 192.44 176.29 192.55 176.62 192.7 176.7 193.3 177.84 193.95 178.69 194.72 180.19 195.07 181.21 195.21 183.38 195.19 184.92 194.66 186.41 194.68 186.67 193.43 189.13 192.63 190.34 191.47 191.43 191.33 191.84 190.85 192.21 190.84 192.36 190.5 192.71 189.54 193.2 189.18 193.58 187.6 194.41 187.28 194.8 186.78 195.14 186.13 195.45 184.93 195.82 182.7 196.91 182.02 197.13 181.43 197.52 180.88 197.63 180.31 197.97 179.84 198.1 178.75 198.31 178.24 198.27 177.83 198.44 176.45 198.54 176.19 198.71 175.61 198.73 174.79 199.03 173.87 199.2 173.44 199.18 172.49 199.48 170.86 199.71 170.79 199.81 170.29 199.79 169.87 199.97 169.76 200.19 169.49 200.28 169.1 200.2 168.48 200.28 168.31 200.4 167.52 200.49 165.86 200.91 165.13 200.85 163.28 201.4 162.76 201.35 162.43 201.46 161.55 201.44 161.28 201.56 160.45 201.53 160.22 201.65 159.45 201.62 159.07 201.74 151.09 201.71 148.92 201.61 141.01 201.62 140.61 201.45 140.03 201.49 139.78 201.33 139.31 201.36 138.95 201.2 137.68 201.14 137.47 201.02 135.76 201.04 135.36 200.93 133.22 200.86 132.94 200.75 132.27 200.78 132.02 200.61 128 200.64 127.73 200.47 127.01 200.41 122.16 198.08 122.06 197.9 121.25 197.47 121.12 197.31 117.21 195.42 116.86 194.74 116.41 194.48 115.72 193.58 115.31 193.23 114.96 192.43 114.63 192.07 113.98 190.77 114.04 190.33 113.92 190.15 113.88 189.34 113.2 188.09 113.2 185.95 113.53 185.41 113.51 185.23 113.8 184.65 113.84 183.85 114.01 183.54 114.08 182.91 114.61 181.66 115.71 179.55 116.81 178.31 117.34 177.82 117.44 177.82 118.31 176.8 118.63 176.58 118.96 175.81 119.29 175.46 119.4 175.47 120.62 174.31 120.87 174.23 121 174.03 121.87 173.58 122.29 173.19 124.15 172.32 126.04 172.15 126.67 171.85 127.84 171.74 128.44 171.39 128.73 171.39 129.84 170.84 130.32 170.75 130.9 170.44 131.17 170.43 131.93 170.01 132.34 170.01 132.87 169.72 133.42 169.64 134.03 169.31 134.49 169.24 135.61 168.69 135.69 168.55 137.06 167.94"/>
        <polyline class="cls-3" points="228.86 228.67 229.04 228.63 228.95 228.66 228.87 228.32 228.3 227.26 228.34 226.84 228.22 226.71 228.24 226.35 227.98 225.72 228.01 224.85 227.89 224.55 227.91 221.9 228.06 220.92 228.43 220.11 228.39 219.97 228.64 219.25 228.8 218.26 229.43 216.99 229.74 216.1 230.85 213.96 231.38 213.67 231.41 213.41 232.37 211.58 233.24 210.56 234.13 209.05 234.29 208.98 234.83 208.14 235.04 208.07 236.13 205.94 236.69 205.37 237.2 204.31 237.41 204.18 237.98 203.19 238.39 202.84 238.54 202.47 238.88 202.12 239.92 200.33 240.61 199.56 240.93 199.05 241.43 198.59 241.53 198.32 241.91 197.87 242.35 197.47 243.58 196.87 243.77 196.61 244.01 196.55 244.15 196.35 244.88 196.02 245.25 195.62 246.59 194.98 248.82 194.73 250.45 194.75"/>
        <polyline class="cls-3" points="386.04 227.4 385.13 226.24 384.9 225.69 384.83 224.51 384.71 224.34 384.77 219.04 385.06 218.6 385.01 218.24 385.29 217.07 385.33 216.24 385.44 215.82 385.75 215.5 387.21 212.61 387.17 212.34 387.32 212.12 387.31 211.72 387.52 211.39 387.73 210.7 388.73 208.77 388.7 208.59 389.05 208.04 389.47 206.98 390 205.98 390.15 205.92 390.76 204.92 391.4 204.36 392.3 203.27 392.56 203.15 393.29 202.22 393.55 201.98 393.66 201.99 393.94 201.48 394.65 200.73 394.78 200.39 395.27 199.97 395.48 199.43 395.76 199.39 396.13 198.99 396.59 198.79 397.1 198.32 400.97 196.48 401.46 196.27 402.11 196.21 402.74 195.91 403.11 195.95 403.58 195.79 409.45 195.82"/>
        <polyline class="cls-2" points="256.29 89.35 256.49 90.61 257.19 91.85 257.63 92.22 258.35 92.54 259.2 92.51 259.68 92.31"/>
        <polyline class="cls-2" points="260.7 89.25 259.03 90.28 257.87 91.36 257.25 92.19 255.86 93.49 255.7 93.77 254.71 94.7 254.85 94.64"/>
        <polyline class="cls-2" points="253.99 91.97 256.27 91.45 259.46 91.4"/>
        <polyline class="cls-2" points="259.65 88.18 259.15 88.87 258.36 90.51 258.21 91.21 257.79 92.26 257.84 93.51 258.19 94.46"/>
        <polyline class="cls-2" points="180.57 88.52 181.33 89.89 182.26 90.93 182.48 91.33 183.47 92.28 184.45 92.96 187.01 95.14"/>
        <polyline class="cls-2" points="186.71 88.58 185.25 90.62 184.08 91.99 183.3 93.48 182.47 94.54 181.88 95.5 181.32 96"/>
        <polyline class="cls-2" points="179.95 91.66 181.71 91.67 184.48 92.38 185.19 92.65 186.4 92.6 186.54 92.49"/>
        <polyline class="cls-2" points="182.58 85.68 181.98 87.36 181.87 88.39 181.92 90.32 182.5 92.7 182.46 94.97 182.58 95.86"/>
        <polyline class="cls-2" points="385.29 147.01 385.57 148.11 386.35 149.29 387.36 149.95 388.28 150.84 389 151.05"/>
        <polyline class="cls-2" points="390.68 147.13 388.65 148.39 386.55 150.38 384.42 152.96 384.11 153.69 382.95 155.3"/>
        <polyline class="cls-2" points="383 150.66 383.84 150.48 387.94 150.53"/>
        <polyline class="cls-2" points="388.57 145.97 387.58 147.03 386.85 148.06 386.46 149.26 385.89 150.56 385.78 151.13 385.85 151.81 386.13 152.59 386.55 152.98"/>
        <polyline class="cls-2" points="373.71 225.85 375.13 227.48 375.94 227.9 376.68 228.68"/>
        <polyline class="cls-2" points="376.71 225.91 375.31 227.74 374.78 228.89 374.39 229.45 374.04 230.46 374.06 230.69"/>
        <polyline class="cls-2" points="373.35 227.62 375.58 228.58 375.82 228.8 376.83 229.08 377.25 229.05 377.68 229.26 377.88 229.23"/>
        <polyline class="cls-2" points="376.66 224.17 376.22 224.87 375.37 227.55 375.4 229.99 375.74 230.61 375.69 230.68"/>
        <polyline class="cls-2" points="305 221.48 306.24 222.66 306.77 223.01 307.37 223.69 309.37 225.02 309.83 225.15"/>
        <polyline class="cls-2" points="311.72 221.68 309.56 223.45 307.96 225.05 307.27 226.13 306.88 226.45 306.54 227.4"/>
        <line class="cls-2" x1="304.96" y1="222.21" x2="308.62" y2="223.38"/>
        <polyline class="cls-2" points="310.61 219.8 309.82 221.3 308.86 224.33 308.91 225.79 309.48 227.71"/>
        <polyline class="cls-2" points="228.07 151.29 229.1 152.25 230.17 152.92 230.66 153.6 231.73 154.47"/>
        <polyline class="cls-2" points="233.78 151.11 232.07 152.47 230.79 153.87 230.46 154.4 229.99 154.81 229.53 155.37 229.55 155.45"/>
        <polyline class="cls-2" points="228.94 150.26 230.18 150.82 230.76 151.27 232.91 152.06"/>
        <polyline class="cls-2" points="232.67 149.01 232.1 149.78 231.63 150.63 231.29 151.71 230.35 153.92 230.09 155.48 230.13 156.6"/>
        <polyline class="cls-2" points="215.47 226.03 216.08 227.26 216.61 227.96 217.72 228.9 218.26 229.22 219.05 230.16 220.19 231.01"/>
        <polyline class="cls-2" points="219.84 225.28 219.4 225.99 218.77 227.63 218.03 228.98 216.93 230.65 216.48 231.86"/>
        <polyline class="cls-2" points="214.74 228.37 218.35 228.29 218.65 228.46 219.08 228.42 219.26 228.52"/>
        <polyline class="cls-2" points="218.74 225.33 218.42 225.68 217.75 227.06 217.64 227.74 217.73 230.19 218.05 231.17 218.05 231.53 218.39 232.17"/>
        <polyline class="cls-2" points="156.05 222.37 157.23 223.95 159.39 226.01 159.51 226.36"/>
        <polyline class="cls-2" points="160.42 221.67 159.05 223.91 158.49 225.46 157.5 227.39 157.56 227.5 156.65 227.97"/>
        <polyline class="cls-2" points="154.58 224.49 156.68 224 157.58 224.06 159.6 224.81"/>
        <polyline class="cls-2" points="158.94 222.51 158.51 223.1 157.79 224.58 157.57 225.6 157.6 227.05 158.06 228.34 158.48 228.86"/>
        <polyline class="cls-2" points="95.31 219.51 96.4 221.03 97.85 222.39 98.26 223.05"/>
        <polyline class="cls-2" points="99.2 218.99 98.71 219.68 97.91 221.43 97.16 222.47 96.52 223.05 96.26 223.69 95.86 223.94 95.63 224.27"/>
        <polyline class="cls-2" points="93.41 220.42 95.26 220.81 96.93 220.87 97.2 220.98 97.62 220.98 98.2 221.2"/>
        <polyline class="cls-2" points="96.63 218.73 97.34 221.93 97.29 222.84 96.83 224.86 96.88 225.51"/>
        <polyline class="cls-2" points="93.13 145.55 93.58 147.92 93.62 152.27 94.09 153"/>
        <polyline class="cls-2" points="98 146.68 97.22 148.05 97.25 148.18 97.95 147.82"/>
        <polyline class="cls-2" points="92.17 144.81 92.32 145.78 92.88 147.88 92.9 152.61"/>
        <polyline class="cls-2" points="90.83 148.96 91.66 148.79 92.42 148.94 96.26 148.92 96.73 149.19"/>
        <line class="cls-2" x1="91.48" y1="144.72" x2="91.46" y2="144.72"/>
        <polyline class="cls-2" points="96.35 145.11 95.29 145.91 94.91 146.31 91.83 148.48 90.93 149.24 89.64 150.57 89.24 150.66 89.91 150.71"/>
        <polyline class="cls-2" points="90.65 147.9 91.46 148.58 93.15 149.22 94.62 149.49 95.14 149.46 96.04 149.67 96.38 149.65 96.55 149.74 97.1 149.73 97.47 149.83 97.7 150.36"/>
      </g>
    </g>
  </g>
</svg>